<svg width="139" height="52" viewBox="0 0 139 52" fill="none" xmlns="http://www.w3.org/2000/svg">
<path d="M142.906 3.12378V31.2721C142.906 41.5221 134.597 49.8314 124.347 49.8314H96.8173" stroke="black" stroke-width="0.618644"/>
<circle cx="40.831" cy="37.7678" r="0.695974" fill="#333333" stroke="white" stroke-width="1.08263"/>
<circle cx="55.0576" cy="37.7678" r="0.695974" fill="#333333" stroke="white" stroke-width="1.08263"/>
<path d="M146 0.64917V20.1365C146 30.3865 137.691 38.6958 127.441 38.6958H98.6737" stroke="white" stroke-width="0.309322"/>
<path d="M64.3438 28.2585H67.8047C73.7204 28.2585 78.5161 33.0542 78.5161 38.9699V49.4076H75.0551C69.1394 49.4076 64.3438 44.612 64.3438 38.6962V28.2585Z" fill="#4AA35C"/>
<path d="M65.4926 26.7968H68.7819C74.5944 26.7968 79.3064 31.5088 79.3064 37.3213V47.5728H76.0171C70.2046 47.5728 65.4926 42.8608 65.4926 37.0483V26.7968Z" stroke="white" stroke-width="0.328893"/>
<path d="M89.0859 28.2588H85.625C79.7093 28.2588 74.9136 33.0544 74.9136 38.9701V49.4078H78.3746C84.2903 49.4078 89.0859 44.6122 89.0859 38.6965V28.2588Z" fill="#EBBE52"/>
<path d="M89.0859 28.2588H85.625C79.7093 28.2588 74.9136 33.0544 74.9136 38.9701V49.4078H78.3746C84.2903 49.4078 89.0859 44.6122 89.0859 38.6965V28.2588Z" fill="#EBBE52"/>
<path d="M90.1455 31.3691H88.7125C82.2581 31.3691 77.0258 36.6015 77.0258 43.0559V51.1945H78.4588C84.9132 51.1945 90.1455 45.9621 90.1455 39.5077V31.3691Z" stroke="white" stroke-width="0.365211"/>
<path d="M34.6406 37.7678H8.87965H-0.00344351" stroke="#222222" stroke-width="0.309322"/>
</svg>
