<svg width="323" height="192" viewBox="0 0 323 192" fill="none" xmlns="http://www.w3.org/2000/svg">
<path d="M312.064 94.933C312.137 103.052 308.083 110.877 300.578 118.082C293.072 125.289 282.148 131.839 268.584 137.391C241.458 148.493 203.875 155.558 162.269 155.931C120.663 156.304 82.9592 149.915 55.6388 139.301C41.9772 133.994 30.9375 127.64 23.3033 120.57C15.6701 113.5 11.4767 105.75 11.4038 97.6305C11.331 89.5111 15.3847 81.6867 22.8898 74.4813C30.3959 67.2749 41.3198 60.7242 54.884 55.1726C82.0096 44.0706 119.593 37.0058 161.199 36.6325C202.805 36.2593 240.508 42.6486 267.829 53.2621C281.49 58.5694 292.53 64.9231 300.164 71.9936C307.797 79.0632 311.991 86.8136 312.064 94.933Z" stroke="#737373" stroke-width="1.02797"/>
<path d="M307.449 59.2947C309.446 67.1648 307.365 75.7277 301.785 84.5084C296.203 93.2902 287.146 102.246 275.287 110.858C251.571 128.081 216.738 143.863 176.409 154.1C136.081 164.336 97.9378 167.077 68.8791 163.251C54.3482 161.338 42.116 157.785 33.0219 152.729C23.9291 147.672 18.0161 141.139 16.0184 133.269C14.0207 125.398 16.1017 116.835 21.6824 108.055C27.2638 99.273 36.321 90.3169 48.1802 81.7048C71.8961 64.4825 106.729 48.7002 147.057 38.4635C187.386 28.2269 225.529 25.4857 254.588 29.3122C269.119 31.2257 281.351 34.7779 290.445 39.8347C299.538 44.8907 305.451 51.4245 307.449 59.2947Z" stroke="#737373" stroke-width="1.02797"/>
</svg>
