<svg width="24" height="24" viewBox="0 0 24 24" fill="none" xmlns="http://www.w3.org/2000/svg">
<path d="M5.10352 5H11.1035C11.6535 5 12.1035 4.55 12.1035 4C12.1035 3.45 11.6535 3 11.1035 3H5.10352C4.00352 3 3.10352 3.9 3.10352 5V19C3.10352 20.1 4.00352 21 5.10352 21H11.1035C11.6535 21 12.1035 20.55 12.1035 20C12.1035 19.45 11.6535 19 11.1035 19H5.10352V5Z" fill="#333333"/>
<path d="M20.7535 11.65L17.9635 8.86C17.6435 8.54 17.1035 8.76 17.1035 9.21V11H10.1035C9.55352 11 9.10352 11.45 9.10352 12C9.10352 12.55 9.55352 13 10.1035 13H17.1035V14.79C17.1035 15.24 17.6435 15.46 17.9535 15.14L20.7435 12.35C20.9435 12.16 20.9435 11.84 20.7535 11.65Z" fill="#333333"/>
</svg>
