<svg width="24" height="24" viewBox="0 0 24 24" fill="none" xmlns="http://www.w3.org/2000/svg">
<path d="M18.875 6.25L5.125 6.25001" stroke="#707070" stroke-width="1.24999" stroke-linecap="round" stroke-linejoin="round"/>
<path d="M10.126 10V14.9999" stroke="#707070" stroke-width="1.24999" stroke-linecap="round" stroke-linejoin="round"/>
<path d="M13.876 10V14.9999" stroke="#707070" stroke-width="1.24999" stroke-linecap="round" stroke-linejoin="round"/>
<path d="M17.626 6.25V18.1248C17.626 18.2906 17.5601 18.4496 17.4429 18.5668C17.3257 18.684 17.1667 18.7498 17.001 18.7498H7.00098C6.83522 18.7498 6.67625 18.684 6.55903 18.5668C6.44182 18.4496 6.37598 18.2906 6.37598 18.1248V6.25" stroke="#707070" stroke-width="1.24999" stroke-linecap="round" stroke-linejoin="round"/>
<path d="M15.125 6.24997V4.99998C15.125 4.66847 14.9933 4.35053 14.7589 4.11611C14.5245 3.88169 14.2065 3.75 13.875 3.75H10.125C9.79348 3.75 9.47554 3.88169 9.24112 4.11611C9.0067 4.35053 8.875 4.66847 8.875 4.99998V6.24997" stroke="#707070" stroke-width="1.24999" stroke-linecap="round" stroke-linejoin="round"/>
</svg>
