<svg width="19" height="19" viewBox="0 0 19 19" fill="none" xmlns="http://www.w3.org/2000/svg">
<path d="M9.33881 5.5226L10.7309 4.13048C11.0182 3.84298 11.3592 3.61489 11.7346 3.45924C12.11 3.30359 12.5124 3.22342 12.9188 3.22333C13.3252 3.22323 13.7277 3.30321 14.1031 3.45869C14.4786 3.61417 14.8198 3.8421 15.1072 4.12947C15.3945 4.41683 15.6225 4.758 15.7779 5.13348C15.9334 5.50896 16.0134 5.9114 16.0133 6.3178C16.0132 6.7242 15.933 7.12659 15.7774 7.502C15.6217 7.87741 15.3936 8.21848 15.1061 8.50571L13.1174 10.4944C12.8301 10.7817 12.4891 11.0096 12.1137 11.1651C11.7384 11.3206 11.3361 11.4006 10.9298 11.4006C10.5235 11.4006 10.1212 11.3206 9.74587 11.1651C9.37052 11.0096 9.02947 10.7817 8.74219 10.4944" stroke="#EF8435" stroke-width="1.125" stroke-linecap="round" stroke-linejoin="round"/>
<path d="M10.1335 13.4775L8.74136 14.8696C8.45413 15.1571 8.11307 15.3852 7.73766 15.5409C7.36225 15.6965 6.95985 15.7767 6.55345 15.7768C6.14706 15.7769 5.74462 15.6969 5.36914 15.5414C4.99366 15.386 4.65249 15.158 4.36512 14.8707C4.07776 14.5833 3.84982 14.2421 3.69434 13.8667C3.53887 13.4912 3.45889 13.0887 3.45898 12.6823C3.45908 12.2759 3.53924 11.8735 3.6949 11.4981C3.85055 11.1227 4.07864 10.7817 4.36614 10.4944L6.35488 8.50569C6.64216 8.21841 6.98321 7.99052 7.35856 7.83505C7.73392 7.67957 8.13621 7.59955 8.54249 7.59955C8.94877 7.59955 9.35107 7.67957 9.72642 7.83505C10.1018 7.99052 10.4428 8.21841 10.7301 8.50569" stroke="#EF8435" stroke-width="1.125" stroke-linecap="round" stroke-linejoin="round"/>
</svg>
