<svg width="36" height="112" viewBox="0 0 36 112" fill="none" xmlns="http://www.w3.org/2000/svg">
<path d="M15.6493 108.094L15.6493 26.6936C15.6493 22.5943 18.9724 19.2712 23.0716 19.2712L62.0391 19.2712" stroke="white" stroke-width="0.371118" stroke-linecap="square" stroke-linejoin="round"/>
<path d="M12.6844 103.753C14.3473 103.753 15.6953 105.99 15.6953 108.75" stroke="white" stroke-width="0.371118"/>
<path d="M15.6922 108.749C15.6922 105.989 17.0402 103.751 18.7031 103.751" stroke="white" stroke-width="0.371118"/>
<circle cx="0.494825" cy="0.494825" r="0.494825" transform="matrix(4.37114e-08 1 1 -4.37114e-08 10.2031 4.5144)" fill="white"/>
<circle cx="0.494825" cy="0.494825" r="0.494825" transform="matrix(4.37114e-08 1 1 -4.37114e-08 10.2031 10.946)" fill="white"/>
<circle cx="11.853" cy="11.853" r="11.853" transform="matrix(-1 0 0 1 28.375 45.9763)" fill="#EBBE52"/>
<circle cx="11.0163" cy="11.0163" r="10.8769" transform="matrix(-1 0 0 1 25.0312 46.8123)" stroke="white" stroke-width="0.278894"/>
</svg>
