<svg width="24" height="25" viewBox="0 0 24 25" fill="none" xmlns="http://www.w3.org/2000/svg">
<g clip-path="url(#clip0_675_3408)">
<path d="M24 12.6492C24 6.02175 18.6274 0.64917 12 0.64917C5.37258 0.64917 0 6.02175 0 12.6492C0 18.6386 4.3882 23.6032 10.125 24.5034V16.1179H7.07812V12.6492H10.125V10.0054C10.125 6.99792 11.9166 5.33667 14.6576 5.33667C15.9701 5.33667 17.3438 5.57104 17.3438 5.57104V8.52417H15.8306C14.34 8.52417 13.875 9.44925 13.875 10.3992V12.6492H17.2031L16.6711 16.1179H13.875V24.5034C19.6118 23.6032 24 18.6386 24 12.6492Z" fill="#B8B8B8"/>
</g>
<defs>
<clipPath id="clip0_675_3408">
<rect width="24" height="24" fill="white" transform="translate(0 0.64917)"/>
</clipPath>
</defs>
</svg>
