<svg width="56" height="57" viewBox="0 0 56 57" fill="none" xmlns="http://www.w3.org/2000/svg">
<path d="M28 4.14917C14.4638 4.14917 3.5 15.1129 3.5 28.6492C3.5 39.4904 10.5131 48.6473 20.2519 51.8935C21.4769 52.1079 21.9363 51.3729 21.9363 50.7298C21.9363 50.1479 21.9056 48.2185 21.9056 46.1667C15.75 47.2998 14.1575 44.666 13.6675 43.2879C13.3919 42.5835 12.1975 40.4092 11.1563 39.8273C10.2988 39.3679 9.07375 38.2348 11.1256 38.2042C13.055 38.1735 14.4331 39.9804 14.8925 40.7154C17.0975 44.421 20.6194 43.3798 22.0281 42.7367C22.2425 41.1442 22.8856 40.0723 23.59 39.4598C18.1388 38.8473 12.4425 36.7342 12.4425 27.3629C12.4425 24.6985 13.3919 22.4935 14.9538 20.7785C14.7088 20.166 13.8513 17.6548 15.1988 14.286C15.1988 14.286 17.2506 13.6429 21.9363 16.7973C23.8963 16.246 25.9788 15.9704 28.0613 15.9704C30.1438 15.9704 32.2263 16.246 34.1863 16.7973C38.8719 13.6123 40.9238 14.286 40.9238 14.286C42.2713 17.6548 41.4138 20.166 41.1688 20.7785C42.7306 22.4935 43.68 24.6679 43.68 27.3629C43.68 36.7648 37.9531 38.8473 32.5019 39.4598C33.39 40.2254 34.1556 41.6954 34.1556 43.9923C34.1556 47.2692 34.125 49.9029 34.125 50.7298C34.125 51.3729 34.5844 52.1385 35.8094 51.8935C40.6731 50.2516 44.8994 47.1258 47.8935 42.956C50.8876 38.7863 52.4987 33.7825 52.5 28.6492C52.5 15.1129 41.5363 4.14917 28 4.14917Z" fill="#333333"/>
</svg>
