<svg width="24" height="25" viewBox="0 0 24 25" fill="none" xmlns="http://www.w3.org/2000/svg">
<g clip-path="url(#clip0_675_3412)">
<path d="M22.2234 0.64917H1.77187C0.792187 0.64917 0 1.42261 0 2.37886V22.9148C0 23.871 0.792187 24.6492 1.77187 24.6492H22.2234C23.2031 24.6492 24 23.871 24 22.9195V2.37886C24 1.42261 23.2031 0.64917 22.2234 0.64917ZM7.12031 21.1007H3.55781V9.64448H7.12031V21.1007ZM5.33906 8.08355C4.19531 8.08355 3.27188 7.16011 3.27188 6.02104C3.27188 4.88198 4.19531 3.95854 5.33906 3.95854C6.47813 3.95854 7.40156 4.88198 7.40156 6.02104C7.40156 7.15542 6.47813 8.08355 5.33906 8.08355ZM20.4516 21.1007H16.8937V15.532C16.8937 14.2054 16.8703 12.4945 15.0422 12.4945C13.1906 12.4945 12.9094 13.9429 12.9094 15.4382V21.1007H9.35625V9.64448H12.7687V11.2101H12.8156C13.2891 10.3101 14.4516 9.35855 16.1813 9.35855C19.7859 9.35855 20.4516 11.7304 20.4516 14.8148V21.1007Z" fill="#B8B8B8"/>
</g>
<defs>
<clipPath id="clip0_675_3412">
<rect width="24" height="24" fill="white" transform="translate(0 0.64917)"/>
</clipPath>
</defs>
</svg>
