<svg width="24" height="24" viewBox="0 0 24 24" fill="none" xmlns="http://www.w3.org/2000/svg">
<path d="M3.42857 -0.285645C1.5375 -0.285645 0 1.25186 0 3.14293V20.2858C0 22.1769 1.5375 23.7144 3.42857 23.7144H20.5714C22.4625 23.7144 24 22.1769 24 20.2858V3.14293C24 1.25186 22.4625 -0.285645 20.5714 -0.285645H3.42857ZM19.3446 4.21436L13.7839 10.5679L20.325 19.2144H15.2036L11.1964 13.9697L6.60536 19.2144H4.06071L10.0071 12.4161L3.73393 4.21436H8.98393L12.6107 9.009L16.8 4.21436H19.3446ZM17.3196 17.6929L8.21786 5.65543H6.70179L15.9054 17.6929H17.3143H17.3196Z" fill="#EF8435"/>
</svg>
