<svg width="24" height="25" viewBox="0 0 24 25" fill="none" xmlns="http://www.w3.org/2000/svg">
<path d="M7.55016 22.3992C16.6045 22.3992 21.5583 14.8959 21.5583 8.39103C21.5583 8.18009 21.5536 7.96447 21.5442 7.75353C22.5079 7.05663 23.3395 6.19342 24 5.20447C23.1025 5.60377 22.1496 5.86455 21.1739 5.97791C22.2013 5.36208 22.9705 4.39464 23.3391 3.25494C22.3726 3.82773 21.3156 4.23178 20.2134 4.44978C19.4708 3.66073 18.489 3.13829 17.4197 2.96322C16.3504 2.78816 15.2532 2.97022 14.2977 3.48127C13.3423 3.99231 12.5818 4.80388 12.1338 5.79048C11.6859 6.77709 11.5754 7.88379 11.8195 8.93947C9.86249 8.84126 7.94794 8.33287 6.19998 7.44727C4.45203 6.56166 2.90969 5.31861 1.67297 3.79869C1.0444 4.88241 0.852057 6.16482 1.13503 7.38526C1.418 8.60571 2.15506 9.67262 3.19641 10.3692C2.41463 10.3443 1.64998 10.1339 0.965625 9.75509V9.81603C0.964925 10.9533 1.3581 12.0558 2.07831 12.9359C2.79852 13.8161 3.80132 14.4197 4.91625 14.6442C4.19206 14.8423 3.43198 14.8712 2.69484 14.7285C3.00945 15.7066 3.62157 16.5621 4.44577 17.1755C5.26997 17.7889 6.26512 18.1298 7.29234 18.1504C5.54842 19.5203 3.39417 20.2633 1.17656 20.2598C0.783287 20.2592 0.390399 20.2351 0 20.1876C2.25286 21.6329 4.87353 22.4006 7.55016 22.3992Z" fill="#98A2B3"/>
</svg>
