<svg width="24" height="25" viewBox="0 0 24 25" fill="none" xmlns="http://www.w3.org/2000/svg">
<g clip-path="url(#clip0_675_3406)">
<path d="M3.42857 0.363525C1.5375 0.363525 0 1.90103 0 3.7921V20.935C0 22.826 1.5375 24.3635 3.42857 24.3635H20.5714C22.4625 24.3635 24 22.826 24 20.935V3.7921C24 1.90103 22.4625 0.363525 20.5714 0.363525H3.42857ZM19.3446 4.86353L13.7839 11.2171L20.325 19.8635H15.2036L11.1964 14.6189L6.60536 19.8635H4.06071L10.0071 13.0653L3.73393 4.86353H8.98393L12.6107 9.65817L16.8 4.86353H19.3446ZM17.3196 18.3421L8.21786 6.3046H6.70179L15.9054 18.3421H17.3143H17.3196Z" fill="#B8B8B8"/>
</g>
<defs>
<clipPath id="clip0_675_3406">
<rect width="24" height="24" fill="white" transform="translate(0 0.64917)"/>
</clipPath>
</defs>
</svg>
