<svg width="1318" height="816" viewBox="0 0 1318 816" fill="none" xmlns="http://www.w3.org/2000/svg">
    <g clip-path="url(#clip0_10_51)">
        <rect width="1318" height="816" fill="white"/>
        <g clip-path="url(#clip1_10_51)">
            <g clip-path="url(#clip2_10_51)">
                <rect x="-344" y="-467" width="2005.76" height="1749" fill="white"/>
                <g opacity="0.1">
                    <path d="M1084.29 180.981C1081.91 182.883 1078.94 183.546 1077.38 181.846C1073.71 177.869 1070.74 173.402 1067.73 168.993C1067.44 168.59 1068.66 166.976 1069.58 166.458C1072.03 165.046 1074.47 165.651 1075.86 167.697C1078.87 172.077 1081.55 176.601 1084.29 180.981Z" fill="white"/>
                    <path d="M1201.57 171.703C1205.04 170.262 1203.22 167.928 1202.86 165.853C1203.89 165.767 1204.88 165.507 1205.77 165.046C1208.08 166.343 1210.36 167.64 1212.68 168.908L1212.81 169.023C1210.03 173.057 1214.36 177.063 1212.81 181.097V181.04C1205.87 180.78 1199.62 179.887 1201.54 171.645L1201.57 171.703Z" fill="white"/>
                    <path d="M974.312 408.084C974.61 405.289 975.568 402.263 979.104 402.205C982.211 402.148 984.623 404.424 984.821 407.508C984.954 409.899 983.599 411.542 980.724 411.888C977.32 412.32 974.643 411.628 974.345 408.084H974.312Z" fill="white"/>
                    <path d="M808.973 339.876C806.164 339.674 803.95 338.838 803.686 336.245C803.322 332.96 805.668 331.115 809.072 331.087C811.485 331.087 813.93 332.355 814.36 334.862C814.988 338.435 811.98 339.271 808.94 339.876H808.973Z" fill="white"/>
                    <path d="M659.539 534.102C659.936 531.623 661.885 530.442 664.43 530.212C668.098 529.895 670.213 531.912 670.709 534.707C671.172 537.329 668.726 538.366 666.115 538.366C662.844 538.366 660.266 537.214 659.539 534.102Z" fill="white"/>
                    <path d="M1096.85 675.389C1098.67 673.083 1101.48 672.565 1104.42 672.219L1104.22 671.988C1109.64 677.896 1109.01 682.449 1100.29 685.215C1099.16 681.93 1098.01 678.645 1096.88 675.36L1096.85 675.389Z" fill="white"/>
                    <path d="M898.236 259.994C904.152 259.475 904.912 263.193 906.994 265.556C908.283 266.996 908.382 268.552 906.763 269.647C904.185 271.405 902.301 270.08 900.847 268.149C899.228 265.959 897.245 263.884 898.203 259.994H898.236Z" fill="white"/>
                    <path d="M877.652 162.424C876.198 163.115 874.909 164.21 874.248 163.98C870.447 162.625 865.887 162.28 863.607 158.678C862.946 157.64 864.069 155.94 864.796 156.343C868.861 158.534 876.363 155.825 877.652 162.424Z" fill="white"/>
                    <path d="M874.286 497.878C876.897 498.137 878.913 499.146 879.343 501.537C879.739 503.785 879.045 505.745 876.071 506.148C872.469 506.638 870.023 505.082 869.858 502.056C869.726 499.895 871.477 498.223 874.32 497.878H874.286Z" fill="white"/>
                    <path d="M1229.47 37.0425C1224.88 39.6649 1220.42 40.6158 1216.82 36.1492C1216.15 35.3424 1217.08 32.403 1218.14 31.9708C1224.05 29.5502 1227.42 32.2014 1229.51 37.0425H1229.47Z" fill="white"/>
                    <path d="M1033.93 581.907C1031.42 581.129 1027.22 582.022 1028.11 577.815C1028.58 575.596 1030.36 574.127 1033.34 574.386C1036.11 574.645 1037.8 576.144 1038.43 578.334C1039.35 581.59 1036.05 581.158 1033.93 581.907Z" fill="white"/>
                    <path d="M706.938 4.01808C711.333 4.33506 715.827 -0.419593 720.057 4.10461C720.586 4.68095 720.52 6.35225 719.925 6.92858C715.067 12.0291 711.862 4.3063 707.433 5.60304C707.565 4.9979 707.433 4.47914 706.938 4.01808Z" fill="white"/>
                    <path d="M1256.47 76.0312C1263.08 76.0889 1267.08 76.3482 1270.71 80.0656C1265.66 81.7369 1261.56 81.7946 1256.47 76.0312Z" fill="white"/>
                    <path d="M819.661 21.5956C815.497 20.9329 813.217 20.1548 813.547 17.5325C813.745 15.9188 815.53 14.9679 817.348 15.0831C819.628 15.256 822.536 15.4577 821.71 18.4835C821.346 19.8667 820.057 21.0482 819.661 21.5669V21.5956Z" fill="white"/>
                    <path d="M710.555 454.971C706.821 454.596 705.697 452.954 706.49 450.562C707.052 448.89 708.936 448.256 710.819 448.545C713.728 448.977 714.917 451.109 714.554 453.184C714.422 454.02 711.613 454.538 710.555 454.971Z" fill="white"/>
                    <path d="M671.401 444.25C668.559 443.76 667.138 441.887 667.501 439.755C667.633 438.948 670.409 437.91 671.93 437.968C674.805 438.055 676.159 440.072 675.697 442.348C675.333 444.019 673.351 444.452 671.401 444.25Z" fill="white"/>
                    <path d="M1176.4 6.98543C1176.17 5.05472 1177.52 4.13255 1179.34 3.61385C1181.89 2.92225 1182.41 4.68005 1182.94 6.12088C1183.7 8.13804 1182.08 8.97374 1180.23 9.29072C1178.15 9.66534 1176.93 8.62795 1176.37 6.95659L1176.4 6.98543Z" fill="white"/>
                    <path d="M1138.33 157.582C1136.71 156.919 1134.96 156.228 1135.19 154.383C1135.42 152.683 1136.88 151.905 1138.83 152.395C1140.51 152.827 1142.3 153.49 1141.77 155.45C1141.37 156.862 1140.88 158.533 1138.36 157.582H1138.33Z" fill="white"/>
                    <path d="M589.625 594.53C589.03 596.201 587.939 597.469 585.758 596.921C583.742 596.431 582.916 594.991 583.941 593.348C584.469 592.541 585.725 591.734 586.783 591.59C589.228 591.244 589.691 592.772 589.625 594.501V594.53Z" fill="white"/>
                    <path d="M1054.16 167.668C1054.39 167.754 1052.34 167.437 1053.1 165.305C1053.66 163.748 1054.72 162.481 1056.9 162.942C1058.82 163.345 1059.94 164.584 1059.64 166.256C1059.35 167.84 1058.29 169.051 1054.19 167.668H1054.16Z" fill="white"/>
                    <path d="M1020.03 246.595C1018.08 246.249 1016.93 245.126 1016.66 243.483C1016.37 241.639 1017.52 240.111 1019.57 240.601C1020.96 240.918 1022.38 242.474 1022.94 243.771C1023.8 245.702 1022.02 246.393 1020.03 246.595Z" fill="white"/>
                    <path d="M1014.1 561.792C1014.14 562.858 1014.33 563.896 1014.73 564.904C1012.58 566.749 1010.3 568.305 1007.56 565.826C1006.9 565.25 1006.57 563.838 1006.93 563.089C1008.48 559.602 1011.52 561.417 1014.14 561.792H1014.1Z" fill="white"/>
                    <path d="M1009.03 773.335C1008.46 774.891 1007.41 776.044 1005.32 775.698C1003.47 775.381 1002.18 774.315 1002.61 772.557C1002.98 771.03 1003.84 769.647 1006.12 770.252C1007.8 770.713 1009.45 771.347 1009.03 773.335Z" fill="white"/>
                    <path d="M649.406 645.995C646.663 645.448 645.539 643.604 646.2 641.529C646.696 640.002 649.009 639.454 650.529 640.347C651.785 641.096 653.008 642.71 653.041 643.949C653.041 645.333 651.686 646.658 649.439 645.995H649.406Z" fill="white"/>
                    <path d="M671.903 153.52C673.489 153.318 674.811 154.356 675.075 155.998C675.208 156.748 674.448 158.044 673.687 158.39C671.969 159.168 669.821 158.822 669.127 157.295C668.499 155.912 669.358 154.298 671.87 153.52H671.903Z" fill="white"/>
                    <path d="M937.431 47.7335C937.728 47.8487 935.646 47.5894 936.439 45.4569C937.001 43.9585 938.059 42.7194 940.174 43.1516C942.024 43.5262 943.28 44.6501 942.817 46.3502C942.421 47.8487 941.462 49.1454 937.398 47.7046L937.431 47.7335Z" fill="white"/>
                    <path d="M799.82 717.892C800.415 717.114 800.944 715.76 801.704 715.645C804.05 715.299 804.91 716.97 805.042 718.555C805.108 719.189 803.918 720.313 803.092 720.515C800.746 721.062 799.919 719.708 799.853 717.892H799.82Z" fill="white"/>
                    <path d="M784.84 701.065C782.527 701.613 781.668 700.258 781.437 698.76C781.304 697.895 781.767 696.397 782.428 696.138C784.18 695.475 785.6 696.455 786.46 697.78C787.484 699.394 786.625 700.46 784.84 701.065Z" fill="white"/>
                    <path d="M949.621 135.076C947.308 135.537 945.556 136.402 944.234 136.027C942.351 135.537 942.417 133.808 943.045 132.281C943.607 130.955 944.598 130.609 945.821 131.503C947.043 132.396 948.035 133.549 949.621 135.047V135.076Z" fill="white"/>
                    <path d="M646.384 540.469C645.789 541.19 644.863 542.285 643.938 543.38C643.244 542.602 642.253 541.91 641.955 541.046C641.46 539.547 641.526 537.617 643.475 537.184C645.359 536.752 646.086 538.395 646.35 540.469H646.384Z" fill="white"/>
                    <path d="M1090.58 556.204C1091.64 555.8 1092.63 555.08 1093.52 555.166C1094.48 555.282 1096.16 556.492 1096.06 556.665C1095.27 558.106 1093.72 558.826 1091.97 558.279C1091.31 558.077 1091.04 556.924 1090.58 556.204Z" fill="white"/>
                    <path d="M849.877 514.044C850.406 512.69 851.397 512.229 852.752 512.863C853.743 513.324 854.603 513.958 855.528 514.534C854.041 515.139 852.554 515.745 851.066 516.35C850.637 515.572 850.24 514.794 849.844 514.073L849.877 514.044Z" fill="white"/>
                    <path d="M822.916 431.282C823.676 431.887 824.535 432.579 825.394 433.27C823.94 433.991 822.552 434.913 820.999 435.259C820.503 435.374 818.752 433.76 818.917 433.27C819.446 431.829 820.636 430.619 822.916 431.282Z" fill="white"/>
                    <path d="M1120.43 815.062C1117.45 822.208 1114.44 818.52 1111.44 815.062C1114.41 811.604 1117.42 813.131 1120.43 815.062Z" fill="white"/>
                    <path d="M1273.42 802.123C1269.71 797.944 1268.1 794.659 1277.02 795.927C1277.05 798.52 1277.22 801.172 1273.42 802.123Z" fill="white"/>
                    <path d="M1198.78 669.107C1194.65 668.992 1191.61 668.272 1191.71 664.871C1191.8 661.99 1193.85 659.685 1197.46 660.088C1200.69 660.463 1202.71 662.595 1202.78 665.65C1202.84 668.502 1200.3 668.762 1198.78 669.107Z" fill="white"/>
                    <path d="M1321.58 561.363C1318.21 562.112 1314.67 567.184 1311.5 561.536C1310.31 559.403 1309.75 556.032 1313.52 555.023C1319.6 553.409 1319.7 558.337 1321.55 561.247V561.363H1321.58Z" fill="white"/>
                    <path d="M1125.89 336.157C1123.28 336.128 1120.93 335.264 1120.24 333.045C1119.74 331.46 1121.33 330.135 1123.25 329.818C1126.06 329.328 1128.04 330.48 1128.63 332.843C1129.06 334.543 1127.91 335.725 1125.89 336.157Z" fill="white"/>
                    <path d="M1122.08 389.269C1123.13 391.632 1121.08 392.208 1119.43 392.698C1116.76 393.533 1114.05 392.698 1113.19 390.594C1112.29 388.491 1113.55 386.329 1116.69 386.012C1119.53 385.724 1121.28 387.05 1122.08 389.24V389.269Z" fill="white"/>
                    <path d="M1282.78 692.621C1283.67 693.082 1284.23 693.313 1284.73 693.63C1287.8 695.618 1293.75 695.733 1291.54 701.151C1291.27 701.756 1289.29 702.419 1288.43 702.188C1283.01 700.719 1281.1 697.549 1282.78 692.621Z" fill="white"/>
                    <path d="M1280.26 312.529C1280.4 310.598 1281.06 308.697 1284.13 308.552C1286.87 308.437 1288.66 309.676 1289.45 311.866C1290.54 314.892 1287.77 315.238 1285.55 315.613C1282.97 316.074 1280.83 315.44 1280.26 312.529Z" fill="white"/>
                    <path d="M1226.64 314.862C1226.64 313.018 1227.63 311.865 1229.81 312.211C1230.74 312.355 1231.8 313.306 1232.16 314.084C1232.89 315.669 1232.23 317.196 1230.24 317.542C1228.03 317.945 1227.17 316.418 1226.67 314.833L1226.64 314.862Z" fill="white"/>
                    <path d="M1200.89 385.955C1198.88 385.494 1197.75 384.342 1198.32 382.584C1198.84 380.884 1200.5 380.048 1202.38 380.826C1203.31 381.201 1204.13 382.411 1204.3 383.333C1204.63 385.379 1202.88 385.869 1200.89 385.984V385.955Z" fill="white"/>
                    <path d="M1194.91 367.252C1192.93 367.252 1191.44 366.388 1191.27 364.774C1191.08 362.296 1192.76 360.942 1195.6 361.547C1197.29 361.893 1198.68 363.045 1198.41 364.89C1198.18 366.676 1196.79 367.281 1194.91 367.281V367.252Z" fill="white"/>
                    <path d="M1190.18 514.275C1189.65 515.86 1188.46 516.696 1186.55 516.263C1184.89 515.86 1183.14 515.284 1183.77 513.324C1184.23 511.97 1184.76 510.327 1187.14 511.192C1188.73 511.768 1190.31 512.431 1190.15 514.275H1190.18Z" fill="white"/>
                    <path d="M1268.53 435.404C1266.85 434.885 1265.36 434.222 1265.56 432.32C1265.82 429.583 1267.9 428.862 1270.28 429.842C1271.51 430.361 1272.73 432.32 1272.6 433.502C1272.43 434.856 1270.58 435.778 1268.56 435.404H1268.53Z" fill="white"/>
                    <path d="M1123.03 297.199C1123.69 295.557 1124.85 294.433 1127.03 295.038C1128.72 295.499 1130.86 295.903 1130.01 298.179C1129.38 299.764 1128.25 301.09 1126.01 300.571C1124.09 300.139 1122.77 299.159 1123.07 297.199H1123.03Z" fill="white"/>
                    <path d="M1115.1 790.857C1117.15 790.569 1118.41 791.52 1118.8 793.105C1119.3 795.064 1117.71 795.727 1115.83 795.583C1114.8 795.496 1113.18 794.949 1112.95 794.315C1112.39 792.845 1113.32 791.549 1115.07 790.886L1115.1 790.857Z" fill="white"/>
                    <path d="M1302.87 434.856C1302.41 436.095 1301.38 437.305 1299.14 436.556C1297.25 435.922 1296.13 434.51 1296.63 432.839C1296.82 432.205 1298.64 431.6 1299.7 431.571C1301.62 431.571 1303.37 432.205 1302.87 434.827V434.856Z" fill="white"/>
                    <path d="M1104.41 672.219C1105.6 669.798 1106.69 667.176 1110.76 668.674C1111.19 668.847 1111.71 669.625 1111.58 669.971C1110.36 673.919 1106.96 672.132 1104.18 671.988L1104.38 672.219H1104.41Z" fill="white"/>
                    <path d="M-0.229877 399.323C3.3392 398.978 7.10658 397.825 10.0147 400.764C11.7332 402.522 11.8653 404.626 10.6095 406.614C8.99024 409.236 6.08208 410.216 2.94261 410.072C-0.0977173 409.928 -0.560331 407.479 -0.626425 405.404C-0.692519 403.329 -0.229922 401.225 0.0344547 399.122L-0.229877 399.323Z" fill="white"/>
                    <path d="M-3.86544 262.733C-2.11395 262.3 -0.0980942 262.156 1.38902 261.321C4.26411 259.678 6.8418 258.583 9.15509 261.753C9.74994 262.588 10.4108 264.145 9.94819 264.692C8.39498 266.565 5.9495 266.911 3.33878 266.652C-0.39553 266.277 -4.0967 265.787 -7.20312 263.741C-7.00484 261.119 -5.88128 260.773 -3.83236 262.733H-3.86544Z" fill="white"/>
                    <path d="M67.5675 758.697C70.7069 761.06 72.3593 763.423 67.6336 765.815C66.2126 764.201 64.5271 765.123 62.8087 765.296C59.9997 765.613 58.3143 764.172 58.2812 761.867C58.2812 759.908 60.5946 759.821 62.28 759.475C64.0315 759.13 65.816 758.928 67.5675 758.668V758.697Z" fill="white"/>
                    <path d="M-6.37093 398.718C-6.76749 396.701 -7.19719 394.683 -7.59375 392.637C-0.81911 391.312 0.899371 394.136 -0.224228 399.323L0.0401042 399.121C-2.07491 398.977 -4.22294 398.862 -6.33795 398.718H-6.37093Z" fill="white"/>
                    <path d="M38.5904 136.431C39.0861 134.788 38.0947 135.97 36.0128 135.595C34.1291 135.249 32.9724 134.097 33.402 132.368C33.7655 130.927 34.2282 129.198 36.7067 129.947C38.3921 130.466 39.9454 131.244 38.5904 136.46V136.431Z" fill="white"/>
                    <path d="M63.1797 136.114C63.4771 133.175 63.9398 130.351 67.608 128.997C69.029 128.363 70.1856 128.68 71.0779 129.775H70.9787C72.0032 135.221 69.723 137.642 63.1797 136.114Z" fill="white"/>
                    <path d="M82.057 80.4957C75.8442 81.7348 73.3656 79.6312 74.6214 74.2425L74.9519 74.0408C82.1892 72.3694 86.5514 72.9745 81.9909 80.6686L82.057 80.4957Z" fill="white"/>
                    <path d="M14.7318 392.984C14.7318 393.935 14.6327 394.857 14.4675 395.779C12.9142 395.433 10.0391 395.03 10.0391 394.771C10.2704 391.918 12.8812 393.128 14.7318 392.984Z" fill="white"/>
                    <path d="M64.304 142.307C64.1718 141.299 63.9735 140.319 63.7422 139.339C65.9894 139.051 69.5255 138.561 69.6907 140.463C69.922 142.74 66.4851 142.336 64.271 142.307H64.304Z" fill="white"/>
                    <path d="M555.712 785.986C555.051 788.55 554.754 791.576 550.458 791.144C548.343 790.942 547.649 789.213 548.243 787.571C549.664 783.508 553.002 785.726 555.745 786.015L555.712 785.986Z" fill="white"/>
                    <path d="M533.63 451.395C542.222 452.624 544.558 458.176 540.636 468.051C538.521 461.365 532.473 457.792 533.63 451.395Z" fill="white"/>
                    <path d="M319.625 662.246C317.047 666.194 313.478 666.799 309.446 664.119C307.298 662.678 307.529 660.315 309.017 658.644C312.553 654.667 316.056 656.194 319.294 659.191C320.517 660.142 320.649 661.151 319.592 662.275L319.625 662.246Z" fill="white"/>
                    <path d="M420.516 103.466C420.847 106.693 421.243 110.123 415.923 110.353C413.543 110.468 410.966 109.892 410.239 107.385C409.28 103.869 411.329 100.584 414.237 99.3163C417.641 97.8179 418.434 102.169 420.681 103.639L420.516 103.466Z" fill="white"/>
                    <path d="M403.656 800.651C400.847 799.758 398.071 798.605 399.128 795.32C399.888 793.015 402.169 792.381 404.713 793.072C407.192 793.706 408.712 795.291 408.646 797.51C408.58 800.19 406.267 800.622 403.623 800.651H403.656Z" fill="white"/>
                    <path d="M176.961 660.173C178.646 664.236 186.115 666.974 180.96 672.132C180.662 672.42 179.605 672.506 179.241 672.276C174.218 669.048 176.664 664.322 176.994 660.202L176.961 660.173Z" fill="white"/>
                    <path d="M58.941 322.009C60.6264 322.297 57.7513 322.268 57.1564 319.703C56.5946 317.311 58.0818 315.525 60.9239 315.323C64.6582 315.064 66.5748 316.937 66.4427 320.078C66.3766 321.72 65.4512 323.132 58.9079 322.009H58.941Z" fill="white"/>
                    <path d="M63.0543 563.29C60.4436 563.347 58.0973 562.685 57.3703 560.322C56.6432 558.016 57.866 556.172 60.6089 555.538C63.6162 554.847 65.0372 556.72 65.9294 558.708C66.9869 561.042 66.1608 562.771 63.0543 563.29Z" fill="white"/>
                    <path d="M26.378 580.726C27.1711 576.115 21.3549 568.911 32.8222 568.508C35.1355 574.329 33.0205 578.421 26.378 580.726Z" fill="white"/>
                    <path d="M556.5 212.765C557.161 210.402 559.243 208.818 561.656 209.019C564.564 209.25 568.298 210.229 568.827 212.938C569.223 214.984 566.15 216.252 563.572 216.483C560.168 216.829 557.723 215.561 556.5 212.736V212.765Z" fill="white"/>
                    <path d="M370.008 93.6664C370.669 91.851 372.354 91.5628 374.073 92.0239C376.32 92.6002 378.831 93.2918 379.162 95.7124C379.393 97.3838 378.468 98.8823 376.155 98.45C373.147 97.9025 370.371 96.8363 370.008 93.6664Z" fill="white"/>
                    <path d="M383.15 499.838C382.192 497.59 377.631 496.409 380.341 493.153C380.936 492.432 382.588 491.741 383.513 491.914C389.098 493.037 386.421 496.841 386.62 499.694L386.554 499.723C385.43 499.723 384.307 499.781 383.216 499.867H383.15V499.838Z" fill="white"/>
                    <path d="M497.047 51.3355C494.998 51.4508 493.907 50.3845 493.445 48.8861C492.85 47.0706 494.238 46.1773 495.989 45.8315C498.269 45.3705 498.864 46.9554 499.459 48.3098C500.252 50.2117 498.765 50.8456 497.08 51.3067L497.047 51.3355Z" fill="white"/>
                    <path d="M439.215 577.901C436.571 578.42 435.679 577.152 435.382 575.625C435.051 573.982 436.076 572.743 437.992 572.541C440.041 572.311 441.033 573.665 441.594 575.106C442.487 577.325 440.239 577.354 439.215 577.872V577.901Z" fill="white"/>
                    <path d="M428.2 636.457C427.605 633.46 427.935 630.808 431.901 629.685C436.792 634.468 436.032 636.918 428.2 636.457Z" fill="white"/>
                    <path d="M364.601 646.715C364.072 648.242 363.444 649.567 361.131 649.193C359.214 648.876 358.124 647.982 357.694 646.34C357.198 644.409 358.619 643.285 360.272 643.112C363.081 642.796 364.402 644.409 364.568 646.715H364.601Z" fill="white"/>
                    <path d="M353.097 527.731C353.328 527.126 353.989 525.483 356.17 526.549C357.492 527.212 358.913 528.595 359.078 529.806C359.277 531.419 357.558 532.313 355.608 531.823C353.857 531.391 352.568 530.411 353.097 527.731Z" fill="white"/>
                    <path d="M604.655 323.997C602.309 324.342 601.747 322.844 601.252 321.432C600.657 319.703 601.714 318.579 603.598 318.377C605.68 318.147 606.572 319.559 607.167 321C608.026 323.017 606.275 323.478 604.655 323.997Z" fill="white"/>
                    <path d="M297.712 260.055C295.729 260.199 294.308 259.449 293.911 257.807C293.449 255.876 295.2 255.184 296.919 254.723C299.364 254.032 299.926 255.703 300.454 257.086C301.248 259.161 299.397 259.593 297.712 260.055Z" fill="white"/>
                    <path d="M3.56947 785.699C0.0664809 786.246 -2.84163 785.67 -4.46094 782.586C-2.97382 779.474 0.0334135 779.388 3.23897 779.676H3.27205C3.3712 781.722 3.47032 783.71 3.56947 785.699Z" fill="white"/>
                    <path d="M285.873 31.5672C283.163 31.9995 282.436 30.5586 281.908 29.089C281.247 27.2447 282.47 26.2362 284.353 26.0633C286.435 25.8615 287.394 27.2735 288.088 28.7143C289.145 30.9332 286.931 31.0485 285.873 31.5672Z" fill="white"/>
                    <path d="M262.645 808.579C262.447 806.216 260.96 803.219 264.86 802.383C267.239 801.894 269.552 803.594 269.42 805.87C269.189 809.674 265.488 808.493 262.877 808.723L262.645 808.579Z" fill="white"/>
                    <path d="M255.121 217.319C252.709 217.722 251.882 216.31 251.486 214.754C251.056 213.025 251.982 211.699 254.031 211.527C256.179 211.354 257.17 212.823 257.864 214.322C258.921 216.627 256.674 216.771 255.121 217.319Z" fill="white"/>
                    <path d="M79.4225 672.245C78.2658 671.64 75.8204 671.064 75.523 670.027C74.9281 667.894 76.1177 665.906 79.2572 665.762C81.5374 665.646 82.2314 667.001 82.5619 668.586C82.9585 670.459 81.7027 671.41 79.4225 672.217V672.245Z" fill="white"/>
                    <path d="M206 795.58C208.974 792.064 211.948 792.353 214.956 795.551C212.015 801.804 209.007 798.98 206 795.58Z" fill="white"/>
                    <path d="M177.029 313.075C177.491 311.923 178.846 311.029 180.829 311.807C182.613 312.528 183.473 314.113 182.812 315.698C182.547 316.361 180.829 317.023 179.871 316.937C177.921 316.706 176.566 315.582 177.029 313.075Z" fill="white"/>
                    <path d="M142.865 622.769C143.162 624.498 142.237 625.593 140.353 625.823C138.271 626.054 137.412 624.642 136.817 623.23C135.892 621.068 137.941 620.78 139.461 620.406C141.708 619.858 142.303 621.357 142.865 622.769Z" fill="white"/>
                    <path d="M136.88 595.941C134.765 596.056 133.873 594.817 133.179 593.434C132.122 591.301 134.203 590.956 135.691 590.495C138.004 589.774 138.665 591.33 139.128 592.742C139.623 594.356 138.764 595.48 136.913 595.97L136.88 595.941Z" fill="white"/>
                    <path d="M394.5 817.74C393.542 815.924 390.733 814.57 392.352 812.207C392.782 811.602 394.666 811.199 395.591 811.458C400.118 812.755 397.805 815.608 397.276 818.028C396.516 819.037 395.855 819.325 395.26 818.893C394.732 818.518 394.467 818.143 394.467 817.74H394.5Z" fill="white"/>
                    <path d="M420.696 103.606C421.919 101.474 422.878 99.0243 426.513 99.4853C426.843 99.5141 427.372 100.35 427.306 100.725C426.546 104.355 422.811 102.569 420.531 103.433L420.696 103.606Z" fill="white"/>
                    <path d="M48.9375 321.837C49.7637 321.433 50.5568 321.059 51.3829 320.655C51.6473 321.549 52.0769 322.442 52.11 323.335C52.11 323.595 51.1516 323.912 50.6559 324.229C50.0941 323.422 49.4993 322.644 48.9375 321.837Z" fill="white"/>
                    <path d="M185.385 118.016C184.824 117.094 183.898 116.23 183.964 115.423C183.997 114.674 185.352 113.29 185.683 113.377C187.467 113.867 188.294 115.221 187.633 116.748C187.401 117.325 186.179 117.584 185.385 118.016Z" fill="white"/>
                    <path d="M207.628 146.516C206.009 145.565 204.687 144.816 203.398 144.067C204.225 143.462 204.952 142.597 205.91 142.309C207.827 141.733 209.149 142.885 209.776 144.211C209.975 144.614 208.554 145.594 207.628 146.545V146.516Z" fill="white"/>
                    <path d="M457.334 363.622C456.541 363.017 455.715 362.441 454.922 361.836C455.781 361.288 456.574 360.424 457.5 360.28C459.284 360.02 460.771 360.769 460.176 362.527C459.978 363.075 458.326 363.277 457.334 363.622Z" fill="white"/>
                    <path d="M704.485 256.828C701.378 256.367 699.032 255.848 698.933 253.111C698.834 250.344 701.114 249.249 703.592 249.537C706.038 249.797 708.087 251.468 708.616 253.716C709.442 257.289 705.41 255.618 704.518 256.828H704.485Z" fill="white"/>
                    <path d="M687.704 223.226C687.704 222.275 687.506 221.381 687.109 220.517C688.861 218.961 691.009 217.52 693.421 218.586C694.347 218.99 694.975 221.699 694.314 222.592C692.727 224.782 690.017 223.514 687.704 223.226Z" fill="white"/>
                    <path d="M210.004 32.2886C210.137 34.421 210.236 36.5246 210.368 38.657C207.757 38.4265 204.089 39.2621 203.957 35.833C203.825 32.6055 207.162 32.4327 210.038 32.2886H210.004Z" fill="white"/>
                </g>
                <g opacity="0.7">
                    <mask id="mask0_10_51" style="mask-type:luminance" maskUnits="userSpaceOnUse" x="-344" y="-467" width="3449" height="3008">
                        <path d="M3104.95 -467H-343.992V2540.44H3104.95V-467Z" fill="white"/>
                    </mask>
                    <g mask="url(#mask0_10_51)">
                        <path d="M1379.95 -178.212H-62.1953V993.137H1379.95V-178.212Z" stroke="#5F4646" stroke-opacity="0.3" stroke-width="0.908269" stroke-miterlimit="10"/>
                        <path d="M-62.1953 789.422H1379.95" stroke="#5F4646" stroke-opacity="0.3" stroke-width="0.908269" stroke-miterlimit="10"/>
                        <path d="M-62.1953 738.483H1379.95" stroke="#5F4646" stroke-opacity="0.3" stroke-width="0.908269" stroke-miterlimit="10"/>
                        <path d="M-62.1953 687.559H1379.95" stroke="#5F4646" stroke-opacity="0.3" stroke-width="0.908269" stroke-miterlimit="10"/>
                        <path d="M-62.1953 636.631H1379.95" stroke="#5F4646" stroke-opacity="0.3" stroke-width="0.908269" stroke-miterlimit="10"/>
                        <path d="M-62.1953 585.708H1379.95" stroke="#5F4646" stroke-opacity="0.3" stroke-width="0.908269" stroke-miterlimit="10"/>
                        <path d="M-62.1953 534.782H1379.95" stroke="#5F4646" stroke-opacity="0.3" stroke-width="0.908269" stroke-miterlimit="10"/>
                        <path d="M-62.1953 483.843H1379.95" stroke="#5F4646" stroke-opacity="0.3" stroke-width="0.908269" stroke-miterlimit="10"/>
                        <path d="M-62.1953 432.918H1379.95" stroke="#5F4646" stroke-opacity="0.3" stroke-width="0.908269" stroke-miterlimit="10"/>
                        <path d="M-62.1953 381.994H1379.95" stroke="#5F4646" stroke-opacity="0.3" stroke-width="0.908269" stroke-miterlimit="10"/>
                        <path d="M-62.1953 331.068H1379.95" stroke="#5F4646" stroke-opacity="0.3" stroke-width="0.908269" stroke-miterlimit="10"/>
                        <path d="M-62.1953 280.14H1379.95" stroke="#5F4646" stroke-opacity="0.3" stroke-width="0.908269" stroke-miterlimit="10"/>
                        <path d="M-62.1953 229.202H1379.95" stroke="#5F4646" stroke-opacity="0.3" stroke-width="0.908269" stroke-miterlimit="10"/>
                        <path d="M-62.1953 178.279H1379.95" stroke="#5F4646" stroke-opacity="0.3" stroke-width="0.908269" stroke-miterlimit="10"/>
                        <path d="M-62.1953 127.353H1379.95" stroke="#5F4646" stroke-opacity="0.3" stroke-width="0.908269" stroke-miterlimit="10"/>
                        <path d="M-62.1953 76.4268H1379.95" stroke="#5F4646" stroke-opacity="0.3" stroke-width="0.908269" stroke-miterlimit="10"/>
                        <path d="M-62.1953 25.5039H1379.95" stroke="#5F4646" stroke-opacity="0.3" stroke-width="0.908269" stroke-miterlimit="10"/>
                        <path d="M1311.28 -178.212V993.122" stroke="#5F4646" stroke-opacity="0.3" stroke-width="0.908269" stroke-miterlimit="10"/>
                        <path d="M1242.61 -178.212V993.122" stroke="#5F4646" stroke-opacity="0.3" stroke-width="0.908269" stroke-miterlimit="10"/>
                        <path d="M1173.92 -178.212V993.122" stroke="#5F4646" stroke-opacity="0.3" stroke-width="0.908269" stroke-miterlimit="10"/>
                        <path d="M1105.27 -178.212V993.122" stroke="#5F4646" stroke-opacity="0.3" stroke-width="0.908269" stroke-miterlimit="10"/>
                        <path d="M1036.59 -178.212V993.122" stroke="#5F4646" stroke-opacity="0.3" stroke-width="0.908269" stroke-miterlimit="10"/>
                        <path d="M967.93 -178.212V993.122" stroke="#5F4646" stroke-opacity="0.3" stroke-width="0.908269" stroke-miterlimit="10"/>
                        <path d="M899.234 -178.212V993.122" stroke="#5F4646" stroke-opacity="0.3" stroke-width="0.908269" stroke-miterlimit="10"/>
                        <path d="M830.57 -178.212V993.122" stroke="#5F4646" stroke-opacity="0.3" stroke-width="0.908269" stroke-miterlimit="10"/>
                        <path d="M761.891 -178.212V993.122" stroke="#5F4646" stroke-opacity="0.3" stroke-width="0.908269" stroke-miterlimit="10"/>
                        <path d="M693.203 -178.212V993.122" stroke="#5F4646" stroke-opacity="0.3" stroke-width="0.908269" stroke-miterlimit="10"/>
                        <path d="M624.539 -178.212V993.122" stroke="#5F4646" stroke-opacity="0.3" stroke-width="0.908269" stroke-miterlimit="10"/>
                        <path d="M555.867 -178.212V993.122" stroke="#5F4646" stroke-opacity="0.3" stroke-width="0.908269" stroke-miterlimit="10"/>
                        <path d="M487.203 -178.212V993.122" stroke="#5F4646" stroke-opacity="0.3" stroke-width="0.908269" stroke-miterlimit="10"/>
                        <path d="M418.523 -178.212V993.122" stroke="#5F4646" stroke-opacity="0.3" stroke-width="0.908269" stroke-miterlimit="10"/>
                        <path d="M349.836 -178.212V993.122" stroke="#5F4646" stroke-opacity="0.3" stroke-width="0.908269" stroke-miterlimit="10"/>
                        <path d="M281.172 -178.212V993.122" stroke="#5F4646" stroke-opacity="0.3" stroke-width="0.908269" stroke-miterlimit="10"/>
                        <path d="M212.492 -178.212V993.122" stroke="#5F4646" stroke-opacity="0.3" stroke-width="0.908269" stroke-miterlimit="10"/>
                        <path d="M143.828 -178.212V993.122" stroke="#5F4646" stroke-opacity="0.3" stroke-width="0.908269" stroke-miterlimit="10"/>
                        <path d="M75.1484 -178.212V993.122" stroke="#5F4646" stroke-opacity="0.3" stroke-width="0.908269" stroke-miterlimit="10"/>
                        <path d="M6.49219 -178.212V993.122" stroke="#5F4646" stroke-opacity="0.3" stroke-width="0.908269" stroke-miterlimit="10"/>
                    </g>
                </g>
            </g>
            <rect x="-343.5" y="-466.5" width="2004.76" height="1748" stroke="black"/>
            <rect x="-0.570801" width="1318.63" height="815.063" fill="black" fill-opacity="0.08"/>
            <path d="M127.205 138.228C128.614 141.265 129.428 144.543 129.601 147.873C129.774 151.203 129.302 154.52 128.213 157.636C127.124 160.751 125.438 163.604 123.252 166.03C121.066 168.456 118.423 170.409 115.473 171.777C112.523 173.145 109.325 173.902 106.061 174.003C102.797 174.105 99.5302 173.549 96.4483 172.368C93.3663 171.188 90.5291 169.405 88.0986 167.122C85.6681 164.839 83.692 162.1 82.2831 159.062L104.744 148.645L127.205 138.228Z" fill="#EF8435"/>
            <mask id="mask1_10_51" style="mask-type:luminance" maskUnits="userSpaceOnUse" x="82" y="137" width="46" height="35">
                <path d="M124.838 137.689C126.165 140.55 126.931 143.636 127.094 146.772C127.257 149.908 126.813 153.033 125.787 155.966C124.761 158.9 123.173 161.587 121.115 163.872C119.056 166.157 116.567 167.996 113.789 169.284C111.011 170.573 107.999 171.285 104.925 171.38C101.851 171.476 98.775 170.953 95.8726 169.841C92.9702 168.729 90.2982 167.05 88.0093 164.9C85.7205 162.75 83.8595 160.171 82.5326 157.31L103.685 147.499L124.838 137.689Z" stroke="white" stroke-width="0.793221"/>
            </mask>
            <g mask="url(#mask1_10_51)">
                <path d="M124.838 137.688C126.164 140.549 126.931 143.636 127.094 146.772C127.257 149.908 126.813 153.032 125.787 155.966C124.761 158.9 123.173 161.586 121.115 163.871C119.056 166.156 116.567 167.996 113.789 169.284C111.011 170.572 107.999 171.285 104.925 171.38C101.851 171.476 98.7749 170.952 95.8725 169.841C92.97 168.729 90.2981 167.05 88.0092 164.9C85.7203 162.75 83.8593 160.171 82.5325 157.31L103.685 147.499L124.838 137.688Z" stroke="white" stroke-width="0.793221"/>
            </g>
            <path d="M111.724 163.693C104.859 166.877 96.6358 163.727 93.3566 156.657C90.0775 149.587 92.9843 141.274 99.8492 138.09C106.714 134.906 114.937 138.056 118.216 145.127C121.496 152.197 118.589 160.509 111.724 163.693Z" fill="#5C2860"/>
            <path d="M1184.52 66.8421L1177.86 55.3053L1137.66 78.5145L1144.32 90.0513L1184.52 66.8421Z" fill="#EBBE52"/>
            <path d="M1183.81 64.2597L1177.31 53.0112L1137.41 76.0488L1143.91 87.2973L1183.81 64.2597Z" stroke="white" stroke-width="0.333022"/>
            <path d="M1194.82 84.6731C1193.47 82.3337 1191.65 80.2919 1189.46 78.6677C1187.27 77.0475 1184.77 75.8731 1182.08 75.2157C1179.39 74.5621 1176.58 74.4331 1173.8 74.8424C1171.02 75.2517 1168.33 76.1894 1165.88 77.6024C1163.44 79.0154 1161.28 80.8764 1159.54 83.0782C1157.79 85.2799 1156.5 87.7814 1155.72 90.4335C1154.95 93.0893 1154.71 95.849 1155.02 98.5507C1155.33 101.256 1156.19 103.855 1157.54 106.194L1176.18 95.4337L1194.82 84.6731Z" fill="#EF8435"/>
            <mask id="mask2_10_51" style="mask-type:luminance" maskUnits="userSpaceOnUse" x="1157" y="75" width="42" height="34">
                <path d="M1197.69 86.2727C1196.34 83.9293 1194.52 81.8915 1192.33 80.2673C1190.15 78.6471 1187.64 77.4727 1184.95 76.8152C1182.27 76.1617 1179.45 76.0327 1176.67 76.4421C1173.89 76.8513 1171.2 77.7888 1168.76 79.202C1166.31 80.615 1164.15 82.4761 1162.41 84.6778C1160.66 86.8795 1159.37 89.381 1158.59 92.0329C1157.82 94.6889 1157.58 97.4484 1157.89 100.15C1158.21 102.856 1159.06 105.45 1160.41 107.794L1179.05 97.0333L1197.69 86.2727Z" stroke="white" stroke-width="0.666046"/>
            </mask>
            <g mask="url(#mask2_10_51)">
                <path d="M1197.69 86.2728C1196.34 83.9295 1194.52 81.8916 1192.33 80.2675C1190.15 78.6472 1187.64 77.4728 1184.95 76.8153C1182.27 76.1618 1179.45 76.0328 1176.67 76.4422C1173.89 76.8514 1171.2 77.7889 1168.76 79.2021C1166.31 80.6151 1164.15 82.4762 1162.41 84.6779C1160.66 86.8797 1159.37 89.3811 1158.59 92.033C1157.82 94.689 1157.58 97.4485 1157.89 100.15C1158.21 102.856 1159.06 105.451 1160.41 107.794L1179.05 97.0334L1197.69 86.2728Z" stroke="white" stroke-width="0.666046"/>
            </g>
            <path d="M176.093 500.318L209.933 531.795L163.334 544.738L176.093 500.318Z" fill="#5C2860"/>
            <path d="M171.497 544.683L185.62 495.466L223.103 530.349L171.497 544.683Z" stroke="white" stroke-width="0.447058"/>
            <path d="M1222.37 743.047C1236.05 746.256 1249.8 737.525 1253.08 723.545C1256.36 709.565 1247.93 695.63 1234.25 692.42C1220.57 689.211 1206.82 697.942 1203.54 711.922C1200.26 725.902 1208.69 739.837 1222.37 743.047Z" fill="#EF8435"/>
            <path d="M1257.17 723.086C1253.91 736.963 1240.26 745.631 1226.68 742.444C1213.1 739.258 1204.73 725.423 1207.98 711.546C1211.24 697.669 1224.89 689.001 1238.47 692.187C1252.05 695.374 1260.42 709.209 1257.17 723.086Z" stroke="white" stroke-width="0.368162"/>
            <path d="M1214.27 719.404L1225.35 752.43L1189.66 744.056L1214.27 719.404Z" fill="#5C2860"/>
            <path d="M1183.16 745.644L1207.32 721.443L1218.2 753.864L1183.16 745.644Z" stroke="white" stroke-width="0.368162"/>
            <path d="M50.6344 305.638C57.0257 305.638 62.2068 300.302 62.2068 293.72C62.2068 287.137 57.0257 281.801 50.6344 281.801C44.2432 281.801 39.062 287.137 39.062 293.72C39.062 300.302 44.2432 305.638 50.6344 305.638Z" fill="#4AA35C"/>
            <path d="M56.1486 302.9C62.2889 302.9 67.2665 297.774 67.2665 291.45C67.2665 285.126 62.2889 280 56.1486 280C50.0084 280 45.0308 285.126 45.0308 291.45C45.0308 297.774 50.0084 302.9 56.1486 302.9Z" stroke="white" stroke-width="0.909219"/>
            <path d="M62.5681 717.624L75.0036 764.097L27.1045 750.131L62.5681 717.624Z" fill="#4AA35C"/>
            <path d="M37.0073 748.369L71.7591 716.514L83.9455 762.055L37.0073 748.369Z" stroke="white" stroke-width="0.555187"/>
            <path d="M1161.68 151.286L1166.36 164.606L1179.68 169.286H1161.68V151.286Z" fill="#4AA35C"/>
            <path d="M1161.68 151.286L1157 164.606L1143.68 169.286H1161.68V151.286Z" fill="#4AA35C"/>
            <path d="M1161.68 187.286L1157 173.966L1143.68 169.286H1161.68V187.286Z" fill="#4AA35C"/>
            <path d="M1161.68 187.286L1166.36 173.966L1179.68 169.286H1161.68V187.286Z" fill="#4AA35C"/>
        </g>
    </g>
    <defs>
        <clipPath id="clip0_10_51">
            <rect width="1318" height="816" fill="white"/>
        </clipPath>
        <clipPath id="clip1_10_51">
            <rect width="1322" height="813" fill="white" transform="translate(-3.93799)"/>
        </clipPath>
        <clipPath id="clip2_10_51">
            <rect x="-344" y="-467" width="2005.76" height="1749" fill="white"/>
        </clipPath>
    </defs>
</svg>
