<svg width="122" height="51" viewBox="0 0 122 51" fill="none" xmlns="http://www.w3.org/2000/svg">
<path d="M70.6719 40.1975L111.35 40.1975C123.623 40.1975 133.572 30.2489 133.572 17.9764C133.572 -17.126 133.572 -86.4921 133.572 -135.933C133.572 -204.717 133.572 -68.6588 133.572 -68.6588" stroke="white" stroke-width="0.370357"/>
<ellipse cx="14.5989" cy="14.621" rx="14.5989" ry="14.621" transform="matrix(-1 0 0 1 31.2578 21.0923)" fill="#EBBE52"/>
<path d="M0.129986 35.7125C0.129986 43.1481 6.14849 49.1754 13.5723 49.1754C20.9961 49.1754 27.0146 43.1481 27.0146 35.7125C27.0146 28.277 20.9961 22.2496 13.5723 22.2496C6.14849 22.2496 0.129986 28.277 0.129986 35.7125Z" stroke="white" stroke-width="0.252087"/>
<ellipse cx="14.5989" cy="14.621" rx="14.5989" ry="14.621" transform="matrix(-1 0 0 1 73.7969 21.0923)" fill="#5C2860"/>
<path d="M42.669 35.7125C42.669 43.1481 48.6875 49.1754 56.1113 49.1754C63.5351 49.1754 69.5536 43.1481 69.5536 35.7125C69.5536 28.277 63.5351 22.2496 56.1113 22.2496C48.6875 22.2496 42.669 28.277 42.669 35.7125Z" stroke="white" stroke-width="0.252087"/>
</svg>
