<svg width="24" height="25" viewBox="0 0 24 25" fill="none" xmlns="http://www.w3.org/2000/svg">
<g clip-path="url(#clip0_675_3410)">
<path fill-rule="evenodd" clip-rule="evenodd" d="M12 0.64917C5.3724 0.64917 0 6.02997 0 12.6696C0 17.9796 3.438 22.4856 8.2068 24.0744C8.8068 24.1848 9.0252 23.814 9.0252 23.4948C9.0252 23.2104 9.0156 22.4532 9.0096 21.4512C5.6712 22.1772 4.9668 19.8396 4.9668 19.8396C4.422 18.45 3.6348 18.0804 3.6348 18.0804C2.5452 17.3364 3.7176 17.3508 3.7176 17.3508C4.9212 17.4348 5.5548 18.5892 5.5548 18.5892C6.6252 20.4252 8.364 19.8948 9.0468 19.5876C9.1572 18.8112 9.4668 18.282 9.81 17.982C7.146 17.6784 4.344 16.6464 4.344 12.0408C4.344 10.7292 4.812 9.65517 5.5788 8.81517C5.4552 8.51157 5.0436 7.28877 5.6964 5.63517C5.6964 5.63517 6.7044 5.31117 8.9964 6.86637C9.97532 6.59939 10.9853 6.4634 12 6.46197C13.02 6.46677 14.046 6.59997 15.0048 6.86637C17.2956 5.31117 18.3012 5.63397 18.3012 5.63397C18.9564 7.28877 18.5436 8.51157 18.4212 8.81517C19.1892 9.65517 19.6548 10.7292 19.6548 12.0408C19.6548 16.6584 16.848 17.6748 14.1756 17.9724C14.6064 18.3432 14.9892 19.0764 14.9892 20.1984C14.9892 21.804 14.9748 23.1012 14.9748 23.4948C14.9748 23.8164 15.1908 24.1908 15.8004 24.0732C18.19 23.2717 20.2672 21.7395 21.7386 19.6932C23.2099 17.6469 24.001 15.1899 24 12.6696C24 6.02997 18.6264 0.64917 12 0.64917Z" fill="#B8B8B8"/>
</g>
<defs>
<clipPath id="clip0_675_3410">
<rect width="24" height="24" fill="white" transform="translate(0 0.64917)"/>
</clipPath>
</defs>
</svg>
