<svg width="89" height="34" viewBox="0 0 89 34" fill="none" xmlns="http://www.w3.org/2000/svg">
<path d="M1.46115 25.1492V8.33778H12.5921V11.2683H5.01551V15.2741H11.8533V18.2046H5.01551V25.1492H1.46115ZM14.9172 25.1492V12.5406H18.4141V25.1492H14.9172ZM16.6739 10.9153C16.154 10.9153 15.708 10.7429 15.3359 10.3982C14.9692 10.0479 14.7859 9.62928 14.7859 9.14224C14.7859 8.66066 14.9692 8.24749 15.3359 7.90272C15.708 7.55249 16.154 7.37737 16.6739 7.37737C17.1938 7.37737 17.637 7.55249 18.0037 7.90272C18.3758 8.24749 18.5619 8.66066 18.5619 9.14224C18.5619 9.62928 18.3758 10.0479 18.0037 10.3982C17.637 10.7429 17.1938 10.9153 16.6739 10.9153ZM27.9957 12.5406V15.1674H20.2139V12.5406H27.9957ZM21.9952 25.1492V11.6295C21.9952 10.7156 22.173 9.95763 22.5287 9.35566C22.8899 8.75369 23.3824 8.30221 24.0063 8.00123C24.6302 7.70024 25.3388 7.54975 26.1323 7.54975C26.6686 7.54975 27.1584 7.59079 27.6017 7.67288C28.0504 7.75497 28.3843 7.82885 28.6032 7.89452L27.9793 10.5213C27.8425 10.4775 27.6728 10.4365 27.4704 10.3982C27.2734 10.3599 27.0709 10.3407 26.8629 10.3407C26.3485 10.3407 25.9901 10.4611 25.7876 10.7019C25.5851 10.9372 25.4839 11.2683 25.4839 11.6951V25.1492H21.9952ZM36.8385 12.5406V15.1674H29.2455V12.5406H36.8385ZM30.9693 9.51984H34.4662V21.2747C34.4662 21.5975 34.5155 21.8493 34.614 22.0299C34.7125 22.205 34.8493 22.3281 35.0244 22.3993C35.205 22.4704 35.4129 22.506 35.6483 22.506C35.8124 22.506 35.9766 22.4923 36.1408 22.4649C36.305 22.4321 36.4308 22.4075 36.5184 22.3911L37.0684 24.9932C36.8932 25.0479 36.647 25.1109 36.3296 25.182C36.0122 25.2586 35.6264 25.3051 35.1722 25.3216C34.3294 25.3544 33.5906 25.2422 32.9558 24.985C32.3265 24.7278 31.8367 24.3283 31.4865 23.7865C31.1362 23.2448 30.9638 22.5607 30.9693 21.7344V9.51984ZM42.8842 17.8599V25.1492H39.3873V8.33778H42.7857V14.7652H42.9335C43.218 14.0209 43.6777 13.4381 44.3125 13.0167C44.9473 12.5899 45.7436 12.3765 46.7013 12.3765C47.5768 12.3765 48.3403 12.568 48.9915 12.9511C49.6482 13.3287 50.1571 13.8732 50.5183 14.5846C50.8849 15.2905 51.0655 16.136 51.0601 17.1211V25.1492H47.5632V17.7449C47.5686 16.9678 47.3716 16.3631 46.9721 15.9308C46.5781 15.4985 46.0254 15.2823 45.314 15.2823C44.8379 15.2823 44.4165 15.3836 44.0498 15.5861C43.6887 15.7885 43.4041 16.084 43.1961 16.4726C42.9937 16.8557 42.8897 17.3181 42.8842 17.8599Z" fill="#EF8435"/>
<path d="M52.1764 11.2683V8.33778H65.9835V11.2683H60.8366V25.1492H57.3233V11.2683H52.1764ZM66.8823 25.1492V12.5406H70.2725V14.7406H70.4038C70.6337 13.958 71.0195 13.367 71.5613 12.9675C72.103 12.5625 72.7269 12.36 73.4328 12.36C73.608 12.36 73.7968 12.371 73.9992 12.3929C74.2017 12.4148 74.3796 12.4449 74.5328 12.4832V15.5861C74.3686 15.5368 74.1415 15.493 73.8515 15.4547C73.5614 15.4164 73.296 15.3973 73.0552 15.3973C72.5408 15.3973 72.0811 15.5094 71.6762 15.7338C71.2767 15.9527 70.9593 16.2592 70.724 16.6532C70.4941 17.0472 70.3792 17.5014 70.3792 18.0158V25.1492H66.8823ZM78.8834 29.8774C78.4401 29.8774 78.0242 29.8418 77.6357 29.7707C77.2526 29.705 76.9352 29.6202 76.6835 29.5162L77.4715 26.9058C77.8819 27.0317 78.2513 27.1001 78.5797 27.111C78.9135 27.122 79.2008 27.0454 79.4416 26.8812C79.6879 26.717 79.8876 26.4379 80.0408 26.0439L80.246 25.5104L75.7231 12.5406H79.4005L82.0109 21.8H82.1422L84.7772 12.5406H88.4794L83.5788 26.5118C83.3435 27.1904 83.0233 27.7814 82.6184 28.2849C82.2189 28.7938 81.7127 29.1851 81.0997 29.4587C80.4868 29.7378 79.748 29.8774 78.8834 29.8774Z" fill="white"/>
</svg>
