<svg width="76" height="76" viewBox="0 0 76 76" fill="none" xmlns="http://www.w3.org/2000/svg">
    <path d="M36 27C36 28.1046 36.8954 29 38 29C39.1046 29 40 28.1046 40 27L36 27ZM39.4142 0.585786C38.6332 -0.195262 37.3668 -0.195262 36.5858 0.585787L23.8579 13.3137C23.0768 14.0948 23.0768 15.3611 23.8579 16.1421C24.6389 16.9232 25.9052 16.9232 26.6863 16.1421L38 4.82843L49.3137 16.1421C50.0948 16.9232 51.3611 16.9232 52.1421 16.1421C52.9232 15.3611 52.9232 14.0948 52.1421 13.3137L39.4142 0.585786ZM40 27L40 2L36 2L36 27L40 27Z" fill="black"/>
    <path d="M50 35C48.8954 35 48 35.8954 48 37C48 38.1046 48.8954 39 50 39V35ZM75.4142 38.4142C76.1953 37.6332 76.1953 36.3668 75.4142 35.5858L62.6863 22.8579C61.9052 22.0768 60.6389 22.0768 59.8579 22.8579C59.0768 23.6389 59.0768 24.9052 59.8579 25.6863L71.1716 37L59.8579 48.3137C59.0768 49.0948 59.0768 50.3611 59.8579 51.1421C60.6389 51.9232 61.9052 51.9232 62.6863 51.1421L75.4142 38.4142ZM50 39L74 39V35L50 35V39Z" fill="black"/>
    <path d="M40 48C40 46.8954 39.1046 46 38 46C36.8954 46 36 46.8954 36 48L40 48ZM36.5858 75.4142C37.3668 76.1953 38.6332 76.1953 39.4142 75.4142L52.1421 62.6863C52.9232 61.9052 52.9232 60.6389 52.1421 59.8579C51.3611 59.0768 50.0948 59.0768 49.3137 59.8579L38 71.1716L26.6863 59.8579C25.9052 59.0768 24.6389 59.0768 23.8579 59.8579C23.0768 60.6389 23.0768 61.9052 23.8579 62.6863L36.5858 75.4142ZM36 48L36 74L40 74L40 48L36 48Z" fill="black"/>
    <path d="M27 39C28.1046 39 29 38.1046 29 37C29 35.8954 28.1046 35 27 35L27 39ZM0.585787 35.5858C-0.195262 36.3668 -0.195262 37.6332 0.585786 38.4142L13.3137 51.1421C14.0948 51.9232 15.3611 51.9232 16.1421 51.1421C16.9232 50.3611 16.9232 49.0948 16.1421 48.3137L4.82843 37L16.1421 25.6863C16.9232 24.9052 16.9232 23.6389 16.1421 22.8579C15.3611 22.0768 14.0948 22.0768 13.3137 22.8579L0.585787 35.5858ZM27 35L2 35L2 39L27 39L27 35Z" fill="black"/>
    <circle cx="38.5" cy="38" r="3.5" fill="black"/>
</svg>
