<svg width="234" height="224" viewBox="0 0 234 224" fill="none" xmlns="http://www.w3.org/2000/svg">
    <path
            d="M213.93 145.322C215.818 139.839 212.904 133.864 207.421 131.976C201.938 130.088 195.962 133.002 194.075 138.485L213.93 145.322ZM194.075 138.485C181.145 176.036 136.514 196.4 93.0855 181.447L86.2486 201.303C138.904 219.434 196.653 195.5 213.93 145.322L194.075 138.485ZM93.0855 181.447C49.6572 166.493 27.0253 122.968 39.955 85.4175L20.0991 78.5805C2.82134 128.759 33.5929 183.172 86.2486 201.303L93.0855 181.447ZM39.955 85.4175C52.8847 47.8668 97.5157 27.5021 140.944 42.4557L147.781 22.5998C95.1253 4.46896 37.3768 28.4023 20.0991 78.5805L39.955 85.4175ZM140.944 42.4557C164.168 50.4525 181.635 66.8155 190.711 86.0662L209.706 77.1115C198.181 52.6651 176.288 32.4157 147.781 22.5998L140.944 42.4557Z" fill="white"/>
    <path
            d="M210.475 101.484C215.16 101.774 219.194 98.2104 219.484 93.525L224.209 17.171C224.499 12.4856 220.935 8.45222 216.25 8.16228C211.564 7.87234 207.531 11.4356 207.241 16.1211L203.041 83.9912L135.171 79.7913C130.486 79.5014 126.452 83.0647 126.162 87.7501C125.872 92.4356 129.436 96.4689 134.121 96.7589L210.475 101.484ZM192.072 84.4131L204.63 98.6277L217.37 87.3723L204.812 73.1577L192.072 84.4131Z" fill="white"/>
</svg>
