<svg width="25" height="24" viewBox="0 0 25 24" fill="none" xmlns="http://www.w3.org/2000/svg">
<path d="M20.866 17.1449C20.5333 17.9135 20.1395 18.6211 19.6832 19.2715C19.0613 20.1583 18.552 20.7721 18.1596 21.113C17.5512 21.6724 16.8994 21.959 16.2014 21.9753C15.7003 21.9753 15.096 21.8327 14.3925 21.5434C13.6868 21.2555 13.0382 21.113 12.4452 21.113C11.8232 21.113 11.1562 21.2555 10.4427 21.5434C9.72813 21.8327 9.15248 21.9834 8.71236 21.9984C8.04301 22.0269 7.37583 21.7322 6.70988 21.113C6.28483 20.7422 5.75318 20.1067 5.11629 19.2063C4.43295 18.2449 3.87115 17.13 3.43103 15.8589C2.95968 14.486 2.72339 13.1565 2.72339 11.8694C2.72339 10.3951 3.04197 9.12345 3.68009 8.05784C4.18159 7.20191 4.84876 6.52672 5.68379 6.03105C6.51881 5.53539 7.42105 5.2828 8.39269 5.26664C8.92434 5.26664 9.62153 5.43109 10.4879 5.75429C11.3519 6.07858 11.9066 6.24303 12.1498 6.24303C12.3316 6.24303 12.9479 6.05074 13.9926 5.66738C14.9805 5.31186 15.8143 5.16466 16.4974 5.22264C18.3483 5.37202 19.7389 6.10167 20.6637 7.41619C19.0083 8.4192 18.1894 9.82403 18.2057 11.6262C18.2207 13.03 18.7299 14.1981 19.7307 15.1256C20.1843 15.5561 20.6908 15.8888 21.2544 16.1251C21.1322 16.4795 21.0032 16.819 20.866 17.1449ZM16.621 0.440369C16.621 1.54062 16.219 2.56792 15.4178 3.51878C14.4509 4.64917 13.2814 5.30236 12.0132 5.19929C11.997 5.06729 11.9877 4.92837 11.9877 4.78239C11.9877 3.72615 12.4475 2.59576 13.264 1.67152C13.6717 1.20356 14.1902 0.814453 14.8189 0.504058C15.4463 0.198295 16.0398 0.0292007 16.5979 0.000244141C16.6142 0.147331 16.621 0.294426 16.621 0.440355V0.440369Z" fill="white"/>
</svg>
