<svg width="24" height="25" viewBox="0 0 24 25" fill="none" xmlns="http://www.w3.org/2000/svg">
<path d="M17 7.88965H14C13.45 7.88965 13 8.33965 13 8.88965C13 9.43965 13.45 9.88965 14 9.88965H17C18.65 9.88965 20 11.2396 20 12.8896C20 14.5396 18.65 15.8896 17 15.8896H14C13.45 15.8896 13 16.3396 13 16.8896C13 17.4396 13.45 17.8896 14 17.8896H17C19.76 17.8896 22 15.6496 22 12.8896C22 10.1296 19.76 7.88965 17 7.88965ZM8 12.8896C8 13.4396 8.45 13.8896 9 13.8896H15C15.55 13.8896 16 13.4396 16 12.8896C16 12.3396 15.55 11.8896 15 11.8896H9C8.45 11.8896 8 12.3396 8 12.8896ZM10 15.8896H7C5.35 15.8896 4 14.5396 4 12.8896C4 11.2396 5.35 9.88965 7 9.88965H10C10.55 9.88965 11 9.43965 11 8.88965C11 8.33965 10.55 7.88965 10 7.88965H7C4.24 7.88965 2 10.1296 2 12.8896C2 15.6496 4.24 17.8896 7 17.8896H10C10.55 17.8896 11 17.4396 11 16.8896C11 16.3396 10.55 15.8896 10 15.8896Z" fill="#D9D9D9"/>
</svg>
