<svg width="20" height="21" viewBox="0 0 20 21" fill="none" xmlns="http://www.w3.org/2000/svg">
<path d="M11.9737 4.21345C11.9737 4.47626 12.1849 4.68276 12.443 4.68276H15.0664L10.6326 9.1165C10.4496 9.29953 10.4496 9.59519 10.6326 9.77822C10.8156 9.96125 11.1113 9.96125 11.2943 9.77822L15.7281 5.34448V7.96791C15.7281 8.22603 15.9393 8.43722 16.1975 8.43722C16.4556 8.43722 16.6668 8.22603 16.6668 7.96791V4.21345C16.6668 3.95533 16.4556 3.74414 16.1975 3.74414H12.443C12.1849 3.74414 11.9737 3.95533 11.9737 4.21345Z" fill="#111111"/>
<path d="M8.02656 16.6078C8.02656 16.345 7.81537 16.1385 7.55725 16.1385H4.93382L9.37487 11.6976C9.5579 11.5146 9.5579 11.2189 9.37487 11.0359C9.19184 10.8528 8.89618 10.8528 8.71315 11.0359L4.2721 15.4768V12.8534C4.2721 12.5953 4.06091 12.3841 3.80279 12.3841C3.54467 12.3841 3.33348 12.5953 3.33348 12.8534V16.6078C3.33348 16.866 3.54467 17.0771 3.80279 17.0771H7.55725C7.81537 17.0771 8.02656 16.866 8.02656 16.6078Z" fill="#111111"/>
</svg>
