<svg width="49" height="48" viewBox="0 0 49 48" fill="none" xmlns="http://www.w3.org/2000/svg">
<path d="M2.00817 17.756L4.68755 39.6813C4.76275 40.3208 5.07041 40.9104 5.55199 41.3379C6.03358 41.7654 6.65549 42.0009 7.29943 41.9997H41.7058C42.3497 42.0009 42.9716 41.7654 43.4532 41.3379C43.9348 40.9104 44.2424 40.3208 44.3176 39.6813L46.9933 17.756C47.0118 17.5982 46.9967 17.4384 46.949 17.2869C46.9013 17.1354 46.8221 16.9957 46.7165 16.877C46.6109 16.7584 46.4815 16.6634 46.3365 16.5983C46.1916 16.5333 46.0346 16.4997 45.8758 16.4997H3.12567C2.96684 16.4997 2.80981 16.5333 2.6649 16.5983C2.51999 16.6634 2.3905 16.7584 2.28493 16.877C2.17937 16.9957 2.10013 17.1354 2.05242 17.2869C2.00472 17.4384 1.98964 17.5982 2.00817 17.756ZM44.0008 11.6247C44.0008 10.9286 43.7242 10.2609 43.2319 9.7686C42.7396 9.27631 42.072 8.99975 41.3758 8.99975H23.4545L18.9545 5.99976H7.62568C6.92949 5.99976 6.26181 6.27632 5.76952 6.7686C5.27724 7.26088 5.00068 7.92856 5.00068 8.62475V13.4997H44.0008V11.6247Z" fill="#D9D9D9"/>
</svg>
