<svg width="45" height="36" viewBox="0 0 45 36" fill="none" xmlns="http://www.w3.org/2000/svg">
<path d="M0.00768259 11.756L2.68706 33.6813C2.76227 34.3208 3.06992 34.9104 3.5515 35.3379C4.03309 35.7654 4.655 36.0009 5.29894 35.9997H39.7053C40.3492 36.0009 40.9711 35.7654 41.4527 35.3379C41.9343 34.9104 42.242 34.3208 42.3172 33.6813L44.9928 11.756C45.0113 11.5982 44.9962 11.4384 44.9485 11.2869C44.9008 11.1354 44.8216 10.9957 44.716 10.877C44.6105 10.7584 44.481 10.6634 44.3361 10.5983C44.1911 10.5333 44.0341 10.4997 43.8753 10.4997H1.12519C0.966355 10.4997 0.80932 10.5333 0.664412 10.5983C0.519504 10.6634 0.390007 10.7584 0.284442 10.877C0.178877 10.9957 0.0996375 11.1354 0.0519359 11.2869C0.00423436 11.4384 -0.0108476 11.5982 0.00768259 11.756ZM42.0003 5.62475C42.0003 4.92856 41.7237 4.26088 41.2314 3.7686C40.7391 3.27631 40.0715 2.99975 39.3753 2.99975H21.454L16.954 -0.000244141H5.6252C4.929 -0.000244141 4.26132 0.276317 3.76904 0.7686C3.27675 1.26088 3.00019 1.92856 3.00019 2.62475V7.49975H42.0003V5.62475Z" fill="#707070"/>
</svg>
