<svg width="24" height="25" viewBox="0 0 24 25" fill="none" xmlns="http://www.w3.org/2000/svg">
<g clip-path="url(#clip0_428_101043)">
<path d="M23.7663 13.0151C23.7663 12.1994 23.7001 11.3793 23.559 10.5768H12.2402V15.1978H18.722C18.453 16.6881 17.5888 18.0065 16.3233 18.8443V21.8426H20.1903C22.4611 19.7526 23.7663 16.6661 23.7663 13.0151Z" fill="white"/>
<path d="M12.2391 24.7391C15.4756 24.7391 18.205 23.6765 20.1936 21.8422L16.3266 18.8438C15.2507 19.5758 13.8618 19.9903 12.2435 19.9903C9.11291 19.9903 6.45849 17.8782 5.50607 15.0386H1.51562V18.1295C3.55274 22.1817 7.70192 24.7391 12.2391 24.7391Z" fill="white"/>
<path d="M5.50277 15.0386C5.00011 13.5483 5.00011 11.9344 5.50277 10.4441V7.35315H1.51674C-0.185266 10.7439 -0.185266 14.7388 1.51674 18.1296L5.50277 15.0386Z" fill="white"/>
<path d="M12.2391 5.48831C13.9499 5.46185 15.6034 6.10561 16.8425 7.28731L20.2685 3.86126C18.0991 1.82415 15.2198 0.704181 12.2391 0.739456C7.70192 0.739456 3.55274 3.29687 1.51562 7.35345L5.50166 10.4444C6.44967 7.60038 9.1085 5.48831 12.2391 5.48831Z" fill="white"/>
</g>
<defs>
<clipPath id="clip0_428_101043">
<rect width="24" height="24" fill="white" transform="translate(0 0.738647)"/>
</clipPath>
</defs>
</svg>
