<svg width="162" height="34" viewBox="0 0 162 34" fill="none" xmlns="http://www.w3.org/2000/svg">
<path d="M9.16622 25.5V8.68861H20.2972V11.6191H12.7206V15.625H19.5584V18.5555H12.7206V25.5H9.16622ZM22.6223 25.5V12.8915H26.1192V25.5H22.6223ZM24.379 11.2661C23.8591 11.2661 23.4131 11.0938 23.041 10.749C22.6743 10.3988 22.491 9.98011 22.491 9.49307C22.491 9.01149 22.6743 8.59832 23.041 8.25356C23.4131 7.90332 23.8591 7.7282 24.379 7.7282C24.8989 7.7282 25.3421 7.90332 25.7088 8.25356C26.0809 8.59832 26.267 9.01149 26.267 9.49307C26.267 9.98011 26.0809 10.3988 25.7088 10.749C25.3421 11.0938 24.8989 11.2661 24.379 11.2661ZM35.7008 12.8915V15.5182H27.919V12.8915H35.7008ZM29.7002 25.5V11.9803C29.7002 11.0664 29.8781 10.3085 30.2338 9.70649C30.595 9.10452 31.0875 8.65304 31.7114 8.35206C32.3352 8.05107 33.0439 7.90058 33.8374 7.90058C34.3737 7.90058 34.8635 7.94162 35.3068 8.02371C35.7555 8.1058 36.0893 8.17968 36.3082 8.24535L35.6844 10.8721C35.5476 10.8283 35.3779 10.7873 35.1754 10.749C34.9784 10.7107 34.7759 10.6915 34.568 10.6915C34.0536 10.6915 33.6951 10.8119 33.4927 11.0527C33.2902 11.288 33.1889 11.6191 33.1889 12.046V25.5H29.7002ZM44.5436 12.8915V15.5182H36.9506V12.8915H44.5436ZM38.6744 9.87067H42.1713V21.6255C42.1713 21.9484 42.2205 22.2001 42.319 22.3807C42.4175 22.5558 42.5544 22.6789 42.7295 22.7501C42.9101 22.8212 43.118 22.8568 43.3533 22.8568C43.5175 22.8568 43.6817 22.8431 43.8459 22.8158C44.01 22.7829 44.1359 22.7583 44.2235 22.7419L44.7734 25.344C44.5983 25.3988 44.3521 25.4617 44.0347 25.5328C43.7173 25.6094 43.3314 25.656 42.8772 25.6724C42.0345 25.7052 41.2957 25.593 40.6609 25.3358C40.0316 25.0786 39.5418 24.6791 39.1915 24.1374C38.8413 23.5956 38.6689 22.9115 38.6744 22.0852V9.87067ZM50.5893 18.2107V25.5H47.0924V8.68861H50.4908V15.116H50.6385C50.9231 14.3718 51.3828 13.7889 52.0176 13.3676C52.6524 12.9407 53.4487 12.7273 54.4063 12.7273C55.2819 12.7273 56.0453 12.9188 56.6966 13.3019C57.3533 13.6795 57.8622 14.224 58.2234 14.9354C58.59 15.6414 58.7706 16.4869 58.7651 17.4719V25.5H55.2682V18.0958C55.2737 17.3187 55.0767 16.714 54.6772 16.2816C54.2832 15.8493 53.7305 15.6332 53.0191 15.6332C52.543 15.6332 52.1216 15.7344 51.7549 15.9369C51.3937 16.1394 51.1092 16.4349 50.9012 16.8234C50.6987 17.2065 50.5948 17.6689 50.5893 18.2107Z" fill="#EF8435"/>
<path d="M59.8815 11.6191V8.68861H73.6885V11.6191H68.5417V25.5H65.0284V11.6191H59.8815ZM74.5874 25.5V12.8915H77.9776V15.0914H78.1089C78.3388 14.3088 78.7246 13.7178 79.2663 13.3183C79.8081 12.9134 80.432 12.7109 81.1379 12.7109C81.313 12.7109 81.5018 12.7218 81.7043 12.7437C81.9068 12.7656 82.0847 12.7957 82.2379 12.834V15.9369C82.0737 15.8876 81.8466 15.8439 81.5566 15.8055C81.2665 15.7672 81.0011 15.7481 80.7603 15.7481C80.2459 15.7481 79.7862 15.8603 79.3813 16.0846C78.9818 16.3035 78.6644 16.61 78.4291 17.004C78.1992 17.398 78.0843 17.8522 78.0843 18.3667V25.5H74.5874ZM86.5885 30.2282C86.1452 30.2282 85.7293 30.1926 85.3408 30.1215C84.9577 30.0558 84.6403 29.971 84.3886 29.867L85.1766 27.2567C85.587 27.3825 85.9564 27.4509 86.2848 27.4619C86.6186 27.4728 86.9059 27.3962 87.1467 27.232C87.3929 27.0679 87.5927 26.7888 87.7459 26.3947L87.9511 25.8612L83.4281 12.8915H87.1056L89.716 22.1509H89.8473L92.4823 12.8915H96.1844L91.2838 26.8626C91.0485 27.5412 90.7284 28.1323 90.3234 28.6357C89.9239 29.1447 89.4177 29.5359 88.8048 29.8096C88.1919 30.0887 87.4531 30.2282 86.5885 30.2282Z" fill="#333333"/>
<path d="M109.478 17.346L108.028 17.7565C107.936 17.5148 107.802 17.2799 107.624 17.0519C107.451 16.8193 107.213 16.6278 106.913 16.4773C106.612 16.3268 106.226 16.2515 105.756 16.2515C105.113 16.2515 104.578 16.3998 104.149 16.6962C103.725 16.988 103.513 17.3597 103.513 17.8112C103.513 18.2125 103.659 18.5295 103.951 18.762C104.242 18.9946 104.698 19.1884 105.319 19.3435L106.878 19.7266C107.818 19.9546 108.518 20.3034 108.978 20.7732C109.439 21.2383 109.669 21.838 109.669 22.5722C109.669 23.1742 109.496 23.7123 109.149 24.1866C108.807 24.6609 108.329 25.0348 107.713 25.3085C107.097 25.5821 106.381 25.7189 105.565 25.7189C104.493 25.7189 103.606 25.4863 102.904 25.0212C102.202 24.556 101.757 23.8765 101.57 22.9827L103.102 22.5996C103.248 23.1651 103.524 23.5892 103.93 23.8719C104.34 24.1547 104.876 24.2961 105.538 24.2961C106.29 24.2961 106.887 24.1364 107.33 23.8172C107.777 23.4934 108 23.1058 108 22.6543C108 22.2895 107.872 21.9839 107.617 21.7377C107.362 21.4869 106.97 21.2999 106.441 21.1768L104.689 20.7663C103.727 20.5383 103.02 20.1849 102.569 19.706C102.122 19.2226 101.898 18.6184 101.898 17.8933C101.898 17.3004 102.065 16.776 102.398 16.32C102.735 15.8639 103.194 15.5059 103.773 15.246C104.356 14.986 105.018 14.8561 105.756 14.8561C106.796 14.8561 107.613 15.0841 108.205 15.5401C108.803 15.9962 109.227 16.5981 109.478 17.346ZM113.714 11.4905V25.5H112.099V11.4905H113.714ZM116.671 25.5V14.9929H118.285V25.5H116.671ZM117.491 13.2417C117.177 13.2417 116.905 13.1345 116.677 12.9202C116.454 12.7059 116.342 12.4482 116.342 12.1472C116.342 11.8462 116.454 11.5886 116.677 11.3742C116.905 11.1599 117.177 11.0527 117.491 11.0527C117.806 11.0527 118.075 11.1599 118.299 11.3742C118.527 11.5886 118.641 11.8462 118.641 12.1472C118.641 12.4482 118.527 12.7059 118.299 12.9202C118.075 13.1345 117.806 13.2417 117.491 13.2417ZM125.209 25.7189C124.334 25.7189 123.561 25.4977 122.89 25.0554C122.22 24.6084 121.696 23.9791 121.317 23.1674C120.939 22.3511 120.749 21.3865 120.749 20.2738C120.749 19.1702 120.939 18.2125 121.317 17.4008C121.696 16.589 122.222 15.962 122.897 15.5196C123.572 15.0772 124.352 14.8561 125.237 14.8561C125.921 14.8561 126.461 14.9701 126.858 15.1981C127.259 15.4216 127.565 15.6769 127.775 15.9642C127.989 16.247 128.155 16.4796 128.274 16.662H128.411V11.4905H130.025V25.5H128.465V23.8856H128.274C128.155 24.0772 127.987 24.3189 127.768 24.6107C127.549 24.898 127.236 25.1557 126.831 25.3837C126.425 25.6072 125.884 25.7189 125.209 25.7189ZM125.428 24.2687C126.076 24.2687 126.623 24.1 127.07 23.7625C127.517 23.4205 127.857 22.9485 128.089 22.3465C128.322 21.74 128.438 21.0399 128.438 20.2464C128.438 19.4621 128.324 18.7757 128.096 18.1874C127.868 17.5946 127.531 17.134 127.084 16.8056C126.637 16.4727 126.085 16.3063 125.428 16.3063C124.744 16.3063 124.174 16.4818 123.718 16.833C123.267 17.1796 122.927 17.6516 122.699 18.249C122.475 18.8418 122.364 19.5077 122.364 20.2464C122.364 20.9943 122.478 21.6738 122.706 22.2849C122.938 22.8915 123.28 23.3749 123.732 23.7351C124.188 24.0908 124.753 24.2687 125.428 24.2687ZM137.611 25.7189C136.599 25.7189 135.726 25.4954 134.991 25.0485C134.262 24.597 133.698 23.9677 133.302 23.1605C132.91 22.3488 132.713 21.4048 132.713 20.3285C132.713 19.2523 132.91 18.3037 133.302 17.4829C133.698 16.6574 134.25 16.0144 134.957 15.5538C135.669 15.0887 136.499 14.8561 137.447 14.8561C137.994 14.8561 138.535 14.9473 139.068 15.1297C139.602 15.3121 140.088 15.6085 140.525 16.019C140.963 16.4248 141.312 16.963 141.572 17.6333C141.832 18.3037 141.962 19.1291 141.962 20.1096V20.7937H133.863V19.3982H140.32C140.32 18.8054 140.202 18.2764 139.964 17.8112C139.732 17.346 139.399 16.9789 138.966 16.7099C138.537 16.4408 138.031 16.3063 137.447 16.3063C136.804 16.3063 136.248 16.4659 135.778 16.7851C135.313 17.0998 134.955 17.5102 134.704 18.0164C134.453 18.5226 134.328 19.0653 134.328 19.6445V20.5748C134.328 21.3683 134.465 22.041 134.738 22.5928C135.016 23.14 135.402 23.5573 135.894 23.8446C136.387 24.1273 136.959 24.2687 137.611 24.2687C138.035 24.2687 138.418 24.2094 138.76 24.0908C139.107 23.9677 139.406 23.7853 139.657 23.5436C139.907 23.2973 140.101 22.9918 140.238 22.627L141.798 23.0648C141.634 23.5938 141.358 24.0589 140.97 24.4602C140.582 24.857 140.104 25.1671 139.533 25.3906C138.963 25.6094 138.323 25.7189 137.611 25.7189ZM151.86 17.346L150.41 17.7565C150.319 17.5148 150.184 17.2799 150.006 17.0519C149.833 16.8193 149.596 16.6278 149.295 16.4773C148.994 16.3268 148.609 16.2515 148.139 16.2515C147.496 16.2515 146.96 16.3998 146.531 16.6962C146.107 16.988 145.895 17.3597 145.895 17.8112C145.895 18.2125 146.041 18.5295 146.333 18.762C146.625 18.9946 147.081 19.1884 147.701 19.3435L149.261 19.7266C150.2 19.9546 150.9 20.3034 151.361 20.7732C151.821 21.2383 152.052 21.838 152.052 22.5722C152.052 23.1742 151.878 23.7123 151.532 24.1866C151.19 24.6609 150.711 25.0348 150.095 25.3085C149.48 25.5821 148.764 25.7189 147.947 25.7189C146.876 25.7189 145.989 25.4863 145.286 25.0212C144.584 24.556 144.139 23.8765 143.952 22.9827L145.485 22.5996C145.631 23.1651 145.907 23.5892 146.312 23.8719C146.723 24.1547 147.259 24.2961 147.92 24.2961C148.672 24.2961 149.27 24.1364 149.712 23.8172C150.159 23.4934 150.383 23.1058 150.383 22.6543C150.383 22.2895 150.255 21.9839 150 21.7377C149.744 21.4869 149.352 21.2999 148.823 21.1768L147.072 20.7663C146.11 20.5383 145.403 20.1849 144.951 19.706C144.504 19.2226 144.281 18.6184 144.281 17.8933C144.281 17.3004 144.447 16.776 144.78 16.32C145.118 15.8639 145.576 15.5059 146.155 15.246C146.739 14.986 147.4 14.8561 148.139 14.8561C149.179 14.8561 149.995 15.0841 150.588 15.5401C151.185 15.9962 151.609 16.5981 151.86 17.346Z" fill="#333333"/>
</svg>
