<svg width="15" height="10" viewBox="0 0 15 10" fill="none" xmlns="http://www.w3.org/2000/svg">
<path d="M5.49967 4.99992C6.78634 4.99992 7.83301 3.95325 7.83301 2.66659C7.83301 1.37992 6.78634 0.333252 5.49967 0.333252C4.21301 0.333252 3.16634 1.37992 3.16634 2.66659C3.16634 3.95325 4.21301 4.99992 5.49967 4.99992ZM5.49967 1.66659C6.05301 1.66659 6.49967 2.11325 6.49967 2.66659C6.49967 3.21992 6.05301 3.66659 5.49967 3.66659C4.94634 3.66659 4.49967 3.21992 4.49967 2.66659C4.49967 2.11325 4.94634 1.66659 5.49967 1.66659ZM5.53301 8.33325H2.67967C3.33967 7.99992 4.47967 7.66659 5.49967 7.66659C5.57301 7.66659 5.65301 7.67325 5.72634 7.67325C5.95301 7.18659 6.34634 6.78659 6.81967 6.46659C6.33301 6.37992 5.87301 6.33325 5.49967 6.33325C3.93967 6.33325 0.833008 7.11325 0.833008 8.66659V9.66659H5.49967V8.66659C5.49967 8.55325 5.51301 8.43992 5.53301 8.33325ZM10.4997 6.66659C9.27301 6.66659 6.83301 7.33992 6.83301 8.66659V9.66659H14.1663V8.66659C14.1663 7.33992 11.7263 6.66659 10.4997 6.66659ZM11.3063 5.45325C11.813 5.16659 12.1663 4.62659 12.1663 3.99992C12.1663 3.07992 11.4197 2.33325 10.4997 2.33325C9.57967 2.33325 8.83301 3.07992 8.83301 3.99992C8.83301 4.62659 9.18634 5.16659 9.69301 5.45325C9.93301 5.58659 10.2063 5.66659 10.4997 5.66659C10.793 5.66659 11.0663 5.58659 11.3063 5.45325Z" fill="#707070"/>
</svg>
