<svg width="15" height="10" viewBox="0 0 15 10" fill="none" xmlns="http://www.w3.org/2000/svg">
<path d="M5.49992 4.99992C6.78659 4.99992 7.83325 3.95325 7.83325 2.66659C7.83325 1.37992 6.78659 0.333252 5.49992 0.333252C4.21325 0.333252 3.16659 1.37992 3.16659 2.66659C3.16659 3.95325 4.21325 4.99992 5.49992 4.99992ZM5.49992 1.66659C6.05325 1.66659 6.49992 2.11325 6.49992 2.66659C6.49992 3.21992 6.05325 3.66659 5.49992 3.66659C4.94659 3.66659 4.49992 3.21992 4.49992 2.66659C4.49992 2.11325 4.94659 1.66659 5.49992 1.66659ZM5.53325 8.33325H2.67992C3.33992 7.99992 4.47992 7.66659 5.49992 7.66659C5.57325 7.66659 5.65325 7.67325 5.72659 7.67325C5.95325 7.18659 6.34659 6.78659 6.81992 6.46659C6.33325 6.37992 5.87325 6.33325 5.49992 6.33325C3.93992 6.33325 0.833252 7.11325 0.833252 8.66659V9.66659H5.49992V8.66659C5.49992 8.55325 5.51325 8.43992 5.53325 8.33325ZM10.4999 6.66659C9.27325 6.66659 6.83325 7.33992 6.83325 8.66659V9.66659H14.1666V8.66659C14.1666 7.33992 11.7266 6.66659 10.4999 6.66659ZM11.3066 5.45325C11.8133 5.16659 12.1666 4.62659 12.1666 3.99992C12.1666 3.07992 11.4199 2.33325 10.4999 2.33325C9.57992 2.33325 8.83325 3.07992 8.83325 3.99992C8.83325 4.62659 9.18659 5.16659 9.69325 5.45325C9.93325 5.58659 10.2066 5.66659 10.4999 5.66659C10.7933 5.66659 11.0666 5.58659 11.3066 5.45325Z" fill="#D9D9D9"/>
</svg>

