<svg width="25" height="25" viewBox="0 0 25 25" fill="none" xmlns="http://www.w3.org/2000/svg">
<path d="M12.5454 21.9551C13.6454 21.9551 14.5454 21.0551 14.5454 19.9551H10.5454C10.5454 21.0551 11.4454 21.9551 12.5454 21.9551ZM18.5454 15.9551V10.9551C18.5454 7.88508 16.9154 5.31508 14.0454 4.63508V3.95508C14.0454 3.12508 13.3754 2.45508 12.5454 2.45508C11.7154 2.45508 11.0454 3.12508 11.0454 3.95508V4.63508C8.18541 5.31508 6.54541 7.87508 6.54541 10.9551V15.9551L4.54541 17.9551V18.9551H20.5454V17.9551L18.5454 15.9551ZM16.5454 16.9551H8.54541V10.9551C8.54541 8.47508 10.0554 6.45508 12.5454 6.45508C15.0354 6.45508 16.5454 8.47508 16.5454 10.9551V16.9551Z" fill="#D9D9D9"/>
</svg>
