<svg width="33" height="33" viewBox="0 0 33 33" fill="none" xmlns="http://www.w3.org/2000/svg">
<rect x="1" y="1.27979" width="31" height="31" rx="3.5" fill="#2B2B2B"/>
<rect x="1" y="1.27979" width="31" height="31" rx="3.5" stroke="#434547"/>
<path d="M16.875 16.7798C16.875 16.9869 16.7071 17.1548 16.5 17.1548C16.2929 17.1548 16.125 16.9869 16.125 16.7798C16.125 16.5727 16.2929 16.4048 16.5 16.4048C16.7071 16.4048 16.875 16.5727 16.875 16.7798Z" fill="#D9D9D9" stroke="#D9D9D9" stroke-width="1.5"/>
<path d="M16.875 10.7798C16.875 10.9869 16.7071 11.1548 16.5 11.1548C16.2929 11.1548 16.125 10.9869 16.125 10.7798C16.125 10.5727 16.2929 10.4048 16.5 10.4048C16.7071 10.4048 16.875 10.5727 16.875 10.7798Z" fill="#D9D9D9" stroke="#D9D9D9" stroke-width="1.5"/>
<path d="M16.875 22.7798C16.875 22.9869 16.7071 23.1548 16.5 23.1548C16.2929 23.1548 16.125 22.9869 16.125 22.7798C16.125 22.5727 16.2929 22.4048 16.5 22.4048C16.7071 22.4048 16.875 22.5727 16.875 22.7798Z" fill="#D9D9D9" stroke="#D9D9D9" stroke-width="1.5"/>
</svg>
