<svg width="17" height="17" viewBox="0 0 17 17" fill="none" xmlns="http://www.w3.org/2000/svg">
<path d="M4.93628 13.9106C5.90278 13.9106 6.68628 13.1271 6.68628 12.1606C6.68628 11.1941 5.90278 10.4106 4.93628 10.4106C3.96978 10.4106 3.18628 11.1941 3.18628 12.1606C3.18628 13.1271 3.96978 13.9106 4.93628 13.9106Z" stroke="white" stroke-linecap="round" stroke-linejoin="round"/>
<path d="M4.93628 6.41064C5.90278 6.41064 6.68628 5.62714 6.68628 4.66064C6.68628 3.69415 5.90278 2.91064 4.93628 2.91064C3.96978 2.91064 3.18628 3.69415 3.18628 4.66064C3.18628 5.62714 3.96978 6.41064 4.93628 6.41064Z" stroke="white" stroke-linecap="round" stroke-linejoin="round"/>
<path d="M4.93628 6.41064V10.4106" stroke="white" stroke-linecap="round" stroke-linejoin="round"/>
<path d="M12.4364 13.9106C13.4029 13.9106 14.1864 13.1271 14.1864 12.1606C14.1864 11.1941 13.4029 10.4106 12.4364 10.4106C11.4699 10.4106 10.6864 11.1941 10.6864 12.1606C10.6864 13.1271 11.4699 13.9106 12.4364 13.9106Z" stroke="white" stroke-linecap="round" stroke-linejoin="round"/>
<path d="M12.4364 10.4106L12.4363 7.90321C12.4363 7.10761 12.1202 6.34459 11.5576 5.78202L9.18628 3.41064" stroke="white" stroke-linecap="round" stroke-linejoin="round"/>
<path d="M9.18628 5.91064V3.41064H11.6863" stroke="white" stroke-linecap="round" stroke-linejoin="round"/>
</svg>
