<svg width="18" height="17" viewBox="0 0 18 17" fill="none" xmlns="http://www.w3.org/2000/svg">
<path d="M1.32696 14.5775L2.44363 15.0441V7.51914L0.418629 12.4025C0.0769625 13.2525 0.485296 14.2275 1.32696 14.5775ZM17.577 11.4941L13.4436 1.51914C13.1853 0.894141 12.577 0.510807 11.9353 0.494141C11.7186 0.494141 11.4936 0.527474 11.277 0.619141L5.1353 3.16081C4.5103 3.41914 4.12696 4.01914 4.1103 4.66081C4.10196 4.88581 4.14363 5.11081 4.2353 5.32747L8.36863 15.3025C8.62696 15.9358 9.24363 16.3191 9.89363 16.3275C10.1103 16.3275 10.327 16.2858 10.5353 16.2025L16.6686 13.6608C17.5186 13.3108 17.927 12.3358 17.577 11.4941ZM9.9103 14.6608L5.77696 4.69414L11.902 2.16081H11.9103L16.0353 12.1191L9.9103 14.6608Z" fill="#111111"/>
<path d="M8.3853 6.53581C8.84553 6.53581 9.21863 6.16271 9.21863 5.70247C9.21863 5.24224 8.84553 4.86914 8.3853 4.86914C7.92506 4.86914 7.55196 5.24224 7.55196 5.70247C7.55196 6.16271 7.92506 6.53581 8.3853 6.53581Z" fill="#111111"/>
<path d="M4.11863 14.6608C4.11863 15.5775 4.86863 16.3275 5.7853 16.3275H6.99363L4.11863 9.37747V14.6608Z" fill="#111111"/>
</svg>
