<svg width="17" height="17" viewBox="0 0 17 17" fill="none" xmlns="http://www.w3.org/2000/svg">
<g clip-path="url(#clip0_150_13667)">
<path d="M12.7686 5.46856H11.4353C11.0686 5.46856 10.7686 5.76856 10.7686 6.13523C10.7686 6.50189 11.0686 6.80189 11.4353 6.80189H12.7686V14.1352H4.76864V6.80189H6.10197C6.46864 6.80189 6.76864 6.50189 6.76864 6.13523C6.76864 5.76856 6.46864 5.46856 6.10197 5.46856H4.76864C4.0353 5.46856 3.4353 6.06856 3.4353 6.80189V14.1352C3.4353 14.8686 4.0353 15.4686 4.76864 15.4686H12.7686C13.502 15.4686 14.102 14.8686 14.102 14.1352V6.80189C14.102 6.06856 13.502 5.46856 12.7686 5.46856Z" fill="#111111"/>
<path d="M8.76864 10.8019C9.1353 10.8019 9.4353 10.5019 9.4353 10.1352V3.46856H10.6286C10.9286 3.46856 11.0753 3.10856 10.862 2.90189L9.00197 1.04189C8.86864 0.908561 8.66197 0.908561 8.52864 1.04189L6.66864 2.90189C6.46197 3.10856 6.60864 3.46856 6.90864 3.46856H8.10197V10.1352C8.10197 10.5019 8.40197 10.8019 8.76864 10.8019Z" fill="#111111"/>
</g>
<defs>
<clipPath id="clip0_150_13667">
<rect width="16" height="16" fill="white" transform="translate(0.768677 0.205078)"/>
</clipPath>
</defs>
</svg>
