<svg width="18" height="19" viewBox="0 0 18 19" fill="none" xmlns="http://www.w3.org/2000/svg">
<path d="M13.5 14.9716H4.5C4.0875 14.9716 3.75 14.6341 3.75 14.2216V5.22156C3.75 4.80906 4.0875 4.47156 4.5 4.47156H8.25C8.6625 4.47156 9 4.13406 9 3.72156C9 3.30906 8.6625 2.97156 8.25 2.97156H3.75C2.9175 2.97156 2.25 3.64656 2.25 4.47156V14.9716C2.25 15.7966 2.925 16.4716 3.75 16.4716H14.25C15.075 16.4716 15.75 15.7966 15.75 14.9716V10.4716C15.75 10.0591 15.4125 9.72156 15 9.72156C14.5875 9.72156 14.25 10.0591 14.25 10.4716V14.2216C14.25 14.6341 13.9125 14.9716 13.5 14.9716ZM10.5 3.72156C10.5 4.13406 10.8375 4.47156 11.25 4.47156H13.1925L6.345 11.3191C6.0525 11.6116 6.0525 12.0841 6.345 12.3766C6.6375 12.6691 7.11 12.6691 7.4025 12.3766L14.25 5.52906V7.47156C14.25 7.88406 14.5875 8.22156 15 8.22156C15.4125 8.22156 15.75 7.88406 15.75 7.47156V3.72156C15.75 3.30906 15.4125 2.97156 15 2.97156H11.25C10.8375 2.97156 10.5 3.30906 10.5 3.72156Z" fill="#F7F7F7"/>
</svg>
