<svg width="136" height="33" viewBox="0 0 136 33" fill="none" xmlns="http://www.w3.org/2000/svg">
<path d="M1.46115 25V8.18861H12.5921V11.1191H5.01551V15.125H11.8533V18.0555H5.01551V25H1.46115ZM14.9172 25V12.3915H18.4141V25H14.9172ZM16.6739 10.7661C16.154 10.7661 15.708 10.5938 15.3359 10.249C14.9692 9.89876 14.7859 9.48011 14.7859 8.99307C14.7859 8.51149 14.9692 8.09832 15.3359 7.75356C15.708 7.40332 16.154 7.2282 16.6739 7.2282C17.1938 7.2282 17.637 7.40332 18.0037 7.75356C18.3758 8.09832 18.5619 8.51149 18.5619 8.99307C18.5619 9.48011 18.3758 9.89876 18.0037 10.249C17.637 10.5938 17.1938 10.7661 16.6739 10.7661ZM27.9957 12.3915V15.0182H20.2139V12.3915H27.9957ZM21.9952 25V11.4803C21.9952 10.5664 22.173 9.80846 22.5287 9.20649C22.8899 8.60452 23.3824 8.15304 24.0063 7.85206C24.6302 7.55107 25.3388 7.40058 26.1323 7.40058C26.6686 7.40058 27.1584 7.44162 27.6017 7.52371C28.0504 7.6058 28.3843 7.67968 28.6032 7.74535L27.9793 10.3721C27.8425 10.3283 27.6728 10.2873 27.4704 10.249C27.2734 10.2107 27.0709 10.1915 26.8629 10.1915C26.3485 10.1915 25.9901 10.3119 25.7876 10.5527C25.5851 10.788 25.4839 11.1191 25.4839 11.546V25H21.9952ZM36.8385 12.3915V15.0182H29.2455V12.3915H36.8385ZM30.9693 9.37067H34.4662V21.1255C34.4662 21.4484 34.5155 21.7001 34.614 21.8807C34.7125 22.0558 34.8493 22.1789 35.0244 22.2501C35.205 22.3212 35.4129 22.3568 35.6483 22.3568C35.8124 22.3568 35.9766 22.3431 36.1408 22.3158C36.305 22.2829 36.4308 22.2583 36.5184 22.2419L37.0684 24.844C36.8932 24.8988 36.647 24.9617 36.3296 25.0328C36.0122 25.1094 35.6264 25.156 35.1722 25.1724C34.3294 25.2052 33.5906 25.093 32.9558 24.8358C32.3265 24.5786 31.8367 24.1791 31.4865 23.6374C31.1362 23.0956 30.9638 22.4115 30.9693 21.5852V9.37067ZM42.8842 17.7107V25H39.3873V8.18861H42.7857V14.616H42.9335C43.218 13.8718 43.6777 13.2889 44.3125 12.8676C44.9473 12.4407 45.7436 12.2273 46.7013 12.2273C47.5768 12.2273 48.3403 12.4188 48.9915 12.8019C49.6482 13.1795 50.1571 13.724 50.5183 14.4354C50.8849 15.1414 51.0655 15.9869 51.0601 16.9719V25H47.5632V17.5958C47.5686 16.8187 47.3716 16.214 46.9721 15.7816C46.5781 15.3493 46.0254 15.1332 45.314 15.1332C44.8379 15.1332 44.4165 15.2344 44.0498 15.4369C43.6887 15.6394 43.4041 15.9349 43.1961 16.3234C42.9937 16.7065 42.8897 17.1689 42.8842 17.7107Z" fill="#EF8435"/>
<path d="M52.1764 11.1191V8.18861H65.9835V11.1191H60.8366V25H57.3233V11.1191H52.1764ZM66.8823 25V12.3915H70.2725V14.5914H70.4038C70.6337 13.8088 71.0195 13.2178 71.5613 12.8183C72.103 12.4134 72.7269 12.2109 73.4328 12.2109C73.608 12.2109 73.7968 12.2218 73.9992 12.2437C74.2017 12.2656 74.3796 12.2957 74.5328 12.334V15.4369C74.3686 15.3876 74.1415 15.3439 73.8515 15.3055C73.5614 15.2672 73.296 15.2481 73.0552 15.2481C72.5408 15.2481 72.0811 15.3603 71.6762 15.5846C71.2767 15.8035 70.9593 16.11 70.724 16.504C70.4941 16.898 70.3792 17.3522 70.3792 17.8667V25H66.8823ZM78.8834 29.7282C78.4401 29.7282 78.0242 29.6926 77.6357 29.6215C77.2526 29.5558 76.9352 29.471 76.6835 29.367L77.4715 26.7567C77.8819 26.8825 78.2513 26.9509 78.5797 26.9619C78.9135 26.9728 79.2008 26.8962 79.4416 26.732C79.6879 26.5679 79.8876 26.2888 80.0408 25.8947L80.246 25.3612L75.7231 12.3915H79.4005L82.0109 21.6509H82.1422L84.7772 12.3915H88.4794L83.5788 26.3626C83.3435 27.0412 83.0233 27.6323 82.6184 28.1357C82.2189 28.6447 81.7127 29.0359 81.0997 29.3096C80.4868 29.5887 79.748 29.7282 78.8834 29.7282Z" fill="white"/>
<path d="M101.92 16.846L100.47 17.2565C100.379 17.0148 100.244 16.7799 100.066 16.5519C99.893 16.3193 99.6559 16.1278 99.3549 15.9773C99.0539 15.8268 98.6686 15.7515 98.1988 15.7515C97.5558 15.7515 97.02 15.8998 96.5913 16.1962C96.1672 16.488 95.9551 16.8597 95.9551 17.3112C95.9551 17.7125 96.1011 18.0295 96.3929 18.262C96.6848 18.4946 97.1408 18.6884 97.761 18.8435L99.3207 19.2266C100.26 19.4546 100.96 19.8034 101.421 20.2732C101.881 20.7383 102.112 21.338 102.112 22.0722C102.112 22.6742 101.938 23.2123 101.592 23.6866C101.25 24.1609 100.771 24.5348 100.155 24.8085C99.5396 25.0821 98.8236 25.2189 98.0073 25.2189C96.9356 25.2189 96.0486 24.9863 95.3463 24.5212C94.644 24.056 94.1994 23.3765 94.0124 22.4827L95.5447 22.0996C95.6906 22.6651 95.9665 23.0892 96.3724 23.3719C96.7828 23.6547 97.3187 23.7961 97.9799 23.7961C98.7324 23.7961 99.3298 23.6364 99.7722 23.3172C100.219 22.9934 100.443 22.6058 100.443 22.1543C100.443 21.7895 100.315 21.4839 100.059 21.2377C99.8041 20.9869 99.4119 20.7999 98.8829 20.6768L97.1317 20.2663C96.1695 20.0383 95.4626 19.6849 95.0111 19.206C94.5642 18.7226 94.3408 18.1184 94.3408 17.3933C94.3408 16.8004 94.5072 16.276 94.8401 15.82C95.1776 15.3639 95.6359 15.0059 96.2151 14.746C96.7988 14.486 97.4601 14.3561 98.1988 14.3561C99.2386 14.3561 100.055 14.5841 100.648 15.0401C101.245 15.4962 101.669 16.0981 101.92 16.846ZM104.542 25V14.4929H106.156V25H104.542ZM105.363 12.7417C105.048 12.7417 104.777 12.6345 104.549 12.4202C104.325 12.2059 104.213 11.9482 104.213 11.6472C104.213 11.3462 104.325 11.0886 104.549 10.8742C104.777 10.6599 105.048 10.5527 105.363 10.5527C105.677 10.5527 105.946 10.6599 106.17 10.8742C106.398 11.0886 106.512 11.3462 106.512 11.6472C106.512 11.9482 106.398 12.2059 106.17 12.4202C105.946 12.6345 105.677 12.7417 105.363 12.7417ZM113.682 14.4929V15.861H108.237V14.4929H113.682ZM109.824 11.9756H111.439V21.9901C111.439 22.4462 111.505 22.7882 111.637 23.0162C111.774 23.2397 111.947 23.3902 112.157 23.4677C112.371 23.5407 112.597 23.5772 112.834 23.5772C113.012 23.5772 113.158 23.568 113.272 23.5498C113.386 23.527 113.477 23.5088 113.546 23.4951L113.874 24.9453C113.765 24.9863 113.612 25.0274 113.416 25.0684C113.22 25.114 112.971 25.1368 112.67 25.1368C112.214 25.1368 111.767 25.0388 111.329 24.8427C110.896 24.6466 110.536 24.3479 110.248 23.9466C109.966 23.5452 109.824 23.039 109.824 22.4279V11.9756ZM120.403 25.2189C119.391 25.2189 118.518 24.9954 117.783 24.5485C117.054 24.097 116.491 23.4677 116.094 22.6605C115.702 21.8488 115.505 20.9048 115.505 19.8285C115.505 18.7523 115.702 17.8037 116.094 16.9829C116.491 16.1574 117.042 15.5144 117.749 15.0538C118.461 14.5887 119.291 14.3561 120.239 14.3561C120.786 14.3561 121.327 14.4473 121.86 14.6297C122.394 14.8121 122.88 15.1085 123.317 15.519C123.755 15.9248 124.104 16.463 124.364 17.1333C124.624 17.8037 124.754 18.6291 124.754 19.6096V20.2937H116.655V18.8982H123.112C123.112 18.3054 122.994 17.7764 122.756 17.3112C122.524 16.846 122.191 16.4789 121.758 16.2099C121.329 15.9408 120.823 15.8063 120.239 15.8063C119.596 15.8063 119.04 15.9659 118.57 16.2851C118.105 16.5998 117.747 17.0102 117.496 17.5164C117.245 18.0226 117.12 18.5653 117.12 19.1445V20.0748C117.12 20.8683 117.257 21.541 117.53 22.0928C117.808 22.64 118.194 23.0573 118.686 23.3446C119.179 23.6273 119.751 23.7687 120.403 23.7687C120.827 23.7687 121.211 23.7094 121.553 23.5908C121.899 23.4677 122.198 23.2853 122.449 23.0436C122.699 22.7973 122.893 22.4918 123.03 22.127L124.59 22.5648C124.426 23.0938 124.15 23.5589 123.762 23.9602C123.374 24.357 122.896 24.6671 122.326 24.8906C121.755 25.1094 121.115 25.2189 120.403 25.2189ZM134.652 16.846L133.202 17.2565C133.111 17.0148 132.976 16.7799 132.798 16.5519C132.625 16.3193 132.388 16.1278 132.087 15.9773C131.786 15.8268 131.401 15.7515 130.931 15.7515C130.288 15.7515 129.752 15.8998 129.323 16.1962C128.899 16.488 128.687 16.8597 128.687 17.3112C128.687 17.7125 128.833 18.0295 129.125 18.262C129.417 18.4946 129.873 18.6884 130.493 18.8435L132.053 19.2266C132.992 19.4546 133.692 19.8034 134.153 20.2732C134.613 20.7383 134.844 21.338 134.844 22.0722C134.844 22.6742 134.67 23.2123 134.324 23.6866C133.982 24.1609 133.503 24.5348 132.887 24.8085C132.272 25.0821 131.556 25.2189 130.739 25.2189C129.668 25.2189 128.781 24.9863 128.078 24.5212C127.376 24.056 126.932 23.3765 126.745 22.4827L128.277 22.0996C128.423 22.6651 128.699 23.0892 129.105 23.3719C129.515 23.6547 130.051 23.7961 130.712 23.7961C131.465 23.7961 132.062 23.6364 132.504 23.3172C132.951 22.9934 133.175 22.6058 133.175 22.1543C133.175 21.7895 133.047 21.4839 132.792 21.2377C132.536 20.9869 132.144 20.7999 131.615 20.6768L129.864 20.2663C128.902 20.0383 128.195 19.6849 127.743 19.206C127.296 18.7226 127.073 18.1184 127.073 17.3933C127.073 16.8004 127.239 16.276 127.572 15.82C127.91 15.3639 128.368 15.0059 128.947 14.746C129.531 14.486 130.192 14.3561 130.931 14.3561C131.971 14.3561 132.787 14.5841 133.38 15.0401C133.977 15.4962 134.401 16.0981 134.652 16.846Z" fill="white"/>
</svg>
