<svg width="21" height="21" viewBox="0 0 21 21" fill="none" xmlns="http://www.w3.org/2000/svg">
<path d="M15.5 16.055H5.5C5.04167 16.055 4.66667 15.68 4.66667 15.2217V5.22168C4.66667 4.76335 5.04167 4.38835 5.5 4.38835H9.66667C10.125 4.38835 10.5 4.01335 10.5 3.55501C10.5 3.09668 10.125 2.72168 9.66667 2.72168H4.66667C3.74167 2.72168 3 3.47168 3 4.38835V16.055C3 16.9717 3.75 17.7217 4.66667 17.7217H16.3333C17.25 17.7217 18 16.9717 18 16.055V11.055C18 10.5967 17.625 10.2217 17.1667 10.2217C16.7083 10.2217 16.3333 10.5967 16.3333 11.055V15.2217C16.3333 15.68 15.9583 16.055 15.5 16.055ZM12.1667 3.55501C12.1667 4.01335 12.5417 4.38835 13 4.38835H15.1583L7.55 11.9967C7.225 12.3217 7.225 12.8467 7.55 13.1717C7.875 13.4967 8.4 13.4967 8.725 13.1717L16.3333 5.56335V7.72168C16.3333 8.18001 16.7083 8.55501 17.1667 8.55501C17.625 8.55501 18 8.18001 18 7.72168V3.55501C18 3.09668 17.625 2.72168 17.1667 2.72168H13C12.5417 2.72168 12.1667 3.09668 12.1667 3.55501Z" fill="white"/>
</svg>
