<svg width="116" height="39" viewBox="0 0 116 39" fill="none" xmlns="http://www.w3.org/2000/svg">
<path d="M23.5055 29.485H7.4295V13.409L8.41372 12.4248L7.4295 13.409L23.5055 29.485Z" stroke="white" stroke-width="2.7838"/>
<path d="M11.8493 9.09096H27.9254V25.1669L26.9411 26.1512L27.9254 25.1669L11.8493 9.09096Z" stroke="white" stroke-width="2.7838"/>
<path d="M39.8434 31V7.71734H44.0611V27.4644H54.3155V31H39.8434ZM65.4111 31.3411C63.7059 31.3411 62.228 30.9659 60.9774 30.2156C59.7269 29.4653 58.7568 28.4156 58.0671 27.0665C57.385 25.7174 57.0439 24.141 57.0439 22.3372C57.0439 20.5334 57.385 18.9532 58.0671 17.5966C58.7568 16.2399 59.7269 15.1864 60.9774 14.4361C62.228 13.6858 63.7059 13.3106 65.4111 13.3106C67.1164 13.3106 68.5943 13.6858 69.8448 14.4361C71.0954 15.1864 72.0617 16.2399 72.7438 17.5966C73.4335 18.9532 73.7783 20.5334 73.7783 22.3372C73.7783 24.141 73.4335 25.7174 72.7438 27.0665C72.0617 28.4156 71.0954 29.4653 69.8448 30.2156C68.5943 30.9659 67.1164 31.3411 65.4111 31.3411ZM65.4339 28.0442C66.3585 28.0442 67.1316 27.7903 67.753 27.2825C68.3745 26.7671 68.8368 26.0774 69.14 25.2134C69.4507 24.3494 69.6061 23.3869 69.6061 22.3258C69.6061 21.2572 69.4507 20.2909 69.14 19.4269C68.8368 18.5553 68.3745 17.8618 67.753 17.3464C67.1316 16.8311 66.3585 16.5734 65.4339 16.5734C64.4865 16.5734 63.6983 16.8311 63.0692 17.3464C62.4477 17.8618 61.9816 18.5553 61.6709 19.4269C61.3677 20.2909 61.2162 21.2572 61.2162 22.3258C61.2162 23.3869 61.3677 24.3494 61.6709 25.2134C61.9816 26.0774 62.4477 26.7671 63.0692 27.2825C63.6983 27.7903 64.4865 28.0442 65.4339 28.0442ZM84.8655 37.912C83.3876 37.912 82.1181 37.7112 81.057 37.3095C79.996 36.9154 79.1433 36.3849 78.4991 35.7179C77.8549 35.051 77.4077 34.312 77.1576 33.5011L80.8637 32.603C81.0305 32.944 81.273 33.2813 81.5913 33.6148C81.9096 33.9558 82.3379 34.2362 82.876 34.456C83.4217 34.6834 84.1076 34.7971 84.9337 34.7971C86.1008 34.7971 87.0672 34.5129 87.8326 33.9444C88.5981 33.3836 88.9808 32.459 88.9808 31.1705V27.8623H88.7762C88.564 28.2867 88.2533 28.7225 87.844 29.1697C87.4423 29.6168 86.908 29.992 86.241 30.2952C85.5817 30.5983 84.7518 30.7499 83.7513 30.7499C82.4099 30.7499 81.1934 30.4354 80.1021 29.8063C79.0183 29.1697 78.1543 28.2223 77.51 26.9642C76.8734 25.6985 76.5551 24.1145 76.5551 22.2122C76.5551 20.2947 76.8734 18.6766 77.51 17.3578C78.1543 16.0315 79.0221 15.0273 80.1134 14.3452C81.2048 13.6555 82.4212 13.3106 83.7627 13.3106C84.7859 13.3106 85.6271 13.485 86.2865 13.8336C86.9535 14.1746 87.484 14.5877 87.8781 15.0728C88.2722 15.5502 88.5716 16.0012 88.7762 16.4256H89.0036V13.538H93.0621V31.2842C93.0621 32.7773 92.7059 34.0126 91.9935 34.9903C91.2811 35.968 90.3072 36.6994 89.0718 37.1845C87.8364 37.6695 86.4343 37.912 84.8655 37.912ZM84.8996 27.5212C85.7711 27.5212 86.5139 27.309 87.1278 26.8846C87.7417 26.4602 88.2078 25.8501 88.5261 25.0543C88.8444 24.2585 89.0036 23.3035 89.0036 22.1894C89.0036 21.0905 88.8444 20.1279 88.5261 19.3018C88.2154 18.4757 87.7531 17.8353 87.1392 17.3806C86.5328 16.9182 85.7863 16.6871 84.8996 16.6871C83.9825 16.6871 83.217 16.9258 82.6031 17.4033C81.9892 17.8808 81.5269 18.5363 81.2162 19.37C80.9054 20.1961 80.7501 21.1359 80.7501 22.1894C80.7501 23.2581 80.9054 24.1941 81.2162 24.9974C81.5345 25.7932 82.0006 26.4147 82.6145 26.8619C83.236 27.3015 83.9977 27.5212 84.8996 27.5212ZM104.897 31.3411C103.191 31.3411 101.714 30.9659 100.463 30.2156C99.2125 29.4653 98.2424 28.4156 97.5527 27.0665C96.8706 25.7174 96.5295 24.141 96.5295 22.3372C96.5295 20.5334 96.8706 18.9532 97.5527 17.5966C98.2424 16.2399 99.2125 15.1864 100.463 14.4361C101.714 13.6858 103.191 13.3106 104.897 13.3106C106.602 13.3106 108.08 13.6858 109.33 14.4361C110.581 15.1864 111.547 16.2399 112.229 17.5966C112.919 18.9532 113.264 20.5334 113.264 22.3372C113.264 24.141 112.919 25.7174 112.229 27.0665C111.547 28.4156 110.581 29.4653 109.33 30.2156C108.08 30.9659 106.602 31.3411 104.897 31.3411ZM104.919 28.0442C105.844 28.0442 106.617 27.7903 107.239 27.2825C107.86 26.7671 108.322 26.0774 108.626 25.2134C108.936 24.3494 109.092 23.3869 109.092 22.3258C109.092 21.2572 108.936 20.2909 108.626 19.4269C108.322 18.5553 107.86 17.8618 107.239 17.3464C106.617 16.8311 105.844 16.5734 104.919 16.5734C103.972 16.5734 103.184 16.8311 102.555 17.3464C101.933 17.8618 101.467 18.5553 101.156 19.4269C100.853 20.2909 100.702 21.2572 100.702 22.3258C100.702 23.3869 100.853 24.3494 101.156 25.2134C101.467 26.0774 101.933 26.7671 102.555 27.2825C103.184 27.7903 103.972 28.0442 104.919 28.0442Z" fill="white"/>
</svg>
