<svg width="188" height="35" viewBox="0 0 188 35" fill="none" xmlns="http://www.w3.org/2000/svg">
<path d="M1.47467 23.9901V10.7808H3.10749V16.6057H10.0607V10.7808H11.6935V23.9901H10.0607V18.156H3.10749V23.9901H1.47467ZM18.4865 24.2653C17.502 24.2653 16.6519 24.0421 15.9364 23.5957C15.227 23.1492 14.6797 22.5316 14.2944 21.7427C13.9091 20.9538 13.7165 20.0487 13.7165 19.0274C13.7165 17.9878 13.9122 17.0766 14.3036 16.2938C14.695 15.5111 15.2484 14.9026 15.9639 14.4684C16.6794 14.0281 17.5203 13.8079 18.4865 13.8079C19.4772 13.8079 20.3303 14.0311 21.0458 14.4776C21.7614 14.9179 22.3087 15.5325 22.6878 16.3214C23.0731 17.1041 23.2657 18.0062 23.2657 19.0274C23.2657 20.061 23.0731 20.9721 22.6878 21.761C22.3026 22.5438 21.7522 23.1584 21.0367 23.6048C20.3212 24.0452 19.4711 24.2653 18.4865 24.2653ZM18.4865 22.715C19.5139 22.715 20.2784 22.3726 20.7798 21.6877C21.2813 21.0027 21.532 20.116 21.532 19.0274C21.532 17.9083 21.2782 17.0185 20.7707 16.3581C20.2631 15.6915 19.5017 15.3582 18.4865 15.3582C17.7955 15.3582 17.2268 15.5141 16.7803 15.826C16.3339 16.1379 16.0006 16.569 15.7805 17.1194C15.5603 17.6698 15.4502 18.3058 15.4502 19.0274C15.4502 20.1405 15.7071 21.0333 16.2208 21.706C16.7345 22.3787 17.4897 22.715 18.4865 22.715ZM28.8847 24.2561C27.7044 24.2561 26.7352 23.9993 25.9768 23.4856C25.2246 22.9658 24.7629 22.2411 24.5917 21.3116L26.2612 21.0455C26.3957 21.5837 26.7046 22.0118 27.1877 22.3298C27.6708 22.6417 28.2701 22.7976 28.9856 22.7976C29.6644 22.7976 30.1965 22.6569 30.5818 22.3756C30.967 22.0943 31.1597 21.7121 31.1597 21.229C31.1597 20.9477 31.0955 20.7214 30.967 20.5502C30.8386 20.3728 30.5726 20.2077 30.169 20.0548C29.7715 19.9019 29.1691 19.7185 28.3619 19.5044C27.4874 19.2721 26.7994 19.0305 26.2979 18.7798C25.7964 18.529 25.4387 18.2386 25.2246 17.9083C25.0106 17.5781 24.9036 17.1775 24.9036 16.7066C24.9036 16.1257 25.0626 15.6181 25.3806 15.1839C25.6986 14.7436 26.142 14.4042 26.7107 14.1657C27.2855 13.9272 27.9521 13.8079 28.7104 13.8079C29.4626 13.8079 30.1353 13.9272 30.7285 14.1657C31.3217 14.4042 31.7987 14.7436 32.1595 15.1839C32.5265 15.6181 32.7436 16.1257 32.8108 16.7066L31.1413 17.0094C31.0618 16.4773 30.805 16.0584 30.3708 15.7526C29.9427 15.4469 29.3892 15.2848 28.7104 15.2665C28.0683 15.242 27.5454 15.3551 27.1418 15.6059C26.7443 15.8566 26.5456 16.196 26.5456 16.6241C26.5456 16.8626 26.619 17.0674 26.7657 17.2387C26.9186 17.4099 27.1969 17.572 27.6005 17.7249C28.0102 17.8777 28.6034 18.052 29.3801 18.2477C30.2546 18.4679 30.9426 18.7094 31.444 18.9724C31.9516 19.2293 32.3124 19.535 32.5265 19.8897C32.7405 20.2383 32.8475 20.6694 32.8475 21.1831C32.8475 22.1371 32.4959 22.8893 31.7926 23.4397C31.0893 23.984 30.12 24.2561 28.8847 24.2561ZM40.402 23.9901C39.8149 24.1063 39.234 24.1522 38.6591 24.1277C38.0904 24.1094 37.5828 23.9962 37.1364 23.7883C36.69 23.5743 36.3506 23.244 36.1182 22.7976C35.9225 22.4062 35.8155 22.0118 35.7971 21.6143C35.7849 21.2107 35.7788 20.7551 35.7788 20.2475V11.3312H37.4116V20.1741C37.4116 20.5777 37.4146 20.9232 37.4208 21.2107C37.433 21.4981 37.4972 21.7458 37.6134 21.9537C37.8336 22.3451 38.1821 22.5744 38.6591 22.6417C39.1423 22.7089 39.7232 22.6906 40.402 22.5866V23.9901ZM33.7699 15.4316V14.0831H40.402V15.4316H33.7699ZM46.2943 24.2653C45.322 24.2653 44.4719 24.0513 43.7442 23.6232C43.0226 23.189 42.46 22.5866 42.0563 21.8161C41.6527 21.0394 41.4509 20.1343 41.4509 19.1008C41.4509 18.0184 41.6497 17.0827 42.0472 16.2938C42.4447 15.4988 42.9981 14.8873 43.7075 14.4592C44.423 14.025 45.2608 13.8079 46.221 13.8079C47.2178 13.8079 48.0648 14.0373 48.7619 14.4959C49.4652 14.9546 49.9911 15.6089 50.3397 16.459C50.6944 17.309 50.8473 18.3211 50.7984 19.4953H49.1472V18.9082C49.1288 17.6912 48.8812 16.7831 48.4042 16.1838C47.9272 15.5783 47.2178 15.2756 46.276 15.2756C45.2669 15.2756 44.4995 15.5997 43.9735 16.248C43.4476 16.8962 43.1846 17.8258 43.1846 19.0366C43.1846 20.2047 43.4476 21.1097 43.9735 21.7519C44.4995 22.394 45.2486 22.715 46.221 22.715C46.8753 22.715 47.444 22.5652 47.9272 22.2656C48.4103 21.9659 48.7894 21.5348 49.0646 20.9721L50.6332 21.5134C50.248 22.3879 49.667 23.0667 48.8903 23.5498C48.1198 24.0268 47.2545 24.2653 46.2943 24.2653ZM42.6343 19.4953V18.1835H49.9544V19.4953H42.6343ZM56.7301 24.2653C55.8066 24.2653 55.0147 24.036 54.3542 23.5773C53.6938 23.1125 53.1831 22.4857 52.8223 21.6968C52.4676 20.9079 52.2903 20.0181 52.2903 19.0274C52.2903 18.0367 52.4676 17.147 52.8223 16.3581C53.1831 15.5692 53.6938 14.9485 54.3542 14.4959C55.0147 14.0373 55.8036 13.8079 56.7209 13.8079C57.6566 13.8079 58.4424 14.0342 59.0784 14.4867C59.7144 14.9393 60.1945 15.56 60.5186 16.3489C60.8488 17.1378 61.0139 18.0306 61.0139 19.0274C61.0139 20.012 60.8488 20.9018 60.5186 21.6968C60.1945 22.4857 59.7144 23.1125 59.0784 23.5773C58.4424 24.036 57.6596 24.2653 56.7301 24.2653ZM56.9319 22.7701C57.5985 22.7701 58.1458 22.6111 58.5739 22.2931C59.002 21.969 59.3169 21.5256 59.5187 20.963C59.7266 20.3942 59.8306 19.7491 59.8306 19.0274C59.8306 18.2936 59.7266 17.6484 59.5187 17.0919C59.3169 16.5293 59.005 16.092 58.583 15.7802C58.1611 15.4622 57.626 15.3031 56.9777 15.3031C56.3051 15.3031 55.7485 15.4683 55.3082 15.7985C54.874 16.1287 54.5499 16.5752 54.3359 17.1378C54.128 17.7004 54.024 18.3303 54.024 19.0274C54.024 19.7307 54.131 20.3667 54.3451 20.9355C54.5591 21.4981 54.8802 21.9445 55.3082 22.2747C55.7424 22.605 56.2836 22.7701 56.9319 22.7701ZM59.8306 23.9901V16.6975H59.6471V10.7808H61.2891V23.9901H59.8306ZM71.7517 24.2653C70.7671 24.2653 69.917 24.0421 69.2015 23.5957C68.4921 23.1492 67.9448 22.5316 67.5595 21.7427C67.1743 20.9538 66.9816 20.0487 66.9816 19.0274C66.9816 17.9878 67.1773 17.0766 67.5687 16.2938C67.9601 15.5111 68.5135 14.9026 69.2291 14.4684C69.9446 14.0281 70.7854 13.8079 71.7517 13.8079C72.7424 13.8079 73.5955 14.0311 74.311 14.4776C75.0265 14.9179 75.5738 15.5325 75.953 16.3214C76.3382 17.1041 76.5309 18.0062 76.5309 19.0274C76.5309 20.061 76.3382 20.9721 75.953 21.761C75.5677 22.5438 75.0173 23.1584 74.3018 23.6048C73.5863 24.0452 72.7362 24.2653 71.7517 24.2653ZM71.7517 22.715C72.7791 22.715 73.5435 22.3726 74.0449 21.6877C74.5464 21.0027 74.7971 20.116 74.7971 19.0274C74.7971 17.9083 74.5434 17.0185 74.0358 16.3581C73.5282 15.6915 72.7668 15.3582 71.7517 15.3582C71.0606 15.3582 70.4919 15.5141 70.0455 15.826C69.599 16.1379 69.2657 16.569 69.0456 17.1194C68.8254 17.6698 68.7154 18.3058 68.7154 19.0274C68.7154 20.1405 68.9722 21.0333 69.4859 21.706C69.9996 22.3787 70.7548 22.715 71.7517 22.715ZM85.6047 23.9901V19.0274C85.6047 18.5566 85.5619 18.104 85.4763 17.6698C85.3968 17.2356 85.253 16.8473 85.0451 16.5048C84.8433 16.1563 84.5681 15.8811 84.2195 15.6792C83.8771 15.4774 83.4429 15.3765 82.917 15.3765C82.5072 15.3765 82.1342 15.4469 81.7978 15.5875C81.4676 15.7221 81.1832 15.93 80.9447 16.2113C80.7062 16.4926 80.5197 16.8473 80.3852 17.2754C80.2567 17.6973 80.1925 18.1957 80.1925 18.7706L79.1193 18.4404C79.1193 17.4802 79.2905 16.6577 79.633 15.9728C79.9815 15.2817 80.4677 14.7528 81.0915 14.3858C81.7214 14.0128 82.4614 13.8263 83.3114 13.8263C83.9535 13.8263 84.5008 13.9272 84.9534 14.129C85.4059 14.3308 85.782 14.5999 86.0817 14.9362C86.3813 15.2665 86.6168 15.6395 86.788 16.0553C86.9592 16.4651 87.0785 16.884 87.1458 17.3121C87.2192 17.734 87.2558 18.1346 87.2558 18.5137V23.9901H85.6047ZM78.5414 23.9901V14.0831H80.0091V16.7342H80.1925V23.9901H78.5414Z" fill="#333333"/>
<path d="M94.7922 26.4901V8.05618H105.891V11.1413H97.8773V15.737H104.355V18.8093H97.8773V26.4901H94.7922ZM108.45 10.5652V7.73615H111.535V10.5652H108.45ZM108.45 26.4901V12.6647H111.535V26.4901H108.45ZM116.573 26.4901V12.447C116.573 12.0971 116.585 11.7131 116.611 11.2949C116.637 10.8682 116.709 10.4458 116.829 10.0276C116.948 9.60941 117.166 9.22964 117.482 8.88827C117.874 8.45303 118.297 8.15433 118.749 7.99218C119.21 7.82149 119.662 7.72762 120.106 7.71055C120.55 7.68495 120.938 7.67214 121.271 7.67214H122.999V10.1812H121.399C120.81 10.1812 120.37 10.3306 120.08 10.6293C119.799 10.9194 119.658 11.3035 119.658 11.7814V26.4901H116.573ZM114.345 15.0841V12.6647H122.999V15.0841H114.345ZM133.149 26.4901C132.235 26.6608 131.339 26.7333 130.46 26.7077C129.59 26.6907 128.809 26.5328 128.118 26.2341C127.426 25.9269 126.902 25.4447 126.543 24.7875C126.227 24.1901 126.061 23.5799 126.044 22.9569C126.027 22.3339 126.018 21.6299 126.018 20.8447V8.82426H129.091V20.6655C129.091 21.2202 129.095 21.7067 129.103 22.1249C129.12 22.543 129.21 22.8844 129.372 23.149C129.679 23.661 130.17 23.9469 130.844 24.0067C131.519 24.0664 132.287 24.0323 133.149 23.9042V26.4901ZM123.509 15.0841V12.6647H133.149V15.0841H123.509ZM145.684 26.4901V19.8334C145.684 19.3982 145.654 18.916 145.594 18.3869C145.535 17.8577 145.394 17.35 145.172 16.8635C144.959 16.3685 144.634 15.9631 144.199 15.6474C143.772 15.3316 143.192 15.1737 142.458 15.1737C142.066 15.1737 141.677 15.2377 141.293 15.3657C140.909 15.4938 140.559 15.7157 140.244 16.0314C139.936 16.3387 139.689 16.7654 139.501 17.3116C139.313 17.8492 139.219 18.5405 139.219 19.3854L137.389 18.6045C137.389 17.4268 137.615 16.36 138.067 15.4042C138.528 14.4483 139.202 13.6888 140.09 13.1255C140.977 12.5537 142.07 12.2678 143.367 12.2678C144.391 12.2678 145.236 12.4385 145.902 12.7799C146.567 13.1212 147.097 13.5565 147.489 14.0856C147.882 14.6147 148.172 15.178 148.36 15.7754C148.547 16.3728 148.667 16.9403 148.718 17.478C148.778 18.0071 148.808 18.4381 148.808 18.7709V26.4901H145.684ZM136.096 26.4901V8.05618H138.848V17.7596H139.219V26.4901H136.096Z" fill="#EF8435"/>
<path d="M155.052 26.4901V10.9493H149.087V8.05618H164.103V10.9493H158.137V26.4901H155.052ZM164.875 26.4901V12.6647H167.601V16.0314L167.268 15.5962C167.439 15.1353 167.665 14.7171 167.947 14.3416C168.237 13.9576 168.583 13.6418 168.984 13.3943C169.325 13.1639 169.701 12.9847 170.11 12.8567C170.528 12.7201 170.955 12.6391 171.39 12.6135C171.826 12.5793 172.248 12.5964 172.658 12.6647V15.545C172.248 15.4255 171.774 15.3871 171.237 15.4298C170.708 15.4724 170.23 15.6218 169.803 15.8778C169.376 16.1082 169.026 16.4027 168.753 16.7611C168.489 17.1195 168.292 17.5292 168.164 17.99C168.036 18.4423 167.972 18.9331 167.972 19.4622V26.4901H164.875ZM176.493 32.6348L179.156 25.3252L179.207 27.4758L173.178 12.6647H176.391L180.667 23.6226H179.847L184.008 12.6647H187.093L179.386 32.6348H176.493Z" fill="#333333"/>
</svg>
