<svg width="52" height="50" viewBox="0 0 52 50" fill="none" xmlns="http://www.w3.org/2000/svg">
    <path d="M25 20C25 20.5523 25.4477 21 26 21C26.5523 21 27 20.5523 27 20L25 20ZM26.7071 0.292893C26.3166 -0.0976311 25.6834 -0.097631 25.2929 0.292893L18.9289 6.65686C18.5384 7.04738 18.5384 7.68054 18.9289 8.07107C19.3195 8.46159 19.9526 8.46159 20.3431 8.07107L26 2.41421L31.6569 8.07107C32.0474 8.46159 32.6805 8.46159 33.0711 8.07107C33.4616 7.68054 33.4616 7.04738 33.0711 6.65685L26.7071 0.292893ZM27 20L27 1L25 1L25 20L27 20Z" fill="white"/>
    <path d="M32 24C31.4477 24 31 24.4477 31 25C31 25.5523 31.4477 26 32 26V24ZM51.7071 25.7071C52.0976 25.3166 52.0976 24.6834 51.7071 24.2929L45.3431 17.9289C44.9526 17.5384 44.3195 17.5384 43.9289 17.9289C43.5384 18.3195 43.5384 18.9526 43.9289 19.3431L49.5858 25L43.9289 30.6569C43.5384 31.0474 43.5384 31.6805 43.9289 32.0711C44.3195 32.4616 44.9526 32.4616 45.3431 32.0711L51.7071 25.7071ZM32 26H51V24H32V26Z" fill="white"/>
    <path d="M27 30C27 29.4477 26.5523 29 26 29C25.4477 29 25 29.4477 25 30L27 30ZM25.2929 49.7071C25.6834 50.0976 26.3166 50.0976 26.7071 49.7071L33.0711 43.3431C33.4616 42.9526 33.4616 42.3195 33.0711 41.9289C32.6805 41.5384 32.0474 41.5384 31.6569 41.9289L26 47.5858L20.3431 41.9289C19.9526 41.5384 19.3195 41.5384 18.9289 41.9289C18.5384 42.3195 18.5384 42.9526 18.9289 43.3431L25.2929 49.7071ZM25 30L25 49L27 49L27 30L25 30Z" fill="white"/>
    <path d="M20 26C20.5523 26 21 25.5523 21 25C21 24.4477 20.5523 24 20 24L20 26ZM0.292893 24.2929C-0.097631 24.6834 -0.0976311 25.3166 0.292893 25.7071L6.65685 32.0711C7.04738 32.4616 7.68054 32.4616 8.07107 32.0711C8.46159 31.6805 8.46159 31.0474 8.07107 30.6569L2.41421 25L8.07107 19.3431C8.46159 18.9526 8.46159 18.3195 8.07107 17.9289C7.68054 17.5384 7.04738 17.5384 6.65685 17.9289L0.292893 24.2929ZM20 24L1 24L1 26L20 26L20 24Z" fill="white"/>
    <circle cx="26" cy="25" r="2.5" fill="white"/>
</svg>
