<svg width="25" height="25" viewBox="0 0 25 25" fill="none" xmlns="http://www.w3.org/2000/svg">
<path d="M19.7912 7.02979L6.04123 7.02979" stroke="#D84836" stroke-width="1.24999" stroke-linecap="round" stroke-linejoin="round"/>
<path d="M11.0422 10.7798V15.7797" stroke="#D84836" stroke-width="1.24999" stroke-linecap="round" stroke-linejoin="round"/>
<path d="M14.7922 10.7798V15.7797" stroke="#D84836" stroke-width="1.24999" stroke-linecap="round" stroke-linejoin="round"/>
<path d="M18.5422 7.02979V18.9046C18.5422 19.0704 18.4764 19.2294 18.3591 19.3466C18.2419 19.4638 18.083 19.5296 17.9172 19.5296H7.91721C7.75145 19.5296 7.59247 19.4638 7.47526 19.3466C7.35805 19.2294 7.29221 19.0704 7.29221 18.9046V7.02979" stroke="#D84836" stroke-width="1.24999" stroke-linecap="round" stroke-linejoin="round"/>
<path d="M16.0417 7.02975V5.77977C16.0417 5.44825 15.91 5.13031 15.6756 4.8959C15.4412 4.66148 15.1232 4.52979 14.7917 4.52979H11.0417C10.7102 4.52979 10.3923 4.66148 10.1578 4.8959C9.92341 5.13031 9.79172 5.44825 9.79172 5.77977V7.02975" stroke="#D84836" stroke-width="1.24999" stroke-linecap="round" stroke-linejoin="round"/>
</svg>
