<svg width="33" height="33" viewBox="0 0 33 33" fill="none" xmlns="http://www.w3.org/2000/svg">
<rect x="0.54541" y="0.718262" width="31" height="31" rx="3.5" fill="#2B2B2B"/>
<rect x="0.54541" y="0.718262" width="31" height="31" rx="3.5" stroke="#434547"/>
<path d="M16.4204 16.2183C16.4204 16.4254 16.2525 16.5933 16.0454 16.5933C15.8383 16.5933 15.6704 16.4254 15.6704 16.2183C15.6704 16.0112 15.8383 15.8433 16.0454 15.8433C16.2525 15.8433 16.4204 16.0112 16.4204 16.2183Z" fill="#D9D9D9" stroke="#D9D9D9" stroke-width="1.5"/>
<path d="M16.4204 10.2183C16.4204 10.4254 16.2525 10.5933 16.0454 10.5933C15.8383 10.5933 15.6704 10.4254 15.6704 10.2183C15.6704 10.0112 15.8383 9.84326 16.0454 9.84326C16.2525 9.84326 16.4204 10.0112 16.4204 10.2183Z" fill="#D9D9D9" stroke="#D9D9D9" stroke-width="1.5"/>
<path d="M16.4204 22.2183C16.4204 22.4254 16.2525 22.5933 16.0454 22.5933C15.8383 22.5933 15.6704 22.4254 15.6704 22.2183C15.6704 22.0112 15.8383 21.8433 16.0454 21.8433C16.2525 21.8433 16.4204 22.0112 16.4204 22.2183Z" fill="#D9D9D9" stroke="#D9D9D9" stroke-width="1.5"/>
</svg>
