<svg width="25" height="25" viewBox="0 0 25 25" fill="none" xmlns="http://www.w3.org/2000/svg">
<path d="M17.2283 7.78027H14.2283C13.6783 7.78027 13.2283 8.23027 13.2283 8.78027C13.2283 9.33027 13.6783 9.78027 14.2283 9.78027H17.2283C18.8783 9.78027 20.2283 11.1303 20.2283 12.7803C20.2283 14.4303 18.8783 15.7803 17.2283 15.7803H14.2283C13.6783 15.7803 13.2283 16.2303 13.2283 16.7803C13.2283 17.3303 13.6783 17.7803 14.2283 17.7803H17.2283C19.9883 17.7803 22.2283 15.5403 22.2283 12.7803C22.2283 10.0203 19.9883 7.78027 17.2283 7.78027ZM8.22827 12.7803C8.22827 13.3303 8.67827 13.7803 9.22827 13.7803H15.2283C15.7783 13.7803 16.2283 13.3303 16.2283 12.7803C16.2283 12.2303 15.7783 11.7803 15.2283 11.7803H9.22827C8.67827 11.7803 8.22827 12.2303 8.22827 12.7803ZM10.2283 15.7803H7.22827C5.57827 15.7803 4.22827 14.4303 4.22827 12.7803C4.22827 11.1303 5.57827 9.78027 7.22827 9.78027H10.2283C10.7783 9.78027 11.2283 9.33027 11.2283 8.78027C11.2283 8.23027 10.7783 7.78027 10.2283 7.78027H7.22827C4.46827 7.78027 2.22827 10.0203 2.22827 12.7803C2.22827 15.5403 4.46827 17.7803 7.22827 17.7803H10.2283C10.7783 17.7803 11.2283 17.3303 11.2283 16.7803C11.2283 16.2303 10.7783 15.7803 10.2283 15.7803Z" fill="#D9D9D9"/>
</svg>
