<svg width="25" height="25" viewBox="0 0 25 25" fill="none" xmlns="http://www.w3.org/2000/svg">
<path d="M12.5469 21.9551C13.6469 21.9551 14.5469 21.0551 14.5469 19.9551H10.5469C10.5469 21.0551 11.4469 21.9551 12.5469 21.9551ZM18.5469 15.9551V10.9551C18.5469 7.88508 16.9169 5.31508 14.0469 4.63508V3.95508C14.0469 3.12508 13.3769 2.45508 12.5469 2.45508C11.7169 2.45508 11.0469 3.12508 11.0469 3.95508V4.63508C8.18688 5.31508 6.54688 7.87508 6.54688 10.9551V15.9551L4.54688 17.9551V18.9551H20.5469V17.9551L18.5469 15.9551ZM16.5469 16.9551H8.54688V10.9551C8.54688 8.47508 10.0569 6.45508 12.5469 6.45508C15.0369 6.45508 16.5469 8.47508 16.5469 10.9551V16.9551Z" fill="#707070"/>
</svg>
