<svg width="18" height="19" viewBox="0 0 18 19" fill="none" xmlns="http://www.w3.org/2000/svg">
<path
        d="M9.00015 13.2661C11.1293 13.2661 12.8554 11.5401 12.8554 9.41089C12.8554 7.28171 11.1293 5.55566 9.00015 5.55566C6.87095 5.55566 5.1449 7.28171 5.1449 9.41089C5.1449 11.5401 6.87095 13.2661 9.00015 13.2661Z" stroke="white" stroke-width="1.28508" stroke-linecap="round" stroke-linejoin="round"/>
<path
        d="M8.58828 2.67637L7.07272 1.54005C6.99141 1.47888 6.89672 1.4379 6.79646 1.42051C6.6962 1.40312 6.59325 1.4098 6.49608 1.44C6.0267 1.58699 5.57131 1.7754 5.13529 2.00301C5.04503 2.05036 4.96733 2.11849 4.90859 2.20178C4.84985 2.28507 4.81176 2.38114 4.79746 2.48206L4.52955 4.35754C4.42742 4.44806 4.32744 4.54221 4.2296 4.63999C4.1318 4.7378 4.03762 4.83781 3.94707 4.94001L3.94703 4.94004L2.07187 5.2082C1.97112 5.22244 1.87519 5.26043 1.792 5.31902C1.70881 5.37761 1.64073 5.45513 1.59338 5.5452C1.36541 5.98103 1.17663 6.43627 1.02927 6.90553C0.998925 7.00283 0.992154 7.10595 1.00952 7.20638C1.02688 7.30681 1.06788 7.40168 1.12913 7.48314L2.26585 8.99875C2.25765 9.13497 2.25353 9.27224 2.25349 9.41056C2.25349 9.54888 2.25761 9.68619 2.26586 9.82249L2.26585 9.82254L1.12952 11.3381C1.06835 11.4194 1.02738 11.5141 1.00999 11.6143C0.992594 11.7146 0.999274 11.8176 1.02948 11.9147C1.17646 12.3841 1.36488 12.8395 1.59249 13.2755C1.63984 13.3658 1.70797 13.4435 1.79126 13.5022C1.87456 13.5609 1.97063 13.599 2.07154 13.6133L3.94703 13.8812C4.03755 13.9834 4.13171 14.0833 4.22949 14.1812C4.3273 14.279 4.4273 14.3732 4.52951 14.4637L4.52954 14.4638L4.7977 16.3389C4.81194 16.4397 4.84993 16.5356 4.90852 16.6188C4.96711 16.702 5.04464 16.77 5.1347 16.8174C5.57054 17.0454 6.02577 17.2341 6.49504 17.3815C6.59234 17.4118 6.69546 17.4186 6.79589 17.4013C6.89633 17.3839 6.99119 17.3429 7.07266 17.2816L8.58827 16.1449C8.7245 16.1531 8.86177 16.1572 9.00009 16.1573C9.13841 16.1573 9.27572 16.1532 9.41202 16.1449L9.41207 16.1449L10.9276 17.2812C11.0089 17.3424 11.1036 17.3834 11.2039 17.4008C11.3041 17.4182 11.4071 17.4115 11.5043 17.3813C11.9736 17.2343 12.429 17.0459 12.8651 16.8183C12.9553 16.7709 13.033 16.7028 13.0918 16.6195C13.1505 16.5362 13.1886 16.4401 13.2029 16.3392L13.4708 14.4638C13.5729 14.3732 13.6729 14.2791 13.7707 14.1813C13.8686 14.0835 13.9627 13.9835 14.0533 13.8813L14.0533 13.8812L15.9285 13.6131C16.0292 13.5988 16.1252 13.5609 16.2083 13.5023C16.2915 13.4437 16.3596 13.3662 16.407 13.2761C16.6349 12.8403 16.8237 12.385 16.9711 11.9158C17.0014 11.8185 17.0082 11.7153 16.9908 11.6149C16.9735 11.5145 16.9325 11.4196 16.8712 11.3381L15.7345 9.82254C15.7427 9.68632 15.7468 9.54905 15.7469 9.41073C15.7469 9.27241 15.7427 9.1351 15.7345 8.9988L15.7345 8.99875L16.8708 7.48321C16.932 7.40189 16.973 7.3072 16.9904 7.20695C17.0078 7.10669 17.0011 7.00374 16.9709 6.90657C16.8239 6.43719 16.6355 5.9818 16.4079 5.54579C16.3605 5.45553 16.2924 5.37782 16.2091 5.31908C16.1258 5.26034 16.0297 5.22225 15.9288 5.20796L14.0533 4.94004C13.9628 4.83792 13.8686 4.73794 13.7709 4.6401C13.6731 4.5423 13.573 4.44812 13.4708 4.35758L13.4708 4.35754L13.2027 2.48239C13.1884 2.38164 13.1504 2.28571 13.0918 2.20252C13.0332 2.11933 12.9557 2.05125 12.8656 2.0039C12.4298 1.77593 11.9746 1.58716 11.5053 1.43979C11.408 1.40945 11.3049 1.40268 11.2045 1.42004C11.104 1.4374 11.0092 1.4784 10.9277 1.53965L9.41207 2.67637C9.27585 2.66816 9.13858 2.66404 9.00026 2.664C8.86193 2.664 8.72463 2.66813 8.58833 2.67637L8.58828 2.67637Z" stroke="white" stroke-width="1.28508" stroke-linecap="round" stroke-linejoin="round"/>
</svg>
