<svg id="Layer_1" data-name="Layer 1" xmlns="http://www.w3.org/2000/svg" viewBox="0 0 512 512"><defs><style>.cls-1{fill:#141f38;}</style></defs><title>browser-10-outline</title><path class="cls-1" d="M512,64A64,64,0,0,0,448,0H64A64,64,0,0,0,0,64V448a64,64,0,0,0,64,64H448a64,64,0,0,0,64-64ZM486.4,448A38.44,38.44,0,0,1,448,486.4H64A38.44,38.44,0,0,1,25.6,448V140.8H486.4ZM25.6,115.2V64A38.44,38.44,0,0,1,64,25.6H448A38.44,38.44,0,0,1,486.4,64v51.2Z"/><circle class="cls-1" cx="70.4" cy="70.4" r="19.2"/><circle class="cls-1" cx="121.6" cy="70.4" r="19.2"/><circle class="cls-1" cx="172.8" cy="70.4" r="19.2"/><path class="cls-1" d="M96,281.6h38.4a32,32,0,0,0,32-32V211.2a32,32,0,0,0-32-32H96a32,32,0,0,0-32,32v38.4A32,32,0,0,0,96,281.6Zm-6.4-70.4a6.41,6.41,0,0,1,6.4-6.4h38.4a6.41,6.41,0,0,1,6.4,6.4v38.4a6.41,6.41,0,0,1-6.4,6.4H96a6.41,6.41,0,0,1-6.4-6.4Z"/><path class="cls-1" d="M76.8,345.6h76.8a12.8,12.8,0,0,0,0-25.6H76.8a12.8,12.8,0,1,0,0,25.6Z"/><path class="cls-1" d="M76.8,396.8h76.8a12.8,12.8,0,0,0,0-25.6H76.8a12.8,12.8,0,1,0,0,25.6Z"/><path class="cls-1" d="M236.8,281.6h38.4a32,32,0,0,0,32-32V211.2a32,32,0,0,0-32-32H236.8a32,32,0,0,0-32,32v38.4A32,32,0,0,0,236.8,281.6Zm-6.4-70.4a6.41,6.41,0,0,1,6.4-6.4h38.4a6.41,6.41,0,0,1,6.4,6.4v38.4a6.41,6.41,0,0,1-6.4,6.4H236.8a6.41,6.41,0,0,1-6.4-6.4Z"/><path class="cls-1" d="M377.6,281.6H416a32,32,0,0,0,32-32V211.2a32,32,0,0,0-32-32H377.6a32,32,0,0,0-32,32v38.4A32,32,0,0,0,377.6,281.6Zm-6.4-70.4a6.41,6.41,0,0,1,6.4-6.4H416a6.41,6.41,0,0,1,6.4,6.4v38.4A6.41,6.41,0,0,1,416,256H377.6a6.41,6.41,0,0,1-6.4-6.4Z"/><path class="cls-1" d="M76.8,448h38.4a12.8,12.8,0,1,0,0-25.6H76.8a12.8,12.8,0,1,0,0,25.6Z"/><path class="cls-1" d="M217.6,345.6h76.8a12.8,12.8,0,1,0,0-25.6H217.6a12.8,12.8,0,1,0,0,25.6Z"/><path class="cls-1" d="M217.6,396.8h76.8a12.8,12.8,0,1,0,0-25.6H217.6a12.8,12.8,0,1,0,0,25.6Z"/><path class="cls-1" d="M217.6,448H256a12.8,12.8,0,1,0,0-25.6H217.6a12.8,12.8,0,1,0,0,25.6Z"/><path class="cls-1" d="M358.4,345.6h76.8a12.8,12.8,0,1,0,0-25.6H358.4a12.8,12.8,0,0,0,0,25.6Z"/><path class="cls-1" d="M358.4,396.8h76.8a12.8,12.8,0,1,0,0-25.6H358.4a12.8,12.8,0,0,0,0,25.6Z"/><path class="cls-1" d="M358.4,448h38.4a12.8,12.8,0,1,0,0-25.6H358.4a12.8,12.8,0,0,0,0,25.6Z"/></svg>