<svg id="Layer_1" data-name="Layer 1" xmlns="http://www.w3.org/2000/svg" viewBox="0 0 512 512"><defs><style>.cls-1{fill:#141f38;}</style></defs><title>browser-10-glyph</title><path class="cls-1" d="M0,448a64,64,0,0,0,64,64H448a64,64,0,0,0,64-64V140.8H0ZM345.6,211.2a32,32,0,0,1,32-32H416a32,32,0,0,1,32,32v38.4a32,32,0,0,1-32,32H377.6a32,32,0,0,1-32-32ZM358.4,320h76.8a12.8,12.8,0,0,1,0,25.6H358.4a12.8,12.8,0,1,1,0-25.6Zm0,51.2h76.8a12.8,12.8,0,1,1,0,25.6H358.4a12.8,12.8,0,1,1,0-25.6Zm0,51.2h38.4a12.8,12.8,0,0,1,0,25.6H358.4a12.8,12.8,0,1,1,0-25.6ZM204.8,211.2a32,32,0,0,1,32-32h38.4a32,32,0,0,1,32,32v38.4a32,32,0,0,1-32,32H236.8a32,32,0,0,1-32-32ZM217.6,320h76.8a12.8,12.8,0,0,1,0,25.6H217.6a12.8,12.8,0,1,1,0-25.6Zm0,51.2h76.8a12.8,12.8,0,0,1,0,25.6H217.6a12.8,12.8,0,1,1,0-25.6Zm0,51.2H256a12.8,12.8,0,0,1,0,25.6H217.6a12.8,12.8,0,1,1,0-25.6ZM64,211.2a32,32,0,0,1,32-32h38.4a32,32,0,0,1,32,32v38.4a32,32,0,0,1-32,32H96a32,32,0,0,1-32-32ZM76.8,320h76.8a12.8,12.8,0,0,1,0,25.6H76.8a12.8,12.8,0,1,1,0-25.6Zm0,51.2h76.8a12.8,12.8,0,1,1,0,25.6H76.8a12.8,12.8,0,1,1,0-25.6Zm0,51.2h38.4a12.8,12.8,0,0,1,0,25.6H76.8a12.8,12.8,0,1,1,0-25.6ZM448,0H64A64,64,0,0,0,0,64v51.2H512V64A64,64,0,0,0,448,0ZM70.4,76.8A19.2,19.2,0,1,1,89.6,57.6,19.2,19.2,0,0,1,70.4,76.8Zm51.2,0a19.2,19.2,0,1,1,19.2-19.2A19.2,19.2,0,0,1,121.6,76.8Zm51.2,0A19.2,19.2,0,1,1,192,57.6,19.2,19.2,0,0,1,172.8,76.8Z"/></svg>