<svg width="568" height="303" viewBox="0 0 568 303" fill="none" xmlns="http://www.w3.org/2000/svg">
<path d="M0 7.61645C0 3.53244 3.31075 0.22168 7.39476 0.22168H560.605C564.689 0.22168 568 3.53243 568 7.61644V294.827C568 298.911 564.689 302.222 560.605 302.222H7.39477C3.31076 302.222 0 298.911 0 294.827V7.61645Z" fill="#5C2860"/>
<g filter="url(#filter0_d_222_4813)">
<g clip-path="url(#clip0_222_4813)">
<rect x="29.5791" y="57.7576" width="203.356" height="171.928" rx="4.63393" fill="white"/>
<path d="M65.9526 171.498L29.1702 207.717C27.7587 209.107 26.9639 211.005 26.9639 212.986V258.131C26.9639 262.215 30.2746 265.526 34.3586 265.526H227.57C231.654 265.526 234.965 262.215 234.965 258.131V203.76C234.965 202.202 234.472 200.683 233.557 199.42L186.098 133.952C183.203 129.959 177.284 129.865 174.264 133.765L120.418 203.304C117.705 206.807 112.54 207.155 109.383 204.045L76.3295 171.498C73.4512 168.663 68.831 168.663 65.9526 171.498Z" fill="#EBE8E5"/>
<circle cx="76.736" cy="103.778" r="22.1843" fill="#D9D9D9"/>
</g>
</g>
<path d="M278.512 94.3963C278.137 94.1615 277.66 94.1615 277.284 94.3963L274.967 95.8444C274.629 96.0561 274.423 96.4274 274.423 96.8268V99.06C274.423 99.4594 274.629 99.8307 274.967 100.042L277.284 101.49C277.66 101.725 278.137 101.725 278.512 101.49L280.829 100.042C281.168 99.8307 281.374 99.4594 281.374 99.06V96.8268C281.374 96.4274 281.168 96.0561 280.829 95.8444L278.512 94.3963Z" fill="white"/>
<rect x="286.239" y="95.1628" width="194.648" height="5.56072" rx="2.78036" fill="white"/>
<rect x="273.264" y="108.138" width="242.818" height="13.9018" rx="6.9509" fill="white"/>
<rect x="273.264" y="129.454" width="105.654" height="13.9018" rx="6.9509" fill="white"/>
<rect x="273.264" y="154.477" width="242.818" height="6.02412" rx="3.01206" fill="#EBE8E5"/>
<rect x="273.264" y="166.062" width="206.21" height="6.02412" rx="3.01206" fill="#EBE8E5"/>
<rect x="273.264" y="177.647" width="105.654" height="6.02412" rx="3.01206" fill="#EBE8E5"/>
<rect x="273.264" y="205.914" width="52.3635" height="21.3161" rx="5.56072" fill="white"/>
<rect x="288.092" y="212.865" width="22.7063" height="7.4143" rx="3.70715" fill="#5C2860"/>
<defs>
<filter id="filter0_d_222_4813" x="24.033" y="54.0602" width="218.145" height="186.718" filterUnits="userSpaceOnUse" color-interpolation-filters="sRGB">
<feFlood flood-opacity="0" result="BackgroundImageFix"/>
<feColorMatrix in="SourceAlpha" type="matrix" values="0 0 0 0 0 0 0 0 0 0 0 0 0 0 0 0 0 0 127 0" result="hardAlpha"/>
<feOffset dx="1.84869" dy="3.69738"/>
<feGaussianBlur stdDeviation="3.69738"/>
<feComposite in2="hardAlpha" operator="out"/>
<feColorMatrix type="matrix" values="0 0 0 0 0 0 0 0 0 0 0 0 0 0 0 0 0 0 0.25 0"/>
<feBlend mode="normal" in2="BackgroundImageFix" result="effect1_dropShadow_222_4813"/>
<feBlend mode="normal" in="SourceGraphic" in2="effect1_dropShadow_222_4813" result="shape"/>
</filter>
<clipPath id="clip0_222_4813">
<rect x="29.5791" y="57.7576" width="203.356" height="171.928" rx="4.63393" fill="white"/>
</clipPath>
</defs>
</svg>
