<svg width="18" height="19" viewBox="0 0 18 19" fill="none" xmlns="http://www.w3.org/2000/svg">
<path d="M13.5 10.4716H9.75V14.2216C9.75 14.6341 9.4125 14.9716 9 14.9716C8.5875 14.9716 8.25 14.6341 8.25 14.2216V10.4716H4.5C4.0875 10.4716 3.75 10.1341 3.75 9.72156C3.75 9.30906 4.0875 8.97156 4.5 8.97156H8.25V5.22156C8.25 4.80906 8.5875 4.47156 9 4.47156C9.4125 4.47156 9.75 4.80906 9.75 5.22156V8.97156H13.5C13.9125 8.97156 14.25 9.30906 14.25 9.72156C14.25 10.1341 13.9125 10.4716 13.5 10.4716Z" fill="white"/>
</svg>
