<svg width="24" height="25" viewBox="0 0 24 25" fill="none" xmlns="http://www.w3.org/2000/svg">
<path d="M17.6988 16.1117L13.8188 12.2217L17.7088 8.33168C18.0988 7.94168 18.0988 7.31168 17.7088 6.92168C17.3188 6.53168 16.6888 6.53168 16.2988 6.92168L11.7088 11.5117C11.3188 11.9017 11.3188 12.5317 11.7088 12.9217L16.2988 17.5117C16.6888 17.9017 17.3188 17.9017 17.7088 17.5117C18.0888 17.1317 18.0888 16.4917 17.6988 16.1117ZM6.99878 6.22168C7.54878 6.22168 7.99878 6.67168 7.99878 7.22168V17.2217C7.99878 17.7717 7.54878 18.2217 6.99878 18.2217C6.44878 18.2217 5.99878 17.7717 5.99878 17.2217V7.22168C5.99878 6.67168 6.44878 6.22168 6.99878 6.22168Z" fill="#B8B8B8"/>
</svg>
