<svg width="105" height="21" viewBox="0 0 105 21" fill="none" xmlns="http://www.w3.org/2000/svg">
<path d="M0.8435 16.0044V7.32839H4.1934C4.27775 7.32839 4.37214 7.33241 4.47657 7.34044C4.58502 7.34446 4.69347 7.35651 4.80193 7.37659C5.25581 7.44488 5.6394 7.60354 5.9527 7.85257C6.27002 8.09759 6.50901 8.40687 6.66967 8.78042C6.83436 9.15397 6.9167 9.56769 6.9167 10.0216C6.9167 10.4714 6.83436 10.8831 6.66967 11.2567C6.50499 11.6302 6.26399 11.9415 5.94667 12.1906C5.63337 12.4356 5.25179 12.5922 4.80193 12.6605C4.69347 12.6766 4.58502 12.6886 4.47657 12.6967C4.37214 12.7047 4.27775 12.7087 4.1934 12.7087H1.72917V16.0044H0.8435ZM1.72917 11.8652H4.1693C4.2416 11.8652 4.32595 11.8612 4.42235 11.8532C4.51875 11.8451 4.61314 11.8311 4.70552 11.811C5.00276 11.7467 5.24577 11.6242 5.43455 11.4435C5.62735 11.2627 5.76994 11.0478 5.86232 10.7988C5.95872 10.5498 6.00692 10.2907 6.00692 10.0216C6.00692 9.75245 5.95872 9.49338 5.86232 9.24434C5.76994 8.99129 5.62735 8.77439 5.43455 8.59364C5.24577 8.41289 5.00276 8.29039 4.70552 8.22612C4.61314 8.20604 4.51875 8.19399 4.42235 8.18997C4.32595 8.18194 4.2416 8.17792 4.1693 8.17792H1.72917V11.8652ZM10.7978 16.1851C10.1512 16.1851 9.59886 16.0385 9.14096 15.7453C8.68306 15.4521 8.3316 15.0464 8.08659 14.5283C7.84157 14.0101 7.71906 13.4157 7.71906 12.7449C7.71906 12.062 7.84358 11.4636 8.09261 10.9494C8.34164 10.4353 8.69511 10.0356 9.15301 9.75044C9.61493 9.46124 10.1632 9.31664 10.7978 9.31664C11.4485 9.31664 12.0028 9.46325 12.4607 9.75647C12.9227 10.0457 13.2741 10.4493 13.5151 10.9675C13.7601 11.4816 13.8826 12.0741 13.8826 12.7449C13.8826 13.4277 13.7601 14.0282 13.5151 14.5463C13.2701 15.0605 12.9166 15.4621 12.4547 15.7513C11.9928 16.0405 11.4405 16.1851 10.7978 16.1851ZM10.7978 15.3356C11.5208 15.3356 12.0591 15.0966 12.4125 14.6186C12.766 14.1366 12.9427 13.5121 12.9427 12.7449C12.9427 11.9576 12.764 11.331 12.4065 10.8651C12.053 10.3991 11.5168 10.1662 10.7978 10.1662C10.3118 10.1662 9.91015 10.2766 9.59284 10.4975C9.27954 10.7144 9.04456 11.0177 8.88791 11.4073C8.73528 11.7929 8.65896 12.2388 8.65896 12.7449C8.65896 13.5281 8.83971 14.1567 9.20121 14.6307C9.56271 15.1006 10.0949 15.3356 10.7978 15.3356ZM16.3621 16.0044L14.3739 9.49137L15.2595 9.49739L16.8019 14.5524L18.3504 9.49739H19.1577L20.7061 14.5524L22.2606 9.49739H23.1402L21.152 16.0044H20.3808L18.754 10.8229L17.1333 16.0044H16.3621ZM26.7437 16.1851C26.1091 16.1851 25.5588 16.0446 25.0929 15.7634C24.631 15.4822 24.2715 15.0866 24.0144 14.5765C23.7574 14.0664 23.6288 13.4679 23.6288 12.781C23.6288 12.0701 23.7553 11.4555 24.0084 10.9374C24.2614 10.4192 24.6169 10.0196 25.0748 9.73839C25.5367 9.45723 26.081 9.31664 26.7076 9.31664C27.3503 9.31664 27.8985 9.46526 28.3524 9.76249C28.8063 10.0557 29.1497 10.4775 29.3827 11.0277C29.6157 11.578 29.7221 12.2348 29.702 12.9979H28.7983V12.6846C28.7822 11.8411 28.5994 11.2045 28.25 10.7747C27.9046 10.3449 27.3985 10.13 26.7317 10.13C26.0328 10.13 25.4966 10.357 25.123 10.8108C24.7535 11.2647 24.5687 11.9114 24.5687 12.7509C24.5687 13.5703 24.7535 14.2069 25.123 14.6608C25.4966 15.1107 26.0248 15.3356 26.7076 15.3356C27.1735 15.3356 27.5792 15.2292 27.9246 15.0163C28.2741 14.7994 28.5492 14.4881 28.7501 14.0824L29.5755 14.4017C29.3184 14.9681 28.9389 15.4079 28.4368 15.7212C27.9387 16.0305 27.3744 16.1851 26.7437 16.1851ZM24.2554 12.9979V12.2568H29.226V12.9979H24.2554ZM31.0391 16.0044V9.49739H31.8344V11.0639L31.6778 10.859C31.7501 10.6662 31.8444 10.4895 31.9609 10.3288C32.0774 10.1642 32.2039 10.0296 32.3405 9.92517C32.5092 9.77655 32.706 9.66409 32.931 9.58777C33.1559 9.50744 33.3828 9.46124 33.6118 9.44919C33.8407 9.43313 34.0496 9.44919 34.2384 9.49739V10.3288C34.0014 10.2686 33.7423 10.2545 33.4612 10.2867C33.18 10.3188 32.9209 10.4313 32.6839 10.6241C32.467 10.7928 32.3044 10.9956 32.1959 11.2326C32.0875 11.4656 32.0152 11.7146 31.979 11.9797C31.9429 12.2408 31.9248 12.4999 31.9248 12.7569V16.0044H31.0391ZM38.0171 16.1851C37.3825 16.1851 36.8322 16.0446 36.3662 15.7634C35.9043 15.4822 35.5448 15.0866 35.2878 14.5765C35.0307 14.0664 34.9022 13.4679 34.9022 12.781C34.9022 12.0701 35.0287 11.4555 35.2817 10.9374C35.5348 10.4192 35.8903 10.0196 36.3482 9.73839C36.8101 9.45723 37.3543 9.31664 37.9809 9.31664C38.6236 9.31664 39.1719 9.46526 39.6258 9.76249C40.0796 10.0557 40.4231 10.4775 40.656 11.0277C40.889 11.578 40.9954 12.2348 40.9754 12.9979H40.0716V12.6846C40.0555 11.8411 39.8728 11.2045 39.5233 10.7747C39.1779 10.3449 38.6718 10.13 38.005 10.13C37.3061 10.13 36.7699 10.357 36.3964 10.8108C36.0268 11.2647 35.8421 11.9114 35.8421 12.7509C35.8421 13.5703 36.0268 14.2069 36.3964 14.6608C36.7699 15.1107 37.2981 15.3356 37.9809 15.3356C38.4469 15.3356 38.8526 15.2292 39.198 15.0163C39.5474 14.7994 39.8226 14.4881 40.0234 14.0824L40.8488 14.4017C40.5918 14.9681 40.2122 15.4079 39.7101 15.7212C39.212 16.0305 38.6477 16.1851 38.0171 16.1851ZM35.5288 12.9979V12.2568H40.4994V12.9979H35.5288ZM44.8369 16.1851C44.2304 16.1851 43.7123 16.0345 43.2825 15.7333C42.8527 15.428 42.5233 15.0163 42.2944 14.4981C42.0654 13.98 41.9509 13.3956 41.9509 12.7449C41.9509 12.0982 42.0634 11.5158 42.2883 10.9976C42.5173 10.4795 42.8447 10.0698 43.2704 9.76852C43.6962 9.46727 44.2063 9.31664 44.8008 9.31664C45.4113 9.31664 45.9254 9.46526 46.3432 9.76249C46.7609 10.0597 47.0762 10.4674 47.2891 10.9856C47.506 11.4997 47.6144 12.0861 47.6144 12.7449C47.6144 13.3916 47.508 13.976 47.2951 14.4981C47.0822 15.0163 46.7689 15.428 46.3552 15.7333C45.9415 16.0345 45.4354 16.1851 44.8369 16.1851ZM44.9273 15.3597C45.3892 15.3597 45.7708 15.2473 46.072 15.0223C46.3733 14.7974 46.5982 14.4881 46.7468 14.0945C46.8955 13.6968 46.9698 13.247 46.9698 12.7449C46.9698 12.2348 46.8955 11.7849 46.7468 11.3953C46.5982 11.0016 46.3733 10.6944 46.072 10.4734C45.7748 10.2525 45.3993 10.1421 44.9454 10.1421C44.4794 10.1421 44.0938 10.2565 43.7886 10.4855C43.4833 10.7144 43.2564 11.0257 43.1077 11.4194C42.9631 11.813 42.8908 12.2548 42.8908 12.7449C42.8908 13.2389 42.9652 13.6848 43.1138 14.0824C43.2664 14.4761 43.4933 14.7873 43.7946 15.0163C44.0958 15.2452 44.4734 15.3597 44.9273 15.3597ZM46.9698 16.0044V11.1061H46.8734V7.32839H47.7651V16.0044H46.9698ZM54.7898 16.1851C54.1914 16.1851 53.6853 16.0345 53.2715 15.7333C52.8578 15.428 52.5445 15.0163 52.3316 14.4981C52.1188 13.976 52.0123 13.3916 52.0123 12.7449C52.0123 12.0861 52.1188 11.4997 52.3316 10.9856C52.5485 10.4674 52.8659 10.0597 53.2836 9.76249C53.7013 9.46526 54.2155 9.31664 54.826 9.31664C55.4205 9.31664 55.9306 9.46727 56.3563 9.76852C56.7821 10.0698 57.1075 10.4795 57.3324 10.9976C57.5613 11.5158 57.6758 12.0982 57.6758 12.7449C57.6758 13.3956 57.5613 13.98 57.3324 14.4981C57.1034 15.0163 56.7741 15.428 56.3443 15.7333C55.9145 16.0345 55.3964 16.1851 54.7898 16.1851ZM51.8617 16.0044V7.32839H52.7534V11.1061H52.657V16.0044H51.8617ZM54.6995 15.3597C55.1533 15.3597 55.5309 15.2452 55.8322 15.0163C56.1334 14.7873 56.3583 14.4761 56.507 14.0824C56.6596 13.6848 56.7359 13.2389 56.7359 12.7449C56.7359 12.2548 56.6616 11.813 56.513 11.4194C56.3644 11.0257 56.1374 10.7144 55.8322 10.4855C55.5309 10.2565 55.1473 10.1421 54.6814 10.1421C54.2275 10.1421 53.8499 10.2525 53.5487 10.4734C53.2515 10.6944 53.0285 11.0016 52.8799 11.3953C52.7313 11.7849 52.657 12.2348 52.657 12.7449C52.657 13.247 52.7313 13.6968 52.8799 14.0945C53.0285 14.4881 53.2535 14.7974 53.5547 15.0223C53.856 15.2473 54.2375 15.3597 54.6995 15.3597ZM59.609 18.8964L60.8682 15.4802L60.8863 16.4924L58.0365 9.49739H58.9764L61.3141 15.3477H60.9285L63.0854 9.49739H63.9892L60.4947 18.8964H59.609Z" fill="#333333"/>
<path d="M72.6164 8.11712V9.7603H67.7484V8.11712H72.6164ZM68.8627 16.0044V7.54714C68.8627 6.97545 68.974 6.50133 69.1965 6.12477C69.4224 5.7482 69.7305 5.46578 70.1208 5.2775C70.511 5.08922 70.9543 4.99508 71.4507 4.99508C71.7862 4.99508 72.0926 5.02075 72.3699 5.0721C72.6506 5.12345 72.8594 5.16967 72.9963 5.21075L72.6061 6.85393C72.5205 6.82654 72.4144 6.80087 72.2877 6.7769C72.1645 6.75294 72.0378 6.74096 71.9077 6.74096C71.5859 6.74096 71.3617 6.81627 71.2351 6.9669C71.1084 7.1141 71.0451 7.32121 71.0451 7.58822V16.0044H68.8627ZM75.9194 16.1533C75.4162 16.1533 74.9677 16.066 74.5741 15.8914C74.1804 15.7134 73.8689 15.4515 73.6395 15.1058C73.4136 14.7566 73.3006 14.3218 73.3006 13.8015C73.3006 13.3633 73.381 12.9953 73.5419 12.6975C73.7028 12.3997 73.9219 12.16 74.1992 11.9786C74.4765 11.7972 74.7914 11.6602 75.144 11.5678C75.5001 11.4754 75.8732 11.4103 76.2634 11.3727C76.7222 11.3248 77.0919 11.2802 77.3726 11.2392C77.6533 11.1947 77.857 11.1296 77.9837 11.044C78.1103 10.9585 78.1736 10.8318 78.1736 10.6641V10.6332C78.1736 10.308 78.0709 10.0564 77.8656 9.87841C77.6636 9.7004 77.376 9.61139 77.0029 9.61139C76.6092 9.61139 76.296 9.69869 76.0632 9.87327C75.8304 10.0444 75.6764 10.2601 75.601 10.5203L73.5779 10.356C73.6806 9.8767 73.8825 9.46248 74.1838 9.1133C74.485 8.7607 74.8736 8.49026 75.3494 8.30198C75.8287 8.11028 76.3833 8.01442 77.0132 8.01442C77.4513 8.01442 77.8707 8.06577 78.2712 8.16847C78.6752 8.27117 79.0329 8.43035 79.3444 8.64602C79.6594 8.86169 79.9075 9.13898 80.089 9.47788C80.2704 9.81337 80.3611 10.2156 80.3611 10.6846V16.0044H78.2866V14.9107H78.225C78.0983 15.1571 77.9289 15.3745 77.7166 15.5628C77.5044 15.7476 77.2494 15.8931 76.9515 15.9993C76.6537 16.102 76.3097 16.1533 75.9194 16.1533ZM76.5459 14.6436C76.8677 14.6436 77.1518 14.5803 77.3983 14.4536C77.6447 14.3236 77.8382 14.149 77.9785 13.9299C78.1189 13.7108 78.1891 13.4626 78.1891 13.1853V12.3483C78.1206 12.3928 78.0264 12.4339 77.9066 12.4716C77.7902 12.5058 77.6584 12.5383 77.5112 12.5691C77.364 12.5965 77.2168 12.6222 77.0696 12.6461C76.9224 12.6667 76.7889 12.6855 76.6691 12.7026C76.4124 12.7403 76.1881 12.8002 75.9964 12.8823C75.8047 12.9645 75.6558 13.0758 75.5497 13.2161C75.4436 13.3531 75.3905 13.5242 75.3905 13.7296C75.3905 14.0274 75.4983 14.2551 75.714 14.4126C75.9331 14.5666 76.2104 14.6436 76.5459 14.6436ZM88.6207 10.3662L86.6181 10.4895C86.5838 10.3183 86.5102 10.1643 86.3973 10.0273C86.2843 9.88697 86.1354 9.77571 85.9505 9.69355C85.7691 9.60797 85.5517 9.56518 85.2984 9.56518C84.9595 9.56518 84.6736 9.63707 84.4408 9.78084C84.2081 9.9212 84.0917 10.1095 84.0917 10.3457C84.0917 10.534 84.167 10.6932 84.3176 10.8232C84.4682 10.9533 84.7267 11.0577 85.093 11.1365L86.5205 11.424C87.2873 11.5815 87.859 11.8348 88.2356 12.184C88.6121 12.5332 88.8004 12.9919 88.8004 13.5602C88.8004 14.0771 88.6481 14.5307 88.3434 14.9209C88.0422 15.3112 87.6279 15.6159 87.1007 15.8349C86.577 16.0506 85.9728 16.1584 85.2881 16.1584C84.244 16.1584 83.4121 15.9411 82.7925 15.5063C82.1763 15.0681 81.8152 14.4725 81.7091 13.7193L83.8606 13.6064C83.9256 13.9247 84.0831 14.1678 84.333 14.3355C84.5829 14.4999 84.903 14.582 85.2932 14.582C85.6767 14.582 85.9847 14.5084 86.2175 14.3612C86.4537 14.2106 86.5736 14.0172 86.577 13.781C86.5736 13.5824 86.4897 13.4198 86.3254 13.2931C86.161 13.1631 85.9077 13.0638 85.5654 12.9953L84.1995 12.7232C83.4293 12.5691 82.8559 12.3021 82.4793 11.9221C82.1062 11.5421 81.9196 11.0577 81.9196 10.4689C81.9196 9.96228 82.0565 9.52581 82.3304 9.15952C82.6077 8.79322 82.9962 8.5108 83.496 8.31225C83.9992 8.1137 84.588 8.01442 85.2624 8.01442C86.2586 8.01442 87.0425 8.22496 87.6142 8.64602C88.1894 9.06709 88.5248 9.64049 88.6207 10.3662ZM94.3731 8.11712V9.7603H89.6233V8.11712H94.3731ZM90.7016 6.22746H92.8891V13.5807C92.8891 13.7827 92.9199 13.9401 92.9815 14.0531C93.0432 14.1627 93.1287 14.2397 93.2383 14.2842C93.3513 14.3287 93.4813 14.3509 93.6285 14.3509C93.7312 14.3509 93.8339 14.3424 93.9366 14.3253C94.0393 14.3047 94.1181 14.2893 94.1728 14.2791L94.5169 15.9068C94.4073 15.9411 94.2533 15.9804 94.0547 16.0249C93.8562 16.0729 93.6148 16.102 93.3307 16.1122C92.8035 16.1328 92.3414 16.0626 91.9443 15.9017C91.5506 15.7408 91.2442 15.4909 91.0251 15.152C90.806 14.8131 90.6982 14.3852 90.7016 13.8683V6.22746ZM97.9855 11.4446V16.0044H95.7981V8.11712H97.8828V9.50869H97.9753C98.1499 9.04997 98.4425 8.6871 98.8533 8.42008C99.2641 8.14964 99.7622 8.01442 100.348 8.01442C100.895 8.01442 101.373 8.13424 101.78 8.37387C102.188 8.6135 102.504 8.95583 102.73 9.40086C102.956 9.84246 103.069 10.3697 103.069 10.9824V16.0044H100.882V11.3727C100.885 10.89 100.762 10.5134 100.512 10.243C100.262 9.96913 99.918 9.83219 99.4798 9.83219C99.1854 9.83219 98.9252 9.89552 98.6993 10.0222C98.4768 10.1488 98.3022 10.3337 98.1755 10.5768C98.0523 10.8164 97.989 11.1057 97.9855 11.4446Z" fill="#EF8435"/>
</svg>
