<svg width="115" height="21" viewBox="0 0 115 21" fill="none" xmlns="http://www.w3.org/2000/svg">
<path d="M0.8435 15.2214V6.54544H1.72917V10.4557H6.52507V6.54544H7.40473V15.2214H6.52507V11.3052H1.72917V15.2214H0.8435ZM11.8098 15.4022C11.1632 15.4022 10.6109 15.2556 10.153 14.9624C9.69507 14.6691 9.34361 14.2635 9.0986 13.7453C8.85358 13.2272 8.73107 12.6327 8.73107 11.9619C8.73107 11.2791 8.85559 10.6806 9.10462 10.1665C9.35366 9.65233 9.70712 9.25267 10.165 8.96749C10.6269 8.67829 11.1752 8.53369 11.8098 8.53369C12.4605 8.53369 13.0148 8.68029 13.4727 8.97351C13.9347 9.26271 14.2861 9.66639 14.5271 10.1845C14.7721 10.6987 14.8946 11.2911 14.8946 11.9619C14.8946 12.6447 14.7721 13.2452 14.5271 13.7634C14.2821 14.2775 13.9286 14.6792 13.4667 14.9684C13.0048 15.2576 12.4525 15.4022 11.8098 15.4022ZM11.8098 14.5527C12.5328 14.5527 13.0711 14.3137 13.4245 13.8357C13.778 13.3537 13.9547 12.7291 13.9547 11.9619C13.9547 11.1746 13.776 10.548 13.4185 10.0821C13.0651 9.61618 12.5288 9.38321 11.8098 9.38321C11.3238 9.38321 10.9222 9.49367 10.6048 9.71459C10.2915 9.93149 10.0566 10.2347 9.89992 10.6244C9.74729 11.01 9.67097 11.4558 9.67097 11.9619C9.67097 12.7452 9.85172 13.3738 10.2132 13.8477C10.5747 14.3177 11.1069 14.5527 11.8098 14.5527ZM18.593 15.3962C17.8298 15.3962 17.2012 15.2315 16.7071 14.9021C16.2171 14.5727 15.9159 14.1148 15.8034 13.5284L16.7071 13.3778C16.8035 13.7473 17.0224 14.0425 17.3639 14.2635C17.7093 14.4804 18.1351 14.5888 18.6412 14.5888C19.1352 14.5888 19.5248 14.4864 19.81 14.2815C20.0952 14.0727 20.2378 13.7895 20.2378 13.432C20.2378 13.2312 20.1916 13.0685 20.0992 12.944C20.0108 12.8155 19.8281 12.697 19.5509 12.5885C19.2738 12.4801 18.8601 12.3515 18.3098 12.2029C17.7193 12.0422 17.2574 11.8816 16.924 11.7209C16.5907 11.5602 16.3537 11.3755 16.2131 11.1666C16.0725 10.9537 16.0022 10.6947 16.0022 10.3894C16.0022 10.0199 16.1066 9.69651 16.3155 9.41936C16.5244 9.13819 16.8136 8.92129 17.1831 8.76866C17.5526 8.61201 17.9824 8.53369 18.4725 8.53369C18.9625 8.53369 19.4003 8.61402 19.7859 8.77469C20.1755 8.93134 20.4888 9.15225 20.7258 9.43744C20.9628 9.72262 21.1034 10.054 21.1476 10.4316L20.2438 10.5942C20.1836 10.2127 19.9928 9.9114 19.6714 9.69049C19.3541 9.46555 18.9504 9.34907 18.4604 9.34104C17.9985 9.32899 17.6229 9.41735 17.3337 9.60614C17.0445 9.7909 16.8999 10.0379 16.8999 10.3472C16.8999 10.5199 16.9522 10.6685 17.0566 10.7931C17.161 10.9136 17.3498 11.028 17.6229 11.1365C17.9001 11.2449 18.2937 11.3634 18.8038 11.492C19.4023 11.6446 19.8723 11.8053 20.2137 11.974C20.5551 12.1427 20.7981 12.3415 20.9427 12.5704C21.0873 12.7994 21.1596 13.0826 21.1596 13.42C21.1596 14.0345 20.9307 14.5185 20.4728 14.872C20.0189 15.2214 19.3923 15.3962 18.593 15.3962ZM26.0385 15.2214C25.673 15.2978 25.3115 15.3279 24.954 15.3118C24.6006 15.2957 24.2833 15.2194 24.0021 15.0829C23.7249 14.9463 23.5141 14.7334 23.3695 14.4442C23.253 14.2032 23.1887 13.9602 23.1767 13.7152C23.1686 13.4662 23.1646 13.183 23.1646 12.8657V6.90694H24.0443V12.8295C24.0443 13.1026 24.0463 13.3316 24.0503 13.5164C24.0583 13.6971 24.1005 13.8578 24.1768 13.9984C24.3214 14.2675 24.5504 14.4281 24.8637 14.4804C25.181 14.5326 25.5726 14.5205 26.0385 14.4442V15.2214ZM21.7728 9.47359V8.71444H26.0385V9.47359H21.7728ZM29.8386 15.4022C29.204 15.4022 28.6537 15.2616 28.1878 14.9804C27.7259 14.6993 27.3664 14.3036 27.1093 13.7935C26.8522 13.2834 26.7237 12.6849 26.7237 11.9981C26.7237 11.2871 26.8502 10.6726 27.1033 10.1544C27.3563 9.63626 27.7118 9.2366 28.1697 8.95544C28.6316 8.67427 29.1759 8.53369 29.8025 8.53369C30.4451 8.53369 30.9934 8.6823 31.4473 8.97954C31.9012 9.27275 32.2446 9.6945 32.4776 10.2448C32.7105 10.7951 32.817 11.4518 32.7969 12.215H31.8931V11.9017C31.8771 11.0582 31.6943 10.4215 31.3449 9.99174C30.9994 9.56195 30.4933 9.34706 29.8266 9.34706C29.1277 9.34706 28.5914 9.574 28.2179 10.0279C27.8484 10.4818 27.6636 11.1285 27.6636 11.9679C27.6636 12.7873 27.8484 13.424 28.2179 13.8779C28.5914 14.3277 29.1196 14.5527 29.8025 14.5527C30.2684 14.5527 30.6741 14.4462 31.0195 14.2333C31.369 14.0164 31.6441 13.7051 31.8449 13.2995L32.6704 13.6188C32.4133 14.1851 32.0337 14.625 31.5316 14.9383C31.0336 15.2475 30.4692 15.4022 29.8386 15.4022ZM27.3503 12.215V11.4739H32.3209V12.215H27.3503ZM36.6585 15.4022C36.0519 15.4022 35.5338 15.2516 35.104 14.9503C34.6742 14.645 34.3449 14.2333 34.1159 13.7152C33.887 13.197 33.7725 12.6126 33.7725 11.9619C33.7725 11.3152 33.8849 10.7328 34.1099 10.2147C34.3388 9.69651 34.6662 9.28681 35.092 8.98556C35.5177 8.68431 36.0278 8.53369 36.6223 8.53369C37.2328 8.53369 37.747 8.6823 38.1647 8.97954C38.5824 9.27677 38.8977 9.68446 39.1106 10.2026C39.3275 10.7167 39.436 11.3032 39.436 11.9619C39.436 12.6086 39.3295 13.193 39.1167 13.7152C38.9038 14.2333 38.5905 14.645 38.1768 14.9503C37.763 15.2516 37.2569 15.4022 36.6585 15.4022ZM36.7488 14.5768C37.2107 14.5768 37.5923 14.4643 37.8936 14.2394C38.1948 14.0144 38.4198 13.7051 38.5684 13.3115C38.717 12.9139 38.7913 12.464 38.7913 11.9619C38.7913 11.4518 38.717 11.0019 38.5684 10.6123C38.4198 10.2187 38.1948 9.9114 37.8936 9.69049C37.5963 9.46957 37.2208 9.35911 36.7669 9.35911C36.301 9.35911 35.9154 9.47359 35.6101 9.70254C35.3048 9.93149 35.0779 10.2428 34.9293 10.6364C34.7847 11.03 34.7124 11.4719 34.7124 11.9619C34.7124 12.456 34.7867 12.9018 34.9353 13.2995C35.0879 13.6931 35.3149 14.0044 35.6161 14.2333C35.9174 14.4623 36.2949 14.5768 36.7488 14.5768ZM38.7913 15.2214V10.3231H38.6949V6.54544H39.5866V15.2214H38.7913ZM46.4065 15.4022C45.7598 15.4022 45.2075 15.2556 44.7496 14.9624C44.2917 14.6691 43.9403 14.2635 43.6953 13.7453C43.4503 13.2272 43.3277 12.6327 43.3277 11.9619C43.3277 11.2791 43.4523 10.6806 43.7013 10.1665C43.9503 9.65233 44.3038 9.25267 44.7617 8.96749C45.2236 8.67829 45.7719 8.53369 46.4065 8.53369C47.0572 8.53369 47.6115 8.68029 48.0694 8.97351C48.5313 9.26271 48.8828 9.66639 49.1238 10.1845C49.3688 10.6987 49.4913 11.2911 49.4913 11.9619C49.4913 12.6447 49.3688 13.2452 49.1238 13.7634C48.8788 14.2775 48.5253 14.6792 48.0634 14.9684C47.6015 15.2576 47.0492 15.4022 46.4065 15.4022ZM46.4065 14.5527C47.1295 14.5527 47.6678 14.3137 48.0212 13.8357C48.3747 13.3537 48.5514 12.7291 48.5514 11.9619C48.5514 11.1746 48.3727 10.548 48.0152 10.0821C47.6617 9.61618 47.1255 9.38321 46.4065 9.38321C45.9205 9.38321 45.5188 9.49367 45.2015 9.71459C44.8882 9.93149 44.6532 10.2347 44.4966 10.6244C44.344 11.01 44.2676 11.4558 44.2676 11.9619C44.2676 12.7452 44.4484 13.3738 44.8099 13.8477C45.1714 14.3177 45.7036 14.5527 46.4065 14.5527ZM55.5199 15.2214V11.9017C55.5199 11.5402 55.4858 11.2088 55.4175 10.9075C55.3492 10.6023 55.2387 10.3372 55.0861 10.1122C54.9375 9.88329 54.7427 9.70655 54.5017 9.58204C54.2647 9.45752 53.9755 9.39526 53.6341 9.39526C53.3208 9.39526 53.0436 9.44949 52.8026 9.55794C52.5656 9.66639 52.3648 9.82304 52.2001 10.0279C52.0395 10.2287 51.917 10.4737 51.8326 10.7629C51.7483 11.0521 51.7061 11.3815 51.7061 11.751L51.0795 11.6125C51.0795 10.9457 51.196 10.3854 51.4289 9.93149C51.6619 9.4776 51.9832 9.13418 52.3929 8.90121C52.8026 8.66824 53.2726 8.55176 53.8028 8.55176C54.1924 8.55176 54.5318 8.61201 54.821 8.73251C55.1142 8.85301 55.3612 9.01569 55.5621 9.22054C55.7669 9.42539 55.9316 9.66036 56.0561 9.92546C56.1806 10.1865 56.271 10.4657 56.3273 10.7629C56.3835 11.0562 56.4116 11.3494 56.4116 11.6426V15.2214H55.5199ZM50.8144 15.2214V8.71444H51.6157V10.3171H51.7061V15.2214H50.8144Z" fill="white"/>
<path d="M61.5146 15.2214V4.81024H67.7831V6.55267H63.2571V9.14824H66.9155V10.8834H63.2571V15.2214H61.5146ZM69.2281 6.22732V4.62949H70.9706V6.22732H69.2281ZM69.2281 15.2214V7.41304H70.9706V15.2214H69.2281ZM73.8159 15.2214V7.29013C73.8159 7.09251 73.8231 6.87561 73.8376 6.63943C73.8521 6.39843 73.893 6.15984 73.9605 5.92366C74.028 5.68748 74.1509 5.47299 74.3292 5.28019C74.551 5.03437 74.7896 4.86567 75.045 4.77409C75.3053 4.67769 75.5608 4.62467 75.8114 4.61503C76.062 4.60057 76.2813 4.59334 76.4693 4.59334H77.4454V6.01042H76.5416C76.209 6.01042 75.9608 6.09477 75.7969 6.26347C75.6379 6.42735 75.5583 6.64425 75.5583 6.91417V15.2214H73.8159ZM72.5579 8.77951V7.41304H77.4454V8.77951H72.5579ZM83.1778 15.2214C82.662 15.3178 82.1559 15.3588 81.6595 15.3443C81.1678 15.3347 80.7268 15.2455 80.3364 15.0768C79.9459 14.9033 79.6495 14.631 79.4471 14.2598C79.2687 13.9224 79.1747 13.5778 79.1651 13.226C79.1555 12.8741 79.1506 12.4764 79.1506 12.033V5.24404H80.8858V11.9318C80.8858 12.2451 80.8883 12.5198 80.8931 12.756C80.9027 12.9922 80.9533 13.185 81.0449 13.3344C81.2184 13.6236 81.4956 13.7851 81.8764 13.8188C82.2571 13.8526 82.6909 13.8333 83.1778 13.761V15.2214ZM77.7336 8.77951V7.41304H83.1778V8.77951H77.7336ZM90.2576 15.2214V11.4618C90.2576 11.216 90.2407 10.9437 90.207 10.6448C90.1733 10.346 90.0937 10.0592 89.9684 9.78448C89.8479 9.50492 89.6648 9.27597 89.4189 9.09763C89.1779 8.91929 88.8502 8.83012 88.4357 8.83012C88.2139 8.83012 87.9946 8.86627 87.7777 8.93857C87.5608 9.01087 87.3632 9.13619 87.1849 9.31453C87.0113 9.48805 86.8716 9.72905 86.7655 10.0375C86.6595 10.3412 86.6065 10.7316 86.6065 11.2088L85.5726 10.7678C85.5726 10.1026 85.7003 9.5001 85.9558 8.96026C86.216 8.42042 86.5968 7.99144 87.0981 7.67332C87.5994 7.35038 88.2163 7.18891 88.949 7.18891C89.5274 7.18891 90.0046 7.28531 90.3805 7.47811C90.7565 7.67091 91.0553 7.91673 91.277 8.21557C91.4988 8.51441 91.6626 8.83253 91.7687 9.16993C91.8747 9.50733 91.9422 9.82786 91.9711 10.1315C92.0049 10.4304 92.0217 10.6738 92.0217 10.8617V15.2214H90.2576ZM84.8423 15.2214V4.81024H86.3968V10.2906H86.6065V15.2214H84.8423Z" fill="#EF8435"/>
<path d="M95.5486 15.2214V6.44422H92.1794V4.81024H100.66V6.44422H97.291V15.2214H95.5486ZM101.096 15.2214V7.41304H102.636V9.31453L102.448 9.06871C102.544 8.80843 102.672 8.57225 102.831 8.36017C102.995 8.14327 103.19 7.96493 103.417 7.82515C103.61 7.69501 103.822 7.59379 104.053 7.52149C104.289 7.44437 104.53 7.39858 104.776 7.38412C105.022 7.36484 105.261 7.37448 105.492 7.41304V9.03979C105.261 8.97231 104.993 8.95062 104.689 8.97472C104.391 8.99882 104.121 9.08317 103.88 9.22777C103.639 9.35791 103.441 9.5242 103.287 9.72664C103.137 9.92908 103.026 10.1604 102.954 10.4207C102.882 10.6762 102.846 10.9533 102.846 11.2522V15.2214H101.096ZM107.658 18.6918L109.162 14.5635L109.191 15.7781L105.786 7.41304H107.6L110.015 13.6019H109.552L111.902 7.41304H113.645L109.292 18.6918H107.658Z" fill="white"/>
</svg>
