<svg width="115" height="20" viewBox="0 0 115 20" fill="none" xmlns="http://www.w3.org/2000/svg">
<path d="M0.8435 15.0044V6.32839H1.72917V10.2386H6.52507V6.32839H7.40473V15.0044H6.52507V11.0881H1.72917V15.0044H0.8435ZM11.8098 15.1851C11.1632 15.1851 10.6109 15.0385 10.153 14.7453C9.69507 14.4521 9.34361 14.0464 9.0986 13.5283C8.85358 13.0101 8.73107 12.4157 8.73107 11.7449C8.73107 11.062 8.85559 10.4636 9.10462 9.94942C9.35366 9.43529 9.70712 9.03563 10.165 8.75044C10.6269 8.46124 11.1752 8.31664 11.8098 8.31664C12.4605 8.31664 13.0148 8.46325 13.4727 8.75647C13.9347 9.04567 14.2861 9.44934 14.5271 9.96749C14.7721 10.4816 14.8946 11.0741 14.8946 11.7449C14.8946 12.4277 14.7721 13.0282 14.5271 13.5463C14.2821 14.0605 13.9286 14.4621 13.4667 14.7513C13.0048 15.0405 12.4525 15.1851 11.8098 15.1851ZM11.8098 14.3356C12.5328 14.3356 13.0711 14.0966 13.4245 13.6186C13.778 13.1366 13.9547 12.5121 13.9547 11.7449C13.9547 10.9576 13.776 10.331 13.4185 9.86507C13.0651 9.39914 12.5288 9.16617 11.8098 9.16617C11.3238 9.16617 10.9222 9.27663 10.6048 9.49754C10.2915 9.71444 10.0566 10.0177 9.89992 10.4073C9.74729 10.7929 9.67097 11.2388 9.67097 11.7449C9.67097 12.5281 9.85172 13.1567 10.2132 13.6307C10.5747 14.1006 11.1069 14.3356 11.8098 14.3356ZM18.593 15.1791C17.8298 15.1791 17.2012 15.0144 16.7071 14.6851C16.2171 14.3557 15.9159 13.8978 15.8034 13.3114L16.7071 13.1607C16.8035 13.5303 17.0224 13.8255 17.3639 14.0464C17.7093 14.2633 18.1351 14.3718 18.6412 14.3718C19.1352 14.3718 19.5248 14.2693 19.81 14.0645C20.0952 13.8556 20.2378 13.5725 20.2378 13.215C20.2378 13.0141 20.1916 12.8515 20.0992 12.7269C20.0108 12.5984 19.8281 12.4799 19.5509 12.3715C19.2738 12.263 18.8601 12.1345 18.3098 11.9859C17.7193 11.8252 17.2574 11.6645 16.924 11.5039C16.5907 11.3432 16.3537 11.1584 16.2131 10.9496C16.0725 10.7367 16.0022 10.4776 16.0022 10.1723C16.0022 9.80281 16.1066 9.47947 16.3155 9.20232C16.5244 8.92115 16.8136 8.70425 17.1831 8.55162C17.5526 8.39497 17.9824 8.31664 18.4725 8.31664C18.9625 8.31664 19.4003 8.39698 19.7859 8.55764C20.1755 8.71429 20.4888 8.93521 20.7258 9.22039C20.9628 9.50558 21.1034 9.83695 21.1476 10.2145L20.2438 10.3772C20.1836 9.99561 19.9928 9.69436 19.6714 9.47344C19.3541 9.24851 18.9504 9.13203 18.4604 9.12399C17.9985 9.11194 17.6229 9.20031 17.3337 9.38909C17.0445 9.57386 16.8999 9.82089 16.8999 10.1302C16.8999 10.3029 16.9522 10.4515 17.0566 10.576C17.161 10.6965 17.3498 10.811 17.6229 10.9194C17.9001 11.0279 18.2937 11.1464 18.8038 11.2749C19.4023 11.4276 19.8723 11.5882 20.2137 11.7569C20.5551 11.9256 20.7981 12.1244 20.9427 12.3534C21.0873 12.5823 21.1596 12.8655 21.1596 13.2029C21.1596 13.8175 20.9307 14.3015 20.4728 14.6549C20.0189 15.0044 19.3923 15.1791 18.593 15.1791ZM26.0385 15.0044C25.673 15.0807 25.3115 15.1108 24.954 15.0948C24.6006 15.0787 24.2833 15.0024 24.0021 14.8658C23.7249 14.7293 23.5141 14.5164 23.3695 14.2272C23.253 13.9862 23.1887 13.7432 23.1767 13.4981C23.1686 13.2491 23.1646 12.9659 23.1646 12.6486V6.68989H24.0443V12.6125C24.0443 12.8856 24.0463 13.1146 24.0503 13.2993C24.0583 13.4801 24.1005 13.6407 24.1768 13.7813C24.3214 14.0504 24.5504 14.2111 24.8637 14.2633C25.181 14.3155 25.5726 14.3035 26.0385 14.2272V15.0044ZM21.7728 9.25654V8.49739H26.0385V9.25654H21.7728ZM29.8386 15.1851C29.204 15.1851 28.6537 15.0446 28.1878 14.7634C27.7259 14.4822 27.3664 14.0866 27.1093 13.5765C26.8522 13.0664 26.7237 12.4679 26.7237 11.781C26.7237 11.0701 26.8502 10.4555 27.1033 9.93737C27.3563 9.41922 27.7118 9.01956 28.1697 8.73839C28.6316 8.45723 29.1759 8.31664 29.8025 8.31664C30.4451 8.31664 30.9934 8.46526 31.4473 8.76249C31.9012 9.05571 32.2446 9.47746 32.4776 10.0277C32.7105 10.578 32.817 11.2348 32.7969 11.9979H31.8931V11.6846C31.8771 10.8411 31.6943 10.2045 31.3449 9.77469C30.9994 9.34491 30.4933 9.13002 29.8266 9.13002C29.1277 9.13002 28.5914 9.35696 28.2179 9.81084C27.8484 10.2647 27.6636 10.9114 27.6636 11.7509C27.6636 12.5703 27.8484 13.2069 28.2179 13.6608C28.5914 14.1107 29.1196 14.3356 29.8025 14.3356C30.2684 14.3356 30.6741 14.2292 31.0195 14.0163C31.369 13.7994 31.6441 13.4881 31.8449 13.0824L32.6704 13.4017C32.4133 13.9681 32.0337 14.4079 31.5316 14.7212C31.0336 15.0305 30.4692 15.1851 29.8386 15.1851ZM27.3503 11.9979V11.2568H32.3209V11.9979H27.3503ZM36.6585 15.1851C36.0519 15.1851 35.5338 15.0345 35.104 14.7333C34.6742 14.428 34.3449 14.0163 34.1159 13.4981C33.887 12.98 33.7725 12.3956 33.7725 11.7449C33.7725 11.0982 33.8849 10.5158 34.1099 9.99762C34.3388 9.47947 34.6662 9.06977 35.092 8.76852C35.5177 8.46727 36.0278 8.31664 36.6223 8.31664C37.2328 8.31664 37.747 8.46526 38.1647 8.76249C38.5824 9.05973 38.8977 9.46742 39.1106 9.98557C39.3275 10.4997 39.436 11.0861 39.436 11.7449C39.436 12.3916 39.3295 12.976 39.1167 13.4981C38.9038 14.0163 38.5905 14.428 38.1768 14.7333C37.763 15.0345 37.2569 15.1851 36.6585 15.1851ZM36.7488 14.3597C37.2107 14.3597 37.5923 14.2473 37.8936 14.0223C38.1948 13.7974 38.4198 13.4881 38.5684 13.0945C38.717 12.6968 38.7913 12.247 38.7913 11.7449C38.7913 11.2348 38.717 10.7849 38.5684 10.3953C38.4198 10.0016 38.1948 9.69436 37.8936 9.47344C37.5963 9.25253 37.2208 9.14207 36.7669 9.14207C36.301 9.14207 35.9154 9.25654 35.6101 9.48549C35.3048 9.71444 35.0779 10.0257 34.9293 10.4194C34.7847 10.813 34.7124 11.2548 34.7124 11.7449C34.7124 12.2389 34.7867 12.6848 34.9353 13.0824C35.0879 13.4761 35.3149 13.7873 35.6161 14.0163C35.9174 14.2452 36.2949 14.3597 36.7488 14.3597ZM38.7913 15.0044V10.1061H38.6949V6.32839H39.5866V15.0044H38.7913ZM46.4065 15.1851C45.7598 15.1851 45.2075 15.0385 44.7496 14.7453C44.2917 14.4521 43.9403 14.0464 43.6953 13.5283C43.4503 13.0101 43.3277 12.4157 43.3277 11.7449C43.3277 11.062 43.4523 10.4636 43.7013 9.94942C43.9503 9.43529 44.3038 9.03563 44.7617 8.75044C45.2236 8.46124 45.7719 8.31664 46.4065 8.31664C47.0572 8.31664 47.6115 8.46325 48.0694 8.75647C48.5313 9.04567 48.8828 9.44934 49.1238 9.96749C49.3688 10.4816 49.4913 11.0741 49.4913 11.7449C49.4913 12.4277 49.3688 13.0282 49.1238 13.5463C48.8788 14.0605 48.5253 14.4621 48.0634 14.7513C47.6015 15.0405 47.0492 15.1851 46.4065 15.1851ZM46.4065 14.3356C47.1295 14.3356 47.6678 14.0966 48.0212 13.6186C48.3747 13.1366 48.5514 12.5121 48.5514 11.7449C48.5514 10.9576 48.3727 10.331 48.0152 9.86507C47.6617 9.39914 47.1255 9.16617 46.4065 9.16617C45.9205 9.16617 45.5188 9.27663 45.2015 9.49754C44.8882 9.71444 44.6532 10.0177 44.4966 10.4073C44.344 10.7929 44.2676 11.2388 44.2676 11.7449C44.2676 12.5281 44.4484 13.1567 44.8099 13.6307C45.1714 14.1006 45.7036 14.3356 46.4065 14.3356ZM55.5199 15.0044V11.6846C55.5199 11.3231 55.4858 10.9917 55.4175 10.6905C55.3492 10.3852 55.2387 10.1201 55.0861 9.89519C54.9375 9.66624 54.7427 9.48951 54.5017 9.36499C54.2647 9.24048 53.9755 9.17822 53.6341 9.17822C53.3208 9.17822 53.0436 9.23244 52.8026 9.34089C52.5656 9.44934 52.3648 9.60599 52.2001 9.81084C52.0395 10.0117 51.917 10.2567 51.8326 10.5459C51.7483 10.8351 51.7061 11.1645 51.7061 11.534L51.0795 11.3954C51.0795 10.7287 51.196 10.1683 51.4289 9.71444C51.6619 9.26056 51.9832 8.91714 52.3929 8.68417C52.8026 8.4512 53.2726 8.33472 53.8028 8.33472C54.1924 8.33472 54.5318 8.39497 54.821 8.51547C55.1142 8.63597 55.3612 8.79864 55.5621 9.00349C55.7669 9.20834 55.9316 9.44332 56.0561 9.70842C56.1806 9.9695 56.271 10.2487 56.3273 10.5459C56.3835 10.8391 56.4116 11.1323 56.4116 11.4255V15.0044H55.5199ZM50.8144 15.0044V8.49739H51.6157V10.1H51.7061V15.0044H50.8144Z" fill="#333333"/>
<path d="M61.5146 15.0044V4.5932H67.7831V6.33563H63.2571V8.9312H66.9155V10.6664H63.2571V15.0044H61.5146ZM69.2281 6.01028V4.41245H70.9706V6.01028H69.2281ZM69.2281 15.0044V7.196H70.9706V15.0044H69.2281ZM73.8159 15.0044V7.07309C73.8159 6.87547 73.8231 6.65857 73.8376 6.42239C73.8521 6.18139 73.893 5.9428 73.9605 5.70662C74.028 5.47044 74.1509 5.25595 74.3292 5.06315C74.551 4.81733 74.7896 4.64863 75.045 4.55705C75.3053 4.46065 75.5608 4.40763 75.8114 4.39799C76.062 4.38353 76.2813 4.3763 76.4693 4.3763H77.4454V5.79338H76.5416C76.209 5.79338 75.9608 5.87773 75.7969 6.04643C75.6379 6.21031 75.5583 6.42721 75.5583 6.69713V15.0044H73.8159ZM72.5579 8.56247V7.196H77.4454V8.56247H72.5579ZM83.1778 15.0044C82.662 15.1008 82.1559 15.1418 81.6595 15.1273C81.1678 15.1177 80.7268 15.0285 80.3364 14.8598C79.9459 14.6863 79.6495 14.4139 79.4471 14.0428C79.2687 13.7054 79.1747 13.3608 79.1651 13.0089C79.1555 12.6571 79.1506 12.2594 79.1506 11.816V5.027H80.8858V11.7147C80.8858 12.028 80.8883 12.3028 80.8931 12.539C80.9027 12.7751 80.9533 12.9679 81.0449 13.1174C81.2184 13.4066 81.4956 13.568 81.8764 13.6018C82.2571 13.6355 82.6909 13.6162 83.1778 13.5439V15.0044ZM77.7336 8.56247V7.196H83.1778V8.56247H77.7336ZM90.2576 15.0044V11.2448C90.2576 10.999 90.2407 10.7266 90.207 10.4278C90.1733 10.129 90.0937 9.84218 89.9684 9.56744C89.8479 9.28788 89.6648 9.05893 89.4189 8.88059C89.1779 8.70225 88.8502 8.61308 88.4357 8.61308C88.2139 8.61308 87.9946 8.64923 87.7777 8.72153C87.5608 8.79383 87.3632 8.91915 87.1849 9.09749C87.0113 9.27101 86.8716 9.51201 86.7655 9.82049C86.6595 10.1241 86.6065 10.5146 86.6065 10.9917L85.5726 10.5507C85.5726 9.88556 85.7003 9.28306 85.9558 8.74322C86.216 8.20338 86.5968 7.7744 87.0981 7.45628C87.5994 7.13334 88.2163 6.97187 88.949 6.97187C89.5274 6.97187 90.0046 7.06827 90.3805 7.26107C90.7565 7.45387 91.0553 7.69969 91.277 7.99853C91.4988 8.29737 91.6626 8.61549 91.7687 8.95289C91.8747 9.29029 91.9422 9.61082 91.9711 9.91448C92.0049 10.2133 92.0217 10.4567 92.0217 10.6447V15.0044H90.2576ZM84.8423 15.0044V4.5932H86.3968V10.0735H86.6065V15.0044H84.8423Z" fill="#EF8435"/>
<path d="M95.5486 15.0044V6.22718H92.1794V4.5932H100.66V6.22718H97.291V15.0044H95.5486ZM101.096 15.0044V7.196H102.636V9.09749L102.448 8.85167C102.544 8.59139 102.672 8.35521 102.831 8.14313C102.995 7.92623 103.19 7.74789 103.417 7.60811C103.61 7.47797 103.822 7.37675 104.053 7.30445C104.289 7.22733 104.53 7.18154 104.776 7.16708C105.022 7.1478 105.261 7.15744 105.492 7.196V8.82275C105.261 8.75527 104.993 8.73358 104.689 8.75768C104.391 8.78178 104.121 8.86613 103.88 9.01073C103.639 9.14087 103.441 9.30716 103.287 9.5096C103.137 9.71204 103.026 9.9434 102.954 10.2037C102.882 10.4591 102.846 10.7363 102.846 11.0351V15.0044H101.096ZM107.658 18.4748L109.162 14.3465L109.191 15.5611L105.786 7.196H107.6L110.015 13.3849H109.552L111.902 7.196H113.645L109.292 18.4748H107.658Z" fill="#333333"/>
</svg>
