<svg width="16" height="17" viewBox="0 0 16 17" fill="none" xmlns="http://www.w3.org/2000/svg">
<path d="M7.3335 4.94515H8.66683V6.27848H7.3335V4.94515ZM7.3335 7.61182H8.66683V11.6118H7.3335V7.61182ZM8.00016 1.61182C4.32016 1.61182 1.3335 4.59848 1.3335 8.27848C1.3335 11.9585 4.32016 14.9452 8.00016 14.9452C11.6802 14.9452 14.6668 11.9585 14.6668 8.27848C14.6668 4.59848 11.6802 1.61182 8.00016 1.61182ZM8.00016 13.6118C5.06016 13.6118 2.66683 11.2185 2.66683 8.27848C2.66683 5.33848 5.06016 2.94515 8.00016 2.94515C10.9402 2.94515 13.3335 5.33848 13.3335 8.27848C13.3335 11.2185 10.9402 13.6118 8.00016 13.6118Z" fill="#EF8435"/>
</svg>
