<svg width="42" height="42" viewBox="0 0 42 42" fill="none" xmlns="http://www.w3.org/2000/svg">
<g filter="url(#filter0_d_393_37721)">
<path d="M3 15.0217C3 10.5413 3 8.30105 3.87195 6.58976C4.63893 5.08446 5.86278 3.86061 7.36808 3.09363C9.07937 2.22168 11.3196 2.22168 15.8 2.22168H26.2C30.6804 2.22168 32.9206 2.22168 34.6319 3.09363C36.1372 3.86061 37.3611 5.08446 38.1281 6.58976C39 8.30105 39 10.5413 39 15.0217V25.4217C39 29.9021 39 32.1423 38.1281 33.8536C37.3611 35.3589 36.1372 36.5827 34.6319 37.3497C32.9206 38.2217 30.6804 38.2217 26.2 38.2217H15.8C11.3196 38.2217 9.07937 38.2217 7.36808 37.3497C5.86278 36.5827 4.63893 35.3589 3.87195 33.8536C3 32.1423 3 29.9021 3 25.4217V15.0217Z" fill="#F9F9F9"/>
<path d="M3 15.0217C3 10.5413 3 8.30105 3.87195 6.58976C4.63893 5.08446 5.86278 3.86061 7.36808 3.09363C9.07937 2.22168 11.3196 2.22168 15.8 2.22168H26.2C30.6804 2.22168 32.9206 2.22168 34.6319 3.09363C36.1372 3.86061 37.3611 5.08446 38.1281 6.58976C39 8.30105 39 10.5413 39 15.0217V25.4217C39 29.9021 39 32.1423 38.1281 33.8536C37.3611 35.3589 36.1372 36.5827 34.6319 37.3497C32.9206 38.2217 30.6804 38.2217 26.2 38.2217H15.8C11.3196 38.2217 9.07937 38.2217 7.36808 37.3497C5.86278 36.5827 4.63893 35.3589 3.87195 33.8536C3 32.1423 3 29.9021 3 25.4217V15.0217Z" stroke="#B0AEAC"/>
<path d="M15 24.2217H27V22.8883H15V24.2217ZM15 20.8883H27V19.555H15V20.8883ZM15 16.2217V17.555H27V16.2217H15Z" fill="#333333"/>
</g>
<defs>
<filter id="filter0_d_393_37721" x="0.5" y="0.72168" width="41" height="41" filterUnits="userSpaceOnUse" color-interpolation-filters="sRGB">
<feFlood flood-opacity="0" result="BackgroundImageFix"/>
<feColorMatrix in="SourceAlpha" type="matrix" values="0 0 0 0 0 0 0 0 0 0 0 0 0 0 0 0 0 0 127 0" result="hardAlpha"/>
<feOffset dy="1"/>
<feGaussianBlur stdDeviation="1"/>
<feComposite in2="hardAlpha" operator="out"/>
<feColorMatrix type="matrix" values="0 0 0 0 0.0627451 0 0 0 0 0.0941176 0 0 0 0 0.156863 0 0 0 0.04 0"/>
<feBlend mode="normal" in2="BackgroundImageFix" result="effect1_dropShadow_393_37721"/>
<feBlend mode="normal" in="SourceGraphic" in2="effect1_dropShadow_393_37721" result="shape"/>
</filter>
</defs>
</svg>
