<svg fill="none" height="50" viewBox="0 0 390 50" width="390" xmlns="http://www.w3.org/2000/svg"><g clip-rule="evenodd" fill-rule="evenodd"><path d="m140 50h49.875v-50h-49.875z" fill="#fb651e"/><path d="m219.116 16.7718c-4.605 0-8.067 3.5781-8.067 8.194 0 4.616 3.462 8.2299 8.067 8.2299 2.962 0 5.532-1.5386 6.924-4.115l3.962 2.3618c-2.213 3.7927-6.353 6.2617-10.886 6.2617-7.103 0-12.742-5.6535-12.742-12.7384 0-7.0847 5.639-12.7383 12.742-12.7383 4.568 0 8.673 2.4332 10.886 6.2618l-3.962 2.3617c-1.392-2.5763-3.962-4.0792-6.924-4.0792z" fill="#fb651e"/><path d="m245.206 28.1867c0-2.8983-2.106-5.0811-4.818-5.0811-2.784 0-4.89 2.1828-4.89 5.0811 0 2.8982 2.106 5.0811 4.89 5.0811 2.677 0 4.818-2.1829 4.818-5.0811zm-14.241 0c0-5.2243 4.176-9.4108 9.423-9.4108 5.175 0 9.351 4.1865 9.351 9.4108 0 5.2242-4.176 9.4107-9.351 9.4107-5.247 0-9.423-4.1865-9.423-9.4107z" fill="#fb651e"/><path d="m279.183 26.6939v10.4938h-4.52v-9.6969c0-2.7194-1.322-4.4369-3.322-4.4369-2.036 0-3.536 1.7175-3.536 4.4369v9.6969h-4.364v-9.6969c0-2.7194-1.364-4.4369-3.375-4.4369s-3.483 1.7175-3.483 4.4369v9.6969h-4.52v-17.9688h4.52v2.3c1.107-1.725 2.821-2.8031 4.927-2.8031 2.285 0 4.106 1.2938 5.213 3.3063 1.142-1.7969 3.249-3.3063 5.891-3.3063 3.963 0 6.569 3.5219 6.569 7.9781z" fill="#fb651e"/><path d="m295.246 28.378c0-3.0057-1.856-5.1527-4.461-5.1527-2.535 0-4.462 2.0397-4.462 5.1169 0 3.0414 1.963 5.117 4.533 5.117 2.534-.0359 4.39-2.147 4.39-5.0812zm-3.506 9.2739c-2.495 0-4.339-1.143-5.387-2.7144v2.25h-4.52v-25h4.52v9.2142c1.084-1.4642 2.929-2.5358 5.315-2.5358 4.629 0 8.172 4 8.245 9.393.072 5.4642-3.544 9.393-8.173 9.393z" fill="#fb651e"/><path d="m301.783 37.1878h4.52v-17.9688h-4.52zm-.577-23.0636c0-1.5388 1.285-2.6838 2.82-2.6838 1.499 0 2.748 1.145 2.748 2.6838 0 1.5384-1.249 2.6834-2.748 2.6834-1.535 0-2.82-1.145-2.82-2.6834z" fill="#fb651e"/><path d="m325.785 26.7658v10.4219h-4.364v-9.4464c0-2.8985-1.508-4.6874-3.699-4.6874-2.406 0-4.094 2.1827-4.094 4.7589v9.3749h-4.364v-17.9688h4.364v2.2641c1.209-1.6891 3.164-2.7672 5.439-2.7672 4.017 0 6.718 3.45 6.718 8.05z" fill="#fb651e"/><path d="m339.501 29.2172v-.3869l-4.568.8947c-1.535.3576-2.463 1.145-2.463 2.1826 0 1.1047 1.021 1.9441 2.673 1.8943 2.399-.0725 4.358-2.1789 4.358-4.5847zm4.364-2.8713v10.8419h-4.364v-2.0755c-1.323 1.4313-3.398 2.5049-5.687 2.5407-3.041 0-5.724-2.0038-5.724-5.439 0-3.256 2.433-5.1168 6.046-5.8325l5.258-1.0018c-.358-1.5028-1.502-2.6478-3.219-2.6478s-3.327 1.0734-4.293 2.4331l-3.291-2.3974c1.681-2.3617 4.65-3.9361 7.584-3.9361 4.399 0 7.69 3.0416 7.69 7.5144z" fill="#fb651e"/><path d="m353.061 23.2816v7.5406c0 1.467.642 2.1469 1.963 2.1469h2.245v4.2187h-2.869c-3.826 0-5.703-1.875-5.703-5.8053v-8.1009h-3.273v-4.0625h3.117v-4.4369l4.52-1.3955v5.8324h4.208v4.0625z" fill="#fb651e"/><path d="m372.982 28.1867c0-2.8983-2.106-5.0811-4.819-5.0811-2.784 0-4.889 2.1828-4.889 5.0811 0 2.8982 2.105 5.0811 4.889 5.0811 2.677 0 4.819-2.1829 4.819-5.0811zm-14.242 0c0-5.2243 4.177-9.4108 9.423-9.4108 5.176 0 9.352 4.1865 9.352 9.4108 0 5.2242-4.176 9.4107-9.352 9.4107-5.246 0-9.423-4.1865-9.423-9.4107z" fill="#fb651e"/><path d="m390 18.8252v4.3652c-4.037 0-5.767 1.9681-5.767 4.5443v9.4528h-4.364v-17.9687h4.364v2.2541c1.226-1.61 3.208-2.6477 5.767-2.6477z" fill="#fb651e"/></g><path d="m.51709 33v-17.4546h3.63068v6.5625h.1108c.15909-.3523.3892-.7102.69034-1.0739.30682-.3693.70454-.6761 1.19318-.9204.49432-.25 1.10795-.375 1.84091-.375.95454 0 1.83523.25 2.642.75.8069.4943 1.4517 1.2415 1.9347 2.2415.483.9943.7244 2.2414.7244 3.7414 0 1.4603-.2358 2.6932-.7074 3.6989-.4659 1-1.1022 1.7585-1.909 2.2756-.80118.5113-1.69891.767-2.69322.767-.70455 0-1.30398-.1165-1.7983-.3494-.48864-.233-.8892-.5256-1.2017-.8778-.3125-.358-.55114-.7188-.71591-1.0824h-.16193v2.0966zm3.55398-6.5455c0 .7784.10795 1.4574.32386 2.0369.21591.5796.52841 1.0313.9375 1.3551.40909.3182.90625.4773 1.49148.4773.59091 0 1.09091-.1619 1.5-.4858.40909-.3295.71875-.7841.92898-1.3636.2159-.5852.32386-1.2585.32386-2.0199 0-.7557-.10512-1.4205-.31534-1.9943-.21023-.5739-.51989-1.0227-.92898-1.3466s-.91193-.4858-1.50852-.4858c-.59091 0-1.09091.1562-1.5.4687-.40341.3125-.71307.7557-.92898 1.3296s-.32386 1.25-.32386 2.0284z" fill="#000"/><path d="m19.4397 33.2471c-.8353 0-1.5796-.1449-2.233-.4346-.6534-.2955-1.1704-.7302-1.5511-1.304-.375-.5796-.5625-1.3012-.5625-2.1648 0-.7273.1335-1.3381.4006-1.8324.267-.4943.6306-.892 1.0909-1.1932.4602-.3011.9829-.5284 1.5681-.6818.591-.1534 1.2103-.2613 1.858-.3238.7614-.0796 1.375-.1535 1.8409-.2216.4659-.0739.804-.1819 1.0142-.3239s.3154-.3523.3154-.6307v-.0511c0-.5398-.1705-.9574-.5114-1.2529-.3352-.2954-.8125-.4431-1.4318-.4431-.6534 0-1.1733.1448-1.5597.4346-.3864.2841-.642.6421-.767 1.0739l-3.358-.2727c.1705-.7955.5057-1.483 1.0057-2.0625.5-.5853 1.1449-1.0341 1.9347-1.3466.7954-.3182 1.7159-.4773 2.7613-.4773.7273 0 1.4233.0852 2.0881.2557.6704.1704 1.2642.4346 1.7812.7926.5228.3579.9347.8182 1.2358 1.3807.3012.5568.4517 1.2244.4517 2.0028v8.8296h-3.4431v-1.8154h-.1023c-.2102.4091-.4915.7699-.8438 1.0824-.3522.3068-.7755.5483-1.2699.7244-.4943.1705-1.0653.2557-1.713.2557zm1.0397-2.5057c.5341 0 1.0057-.1051 1.4148-.3153.4091-.2159.7301-.5057.9631-.8693.2329-.3637.3494-.7756.3494-1.2358v-1.3892c-.1136.0738-.2699.142-.4687.2045-.1932.0568-.412.1108-.6563.162-.2443.0454-.4886.088-.7329.1278-.2444.0341-.4659.0653-.6648.0937-.4261.0625-.7983.162-1.1165.2983-.3182.1364-.5653.3211-.7415.554-.1761.2273-.2642.5114-.2642.8523 0 .4943.179.8721.537 1.1335.3636.2557.8238.3835 1.3806.3835z" fill="#000"/><path d="m35.5434 33.2556c-1.3409 0-2.4944-.2841-3.4603-.8522-.9602-.5739-1.6988-1.3694-2.2159-2.3864-.5113-1.017-.767-2.1875-.767-3.5114 0-1.3409.2585-2.517.7756-3.5284.5227-1.017 1.2642-1.8096 2.2244-2.3778.9602-.5739 2.1023-.8608 3.4261-.8608 1.1421 0 2.1421.2074 3 .6222.858.4147 1.537.9971 2.037 1.7471s.7755 1.6307.8267 2.6421h-3.4262c-.0966-.6535-.3523-1.179-.767-1.5767-.4091-.4035-.946-.6052-1.6108-.6052-.5625 0-1.054.1534-1.4744.4603-.4148.3011-.7387.7414-.9716 1.321-.233.5795-.3495 1.2812-.3495 2.1051 0 .8352.1137 1.5455.3409 2.1307.233.5852.5597 1.0312.9802 1.3381.4204.3068.9119.4602 1.4744.4602.4148 0 .7869-.0852 1.1165-.2557.3352-.1705.6108-.4176.8267-.7415.2216-.3295.3664-.7244.4346-1.1846h3.4262c-.0569 1-.3296 1.8806-.8182 2.642-.483.7557-1.1506 1.3466-2.0029 1.7727-.8522.4262-1.8608.6392-3.0255.6392z" fill="#000"/><path d="m47.0043 29.2329.0085-4.3551h.5284l4.1932-4.9688h4.1676l-5.6335 6.5796h-.8608zm-3.2898 3.7671v-17.4546h3.6307v17.4546zm8.1819 0-3.8523-5.7017 2.4204-2.5654 5.6847 8.2671z" fill="#000"/><path d="m63.1101 33.2556c-1.3466 0-2.5057-.2727-3.4772-.8181-.966-.5512-1.7103-1.3296-2.233-2.3353-.5227-1.0113-.7841-2.2074-.7841-3.588 0-1.3466.2614-2.5284.7841-3.5455.5227-1.017 1.2585-1.8097 2.2074-2.3778.9545-.5682 2.0739-.8523 3.3579-.8523.8637 0 1.6677.1392 2.412.4176.75.2727 1.4034.6847 1.9602 1.2358.5625.5511 1 1.2443 1.3125 2.0795.3125.8296.4688 1.8012.4688 2.9148v.9972h-11.054v-2.25h7.6363c0-.5227-.1136-.9858-.3409-1.3892-.2272-.4034-.5426-.7188-.946-.946-.3977-.233-.8608-.3495-1.3892-.3495-.5511 0-1.0398.1279-1.4659.3835-.4205.25-.75.5881-.9886 1.0142-.2387.4205-.3608.8893-.3665 1.4063v2.1392c0 .6477.1193 1.2074.3579 1.679.2444.4716.5881.8352 1.0313 1.0909s.9687.3835 1.5767.3835c.4034 0 .7727-.0568 1.1079-.1704.3353-.1137.6222-.2841.8608-.5114.2387-.2273.4205-.5057.5455-.8352l3.3579.2216c-.1704.8068-.5198 1.5113-1.0482 2.1136-.5228.5966-1.1989 1.0625-2.0285 1.3977-.8238.3296-1.7755.4943-2.8551.4943z" fill="#000"/><path d="m76.3118 33.213c-.9943 0-1.8949-.2557-2.7017-.767-.8011-.5171-1.4375-1.2756-1.9091-2.2756-.4659-1.0057-.6988-2.2386-.6988-3.6989 0-1.5.2415-2.7471.7244-3.7414.483-1 1.125-1.7472 1.9261-2.2415.8069-.5 1.6904-.75 2.6506-.75.733 0 1.3438.125 1.8324.375.4943.2443.892.5511 1.1932.9204.3068.3637.5398.7216.6988 1.0739h.1108v-6.5625h3.6222v17.4546h-3.5795v-2.0966h-.1535c-.1704.3636-.4119.7244-.7244 1.0824-.3068.3522-.7074.6448-1.2017.8778-.4886.2329-1.0852.3494-1.7898.3494zm1.1506-2.8892c.5852 0 1.0795-.1591 1.483-.4773.409-.3238.7215-.7755.9375-1.3551.2215-.5795.3323-1.2585.3323-2.0369s-.1079-1.4545-.3238-2.0284-.5284-1.0171-.9375-1.3296-.9063-.4687-1.4915-.4687c-.5966 0-1.0994.1619-1.5085.4858s-.7188.7727-.929 1.3466c-.2102.5738-.3153 1.2386-.3153 1.9943 0 .7614.1051 1.4347.3153 2.0199.2159.5795.5256 1.0341.929 1.3636.4091.3239.9119.4858 1.5085.4858z" fill="#000"/><path d="m92.3687 33v-17.4546h3.6306v6.5625h.1108c.1591-.3523.3892-.7102.6904-1.0739.3068-.3693.7045-.6761 1.1932-.9204.4943-.25 1.1079-.375 1.8409-.375.9544 0 1.8354.25 2.6424.75.806.4943 1.451 1.2415 1.934 2.2415.483.9943.725 2.2414.725 3.7414 0 1.4603-.236 2.6932-.708 3.6989-.466 1-1.102 1.7585-1.909 2.2756-.801.5113-1.699.767-2.693.767-.7045 0-1.3039-.1165-1.7983-.3494-.4886-.233-.8892-.5256-1.2017-.8778-.3125-.358-.5511-.7188-.7159-1.0824h-.1619v2.0966zm3.5539-6.5455c0 .7784.108 1.4574.3239 2.0369.2159.5796.5284 1.0313.9375 1.3551.4091.3182.9062.4773 1.4915.4773.5909 0 1.0909-.1619 1.4995-.4858.41-.3295.719-.7841.929-1.3636.216-.5852.324-1.2585.324-2.0199 0-.7557-.105-1.4205-.315-1.9943-.21-.5739-.52-1.0227-.929-1.3466-.4091-.3239-.9119-.4858-1.5085-.4858-.5909 0-1.0909.1562-1.5.4687-.4034.3125-.7131.7557-.929 1.3296s-.3239 1.25-.3239 2.0284z" fill="#000"/><path d="m109.378 37.909c-.46 0-.892-.0369-1.296-.1107-.397-.0682-.727-.1563-.988-.2643l.818-2.7102c.426.1307.81.2017 1.151.2131.346.0114.644-.0682.894-.2386.256-.1705.463-.4603.623-.8694l.213-.5539-4.696-13.466h3.818l2.71 9.6137h.136l2.736-9.6137h3.844l-5.088 14.5057c-.244.7046-.577 1.3182-.997 1.8409-.415.5284-.941.9347-1.577 1.2188-.636.2898-1.403.4346-2.301.4346z" fill="#000"/><path clip-rule="evenodd" d="m166.964 27.4789v11.1149h-4.208v-11.1149l-10.741-16.0727h5.13l7.735 11.8746 7.695-11.8746h5.13z" fill="#fff" fill-rule="evenodd"/></svg>