<svg width="705" height="425" viewBox="0 0 705 425" fill="none" xmlns="http://www.w3.org/2000/svg">
    <mask id="path-1-inside-1_556_75" fill="white">
        <path d="M21 20H684V404H21V20Z"/>
    </mask>
    <path d="M21 20V10H11V20H21ZM684 20H694V10H684V20ZM684 404V414H694V404H684ZM21 404H11V414H21V404ZM21 30H684V10H21V30ZM674 20V404H694V20H674ZM684 394H21V414H684V394ZM31 404V20H11V404H31Z" fill="url(#paint0_linear_556_75)" mask="url(#path-1-inside-1_556_75)"/>
    <path d="M81.5 409L83.5 403.5H122L127.5 409H148.5L151 419L99 420.5L47.5 425L51.5 413L81.5 409Z" fill="#2E2D2D"/>
    <path d="M577.5 409L584.5 403.5H622L626 411L653 413.5L656.5 425L556 417.5L558.5 409H577.5Z" fill="#262626"/>
    <path d="M64.8096 32.9229C65.0804 32.9906 65.3385 33.0413 65.584 33.0752C65.8294 33.109 66.0452 33.1344 66.2314 33.1514C66.4515 33.1768 66.6546 33.1852 66.8408 33.1768C67.0778 33.1768 67.374 33.1556 67.7295 33.1133C68.0934 33.071 68.4658 33.0329 68.8467 32.999C69.2275 32.9567 69.5915 32.9313 69.9385 32.9229C70.2939 32.9059 70.5817 32.9271 70.8018 32.9863C71.0218 33.0371 71.2461 33.1175 71.4746 33.2275C71.7116 33.3291 71.9274 33.4603 72.1221 33.6211C72.3167 33.7734 72.4775 33.9554 72.6045 34.167C72.7314 34.3701 72.8034 34.6029 72.8203 34.8652C72.8118 35.1953 72.7357 35.5042 72.5918 35.792C72.4733 36.0374 72.2744 36.2913 71.9951 36.5537C71.7158 36.8076 71.3138 37.0023 70.7891 37.1377C71.0514 37.1715 71.2757 37.2308 71.4619 37.3154C71.6566 37.3916 71.8216 37.4847 71.957 37.5947C72.1009 37.6963 72.2152 37.8105 72.2998 37.9375C72.3929 38.0645 72.4648 38.1914 72.5156 38.3184C72.6426 38.6146 72.7018 38.9447 72.6934 39.3086C72.6426 39.7826 72.5452 40.1592 72.4014 40.4385C72.266 40.7178 72.1094 40.9336 71.9316 41.0859C71.7539 41.2383 71.5719 41.3441 71.3857 41.4033C71.1995 41.4626 71.0303 41.5091 70.8779 41.543C70.7256 41.5768 70.5394 41.5938 70.3193 41.5938C70.0993 41.5938 69.8623 41.5895 69.6084 41.5811C69.363 41.5641 69.109 41.5514 68.8467 41.543C68.5843 41.526 68.3346 41.526 68.0977 41.543C67.903 41.5599 67.666 41.5768 67.3867 41.5938C67.1497 41.6107 66.8535 41.6318 66.498 41.6572C66.1426 41.6742 65.7279 41.6953 65.2539 41.7207C65.347 41.653 65.4232 41.5768 65.4824 41.4922C65.5501 41.3991 65.6051 41.3187 65.6475 41.251C65.6898 41.1663 65.7279 41.0859 65.7617 41.0098C65.7871 40.9421 65.8083 40.7559 65.8252 40.4512C65.8421 40.1465 65.8548 39.7826 65.8633 39.3594C65.8717 38.9277 65.876 38.4665 65.876 37.9756C65.8844 37.4762 65.8802 36.998 65.8633 36.541C65.8548 36.0755 65.8379 35.665 65.8125 35.3096C65.7956 34.9456 65.7702 34.6833 65.7363 34.5225C65.6855 34.3447 65.6178 34.1628 65.5332 33.9766C65.4655 33.8158 65.3682 33.6423 65.2412 33.4561C65.1227 33.2699 64.9788 33.0921 64.8096 32.9229ZM67.4883 34.2178C67.4883 34.2516 67.4925 34.3659 67.501 34.5605C67.5094 34.7298 67.5179 34.9922 67.5264 35.3477C67.5433 35.6947 67.5645 36.1898 67.5898 36.833C67.8014 36.9261 68.0088 36.9769 68.2119 36.9854C68.415 36.9854 68.597 36.9769 68.7578 36.96C68.944 36.9346 69.1217 36.8923 69.291 36.833C69.5195 36.7399 69.6973 36.5876 69.8242 36.376C69.9596 36.1644 70.0485 35.9443 70.0908 35.7158C70.1416 35.4788 70.1543 35.2588 70.1289 35.0557C70.1035 34.8441 70.0485 34.6917 69.9639 34.5986C69.8031 34.4548 69.6042 34.3363 69.3672 34.2432C69.1641 34.167 68.9059 34.1162 68.5928 34.0908C68.2881 34.057 67.9199 34.0993 67.4883 34.2178ZM67.4248 40.2354C67.738 40.3962 68.013 40.502 68.25 40.5527C68.487 40.6035 68.6859 40.6289 68.8467 40.6289C69.0329 40.6289 69.1937 40.6035 69.3291 40.5527C69.4899 40.4766 69.6465 40.375 69.7988 40.248C69.9596 40.1126 70.0781 39.9561 70.1543 39.7783C70.2389 39.5921 70.2728 39.389 70.2559 39.1689C70.2389 38.9404 70.1416 38.6908 69.9639 38.4199C69.8031 38.2253 69.6084 38.0729 69.3799 37.9629C69.1768 37.8698 68.9186 37.8105 68.6055 37.7852C68.3008 37.7598 67.9242 37.8317 67.4756 38.001L67.4248 40.2354ZM73.2773 35.9189C73.4382 35.9274 73.582 35.9316 73.709 35.9316C73.8444 35.9232 73.9587 35.9147 74.0518 35.9062C74.1618 35.8978 74.2591 35.8893 74.3438 35.8809C74.4707 35.8639 74.6019 35.8428 74.7373 35.8174C74.8558 35.8005 74.9785 35.7793 75.1055 35.7539C75.2409 35.7201 75.3721 35.682 75.499 35.6396C75.4482 35.7666 75.4059 35.8766 75.3721 35.9697C75.3382 36.0628 75.3128 36.1432 75.2959 36.2109C75.2705 36.2871 75.2578 36.3506 75.2578 36.4014C75.2493 36.4606 75.2451 36.5326 75.2451 36.6172C75.2367 36.7611 75.2367 36.9938 75.2451 37.3154C75.6852 36.9346 76.0534 36.6383 76.3496 36.4268C76.6543 36.2152 76.8955 36.0501 77.0732 35.9316C77.2848 35.7962 77.4499 35.7074 77.5684 35.665C77.8815 35.6143 78.1566 35.6862 78.3936 35.8809C78.4951 35.9655 78.5924 36.0798 78.6855 36.2236C78.7786 36.359 78.859 36.541 78.9268 36.7695C78.9945 36.998 79.0452 37.2731 79.0791 37.5947C79.113 37.9079 79.1172 38.2845 79.0918 38.7246C78.9141 38.7415 78.7533 38.7585 78.6094 38.7754C78.474 38.7923 78.3597 38.805 78.2666 38.8135C78.1566 38.8304 78.055 38.8389 77.9619 38.8389L77.6191 38.877C77.5007 38.8939 77.3525 38.9108 77.1748 38.9277C77.0055 38.9362 76.7982 38.9531 76.5527 38.9785C76.9082 38.6908 77.1367 38.4411 77.2383 38.2295C77.3483 38.0094 77.3949 37.8275 77.3779 37.6836C77.361 37.5228 77.2848 37.3831 77.1494 37.2646C76.9886 37.1715 76.8151 37.1377 76.6289 37.1631C76.4681 37.18 76.2819 37.252 76.0703 37.3789C75.8587 37.5059 75.6344 37.7428 75.3975 38.0898C75.4144 38.6315 75.4313 39.0801 75.4482 39.4355C75.4736 39.791 75.4948 40.0788 75.5117 40.2988C75.5371 40.5527 75.5583 40.7516 75.5752 40.8955C75.6006 41.0225 75.6514 41.1579 75.7275 41.3018C75.7868 41.4202 75.8714 41.5514 75.9814 41.6953C76.0915 41.8392 76.2354 41.9831 76.4131 42.127C76.0407 42.11 75.736 42.11 75.499 42.127C75.3551 42.1354 75.2282 42.1439 75.1182 42.1523C74.9997 42.1693 74.8727 42.1862 74.7373 42.2031C74.6188 42.2201 74.4792 42.237 74.3184 42.2539C74.166 42.2793 73.9967 42.3047 73.8105 42.3301C73.8783 42.237 73.9333 42.127 73.9756 42C74.0179 41.8815 74.0518 41.7673 74.0771 41.6572C74.111 41.5303 74.1364 41.3991 74.1533 41.2637C74.1618 41.1452 74.166 40.9674 74.166 40.7305C74.1745 40.4935 74.1702 40.2269 74.1533 39.9307C74.1449 39.626 74.1322 39.3128 74.1152 38.9912C74.0983 38.6611 74.0771 38.3522 74.0518 38.0645C74.0264 37.7767 73.9967 37.527 73.9629 37.3154C73.9375 37.0954 73.9079 36.943 73.874 36.8584C73.8317 36.7568 73.7809 36.6553 73.7217 36.5537C73.6709 36.4606 73.6074 36.3633 73.5312 36.2617C73.4551 36.1517 73.3704 36.0374 73.2773 35.9189ZM83.0273 36.3125C83.2474 36.3125 83.4759 36.3548 83.7129 36.4395C83.9499 36.5156 84.1784 36.6172 84.3984 36.7441C84.6185 36.8626 84.8174 36.9938 84.9951 37.1377C85.1813 37.2731 85.3337 37.4043 85.4521 37.5312C85.6637 37.7598 85.8076 38.0687 85.8838 38.458C85.9684 38.8389 85.9854 39.2324 85.9346 39.6387C85.8838 40.0365 85.7653 40.4131 85.5791 40.7686C85.3929 41.124 85.1348 41.3864 84.8047 41.5557C84.5677 41.6742 84.335 41.7673 84.1064 41.835C83.8779 41.9027 83.6579 41.9535 83.4463 41.9873C83.2347 42.0212 83.0358 42.0381 82.8496 42.0381C82.6634 42.0381 82.5026 42.0339 82.3672 42.0254C82.1133 42.0085 81.8467 41.9196 81.5674 41.7588C81.2965 41.598 81.0384 41.3991 80.793 41.1621C80.556 40.9251 80.3529 40.667 80.1836 40.3877C80.0143 40.0999 79.9128 39.8291 79.8789 39.5752C79.8281 39.2282 79.8197 38.8643 79.8535 38.4834C79.8874 38.1025 80.0101 37.7513 80.2217 37.4297C80.4417 37.1081 80.7718 36.8415 81.2119 36.6299C81.6605 36.4183 82.2656 36.3125 83.0273 36.3125ZM82.6084 41.2383C82.7015 41.2552 82.8285 41.234 82.9893 41.1748C83.1501 41.1071 83.3066 41.0013 83.459 40.8574C83.6198 40.7135 83.7594 40.5316 83.8779 40.3115C84.0049 40.083 84.0811 39.8079 84.1064 39.4863C84.1318 39.1732 84.1318 38.8854 84.1064 38.623C84.0895 38.3607 84.0514 38.1322 83.9922 37.9375C83.9329 37.7344 83.8652 37.5693 83.7891 37.4424C83.7129 37.3154 83.6325 37.2266 83.5479 37.1758C83.404 37.0996 83.2305 37.0404 83.0273 36.998C82.8242 36.9473 82.6507 36.9557 82.5068 37.0234C82.4391 37.0573 82.3545 37.1292 82.2529 37.2393C82.1514 37.3493 82.0498 37.4889 81.9482 37.6582C81.8467 37.819 81.7536 38.0052 81.6689 38.2168C81.5928 38.4284 81.5378 38.6484 81.5039 38.877C81.4701 39.1055 81.4616 39.3509 81.4785 39.6133C81.5039 39.8757 81.5589 40.1253 81.6436 40.3623C81.7282 40.5908 81.8467 40.7897 81.999 40.959C82.1598 41.1198 82.363 41.2129 82.6084 41.2383ZM85.7695 36.1475C86.0234 36.1644 86.2477 36.1771 86.4424 36.1855C86.6455 36.194 86.8148 36.2025 86.9502 36.2109C87.1025 36.2194 87.238 36.2236 87.3564 36.2236C87.4749 36.2236 87.6104 36.2194 87.7627 36.2109C87.8981 36.2025 88.0632 36.1898 88.2578 36.1729C88.4609 36.1475 88.6937 36.1136 88.9561 36.0713C88.7529 36.1982 88.5879 36.3167 88.4609 36.4268C88.3424 36.5283 88.2493 36.6214 88.1816 36.7061C88.1055 36.7992 88.0547 36.8838 88.0293 36.96C88.0124 37.0277 87.9954 37.1631 87.9785 37.3662C87.9701 37.5609 87.9616 37.7894 87.9531 38.0518C87.9531 38.3057 87.9574 38.5765 87.9658 38.8643C87.9743 39.152 87.987 39.4144 88.0039 39.6514C88.0208 39.8799 88.0462 40.0745 88.0801 40.2354C88.1139 40.3877 88.1562 40.4596 88.207 40.4512C88.2747 40.3919 88.3848 40.193 88.5371 39.8545C88.5964 39.7106 88.6683 39.5286 88.7529 39.3086C88.8376 39.0801 88.9349 38.805 89.0449 38.4834C89.1549 38.1533 89.2777 37.7682 89.4131 37.3281C89.557 36.888 89.7178 36.376 89.8955 35.792H91C91.0339 36.3675 91.0719 36.8711 91.1143 37.3027C91.1566 37.7344 91.1989 38.111 91.2412 38.4326C91.2835 38.7458 91.3216 39.0124 91.3555 39.2324C91.3978 39.444 91.4401 39.6175 91.4824 39.7529C91.5755 40.0745 91.6686 40.248 91.7617 40.2734C91.8379 40.2565 91.9183 40.1592 92.0029 39.9814C92.096 39.8037 92.1807 39.5837 92.2568 39.3213C92.3415 39.0589 92.4176 38.7754 92.4854 38.4707C92.5531 38.1576 92.6123 37.8656 92.6631 37.5947C92.7139 37.3239 92.7477 37.0869 92.7646 36.8838C92.7816 36.6807 92.7816 36.5537 92.7646 36.5029C92.7393 36.4521 92.6885 36.3802 92.6123 36.2871C92.5446 36.2109 92.4515 36.1178 92.333 36.0078C92.223 35.8978 92.0706 35.7666 91.876 35.6143C92.113 35.6566 92.3372 35.6862 92.5488 35.7031C92.7689 35.7116 92.9635 35.7201 93.1328 35.7285C93.3275 35.737 93.5052 35.737 93.666 35.7285C93.8353 35.7285 94.0426 35.7243 94.2881 35.7158C94.4997 35.7074 94.762 35.7031 95.0752 35.7031C95.3968 35.7031 95.7734 35.6947 96.2051 35.6777C95.8242 35.7962 95.5195 35.9105 95.291 36.0205C95.071 36.1221 94.9017 36.2194 94.7832 36.3125C94.6393 36.4141 94.5378 36.5114 94.4785 36.6045C94.4193 36.7314 94.3262 36.998 94.1992 37.4043C94.1484 37.5736 94.085 37.7852 94.0088 38.0391C93.9326 38.2845 93.8438 38.5765 93.7422 38.915C93.6406 39.2536 93.5264 39.6471 93.3994 40.0957C93.2725 40.5358 93.1286 41.0394 92.9678 41.6064C92.8747 41.5895 92.7773 41.5811 92.6758 41.5811C92.5827 41.5726 92.4938 41.5684 92.4092 41.5684H92.1172C92.0156 41.5768 91.9056 41.5853 91.7871 41.5938C91.6855 41.6022 91.5671 41.6149 91.4316 41.6318C91.2962 41.6488 91.1481 41.6699 90.9873 41.6953L90.2256 38.6104L88.9814 41.6953L87.5596 41.6572C87.3818 40.7008 87.238 39.9391 87.1279 39.3721C87.0264 38.7965 86.9417 38.3564 86.874 38.0518C86.7979 37.6963 86.7471 37.4466 86.7217 37.3027C86.6794 37.1504 86.6159 37.0023 86.5312 36.8584C86.4635 36.7399 86.3662 36.6172 86.2393 36.4902C86.1123 36.3548 85.9557 36.2406 85.7695 36.1475ZM100.496 34.751C100.42 34.9372 100.352 35.1064 100.293 35.2588C100.242 35.4111 100.196 35.5465 100.153 35.665C100.111 35.8005 100.073 35.9189 100.039 36.0205C100.005 36.139 99.9671 36.2744 99.9248 36.4268C99.8825 36.5622 99.8275 36.7314 99.7598 36.9346C99.7005 37.1292 99.6286 37.362 99.5439 37.6328C99.4762 37.2266 99.3535 36.9049 99.1758 36.668C98.998 36.4225 98.8161 36.2321 98.6299 36.0967C98.4098 35.9443 98.1729 35.8343 97.9189 35.7666C97.4619 35.6904 97.1318 35.6989 96.9287 35.792C96.7256 35.8851 96.5902 36.0036 96.5225 36.1475C96.4886 36.2067 96.4505 36.2829 96.4082 36.376C96.3743 36.4606 96.3447 36.5495 96.3193 36.6426C96.3024 36.7357 96.2982 36.8288 96.3066 36.9219C96.3151 37.015 96.3532 37.0911 96.4209 37.1504C96.4632 37.1927 96.5732 37.252 96.751 37.3281C96.9287 37.3958 97.1403 37.4762 97.3857 37.5693C97.6396 37.654 97.9062 37.7471 98.1855 37.8486C98.4733 37.9502 98.7441 38.0518 98.998 38.1533C99.252 38.2549 99.472 38.3564 99.6582 38.458C99.8444 38.5596 99.9671 38.6527 100.026 38.7373C100.077 38.8219 100.132 38.9362 100.191 39.0801C100.259 39.2155 100.306 39.3678 100.331 39.5371C100.365 39.6979 100.373 39.8672 100.356 40.0449C100.348 40.2142 100.301 40.3835 100.217 40.5527C100.132 40.722 99.9967 40.8786 99.8105 41.0225C99.6328 41.1663 99.3916 41.2848 99.0869 41.3779C98.7314 41.488 98.3887 41.5176 98.0586 41.4668C97.7285 41.416 97.4238 41.3398 97.1445 41.2383C96.8737 41.1367 96.6367 41.0394 96.4336 40.9463C96.2305 40.8447 96.0866 40.8024 96.002 40.8193C95.9089 40.8363 95.8031 40.8828 95.6846 40.959C95.5661 41.0352 95.4518 41.1156 95.3418 41.2002C95.2402 41.2764 95.1514 41.3483 95.0752 41.416C94.999 41.4753 94.9609 41.4964 94.9609 41.4795C94.9609 41.4626 94.9736 41.4118 94.999 41.3271C95.0329 41.2425 95.0667 41.141 95.1006 41.0225C95.1429 40.8955 95.181 40.7601 95.2148 40.6162C95.2572 40.4639 95.2868 40.32 95.3037 40.1846C95.3206 40.0745 95.3418 39.9391 95.3672 39.7783C95.3841 39.6344 95.4053 39.4609 95.4307 39.2578C95.4645 39.0462 95.5026 38.7923 95.5449 38.4961C95.5872 38.7161 95.6465 38.9066 95.7227 39.0674C95.8073 39.2282 95.8877 39.3678 95.9639 39.4863C96.057 39.6217 96.1458 39.736 96.2305 39.8291C96.3574 39.9476 96.5055 40.0576 96.6748 40.1592C96.8525 40.2607 97.0303 40.3496 97.208 40.4258C97.3857 40.4935 97.555 40.5358 97.7158 40.5527C97.8766 40.5697 98.012 40.5527 98.1221 40.502C98.2321 40.4512 98.3252 40.3581 98.4014 40.2227C98.486 40.0872 98.5452 39.9391 98.5791 39.7783C98.613 39.6175 98.6257 39.4652 98.6172 39.3213C98.6087 39.1689 98.5706 39.0462 98.5029 38.9531C98.4521 38.8939 98.3337 38.8177 98.1475 38.7246C97.9697 38.6315 97.7539 38.5299 97.5 38.4199C97.2546 38.3099 96.9922 38.1956 96.7129 38.0771C96.4421 37.9587 96.1839 37.8402 95.9385 37.7217C95.7015 37.5947 95.5026 37.4762 95.3418 37.3662C95.1895 37.2477 95.1048 37.1419 95.0879 37.0488C95.071 36.9134 95.0583 36.7653 95.0498 36.6045C95.0413 36.4352 95.0498 36.2702 95.0752 36.1094C95.109 35.9401 95.1683 35.7793 95.2529 35.627C95.346 35.4746 95.4814 35.3477 95.6592 35.2461C95.7777 35.1784 95.9342 35.1276 96.1289 35.0938C96.3236 35.0599 96.5394 35.043 96.7764 35.043C97.0133 35.0345 97.2588 35.043 97.5127 35.0684C97.7666 35.0853 98.0078 35.1107 98.2363 35.1445C98.4733 35.1699 98.6849 35.2038 98.8711 35.2461C99.0658 35.2884 99.2139 35.3265 99.3154 35.3604C99.4339 35.4027 99.5609 35.4069 99.6963 35.373C99.8148 35.3477 99.9417 35.2926 100.077 35.208C100.213 35.1234 100.352 34.971 100.496 34.751ZM104.254 39.9561C104.491 39.9561 104.711 39.9307 104.914 39.8799C105.083 39.8376 105.244 39.7699 105.396 39.6768C105.557 39.5752 105.663 39.4271 105.714 39.2324C105.883 39.2663 106.027 39.2959 106.146 39.3213C106.264 39.3382 106.366 39.3551 106.45 39.3721C106.543 39.3975 106.624 39.4144 106.691 39.4229C106.759 39.4398 106.84 39.4567 106.933 39.4736C107.017 39.4906 107.119 39.5117 107.237 39.5371C107.364 39.554 107.512 39.5794 107.682 39.6133C107.555 39.5964 107.424 39.609 107.288 39.6514C107.161 39.6937 107.038 39.7402 106.92 39.791C106.785 39.8503 106.658 39.9222 106.539 40.0068C106.463 40.0576 106.374 40.1338 106.272 40.2354C106.179 40.3369 106.044 40.4342 105.866 40.5273C105.688 40.6204 105.451 40.7008 105.155 40.7686C104.868 40.8278 104.495 40.849 104.038 40.832C103.488 40.8151 103.027 40.7178 102.654 40.54C102.282 40.3538 101.981 40.1296 101.753 39.8672C101.524 39.5964 101.359 39.3044 101.258 38.9912C101.156 38.6781 101.101 38.3861 101.093 38.1152C101.084 37.8444 101.165 37.5609 101.334 37.2646C101.503 36.9684 101.74 36.6976 102.045 36.4521C102.358 36.2067 102.735 36.0078 103.175 35.8555C103.615 35.6947 104.097 35.6143 104.622 35.6143C104.927 35.6143 105.206 35.6523 105.46 35.7285C105.722 35.7962 105.959 35.8893 106.171 36.0078C106.391 36.1263 106.581 36.2617 106.742 36.4141C106.903 36.5579 107.038 36.7061 107.148 36.8584C107.258 37.0192 107.352 37.1885 107.428 37.3662C107.495 37.5186 107.55 37.6921 107.593 37.8867C107.635 38.0814 107.648 38.2803 107.631 38.4834C106.988 38.5003 106.467 38.513 106.069 38.5215C105.68 38.5299 105.375 38.5342 105.155 38.5342H104.584H104.152C104 38.5342 103.801 38.5384 103.556 38.5469C103.31 38.5553 103.01 38.568 102.654 38.585C102.697 38.9235 102.802 39.1859 102.972 39.3721C103.149 39.5498 103.336 39.6852 103.53 39.7783C103.75 39.8799 103.992 39.9391 104.254 39.9561ZM103.111 37.6709C103.382 37.6878 103.606 37.7005 103.784 37.709C103.97 37.7174 104.123 37.7259 104.241 37.7344C104.368 37.7428 104.47 37.7471 104.546 37.7471H104.863C105.075 37.7471 105.468 37.7344 106.044 37.709C106.019 37.3366 105.938 37.0531 105.803 36.8584C105.676 36.6637 105.54 36.5199 105.396 36.4268C105.227 36.3252 105.041 36.266 104.838 36.249C104.288 36.2575 103.877 36.3717 103.606 36.5918C103.344 36.8118 103.179 37.1715 103.111 37.6709ZM108.012 35.9189C108.173 35.9274 108.316 35.9316 108.443 35.9316C108.579 35.9232 108.693 35.9147 108.786 35.9062C108.896 35.8978 108.993 35.8893 109.078 35.8809C109.205 35.8639 109.336 35.8428 109.472 35.8174C109.59 35.8005 109.713 35.7793 109.84 35.7539C109.975 35.7201 110.106 35.682 110.233 35.6396C110.183 35.7666 110.14 35.8766 110.106 35.9697C110.073 36.0628 110.047 36.1432 110.03 36.2109C110.005 36.2871 109.992 36.3506 109.992 36.4014C109.984 36.4606 109.979 36.5326 109.979 36.6172C109.971 36.7611 109.971 36.9938 109.979 37.3154C110.42 36.9346 110.788 36.6383 111.084 36.4268C111.389 36.2152 111.63 36.0501 111.808 35.9316C112.019 35.7962 112.184 35.7074 112.303 35.665C112.616 35.6143 112.891 35.6862 113.128 35.8809C113.229 35.9655 113.327 36.0798 113.42 36.2236C113.513 36.359 113.593 36.541 113.661 36.7695C113.729 36.998 113.78 37.2731 113.813 37.5947C113.847 37.9079 113.852 38.2845 113.826 38.7246C113.648 38.7415 113.488 38.7585 113.344 38.7754C113.208 38.7923 113.094 38.805 113.001 38.8135C112.891 38.8304 112.789 38.8389 112.696 38.8389L112.354 38.877C112.235 38.8939 112.087 38.9108 111.909 38.9277C111.74 38.9362 111.533 38.9531 111.287 38.9785C111.643 38.6908 111.871 38.4411 111.973 38.2295C112.083 38.0094 112.129 37.8275 112.112 37.6836C112.095 37.5228 112.019 37.3831 111.884 37.2646C111.723 37.1715 111.549 37.1377 111.363 37.1631C111.202 37.18 111.016 37.252 110.805 37.3789C110.593 37.5059 110.369 37.7428 110.132 38.0898C110.149 38.6315 110.166 39.0801 110.183 39.4355C110.208 39.791 110.229 40.0788 110.246 40.2988C110.271 40.5527 110.293 40.7516 110.31 40.8955C110.335 41.0225 110.386 41.1579 110.462 41.3018C110.521 41.4202 110.606 41.5514 110.716 41.6953C110.826 41.8392 110.97 41.9831 111.147 42.127C110.775 42.11 110.47 42.11 110.233 42.127C110.09 42.1354 109.963 42.1439 109.853 42.1523C109.734 42.1693 109.607 42.1862 109.472 42.2031C109.353 42.2201 109.214 42.237 109.053 42.2539C108.9 42.2793 108.731 42.3047 108.545 42.3301C108.613 42.237 108.668 42.127 108.71 42C108.752 41.8815 108.786 41.7673 108.812 41.6572C108.845 41.5303 108.871 41.3991 108.888 41.2637C108.896 41.1452 108.9 40.9674 108.9 40.7305C108.909 40.4935 108.905 40.2269 108.888 39.9307C108.879 39.626 108.867 39.3128 108.85 38.9912C108.833 38.6611 108.812 38.3522 108.786 38.0645C108.761 37.7767 108.731 37.527 108.697 37.3154C108.672 37.0954 108.642 36.943 108.608 36.8584C108.566 36.7568 108.515 36.6553 108.456 36.5537C108.405 36.4606 108.342 36.3633 108.266 36.2617C108.189 36.1517 108.105 36.0374 108.012 35.9189Z" fill="black"/>
    <path d="M124.881 42V34.7273H129.241V35.5085H125.761V37.9659H128.915V38.7472H125.761V42H124.881ZM130.636 42V36.5455H131.474V42H130.636ZM131.062 35.6364C130.899 35.6364 130.758 35.5807 130.64 35.4695C130.524 35.3582 130.466 35.2244 130.466 35.0682C130.466 34.9119 130.524 34.7782 130.64 34.6669C130.758 34.5556 130.899 34.5 131.062 34.5C131.226 34.5 131.365 34.5556 131.481 34.6669C131.6 34.7782 131.659 34.9119 131.659 35.0682C131.659 35.2244 131.6 35.3582 131.481 35.4695C131.365 35.5807 131.226 35.6364 131.062 35.6364ZM133.847 34.7273V42H133.009V34.7273H133.847ZM137.669 42.1136C137.144 42.1136 136.69 41.9976 136.309 41.7656C135.93 41.5312 135.638 41.2045 135.432 40.7855C135.228 40.3641 135.127 39.8741 135.127 39.3153C135.127 38.7566 135.228 38.2642 135.432 37.8381C135.638 37.4096 135.924 37.0758 136.291 36.8366C136.661 36.5952 137.092 36.4744 137.584 36.4744C137.868 36.4744 138.149 36.5218 138.426 36.6165C138.703 36.7112 138.955 36.8651 139.182 37.0781C139.409 37.2888 139.59 37.5682 139.725 37.9162C139.86 38.2642 139.928 38.6927 139.928 39.2017V39.5568H135.723V38.8324H139.075C139.075 38.5246 139.014 38.25 138.891 38.0085C138.77 37.767 138.597 37.5765 138.372 37.4368C138.15 37.2971 137.887 37.2273 137.584 37.2273C137.25 37.2273 136.961 37.3101 136.718 37.4759C136.476 37.6392 136.29 37.8523 136.16 38.1151C136.03 38.3778 135.965 38.6596 135.965 38.9602V39.4432C135.965 39.8551 136.036 40.2043 136.178 40.4908C136.322 40.7749 136.522 40.9915 136.778 41.1406C137.034 41.2874 137.331 41.3608 137.669 41.3608C137.889 41.3608 138.088 41.33 138.266 41.2685C138.446 41.2045 138.601 41.1098 138.731 40.9844C138.861 40.8565 138.962 40.6979 139.033 40.5085L139.843 40.7358C139.757 41.0104 139.614 41.2519 139.413 41.4602C139.212 41.6662 138.963 41.8272 138.667 41.9432C138.371 42.0568 138.039 42.1136 137.669 42.1136Z" fill="black"/>
    <path d="M153.881 42V34.7273H158.27V35.5085H154.761V37.9659H158.043V38.7472H154.761V41.2188H158.327V42H153.881ZM161.803 42.1136C161.349 42.1136 160.947 41.9988 160.599 41.7692C160.251 41.5372 159.979 41.2105 159.783 40.7891C159.586 40.3653 159.488 39.8646 159.488 39.2869C159.488 38.714 159.586 38.2169 159.783 37.7955C159.979 37.3741 160.253 37.0485 160.603 36.8189C160.953 36.5893 161.358 36.4744 161.817 36.4744C162.173 36.4744 162.453 36.5336 162.659 36.652C162.867 36.768 163.026 36.9006 163.135 37.0497C163.246 37.1965 163.333 37.3172 163.394 37.4119H163.465V34.7273H164.303V42H163.494V41.1619H163.394C163.333 41.2614 163.245 41.3868 163.131 41.5384C163.018 41.6875 162.856 41.8213 162.645 41.9396C162.434 42.0556 162.154 42.1136 161.803 42.1136ZM161.917 41.3608C162.253 41.3608 162.537 41.2732 162.769 41.098C163.001 40.9205 163.178 40.6754 163.298 40.3629C163.419 40.0481 163.479 39.6847 163.479 39.2727C163.479 38.8655 163.42 38.5092 163.302 38.2038C163.183 37.8961 163.008 37.657 162.776 37.4865C162.544 37.3137 162.258 37.2273 161.917 37.2273C161.562 37.2273 161.266 37.3184 161.029 37.5007C160.795 37.6806 160.618 37.9257 160.5 38.2358C160.384 38.5436 160.326 38.8892 160.326 39.2727C160.326 39.661 160.385 40.0137 160.504 40.331C160.624 40.6458 160.802 40.8968 161.036 41.0838C161.273 41.2685 161.567 41.3608 161.917 41.3608ZM165.955 42V36.5455H166.793V42H165.955ZM166.381 35.6364C166.217 35.6364 166.076 35.5807 165.958 35.4695C165.842 35.3582 165.784 35.2244 165.784 35.0682C165.784 34.9119 165.842 34.7782 165.958 34.6669C166.076 34.5556 166.217 34.5 166.381 34.5C166.544 34.5 166.684 34.5556 166.8 34.6669C166.918 34.7782 166.977 34.9119 166.977 35.0682C166.977 35.2244 166.918 35.3582 166.8 35.4695C166.684 35.5807 166.544 35.6364 166.381 35.6364ZM170.7 36.5455V37.2557H167.873V36.5455H170.7ZM168.697 35.2386H169.535V40.4375C169.535 40.6742 169.569 40.8518 169.638 40.9702C169.709 41.0862 169.799 41.1643 169.908 41.2045C170.019 41.2424 170.136 41.2614 170.259 41.2614C170.352 41.2614 170.427 41.2566 170.487 41.2472C170.546 41.2353 170.593 41.2259 170.629 41.2188L170.799 41.9716C170.742 41.9929 170.663 42.0142 170.561 42.0355C170.459 42.0592 170.33 42.071 170.174 42.071C169.937 42.071 169.705 42.0201 169.478 41.9183C169.253 41.8165 169.066 41.6615 168.917 41.4531C168.77 41.2448 168.697 40.982 168.697 40.6648V35.2386Z" fill="black"/>
    <path d="M184.179 34.7273L186.338 40.8494H186.423L188.582 34.7273H189.506L186.835 42H185.926L183.256 34.7273H184.179ZM190.525 42V36.5455H191.363V42H190.525ZM190.951 35.6364C190.788 35.6364 190.647 35.5807 190.528 35.4695C190.412 35.3582 190.354 35.2244 190.354 35.0682C190.354 34.9119 190.412 34.7782 190.528 34.6669C190.647 34.5556 190.788 34.5 190.951 34.5C191.114 34.5 191.254 34.5556 191.37 34.6669C191.488 34.7782 191.548 34.9119 191.548 35.0682C191.548 35.2244 191.488 35.3582 191.37 35.4695C191.254 35.5807 191.114 35.6364 190.951 35.6364ZM195.185 42.1136C194.659 42.1136 194.206 41.9976 193.825 41.7656C193.446 41.5312 193.154 41.2045 192.948 40.7855C192.744 40.3641 192.642 39.8741 192.642 39.3153C192.642 38.7566 192.744 38.2642 192.948 37.8381C193.154 37.4096 193.44 37.0758 193.807 36.8366C194.176 36.5952 194.607 36.4744 195.1 36.4744C195.384 36.4744 195.664 36.5218 195.941 36.6165C196.218 36.7112 196.47 36.8651 196.698 37.0781C196.925 37.2888 197.106 37.5682 197.241 37.9162C197.376 38.2642 197.443 38.6927 197.443 39.2017V39.5568H193.239V38.8324H196.591C196.591 38.5246 196.53 38.25 196.406 38.0085C196.286 37.767 196.113 37.5765 195.888 37.4368C195.665 37.2971 195.403 37.2273 195.1 37.2273C194.766 37.2273 194.477 37.3101 194.233 37.4759C193.992 37.6392 193.806 37.8523 193.676 38.1151C193.545 38.3778 193.48 38.6596 193.48 38.9602V39.4432C193.48 39.8551 193.551 40.2043 193.693 40.4908C193.838 40.7749 194.038 40.9915 194.294 41.1406C194.549 41.2874 194.846 41.3608 195.185 41.3608C195.405 41.3608 195.604 41.33 195.781 41.2685C195.961 41.2045 196.116 41.1098 196.247 40.9844C196.377 40.8565 196.477 40.6979 196.548 40.5085L197.358 40.7358C197.273 41.0104 197.13 41.2519 196.928 41.4602C196.727 41.6662 196.479 41.8272 196.183 41.9432C195.887 42.0568 195.554 42.1136 195.185 42.1136ZM199.954 42L198.292 36.5455H199.173L200.352 40.7216H200.409L201.573 36.5455H202.468L203.619 40.7074H203.676L204.855 36.5455H205.735L204.073 42H203.249L202.056 37.8097H201.971L200.778 42H199.954Z" fill="black"/>
    <path d="M217.881 42V34.7273H218.761V37.9659H222.639V34.7273H223.52V42H222.639V38.7472H218.761V42H217.881ZM225.169 42V36.5455H226.007V42H225.169ZM225.596 35.6364C225.432 35.6364 225.291 35.5807 225.173 35.4695C225.057 35.3582 224.999 35.2244 224.999 35.0682C224.999 34.9119 225.057 34.7782 225.173 34.6669C225.291 34.5556 225.432 34.5 225.596 34.5C225.759 34.5 225.899 34.5556 226.015 34.6669C226.133 34.7782 226.192 34.9119 226.192 35.0682C226.192 35.2244 226.133 35.3582 226.015 35.4695C225.899 35.5807 225.759 35.6364 225.596 35.6364ZM231.406 37.767L230.653 37.9801C230.606 37.8546 230.536 37.7327 230.444 37.6143C230.354 37.4936 230.231 37.3942 230.074 37.3161C229.918 37.2379 229.718 37.1989 229.474 37.1989C229.14 37.1989 228.862 37.2758 228.64 37.4297C228.42 37.5812 228.309 37.7741 228.309 38.0085C228.309 38.2169 228.385 38.3814 228.537 38.5021C228.688 38.6229 228.925 38.7235 229.247 38.804L230.057 39.0028C230.544 39.1212 230.908 39.3023 231.147 39.5462C231.386 39.7876 231.506 40.099 231.506 40.4801C231.506 40.7926 231.416 41.072 231.236 41.3182C231.058 41.5644 230.809 41.7585 230.49 41.9006C230.17 42.0426 229.799 42.1136 229.375 42.1136C228.818 42.1136 228.358 41.9929 227.993 41.7514C227.629 41.5099 227.398 41.1572 227.301 40.6932L228.096 40.4943C228.172 40.7879 228.315 41.008 228.526 41.1548C228.739 41.3016 229.017 41.375 229.361 41.375C229.751 41.375 230.061 41.2921 230.291 41.1264C230.523 40.9583 230.639 40.7571 230.639 40.5227C230.639 40.3333 230.573 40.1747 230.44 40.0469C230.308 39.9167 230.104 39.8196 229.829 39.7557L228.92 39.5426C228.421 39.4242 228.054 39.2408 227.819 38.9922C227.587 38.7412 227.471 38.4276 227.471 38.0511C227.471 37.7434 227.558 37.4711 227.731 37.2344C227.906 36.9976 228.144 36.8118 228.444 36.6768C228.747 36.5419 229.091 36.4744 229.474 36.4744C230.014 36.4744 230.438 36.5928 230.746 36.8295C231.056 37.0663 231.276 37.3788 231.406 37.767ZM235.139 36.5455V37.2557H232.312V36.5455H235.139ZM233.136 35.2386H233.974V40.4375C233.974 40.6742 234.009 40.8518 234.077 40.9702C234.148 41.0862 234.238 41.1643 234.347 41.2045C234.459 41.2424 234.576 41.2614 234.699 41.2614C234.791 41.2614 234.867 41.2566 234.926 41.2472C234.985 41.2353 235.033 41.2259 235.068 41.2188L235.239 41.9716C235.182 41.9929 235.103 42.0142 235.001 42.0355C234.899 42.0592 234.77 42.071 234.614 42.071C234.377 42.071 234.145 42.0201 233.918 41.9183C233.693 41.8165 233.506 41.6615 233.357 41.4531C233.21 41.2448 233.136 40.982 233.136 40.6648V35.2386ZM238.557 42.1136C238.065 42.1136 237.633 41.9964 237.261 41.7621C236.892 41.5277 236.603 41.1998 236.395 40.7784C236.189 40.357 236.086 39.8646 236.086 39.3011C236.086 38.733 236.189 38.237 236.395 37.8132C236.603 37.3894 236.892 37.0604 237.261 36.826C237.633 36.5916 238.065 36.4744 238.557 36.4744C239.05 36.4744 239.48 36.5916 239.85 36.826C240.221 37.0604 240.51 37.3894 240.716 37.8132C240.925 38.237 241.029 38.733 241.029 39.3011C241.029 39.8646 240.925 40.357 240.716 40.7784C240.51 41.1998 240.221 41.5277 239.85 41.7621C239.48 41.9964 239.05 42.1136 238.557 42.1136ZM238.557 41.3608C238.931 41.3608 239.239 41.2649 239.48 41.0732C239.722 40.8814 239.901 40.6293 240.017 40.3168C240.133 40.0043 240.191 39.6657 240.191 39.3011C240.191 38.9366 240.133 38.5968 240.017 38.282C239.901 37.9671 239.722 37.7126 239.48 37.5185C239.239 37.3243 238.931 37.2273 238.557 37.2273C238.183 37.2273 237.875 37.3243 237.634 37.5185C237.392 37.7126 237.214 37.9671 237.098 38.282C236.982 38.5968 236.924 38.9366 236.924 39.3011C236.924 39.6657 236.982 40.0043 237.098 40.3168C237.214 40.6293 237.392 40.8814 237.634 41.0732C237.875 41.2649 238.183 41.3608 238.557 41.3608ZM242.308 42V36.5455H243.118V37.3693H243.175C243.274 37.0994 243.454 36.8804 243.714 36.7124C243.975 36.5443 244.268 36.4602 244.595 36.4602C244.657 36.4602 244.733 36.4614 244.826 36.4638C244.918 36.4661 244.988 36.4697 245.035 36.4744V37.3267C245.007 37.3196 244.942 37.3089 244.84 37.2947C244.741 37.2782 244.635 37.2699 244.524 37.2699C244.259 37.2699 244.022 37.3255 243.814 37.4368C243.608 37.5457 243.444 37.6972 243.324 37.8913C243.205 38.0831 243.146 38.3021 243.146 38.5483V42H242.308ZM246.735 44.0455C246.593 44.0455 246.466 44.0336 246.355 44.0099C246.243 43.9886 246.166 43.9673 246.124 43.946L246.337 43.2074C246.54 43.2595 246.72 43.2784 246.877 43.2642C247.033 43.25 247.171 43.1802 247.292 43.0547C247.415 42.9316 247.528 42.7315 247.629 42.4545L247.786 42.0284L245.769 36.5455H246.678L248.183 40.892H248.24L249.746 36.5455H250.655L248.34 42.7955C248.235 43.0772 248.106 43.3104 247.953 43.495C247.799 43.6821 247.62 43.8205 247.416 43.9105C247.215 44.0005 246.988 44.0455 246.735 44.0455Z" fill="black"/>
    <path d="M260.881 42V34.7273H263.423C263.93 34.7273 264.348 34.8149 264.677 34.9901C265.006 35.1629 265.251 35.3961 265.412 35.6896C265.573 35.9808 265.653 36.304 265.653 36.6591C265.653 36.9716 265.598 37.2296 265.487 37.4332C265.378 37.6368 265.233 37.7978 265.053 37.9162C264.876 38.0346 264.683 38.1222 264.474 38.179V38.25C264.697 38.2642 264.921 38.3423 265.146 38.4844C265.371 38.6264 265.559 38.83 265.71 39.0952C265.862 39.3603 265.938 39.6847 265.938 40.0682C265.938 40.4328 265.855 40.7607 265.689 41.0518C265.523 41.343 265.262 41.5739 264.904 41.7443C264.547 41.9148 264.081 42 263.509 42H260.881ZM261.761 41.2188H263.509C264.084 41.2188 264.492 41.1075 264.734 40.8849C264.978 40.66 265.099 40.3878 265.099 40.0682C265.099 39.822 265.037 39.5947 264.911 39.3864C264.786 39.1757 264.607 39.0076 264.375 38.8821C264.143 38.7543 263.868 38.6903 263.551 38.6903H261.761V41.2188ZM261.761 37.9233H263.395C263.66 37.9233 263.899 37.8712 264.112 37.767C264.328 37.6629 264.498 37.5161 264.624 37.3267C264.751 37.1373 264.815 36.9148 264.815 36.6591C264.815 36.3395 264.704 36.0684 264.482 35.8459C264.259 35.621 263.906 35.5085 263.423 35.5085H261.761V37.9233ZM269.487 42.1136C268.994 42.1136 268.562 41.9964 268.191 41.7621C267.821 41.5277 267.533 41.1998 267.324 40.7784C267.118 40.357 267.015 39.8646 267.015 39.3011C267.015 38.733 267.118 38.237 267.324 37.8132C267.533 37.3894 267.821 37.0604 268.191 36.826C268.562 36.5916 268.994 36.4744 269.487 36.4744C269.979 36.4744 270.41 36.5916 270.779 36.826C271.151 37.0604 271.44 37.3894 271.646 37.8132C271.854 38.237 271.958 38.733 271.958 39.3011C271.958 39.8646 271.854 40.357 271.646 40.7784C271.44 41.1998 271.151 41.5277 270.779 41.7621C270.41 41.9964 269.979 42.1136 269.487 42.1136ZM269.487 41.3608C269.861 41.3608 270.169 41.2649 270.41 41.0732C270.652 40.8814 270.83 40.6293 270.946 40.3168C271.062 40.0043 271.12 39.6657 271.12 39.3011C271.12 38.9366 271.062 38.5968 270.946 38.282C270.83 37.9671 270.652 37.7126 270.41 37.5185C270.169 37.3243 269.861 37.2273 269.487 37.2273C269.113 37.2273 268.805 37.3243 268.564 37.5185C268.322 37.7126 268.143 37.9671 268.027 38.282C267.911 38.5968 267.853 38.9366 267.853 39.3011C267.853 39.6657 267.911 40.0043 268.027 40.3168C268.143 40.6293 268.322 40.8814 268.564 41.0732C268.805 41.2649 269.113 41.3608 269.487 41.3608ZM275.454 42.1136C274.961 42.1136 274.529 41.9964 274.157 41.7621C273.788 41.5277 273.499 41.1998 273.291 40.7784C273.085 40.357 272.982 39.8646 272.982 39.3011C272.982 38.733 273.085 38.237 273.291 37.8132C273.499 37.3894 273.788 37.0604 274.157 36.826C274.529 36.5916 274.961 36.4744 275.454 36.4744C275.946 36.4744 276.377 36.5916 276.746 36.826C277.118 37.0604 277.407 37.3894 277.613 37.8132C277.821 38.237 277.925 38.733 277.925 39.3011C277.925 39.8646 277.821 40.357 277.613 40.7784C277.407 41.1998 277.118 41.5277 276.746 41.7621C276.377 41.9964 275.946 42.1136 275.454 42.1136ZM275.454 41.3608C275.828 41.3608 276.135 41.2649 276.377 41.0732C276.618 40.8814 276.797 40.6293 276.913 40.3168C277.029 40.0043 277.087 39.6657 277.087 39.3011C277.087 38.9366 277.029 38.5968 276.913 38.282C276.797 37.9671 276.618 37.7126 276.377 37.5185C276.135 37.3243 275.828 37.2273 275.454 37.2273C275.08 37.2273 274.772 37.3243 274.53 37.5185C274.289 37.7126 274.11 37.9671 273.994 38.282C273.878 38.5968 273.82 38.9366 273.82 39.3011C273.82 39.6657 273.878 40.0043 273.994 40.3168C274.11 40.6293 274.289 40.8814 274.53 41.0732C274.772 41.2649 275.08 41.3608 275.454 41.3608ZM279.986 40.0114L279.972 38.9744H280.142L282.528 36.5455H283.565L281.023 39.1165H280.952L279.986 40.0114ZM279.205 42V34.7273H280.043V42H279.205ZM282.67 42L280.54 39.3011L281.136 38.7188L283.736 42H282.67ZM284.644 42V36.5455H285.454V37.3977H285.525C285.638 37.1065 285.822 36.8804 286.075 36.7195C286.328 36.5561 286.633 36.4744 286.988 36.4744C287.348 36.4744 287.647 36.5561 287.886 36.7195C288.128 36.8804 288.316 37.1065 288.451 37.3977H288.508C288.647 37.116 288.857 36.8923 289.136 36.7266C289.416 36.5585 289.751 36.4744 290.141 36.4744C290.629 36.4744 291.028 36.6271 291.338 36.9325C291.648 37.2356 291.803 37.7079 291.803 38.3494V42H290.965V38.3494C290.965 37.947 290.855 37.6593 290.635 37.4865C290.415 37.3137 290.155 37.2273 289.857 37.2273C289.474 37.2273 289.176 37.3433 288.966 37.5753C288.755 37.8049 288.65 38.0961 288.65 38.4489V42H287.797V38.2642C287.797 37.9541 287.697 37.7043 287.496 37.5149C287.294 37.3232 287.035 37.2273 286.718 37.2273C286.5 37.2273 286.296 37.2853 286.107 37.4013C285.92 37.5173 285.769 37.6783 285.653 37.8842C285.539 38.0878 285.482 38.3234 285.482 38.5909V42H284.644ZM294.941 42.1278C294.595 42.1278 294.281 42.0627 293.999 41.9325C293.718 41.8 293.494 41.6094 293.328 41.3608C293.163 41.1098 293.08 40.8068 293.08 40.4517C293.08 40.1392 293.141 39.8859 293.264 39.6918C293.387 39.4953 293.552 39.3414 293.758 39.2301C293.964 39.1188 294.191 39.036 294.44 38.9815C294.691 38.9247 294.943 38.8797 295.196 38.8466C295.528 38.804 295.796 38.772 296.002 38.7507C296.211 38.727 296.362 38.688 296.457 38.6335C296.554 38.5791 296.602 38.4844 296.602 38.3494V38.321C296.602 37.9706 296.507 37.6984 296.315 37.5043C296.125 37.3101 295.838 37.2131 295.452 37.2131C295.052 37.2131 294.738 37.3007 294.511 37.4759C294.284 37.651 294.124 37.8381 294.031 38.0369L293.236 37.7528C293.378 37.4214 293.567 37.1634 293.804 36.9787C294.043 36.7917 294.304 36.6615 294.585 36.5881C294.869 36.5123 295.149 36.4744 295.423 36.4744C295.599 36.4744 295.8 36.4957 296.027 36.5384C296.257 36.5786 296.478 36.6626 296.691 36.7905C296.907 36.9183 297.085 37.1113 297.227 37.3693C297.369 37.6274 297.441 37.973 297.441 38.4062V42H296.602V41.2614H296.56C296.503 41.3797 296.408 41.5064 296.276 41.6413C296.143 41.7763 295.967 41.8911 295.747 41.9858C295.526 42.0805 295.258 42.1278 294.941 42.1278ZM295.068 41.375C295.4 41.375 295.679 41.3099 295.906 41.1797C296.136 41.0495 296.309 40.8814 296.425 40.6754C296.543 40.4695 296.602 40.2528 296.602 40.0256V39.2585C296.567 39.3011 296.489 39.3402 296.368 39.3757C296.25 39.4089 296.112 39.4384 295.956 39.4645C295.802 39.4882 295.652 39.5095 295.505 39.5284C295.361 39.545 295.244 39.5592 295.154 39.571C294.936 39.5994 294.732 39.6456 294.543 39.7095C294.356 39.7711 294.204 39.8646 294.088 39.9901C293.975 40.1132 293.918 40.2812 293.918 40.4943C293.918 40.7855 294.026 41.0057 294.241 41.1548C294.459 41.3016 294.735 41.375 295.068 41.375ZM298.97 42V36.5455H299.78V37.3693H299.837C299.936 37.0994 300.116 36.8804 300.376 36.7124C300.637 36.5443 300.93 36.4602 301.257 36.4602C301.319 36.4602 301.396 36.4614 301.488 36.4638C301.58 36.4661 301.65 36.4697 301.697 36.4744V37.3267C301.669 37.3196 301.604 37.3089 301.502 37.2947C301.403 37.2782 301.297 37.2699 301.186 37.2699C300.921 37.2699 300.684 37.3255 300.476 37.4368C300.27 37.5457 300.107 37.6972 299.986 37.8913C299.867 38.0831 299.808 38.3021 299.808 38.5483V42H298.97ZM303.472 40.0114L303.458 38.9744H303.628L306.015 36.5455H307.052L304.509 39.1165H304.438L303.472 40.0114ZM302.691 42V34.7273H303.529V42H302.691ZM306.157 42L304.026 39.3011L304.623 38.7188L307.222 42H306.157Z" fill="black"/>
    <path d="M317.881 42V34.7273H320.338C320.909 34.7273 321.375 34.8303 321.737 35.0362C322.102 35.2398 322.372 35.5156 322.547 35.8636C322.722 36.2116 322.81 36.5999 322.81 37.0284C322.81 37.4569 322.722 37.8464 322.547 38.1967C322.374 38.5471 322.107 38.8265 321.744 39.0348C321.382 39.2408 320.918 39.3438 320.352 39.3438H318.591V38.5625H320.324C320.714 38.5625 321.028 38.495 321.265 38.3601C321.502 38.2251 321.673 38.0429 321.78 37.8132C321.889 37.5812 321.943 37.3196 321.943 37.0284C321.943 36.7372 321.889 36.4768 321.78 36.2472C321.673 36.0175 321.5 35.8376 321.261 35.7074C321.022 35.5748 320.705 35.5085 320.31 35.5085H318.761V42H317.881ZM324.115 42V36.5455H324.924V37.3693H324.981C325.081 37.0994 325.261 36.8804 325.521 36.7124C325.781 36.5443 326.075 36.4602 326.402 36.4602C326.463 36.4602 326.54 36.4614 326.632 36.4638C326.725 36.4661 326.795 36.4697 326.842 36.4744V37.3267C326.814 37.3196 326.748 37.3089 326.647 37.2947C326.547 37.2782 326.442 37.2699 326.331 37.2699C326.065 37.2699 325.829 37.3255 325.62 37.4368C325.414 37.5457 325.251 37.6972 325.13 37.8913C325.012 38.0831 324.953 38.3021 324.953 38.5483V42H324.115ZM329.885 42.1136C329.393 42.1136 328.961 41.9964 328.589 41.7621C328.22 41.5277 327.931 41.1998 327.723 40.7784C327.517 40.357 327.414 39.8646 327.414 39.3011C327.414 38.733 327.517 38.237 327.723 37.8132C327.931 37.3894 328.22 37.0604 328.589 36.826C328.961 36.5916 329.393 36.4744 329.885 36.4744C330.378 36.4744 330.809 36.5916 331.178 36.826C331.55 37.0604 331.838 37.3894 332.044 37.8132C332.253 38.237 332.357 38.733 332.357 39.3011C332.357 39.8646 332.253 40.357 332.044 40.7784C331.838 41.1998 331.55 41.5277 331.178 41.7621C330.809 41.9964 330.378 42.1136 329.885 42.1136ZM329.885 41.3608C330.259 41.3608 330.567 41.2649 330.809 41.0732C331.05 40.8814 331.229 40.6293 331.345 40.3168C331.461 40.0043 331.519 39.6657 331.519 39.3011C331.519 38.9366 331.461 38.5968 331.345 38.282C331.229 37.9671 331.05 37.7126 330.809 37.5185C330.567 37.3243 330.259 37.2273 329.885 37.2273C329.511 37.2273 329.203 37.3243 328.962 37.5185C328.721 37.7126 328.542 37.9671 328.426 38.282C328.31 38.5968 328.252 38.9366 328.252 39.3011C328.252 39.6657 328.31 40.0043 328.426 40.3168C328.542 40.6293 328.721 40.8814 328.962 41.0732C329.203 41.2649 329.511 41.3608 329.885 41.3608ZM336.065 36.5455V37.2557H333.125V36.5455H336.065ZM334.006 42V35.7926C334.006 35.4801 334.079 35.2197 334.226 35.0114C334.372 34.803 334.563 34.6468 334.797 34.5426C335.032 34.4384 335.279 34.3864 335.54 34.3864C335.746 34.3864 335.914 34.4029 336.044 34.4361C336.174 34.4692 336.271 34.5 336.335 34.5284L336.094 35.2528C336.051 35.2386 335.992 35.2209 335.916 35.1996C335.843 35.1783 335.746 35.1676 335.625 35.1676C335.348 35.1676 335.148 35.2375 335.025 35.3771C334.904 35.5168 334.844 35.7216 334.844 35.9915V42H334.006ZM337.24 42V36.5455H338.078V42H337.24ZM337.666 35.6364C337.502 35.6364 337.362 35.5807 337.243 35.4695C337.127 35.3582 337.069 35.2244 337.069 35.0682C337.069 34.9119 337.127 34.7782 337.243 34.6669C337.362 34.5556 337.502 34.5 337.666 34.5C337.829 34.5 337.969 34.5556 338.085 34.6669C338.203 34.7782 338.262 34.9119 338.262 35.0682C338.262 35.2244 338.203 35.3582 338.085 35.4695C337.969 35.5807 337.829 35.6364 337.666 35.6364ZM340.451 34.7273V42H339.613V34.7273H340.451ZM344.273 42.1136C343.747 42.1136 343.294 41.9976 342.913 41.7656C342.534 41.5312 342.241 41.2045 342.036 40.7855C341.832 40.3641 341.73 39.8741 341.73 39.3153C341.73 38.7566 341.832 38.2642 342.036 37.8381C342.241 37.4096 342.528 37.0758 342.895 36.8366C343.264 36.5952 343.695 36.4744 344.188 36.4744C344.472 36.4744 344.752 36.5218 345.029 36.6165C345.306 36.7112 345.558 36.8651 345.786 37.0781C346.013 37.2888 346.194 37.5682 346.329 37.9162C346.464 38.2642 346.531 38.6927 346.531 39.2017V39.5568H342.327V38.8324H345.679C345.679 38.5246 345.617 38.25 345.494 38.0085C345.374 37.767 345.201 37.5765 344.976 37.4368C344.753 37.2971 344.491 37.2273 344.188 37.2273C343.854 37.2273 343.565 37.3101 343.321 37.4759C343.08 37.6392 342.894 37.8523 342.763 38.1151C342.633 38.3778 342.568 38.6596 342.568 38.9602V39.4432C342.568 39.8551 342.639 40.2043 342.781 40.4908C342.926 40.7749 343.126 40.9915 343.381 41.1406C343.637 41.2874 343.934 41.3608 344.273 41.3608C344.493 41.3608 344.692 41.33 344.869 41.2685C345.049 41.2045 345.204 41.1098 345.335 40.9844C345.465 40.8565 345.565 40.6979 345.636 40.5085L346.446 40.7358C346.361 41.0104 346.218 41.2519 346.016 41.4602C345.815 41.6662 345.567 41.8272 345.271 41.9432C344.975 42.0568 344.642 42.1136 344.273 42.1136ZM351.67 37.767L350.917 37.9801C350.87 37.8546 350.8 37.7327 350.707 37.6143C350.617 37.4936 350.494 37.3942 350.338 37.3161C350.182 37.2379 349.982 37.1989 349.738 37.1989C349.404 37.1989 349.126 37.2758 348.903 37.4297C348.683 37.5812 348.573 37.7741 348.573 38.0085C348.573 38.2169 348.649 38.3814 348.8 38.5021C348.952 38.6229 349.189 38.7235 349.511 38.804L350.32 39.0028C350.808 39.1212 351.171 39.3023 351.411 39.5462C351.65 39.7876 351.769 40.099 351.769 40.4801C351.769 40.7926 351.679 41.072 351.499 41.3182C351.322 41.5644 351.073 41.7585 350.754 41.9006C350.434 42.0426 350.062 42.1136 349.638 42.1136C349.082 42.1136 348.622 41.9929 348.257 41.7514C347.893 41.5099 347.662 41.1572 347.565 40.6932L348.36 40.4943C348.436 40.7879 348.579 41.008 348.79 41.1548C349.003 41.3016 349.281 41.375 349.624 41.375C350.015 41.375 350.325 41.2921 350.555 41.1264C350.787 40.9583 350.903 40.7571 350.903 40.5227C350.903 40.3333 350.836 40.1747 350.704 40.0469C350.571 39.9167 350.368 39.8196 350.093 39.7557L349.184 39.5426C348.684 39.4242 348.317 39.2408 348.083 38.9922C347.851 38.7412 347.735 38.4276 347.735 38.0511C347.735 37.7434 347.821 37.4711 347.994 37.2344C348.17 36.9976 348.407 36.8118 348.708 36.6768C349.011 36.5419 349.354 36.4744 349.738 36.4744C350.278 36.4744 350.701 36.5928 351.009 36.8295C351.319 37.0663 351.54 37.3788 351.67 37.767Z" fill="black"/>
    <path d="M361.483 35.5085V34.7273H366.938V35.5085H364.651V42H363.77V35.5085H361.483ZM369.046 42.1278C368.7 42.1278 368.387 42.0627 368.105 41.9325C367.823 41.8 367.599 41.6094 367.434 41.3608C367.268 41.1098 367.185 40.8068 367.185 40.4517C367.185 40.1392 367.247 39.8859 367.37 39.6918C367.493 39.4953 367.657 39.3414 367.863 39.2301C368.069 39.1188 368.297 39.036 368.545 38.9815C368.796 38.9247 369.048 38.8797 369.302 38.8466C369.633 38.804 369.902 38.772 370.108 38.7507C370.316 38.727 370.468 38.688 370.562 38.6335C370.659 38.5791 370.708 38.4844 370.708 38.3494V38.321C370.708 37.9706 370.612 37.6984 370.42 37.5043C370.231 37.3101 369.943 37.2131 369.557 37.2131C369.157 37.2131 368.844 37.3007 368.616 37.4759C368.389 37.651 368.229 37.8381 368.137 38.0369L367.341 37.7528C367.483 37.4214 367.673 37.1634 367.91 36.9787C368.149 36.7917 368.409 36.6615 368.691 36.5881C368.975 36.5123 369.254 36.4744 369.529 36.4744C369.704 36.4744 369.905 36.4957 370.133 36.5384C370.362 36.5786 370.584 36.6626 370.797 36.7905C371.012 36.9183 371.191 37.1113 371.333 37.3693C371.475 37.6274 371.546 37.973 371.546 38.4062V42H370.708V41.2614H370.665C370.608 41.3797 370.514 41.5064 370.381 41.6413C370.249 41.7763 370.072 41.8911 369.852 41.9858C369.632 42.0805 369.363 42.1278 369.046 42.1278ZM369.174 41.375C369.505 41.375 369.785 41.3099 370.012 41.1797C370.242 41.0495 370.414 40.8814 370.53 40.6754C370.649 40.4695 370.708 40.2528 370.708 40.0256V39.2585C370.672 39.3011 370.594 39.3402 370.474 39.3757C370.355 39.4089 370.218 39.4384 370.062 39.4645C369.908 39.4882 369.757 39.5095 369.611 39.5284C369.466 39.545 369.349 39.5592 369.259 39.571C369.041 39.5994 368.838 39.6456 368.648 39.7095C368.461 39.7711 368.31 39.8646 368.194 39.9901C368.08 40.1132 368.023 40.2812 368.023 40.4943C368.023 40.7855 368.131 41.0057 368.346 41.1548C368.564 41.3016 368.84 41.375 369.174 41.375ZM373.189 42V34.7273H374.027V37.4119H374.098C374.16 37.3172 374.245 37.1965 374.354 37.0497C374.465 36.9006 374.624 36.768 374.83 36.652C375.038 36.5336 375.32 36.4744 375.675 36.4744C376.134 36.4744 376.539 36.5893 376.89 36.8189C377.24 37.0485 377.513 37.3741 377.71 37.7955C377.906 38.2169 378.005 38.714 378.005 39.2869C378.005 39.8646 377.906 40.3653 377.71 40.7891C377.513 41.2105 377.241 41.5372 376.893 41.7692C376.545 41.9988 376.144 42.1136 375.689 42.1136C375.339 42.1136 375.058 42.0556 374.848 41.9396C374.637 41.8213 374.475 41.6875 374.361 41.5384C374.248 41.3868 374.16 41.2614 374.098 41.1619H373.999V42H373.189ZM374.013 39.2727C374.013 39.6847 374.074 40.0481 374.194 40.3629C374.315 40.6754 374.491 40.9205 374.723 41.098C374.955 41.2732 375.239 41.3608 375.576 41.3608C375.926 41.3608 376.218 41.2685 376.453 41.0838C376.69 40.8968 376.867 40.6458 376.985 40.331C377.106 40.0137 377.167 39.661 377.167 39.2727C377.167 38.8892 377.107 38.5436 376.989 38.2358C376.873 37.9257 376.697 37.6806 376.46 37.5007C376.225 37.3184 375.931 37.2273 375.576 37.2273C375.235 37.2273 374.948 37.3137 374.716 37.4865C374.484 37.657 374.309 37.8961 374.191 38.2038C374.072 38.5092 374.013 38.8655 374.013 39.2727Z" fill="black"/>
    <path d="M389.202 42L387.213 34.7273H388.108L389.628 40.6506H389.699L391.247 34.7273H392.241L393.79 40.6506H393.861L395.381 34.7273H396.276L394.287 42H393.378L391.773 36.2045H391.716L390.111 42H389.202ZM397.259 42V36.5455H398.097V42H397.259ZM397.685 35.6364C397.522 35.6364 397.381 35.5807 397.263 35.4695C397.147 35.3582 397.089 35.2244 397.089 35.0682C397.089 34.9119 397.147 34.7782 397.263 34.6669C397.381 34.5556 397.522 34.5 397.685 34.5C397.849 34.5 397.988 34.5556 398.104 34.6669C398.223 34.7782 398.282 34.9119 398.282 35.0682C398.282 35.2244 398.223 35.3582 398.104 35.4695C397.988 35.5807 397.849 35.6364 397.685 35.6364ZM400.47 38.7188V42H399.632V36.5455H400.442V37.3977H400.513C400.641 37.1207 400.835 36.8982 401.095 36.7301C401.356 36.5597 401.692 36.4744 402.104 36.4744C402.473 36.4744 402.796 36.5502 403.073 36.7017C403.35 36.8509 403.566 37.0781 403.72 37.3835C403.874 37.6866 403.95 38.0701 403.95 38.5341V42H403.112V38.5909C403.112 38.1624 403.001 37.8286 402.779 37.5895C402.556 37.348 402.251 37.2273 401.862 37.2273C401.595 37.2273 401.356 37.2853 401.145 37.4013C400.937 37.5173 400.772 37.6866 400.651 37.9091C400.531 38.1316 400.47 38.4015 400.47 38.7188ZM407.542 42.1136C407.087 42.1136 406.686 41.9988 406.338 41.7692C405.99 41.5372 405.717 41.2105 405.521 40.7891C405.324 40.3653 405.226 39.8646 405.226 39.2869C405.226 38.714 405.324 38.2169 405.521 37.7955C405.717 37.3741 405.991 37.0485 406.341 36.8189C406.692 36.5893 407.096 36.4744 407.556 36.4744C407.911 36.4744 408.191 36.5336 408.397 36.652C408.606 36.768 408.764 36.9006 408.873 37.0497C408.984 37.1965 409.071 37.3172 409.132 37.4119H409.203V34.7273H410.042V42H409.232V41.1619H409.132C409.071 41.2614 408.983 41.3868 408.87 41.5384C408.756 41.6875 408.594 41.8213 408.383 41.9396C408.172 42.0556 407.892 42.1136 407.542 42.1136ZM407.655 41.3608C407.991 41.3608 408.275 41.2732 408.507 41.098C408.739 40.9205 408.916 40.6754 409.037 40.3629C409.157 40.0481 409.218 39.6847 409.218 39.2727C409.218 38.8655 409.158 38.5092 409.04 38.2038C408.922 37.8961 408.747 37.657 408.515 37.4865C408.283 37.3137 407.996 37.2273 407.655 37.2273C407.3 37.2273 407.004 37.3184 406.767 37.5007C406.533 37.6806 406.357 37.9257 406.238 38.2358C406.122 38.5436 406.064 38.8892 406.064 39.2727C406.064 39.661 406.123 40.0137 406.242 40.331C406.363 40.6458 406.54 40.8968 406.775 41.0838C407.011 41.2685 407.305 41.3608 407.655 41.3608ZM413.909 42.1136C413.416 42.1136 412.984 41.9964 412.613 41.7621C412.243 41.5277 411.954 41.1998 411.746 40.7784C411.54 40.357 411.437 39.8646 411.437 39.3011C411.437 38.733 411.54 38.237 411.746 37.8132C411.954 37.3894 412.243 37.0604 412.613 36.826C412.984 36.5916 413.416 36.4744 413.909 36.4744C414.401 36.4744 414.832 36.5916 415.201 36.826C415.573 37.0604 415.862 37.3894 416.068 37.8132C416.276 38.237 416.38 38.733 416.38 39.3011C416.38 39.8646 416.276 40.357 416.068 40.7784C415.862 41.1998 415.573 41.5277 415.201 41.7621C414.832 41.9964 414.401 42.1136 413.909 42.1136ZM413.909 41.3608C414.283 41.3608 414.591 41.2649 414.832 41.0732C415.074 40.8814 415.252 40.6293 415.368 40.3168C415.484 40.0043 415.542 39.6657 415.542 39.3011C415.542 38.9366 415.484 38.5968 415.368 38.282C415.252 37.9671 415.074 37.7126 414.832 37.5185C414.591 37.3243 414.283 37.2273 413.909 37.2273C413.535 37.2273 413.227 37.3243 412.985 37.5185C412.744 37.7126 412.565 37.9671 412.449 38.282C412.333 38.5968 412.275 38.9366 412.275 39.3011C412.275 39.6657 412.333 40.0043 412.449 40.3168C412.565 40.6293 412.744 40.8814 412.985 41.0732C413.227 41.2649 413.535 41.3608 413.909 41.3608ZM418.71 42L417.048 36.5455H417.929L419.108 40.7216H419.164L420.329 36.5455H421.224L422.375 40.7074H422.431L423.61 36.5455H424.491L422.829 42H422.005L420.812 37.8097H420.727L419.534 42H418.71Z" fill="black"/>
    <ellipse cx="50.2069" cy="38.0688" rx="5.79311" ry="5.37931" fill="url(#paint1_linear_556_75)"/>
    <mask id="mask0_556_75" style="mask-type:alpha" maskUnits="userSpaceOnUse" x="44" y="34" width="5" height="7">
        <path d="M45.5764 35.006C45.4047 34.8433 45.2106 34.7583 44.9684 34.7583C44.8894 34.8636 44.8079 35.1524 44.7094 35.2312C44.5975 35.3208 44.6129 35.4757 44.5581 35.5915C44.5059 35.7015 44.4708 35.8175 44.4229 35.9293C44.3945 35.9956 44.4046 36.0839 44.3716 36.1432C44.2819 36.3047 44.3173 36.5173 44.2478 36.6824C44.1805 36.8422 44.1675 37.0306 44.1352 37.2003C44.1066 37.3506 44.0001 37.5157 44.0001 37.6682C44.0001 37.8993 43.9959 38.1199 44.0451 38.3413C44.1129 38.6464 44.2405 38.939 44.3829 39.2158C44.4672 39.3796 44.5527 39.5448 44.6481 39.7024C44.6555 39.7146 44.6963 39.8082 44.6982 39.78C44.701 39.7372 44.8346 39.8263 44.8558 39.8475C44.9408 39.9325 45.0409 39.9677 45.1586 39.9927C45.2257 40.0069 45.5996 40.047 45.4413 39.8701C45.3713 39.7918 45.3165 39.6659 45.2837 39.5673C45.2582 39.4908 45.2447 39.4043 45.2048 39.3334C45.1919 39.3104 45.1656 39.3033 45.1723 39.2733C45.2157 39.0782 45.5954 39.2225 45.4688 38.9693C45.4397 38.9112 45.4002 38.8736 45.3737 38.8067C45.3394 38.7199 45.3177 38.6342 45.2724 38.5527C45.2537 38.5191 45.4175 38.564 45.4538 38.564C45.5356 38.564 45.8473 38.6146 45.9092 38.559C45.9922 38.4842 45.6955 38.2262 45.8929 38.2262C45.9761 38.2262 46.1007 38.2137 46.1444 38.1361C46.1603 38.1078 46.2539 38.2237 46.2757 38.2387C46.3619 38.298 46.4403 38.4063 46.5547 38.4063C46.6921 38.4063 46.8237 38.348 46.9576 38.3213C47.1309 38.2866 47.0431 38.1737 46.9826 38.0786C46.9304 37.9967 46.8106 37.7758 46.9726 37.7758C47.053 37.7758 47.1415 37.7142 47.2153 37.6857C47.2838 37.6593 47.3609 37.6549 47.4004 37.5857C47.4366 37.5223 47.478 37.5274 47.4667 37.4368C47.4575 37.3629 47.4045 37.283 47.4004 37.2128C47.3918 37.0662 47.5755 36.9375 47.6819 36.8638C47.7812 36.7951 47.9342 36.6864 48.0535 36.6724C48.1686 36.6589 48.121 36.3539 48.121 36.2783C48.121 36.1446 48.1296 36.0524 48.0084 35.9918C47.9347 35.955 47.8561 35.9221 47.7832 35.8792C47.7373 35.8522 47.732 35.7613 47.7157 35.7166C47.658 35.558 47.4448 35.5798 47.3153 35.5415C47.1751 35.4999 46.9701 35.5509 46.8612 35.4239C46.7578 35.3032 46.6787 35.2537 46.5172 35.2537C46.3121 35.2537 46.0832 35.3091 45.8804 35.265C45.789 35.2451 45.7552 35.2471 45.699 35.1749C45.6546 35.1178 45.6299 35.0566 45.5764 35.006Z" fill="#CD5656"/>
    </mask>
    <g mask="url(#mask0_556_75)">
        <ellipse cx="50.2069" cy="38.0693" rx="5.79311" ry="5.37931" fill="#1A4D1C"/>
    </g>
    <g filter="url(#filter0_d_556_75)">
        <path d="M51.2564 35.7086C51.1389 35.7267 51.0271 35.7524 50.9073 35.7524C50.8137 35.7992 50.6642 35.9855 50.6596 36.0676C50.6565 36.1242 50.5166 36.227 50.4745 36.2653C50.3934 36.339 50.2998 36.4049 50.2218 36.483C50.0694 36.6353 50.175 36.8528 50.2042 37.0309C50.2402 37.2501 50.3753 37.2495 50.512 37.3862C50.5887 37.463 50.5707 37.6574 50.6721 37.7127C50.8246 37.7959 50.911 37.8016 51.0875 37.8016C51.275 37.8016 51.1821 38.0078 51.2901 38.0618C51.3901 38.1118 51.4895 38.1872 51.6067 38.1506C51.6843 38.1264 51.7499 38.1168 51.8306 38.1168C51.9072 38.1168 51.9207 38.187 51.9207 38.2519C51.9207 38.355 51.9753 38.4016 52.0333 38.4821C52.166 38.6665 52.4209 38.5956 52.6112 38.5322C52.6547 38.5177 52.7906 38.4344 52.8327 38.4671C52.8642 38.4917 52.8792 38.5222 52.9228 38.5222C52.9653 38.5222 53.0576 38.5053 53.1042 38.4946C53.3193 38.4455 53.4383 38.3317 53.6434 38.4421C53.7114 38.4788 53.7971 38.5034 53.8673 38.5234C53.8953 38.5314 53.8798 38.6877 53.8798 38.7123C53.8798 38.8475 53.8911 39.0971 54.0374 39.1702C54.132 39.2175 54.0825 39.5311 54.0825 39.6469C54.0825 39.8579 54.1843 39.9711 54.2801 40.1435C54.3051 40.1885 54.349 40.0639 54.3527 40.0309C54.3626 39.9418 54.4405 39.8086 54.4928 39.7382C54.5549 39.6546 54.6202 39.5817 54.713 39.5405C54.7685 39.5159 54.7875 39.4759 54.8018 39.4117C54.8473 39.2071 55.0096 39.0564 55.1584 38.9225C55.1964 38.8883 55.2179 38.8599 55.2359 38.8149C55.2731 38.722 55.2849 38.614 55.316 38.5172C55.3423 38.4352 55.3766 38.3389 55.3873 38.2532C55.417 38.0156 55.541 37.8019 55.6363 37.5876C55.6821 37.4844 55.7389 37.3877 55.7839 37.2849C55.8231 37.1953 55.8164 37.1114 55.8164 37.0134C55.8164 36.9511 55.7503 36.8814 55.7088 36.8383C55.6579 36.7853 55.6441 36.7244 55.635 36.6519C55.6131 36.4769 55.5638 36.3335 55.4736 36.1802C55.3946 36.0459 55.2664 36.0061 55.2134 35.8424C55.189 35.767 55.1505 35.6977 55.0958 35.6398C55.0682 35.6105 54.9923 35.5063 54.9845 35.4709C54.9535 35.3317 54.6669 35.3761 54.5554 35.3695C54.4896 35.3657 54.423 35.2955 54.3577 35.2745C54.2569 35.2421 54.0614 35.2296 53.9611 35.2682C53.8799 35.2994 53.7838 35.3538 53.6971 35.3695C53.5247 35.4009 53.275 35.4695 53.1029 35.4033C52.8483 35.3054 52.6359 35.1768 52.3485 35.2444C52.1972 35.28 52.0663 35.3596 51.9382 35.4421C51.8144 35.5219 51.7218 35.6502 51.5716 35.6836C51.4655 35.7071 51.3615 35.6924 51.2564 35.7086Z" fill="#1A4D1C"/>
    </g>
    <defs>
        <filter id="filter0_d_556_75" x="46.1414" y="35.2256" width="13.6755" height="12.9277" filterUnits="userSpaceOnUse" color-interpolation-filters="sRGB">
            <feFlood flood-opacity="0" result="BackgroundImageFix"/>
            <feColorMatrix in="SourceAlpha" type="matrix" values="0 0 0 0 0 0 0 0 0 0 0 0 0 0 0 0 0 0 127 0" result="hardAlpha"/>
            <feOffset dy="4"/>
            <feGaussianBlur stdDeviation="2"/>
            <feComposite in2="hardAlpha" operator="out"/>
            <feColorMatrix type="matrix" values="0 0 0 0 0 0 0 0 0 0 0 0 0 0 0 0 0 0 0.25 0"/>
            <feBlend mode="normal" in2="BackgroundImageFix" result="effect1_dropShadow_556_75"/>
            <feBlend mode="normal" in="SourceGraphic" in2="effect1_dropShadow_556_75" result="shape"/>
        </filter>
        <linearGradient id="paint0_linear_556_75" x1="149.5" y1="-9.49999" x2="481.5" y2="508" gradientUnits="userSpaceOnUse">
            <stop stop-color="#7C7C7C"/>
            <stop offset="1" stop-color="#272727"/>
        </linearGradient>
        <linearGradient id="paint1_linear_556_75" x1="44.4138" y1="32.6895" x2="53.5173" y2="43.4481" gradientUnits="userSpaceOnUse">
            <stop stop-color="#97D2EB"/>
            <stop offset="1" stop-color="#56856E"/>
        </linearGradient>
    </defs>
</svg>
