<svg width="24" height="24" viewBox="0 0 24 24" fill="none" xmlns="http://www.w3.org/2000/svg">
<path d="M10.8501 12.6499H13.1501L12.0001 8.99989L10.8501 12.6499ZM20.0001 8.68989V5.99989C20.0001 4.89989 19.1001 3.99989 18.0001 3.99989H15.3101L13.4101 2.09989C12.6301 1.31989 11.3601 1.31989 10.5801 2.09989L8.69014 3.99989H6.00014C4.90014 3.99989 4.00014 4.89989 4.00014 5.99989V8.68989L2.10014 10.5899C1.32014 11.3699 1.32014 12.6399 2.10014 13.4199L4.00014 15.3199V17.9999C4.00014 19.0999 4.90014 19.9999 6.00014 19.9999H8.69014L10.5901 21.8999C11.3701 22.6799 12.6401 22.6799 13.4201 21.8999L15.3201 19.9999H18.0001C19.1001 19.9999 20.0001 19.0999 20.0001 17.9999V15.3099L21.9001 13.4099C22.6801 12.6299 22.6801 11.3599 21.9001 10.5799L20.0001 8.68989ZM14.0901 15.3999L13.6001 13.9999H10.4001L9.91014 15.3999C9.78014 15.7599 9.45014 15.9999 9.07014 15.9999C8.45014 15.9999 8.02014 15.3899 8.23014 14.8099L10.6701 7.94989C10.8701 7.37989 11.4001 6.99989 12.0001 6.99989C12.6001 6.99989 13.1301 7.37989 13.3401 7.93989L15.7801 14.7999C15.9901 15.3799 15.5601 15.9899 14.9401 15.9899C14.5501 15.9999 14.2201 15.7599 14.0901 15.3999Z" fill="white"/>
</svg>
