<svg width="42" height="42" viewBox="0 0 42 42" fill="none" xmlns="http://www.w3.org/2000/svg">
<g filter="url(#filter0_d_700_4456)">
<path d="M3 14.4492C3 9.96875 3 7.72854 3.87195 6.01725C4.63893 4.51195 5.86278 3.2881 7.36808 2.52112C9.07937 1.64917 11.3196 1.64917 15.8 1.64917H26.2C30.6804 1.64917 32.9206 1.64917 34.6319 2.52112C36.1372 3.2881 37.3611 4.51195 38.1281 6.01725C39 7.72854 39 9.96875 39 14.4492V24.8492C39 29.3296 39 31.5698 38.1281 33.2811C37.3611 34.7864 36.1372 36.0102 34.6319 36.7772C32.9206 37.6492 30.6804 37.6492 26.2 37.6492H15.8C11.3196 37.6492 9.07937 37.6492 7.36808 36.7772C5.86278 36.0102 4.63893 34.7864 3.87195 33.2811C3 31.5698 3 29.3296 3 24.8492V14.4492Z" fill="#1C1C1C"/>
<path d="M3 14.4492C3 9.96875 3 7.72854 3.87195 6.01725C4.63893 4.51195 5.86278 3.2881 7.36808 2.52112C9.07937 1.64917 11.3196 1.64917 15.8 1.64917H26.2C30.6804 1.64917 32.9206 1.64917 34.6319 2.52112C36.1372 3.2881 37.3611 4.51195 38.1281 6.01725C39 7.72854 39 9.96875 39 14.4492V24.8492C39 29.3296 39 31.5698 38.1281 33.2811C37.3611 34.7864 36.1372 36.0102 34.6319 36.7772C32.9206 37.6492 30.6804 37.6492 26.2 37.6492H15.8C11.3196 37.6492 9.07937 37.6492 7.36808 36.7772C5.86278 36.0102 4.63893 34.7864 3.87195 33.2811C3 31.5698 3 29.3296 3 24.8492V14.4492Z" stroke="#474747"/>
<path d="M19.8501 20.2991H22.1501L21.0001 16.6491L19.8501 20.2991ZM29.0001 16.3391V13.6491C29.0001 12.5491 28.1001 11.6491 27.0001 11.6491H24.3101L22.4101 9.74906C21.6301 8.96906 20.3601 8.96906 19.5801 9.74906L17.6901 11.6491H15.0001C13.9001 11.6491 13.0001 12.5491 13.0001 13.6491V16.3391L11.1001 18.2391C10.3201 19.0191 10.3201 20.2891 11.1001 21.0691L13.0001 22.9691V25.6491C13.0001 26.7491 13.9001 27.6491 15.0001 27.6491H17.6901L19.5901 29.5491C20.3701 30.3291 21.6401 30.3291 22.4201 29.5491L24.3201 27.6491H27.0001C28.1001 27.6491 29.0001 26.7491 29.0001 25.6491V22.9591L30.9001 21.0591C31.6801 20.2791 31.6801 19.0091 30.9001 18.2291L29.0001 16.3391ZM23.0901 23.0491L22.6001 21.6491H19.4001L18.9101 23.0491C18.7801 23.4091 18.4501 23.6491 18.0701 23.6491C17.4501 23.6491 17.0201 23.0391 17.2301 22.4591L19.6701 15.5991C19.8701 15.0291 20.4001 14.6491 21.0001 14.6491C21.6001 14.6491 22.1301 15.0291 22.3401 15.5891L24.7801 22.4491C24.9901 23.0291 24.5601 23.6391 23.9401 23.6391C23.5501 23.6491 23.2201 23.4091 23.0901 23.0491Z" fill="#F7F7F7"/>
</g>
<defs>
<filter id="filter0_d_700_4456" x="0.5" y="0.14917" width="41" height="41" filterUnits="userSpaceOnUse" color-interpolation-filters="sRGB">
<feFlood flood-opacity="0" result="BackgroundImageFix"/>
<feColorMatrix in="SourceAlpha" type="matrix" values="0 0 0 0 0 0 0 0 0 0 0 0 0 0 0 0 0 0 127 0" result="hardAlpha"/>
<feOffset dy="1"/>
<feGaussianBlur stdDeviation="1"/>
<feComposite in2="hardAlpha" operator="out"/>
<feColorMatrix type="matrix" values="0 0 0 0 0.0627451 0 0 0 0 0.0941176 0 0 0 0 0.156863 0 0 0 0.04 0"/>
<feBlend mode="normal" in2="BackgroundImageFix" result="effect1_dropShadow_700_4456"/>
<feBlend mode="normal" in="SourceGraphic" in2="effect1_dropShadow_700_4456" result="shape"/>
</filter>
</defs>
</svg>
