<svg width="24" height="25" viewBox="0 0 24 25" fill="none" xmlns="http://www.w3.org/2000/svg">
<path d="M10.8501 13.2991H13.1501L12.0001 9.64906L10.8501 13.2991ZM20.0001 9.33906V6.64906C20.0001 5.54906 19.1001 4.64906 18.0001 4.64906H15.3101L13.4101 2.74906C12.6301 1.96906 11.3601 1.96906 10.5801 2.74906L8.69014 4.64906H6.00014C4.90014 4.64906 4.00014 5.54906 4.00014 6.64906V9.33906L2.10014 11.2391C1.32014 12.0191 1.32014 13.2891 2.10014 14.0691L4.00014 15.9691V18.6491C4.00014 19.7491 4.90014 20.6491 6.00014 20.6491H8.69014L10.5901 22.5491C11.3701 23.3291 12.6401 23.3291 13.4201 22.5491L15.3201 20.6491H18.0001C19.1001 20.6491 20.0001 19.7491 20.0001 18.6491V15.9591L21.9001 14.0591C22.6801 13.2791 22.6801 12.0091 21.9001 11.2291L20.0001 9.33906ZM14.0901 16.0491L13.6001 14.6491H10.4001L9.91014 16.0491C9.78014 16.4091 9.45014 16.6491 9.07014 16.6491C8.45014 16.6491 8.02014 16.0391 8.23014 15.4591L10.6701 8.59906C10.8701 8.02906 11.4001 7.64906 12.0001 7.64906C12.6001 7.64906 13.1301 8.02906 13.3401 8.58906L15.7801 15.4491C15.9901 16.0291 15.5601 16.6391 14.9401 16.6391C14.5501 16.6491 14.2201 16.4091 14.0901 16.0491Z" fill="#F7F7F7"/>
</svg>
