<svg width="42" height="42" viewBox="0 0 42 42" fill="none" xmlns="http://www.w3.org/2000/svg">
<g filter="url(#filter0_d_700_4453)">
<path d="M3 14.4492C3 9.96875 3 7.72854 3.87195 6.01725C4.63893 4.51195 5.86278 3.2881 7.36808 2.52112C9.07937 1.64917 11.3196 1.64917 15.8 1.64917H26.2C30.6804 1.64917 32.9206 1.64917 34.6319 2.52112C36.1372 3.2881 37.3611 4.51195 38.1281 6.01725C39 7.72854 39 9.96875 39 14.4492V24.8492C39 29.3296 39 31.5698 38.1281 33.2811C37.3611 34.7864 36.1372 36.0102 34.6319 36.7772C32.9206 37.6492 30.6804 37.6492 26.2 37.6492H15.8C11.3196 37.6492 9.07937 37.6492 7.36808 36.7772C5.86278 36.0102 4.63893 34.7864 3.87195 33.2811C3 31.5698 3 29.3296 3 24.8492V14.4492Z" fill="#1C1C1C"/>
<path d="M3 14.4492C3 9.96875 3 7.72854 3.87195 6.01725C4.63893 4.51195 5.86278 3.2881 7.36808 2.52112C9.07937 1.64917 11.3196 1.64917 15.8 1.64917H26.2C30.6804 1.64917 32.9206 1.64917 34.6319 2.52112C36.1372 3.2881 37.3611 4.51195 38.1281 6.01725C39 7.72854 39 9.96875 39 14.4492V24.8492C39 29.3296 39 31.5698 38.1281 33.2811C37.3611 34.7864 36.1372 36.0102 34.6319 36.7772C32.9206 37.6492 30.6804 37.6492 26.2 37.6492H15.8C11.3196 37.6492 9.07937 37.6492 7.36808 36.7772C5.86278 36.0102 4.63893 34.7864 3.87195 33.2811C3 31.5698 3 29.3296 3 24.8492V14.4492Z" stroke="#474747"/>
<path d="M29.3121 21.9601C27.8398 22.3692 26.2853 22.38 24.8076 21.9913C23.3298 21.6027 21.9817 20.8285 20.9012 19.748C19.8207 18.6675 19.0466 17.3195 18.6579 15.8417C18.2692 14.3639 18.28 12.8094 18.6891 11.3372L18.6893 11.3372C17.2372 11.7412 15.9163 12.5186 14.8581 13.592C13.8 14.6654 13.0415 15.9973 12.6584 17.455C12.2752 18.9128 12.2807 20.4455 12.6743 21.9005C13.0679 23.3554 13.8358 24.6819 14.9016 25.7477C15.9674 26.8135 17.2939 27.5814 18.7488 27.975C20.2038 28.3685 21.7365 28.374 23.1943 27.9908C24.652 27.6076 25.9839 26.8492 27.0573 25.791C28.1307 24.7329 28.9081 23.4119 29.312 21.9598L29.3121 21.9601Z" fill="#F7F7F7"/>
<path d="M29.25 18.1492V13.6492" stroke="#F7F7F7" stroke-width="1.5" stroke-linecap="round" stroke-linejoin="round"/>
<path d="M31.5 15.8992H27" stroke="#F7F7F7" stroke-width="1.5" stroke-linecap="round" stroke-linejoin="round"/>
<path d="M24.75 9.89917V12.8992" stroke="#F7F7F7" stroke-width="1.5" stroke-linecap="round" stroke-linejoin="round"/>
<path d="M26.25 11.3992H23.25" stroke="#F7F7F7" stroke-width="1.5" stroke-linecap="round" stroke-linejoin="round"/>
</g>
<defs>
<filter id="filter0_d_700_4453" x="0.5" y="0.14917" width="41" height="41" filterUnits="userSpaceOnUse" color-interpolation-filters="sRGB">
<feFlood flood-opacity="0" result="BackgroundImageFix"/>
<feColorMatrix in="SourceAlpha" type="matrix" values="0 0 0 0 0 0 0 0 0 0 0 0 0 0 0 0 0 0 127 0" result="hardAlpha"/>
<feOffset dy="1"/>
<feGaussianBlur stdDeviation="1"/>
<feComposite in2="hardAlpha" operator="out"/>
<feColorMatrix type="matrix" values="0 0 0 0 0.0627451 0 0 0 0 0.0941176 0 0 0 0 0.156863 0 0 0 0.04 0"/>
<feBlend mode="normal" in2="BackgroundImageFix" result="effect1_dropShadow_700_4453"/>
<feBlend mode="normal" in="SourceGraphic" in2="effect1_dropShadow_700_4453" result="shape"/>
</filter>
</defs>
</svg>
