<svg width="24" height="25" viewBox="0 0 24 25" fill="none" xmlns="http://www.w3.org/2000/svg">
<path d="M20.3121 14.9601C18.8398 15.3692 17.2853 15.38 15.8076 14.9913C14.3298 14.6027 12.9817 13.8285 11.9012 12.748C10.8207 11.6675 10.0466 10.3195 9.6579 8.8417C9.26923 7.36392 9.28 5.80942 9.6891 4.33716L9.68934 4.33723C8.23722 4.7412 6.91629 5.5186 5.85813 6.59198C4.79998 7.66537 4.04155 8.99728 3.65838 10.455C3.27522 11.9128 3.2807 13.4455 3.67428 14.9005C4.06787 16.3554 4.83581 17.6819 5.90161 18.7477C6.96741 19.8135 8.29387 20.5814 9.74885 20.975C11.2038 21.3685 12.7365 21.374 14.1943 20.9908C15.652 20.6076 16.9839 19.8492 18.0573 18.791C19.1307 17.7329 19.9081 16.4119 20.312 14.9598L20.3121 14.9601Z" fill="#000000"/>
<path d="M20.25 11.1492V6.64917" stroke="#000000" stroke-width="1.5" stroke-linecap="round" stroke-linejoin="round"/>
<path d="M22.5 8.89917H18" stroke="#000000" stroke-width="1.5" stroke-linecap="round" stroke-linejoin="round"/>
<path d="M15.75 2.89917V5.89917" stroke="#000000" stroke-width="1.5" stroke-linecap="round" stroke-linejoin="round"/>
<path d="M17.25 4.39917H14.25" stroke="#000000" stroke-width="1.5" stroke-linecap="round" stroke-linejoin="round"/>
</svg>
