<svg width="89" height="34" viewBox="0 0 89 34" fill="none" xmlns="http://www.w3.org/2000/svg">
<path d="M1.46115 25.7217V8.91029H12.5921V11.8408H5.01551V15.8466H11.8533V18.7771H5.01551V25.7217H1.46115ZM14.9172 25.7217V13.1131H18.4141V25.7217H14.9172ZM16.6739 11.4878C16.154 11.4878 15.708 11.3154 15.3359 10.9707C14.9692 10.6204 14.7859 10.2018 14.7859 9.71475C14.7859 9.23317 14.9692 8.82 15.3359 8.47523C15.708 8.125 16.154 7.94988 16.6739 7.94988C17.1938 7.94988 17.637 8.125 18.0037 8.47523C18.3758 8.82 18.5619 9.23317 18.5619 9.71475C18.5619 10.2018 18.3758 10.6204 18.0037 10.9707C17.637 11.3154 17.1938 11.4878 16.6739 11.4878ZM27.9957 13.1131V15.7399H20.2139V13.1131H27.9957ZM21.9952 25.7217V12.202C21.9952 11.2881 22.173 10.5301 22.5287 9.92817C22.8899 9.3262 23.3824 8.87472 24.0063 8.57374C24.6302 8.27275 25.3388 8.12226 26.1323 8.12226C26.6686 8.12226 27.1584 8.1633 27.6017 8.24539C28.0504 8.32748 28.3843 8.40136 28.6032 8.46703L27.9793 11.0938C27.8425 11.05 27.6728 11.009 27.4704 10.9707C27.2734 10.9324 27.0709 10.9132 26.8629 10.9132C26.3485 10.9132 25.9901 11.0336 25.7876 11.2744C25.5851 11.5097 25.4839 11.8408 25.4839 12.2676V25.7217H21.9952ZM36.8385 13.1131V15.7399H29.2455V13.1131H36.8385ZM30.9693 10.0923H34.4662V21.8472C34.4662 22.1701 34.5155 22.4218 34.614 22.6024C34.7125 22.7775 34.8493 22.9006 35.0244 22.9718C35.205 23.0429 35.4129 23.0785 35.6483 23.0785C35.8124 23.0785 35.9766 23.0648 36.1408 23.0374C36.305 23.0046 36.4308 22.98 36.5184 22.9636L37.0684 25.5657C36.8932 25.6204 36.647 25.6834 36.3296 25.7545C36.0122 25.8311 35.6264 25.8776 35.1722 25.8941C34.3294 25.9269 33.5906 25.8147 32.9558 25.5575C32.3265 25.3003 31.8367 24.9008 31.4865 24.359C31.1362 23.8173 30.9638 23.1332 30.9693 22.3069V10.0923ZM42.8842 18.4324V25.7217H39.3873V8.91029H42.7857V15.3377H42.9335C43.218 14.5934 43.6777 14.0106 44.3125 13.5892C44.9473 13.1624 45.7436 12.949 46.7013 12.949C47.5768 12.949 48.3403 13.1405 48.9915 13.5236C49.6482 13.9012 50.1571 14.4457 50.5183 15.1571C50.8849 15.8631 51.0655 16.7085 51.0601 17.6936V25.7217H47.5632V18.3174C47.5686 17.5404 47.3716 16.9357 46.9721 16.5033C46.5781 16.071 46.0254 15.8548 45.314 15.8548C44.8379 15.8548 44.4165 15.9561 44.0498 16.1586C43.6887 16.361 43.4041 16.6566 43.1961 17.0451C42.9937 17.4282 42.8897 17.8906 42.8842 18.4324Z" fill="#EF8435"/>
<path d="M52.1764 11.8408V8.91029H65.9835V11.8408H60.8366V25.7217H57.3233V11.8408H52.1764ZM66.8823 25.7217V13.1131H70.2725V15.3131H70.4038C70.6337 14.5305 71.0195 13.9395 71.5613 13.54C72.103 13.135 72.7269 12.9325 73.4328 12.9325C73.608 12.9325 73.7968 12.9435 73.9992 12.9654C74.2017 12.9873 74.3796 13.0174 74.5328 13.0557V16.1586C74.3686 16.1093 74.1415 16.0655 73.8515 16.0272C73.5614 15.9889 73.296 15.9698 73.0552 15.9698C72.5408 15.9698 72.0811 16.0819 71.6762 16.3063C71.2767 16.5252 70.9593 16.8317 70.724 17.2257C70.4941 17.6197 70.3792 18.0739 70.3792 18.5883V25.7217H66.8823ZM78.8834 30.4499C78.4401 30.4499 78.0242 30.4143 77.6357 30.3432C77.2526 30.2775 76.9352 30.1927 76.6835 30.0887L77.4715 27.4783C77.8819 27.6042 78.2513 27.6726 78.5797 27.6836C78.9135 27.6945 79.2008 27.6179 79.4416 27.4537C79.6879 27.2895 79.8876 27.0104 80.0408 26.6164L80.246 26.0829L75.7231 13.1131H79.4005L82.0109 22.3725H82.1422L84.7772 13.1131H88.4794L83.5788 27.0843C83.3435 27.7629 83.0233 28.3539 82.6184 28.8574C82.2189 29.3663 81.7127 29.7576 81.0997 30.0312C80.4868 30.3103 79.748 30.4499 78.8834 30.4499Z" fill="#333333"/>
</svg>
