<svg width="136" height="34" viewBox="0 0 136 34" fill="none" xmlns="http://www.w3.org/2000/svg">
<path d="M1.46115 25.2216V8.41017H12.5921V11.3407H5.01551V15.3465H11.8533V18.277H5.01551V25.2216H1.46115ZM14.9172 25.2216V12.613H18.4141V25.2216H14.9172ZM16.6739 10.9877C16.154 10.9877 15.708 10.8153 15.3359 10.4706C14.9692 10.1203 14.7859 9.70167 14.7859 9.21462C14.7859 8.73305 14.9692 8.31988 15.3359 7.97511C15.708 7.62487 16.154 7.44976 16.6739 7.44976C17.1938 7.44976 17.637 7.62487 18.0037 7.97511C18.3758 8.31988 18.5619 8.73305 18.5619 9.21462C18.5619 9.70167 18.3758 10.1203 18.0037 10.4706C17.637 10.8153 17.1938 10.9877 16.6739 10.9877ZM27.9957 12.613V15.2398H20.2139V12.613H27.9957ZM21.9952 25.2216V11.7019C21.9952 10.788 22.173 10.03 22.5287 9.42805C22.8899 8.82608 23.3824 8.3746 24.0063 8.07362C24.6302 7.77263 25.3388 7.62214 26.1323 7.62214C26.6686 7.62214 27.1584 7.66318 27.6017 7.74527C28.0504 7.82736 28.3843 7.90123 28.6032 7.9669L27.9793 10.5937C27.8425 10.5499 27.6728 10.5089 27.4704 10.4706C27.2734 10.4322 27.0709 10.4131 26.8629 10.4131C26.3485 10.4131 25.9901 10.5335 25.7876 10.7743C25.5851 11.0096 25.4839 11.3407 25.4839 11.7675V25.2216H21.9952ZM36.8385 12.613V15.2398H29.2455V12.613H36.8385ZM30.9693 9.59222H34.4662V21.3471C34.4662 21.6699 34.5155 21.9217 34.614 22.1023C34.7125 22.2774 34.8493 22.4005 35.0244 22.4716C35.205 22.5428 35.4129 22.5784 35.6483 22.5784C35.8124 22.5784 35.9766 22.5647 36.1408 22.5373C36.305 22.5045 36.4308 22.4799 36.5184 22.4634L37.0684 25.0656C36.8932 25.1203 36.647 25.1833 36.3296 25.2544C36.0122 25.331 35.6264 25.3775 35.1722 25.3939C34.3294 25.4268 33.5906 25.3146 32.9558 25.0574C32.3265 24.8002 31.8367 24.4007 31.4865 23.8589C31.1362 23.3171 30.9638 22.6331 30.9693 21.8067V9.59222ZM42.8842 17.9322V25.2216H39.3873V8.41017H42.7857V14.8376H42.9335C43.218 14.0933 43.6777 13.5105 44.3125 13.0891C44.9473 12.6623 45.7436 12.4488 46.7013 12.4488C47.5768 12.4488 48.3403 12.6404 48.9915 13.0235C49.6482 13.4011 50.1571 13.9456 50.5183 14.657C50.8849 15.3629 51.0655 16.2084 51.0601 17.1935V25.2216H47.5632V17.8173C47.5686 17.0402 47.3716 16.4355 46.9721 16.0032C46.5781 15.5709 46.0254 15.3547 45.314 15.3547C44.8379 15.3547 44.4165 15.456 44.0498 15.6584C43.6887 15.8609 43.4041 16.1564 43.1961 16.545C42.9937 16.9281 42.8897 17.3905 42.8842 17.9322Z" fill="#EF8435"/>
<path d="M52.1764 11.3407V8.41017H65.9835V11.3407H60.8366V25.2216H57.3233V11.3407H52.1764ZM66.8823 25.2216V12.613H70.2725V14.8129H70.4038C70.6337 14.0304 71.0195 13.4394 71.5613 13.0399C72.103 12.6349 72.7269 12.4324 73.4328 12.4324C73.608 12.4324 73.7968 12.4434 73.9992 12.4653C74.2017 12.4872 74.3796 12.5173 74.5328 12.5556V15.6584C74.3686 15.6092 74.1415 15.5654 73.8515 15.5271C73.5614 15.4888 73.296 15.4696 73.0552 15.4696C72.5408 15.4696 72.0811 15.5818 71.6762 15.8062C71.2767 16.0251 70.9593 16.3316 70.724 16.7256C70.4941 17.1196 70.3792 17.5738 70.3792 18.0882V25.2216H66.8823ZM78.8834 29.9498C78.4401 29.9498 78.0242 29.9142 77.6357 29.843C77.2526 29.7774 76.9352 29.6926 76.6835 29.5886L77.4715 26.9782C77.8819 27.1041 78.2513 27.1725 78.5797 27.1834C78.9135 27.1944 79.2008 27.1178 79.4416 26.9536C79.6879 26.7894 79.8876 26.5103 80.0408 26.1163L80.246 25.5827L75.7231 12.613H79.4005L82.0109 21.8724H82.1422L84.7772 12.613H88.4794L83.5788 26.5842C83.3435 27.2628 83.0233 27.8538 82.6184 28.3573C82.2189 28.8662 81.7127 29.2575 81.0997 29.5311C80.4868 29.8102 79.748 29.9498 78.8834 29.9498Z" fill="white"/>
<path d="M101.92 17.0676L100.47 17.478C100.379 17.2363 100.244 17.0015 100.066 16.7735C99.893 16.5409 99.6559 16.3493 99.3549 16.1988C99.0539 16.0484 98.6686 15.9731 98.1988 15.9731C97.5558 15.9731 97.02 16.1213 96.5913 16.4177C96.1672 16.7096 95.9551 17.0813 95.9551 17.5328C95.9551 17.9341 96.1011 18.251 96.3929 18.4836C96.6848 18.7162 97.1408 18.91 97.761 19.065L99.3207 19.4481C100.26 19.6761 100.96 20.025 101.421 20.4947C101.881 20.9599 102.112 21.5596 102.112 22.2938C102.112 22.8958 101.938 23.4339 101.592 23.9082C101.25 24.3824 100.771 24.7564 100.155 25.03C99.5396 25.3036 98.8236 25.4405 98.0073 25.4405C96.9356 25.4405 96.0486 25.2079 95.3463 24.7427C94.644 24.2776 94.1994 23.5981 94.0124 22.7042L95.5447 22.3212C95.6906 22.8866 95.9665 23.3108 96.3724 23.5935C96.7828 23.8762 97.3187 24.0176 97.9799 24.0176C98.7324 24.0176 99.3298 23.858 99.7722 23.5388C100.219 23.215 100.443 22.8274 100.443 22.3759C100.443 22.011 100.315 21.7055 100.059 21.4592C99.8041 21.2084 99.4119 21.0214 98.8829 20.8983L97.1317 20.4879C96.1695 20.2599 95.4626 19.9064 95.0111 19.4276C94.5642 18.9442 94.3408 18.3399 94.3408 17.6148C94.3408 17.022 94.5072 16.4975 94.8401 16.0415C95.1776 15.5855 95.6359 15.2275 96.2151 14.9675C96.7988 14.7076 97.4601 14.5776 98.1988 14.5776C99.2386 14.5776 100.055 14.8056 100.648 15.2617C101.245 15.7177 101.669 16.3197 101.92 17.0676ZM104.542 25.2216V14.7144H106.156V25.2216H104.542ZM105.363 12.9633C105.048 12.9633 104.777 12.8561 104.549 12.6417C104.325 12.4274 104.213 12.1697 104.213 11.8688C104.213 11.5678 104.325 11.3101 104.549 11.0958C104.777 10.8814 105.048 10.7743 105.363 10.7743C105.677 10.7743 105.946 10.8814 106.17 11.0958C106.398 11.3101 106.512 11.5678 106.512 11.8688C106.512 12.1697 106.398 12.4274 106.17 12.6417C105.946 12.8561 105.677 12.9633 105.363 12.9633ZM113.682 14.7144V16.0826H108.237V14.7144H113.682ZM109.824 12.1971H111.439V22.2117C111.439 22.6677 111.505 23.0098 111.637 23.2378C111.774 23.4613 111.947 23.6117 112.157 23.6893C112.371 23.7622 112.597 23.7987 112.834 23.7987C113.012 23.7987 113.158 23.7896 113.272 23.7714C113.386 23.7486 113.477 23.7303 113.546 23.7166L113.874 25.1668C113.765 25.2079 113.612 25.2489 113.416 25.29C113.22 25.3356 112.971 25.3584 112.67 25.3584C112.214 25.3584 111.767 25.2603 111.329 25.0642C110.896 24.8681 110.536 24.5694 110.248 24.1681C109.966 23.7668 109.824 23.2606 109.824 22.6495V12.1971ZM120.403 25.4405C119.391 25.4405 118.518 25.217 117.783 24.7701C117.054 24.3186 116.491 23.6893 116.094 22.8821C115.702 22.0703 115.505 21.1263 115.505 20.0501C115.505 18.9738 115.702 18.0253 116.094 17.2044C116.491 16.379 117.042 15.736 117.749 15.2754C118.461 14.8102 119.291 14.5776 120.239 14.5776C120.786 14.5776 121.327 14.6688 121.86 14.8513C122.394 15.0337 122.88 15.3301 123.317 15.7405C123.755 16.1464 124.104 16.6845 124.364 17.3549C124.624 18.0253 124.754 18.8507 124.754 19.8312V20.5152H116.655V19.1198H123.112C123.112 18.5269 122.994 17.9979 122.756 17.5328C122.524 17.0676 122.191 16.7005 121.758 16.4314C121.329 16.1624 120.823 16.0278 120.239 16.0278C119.596 16.0278 119.04 16.1874 118.57 16.5067C118.105 16.8213 117.747 17.2318 117.496 17.738C117.245 18.2442 117.12 18.7869 117.12 19.366V20.2963C117.12 21.0899 117.257 21.7625 117.53 22.3143C117.808 22.8616 118.194 23.2788 118.686 23.5661C119.179 23.8489 119.751 23.9903 120.403 23.9903C120.827 23.9903 121.211 23.931 121.553 23.8124C121.899 23.6893 122.198 23.5069 122.449 23.2652C122.699 23.0189 122.893 22.7133 123.03 22.3485L124.59 22.7863C124.426 23.3153 124.15 23.7805 123.762 24.1818C123.374 24.5785 122.896 24.8886 122.326 25.1121C121.755 25.331 121.115 25.4405 120.403 25.4405ZM134.652 17.0676L133.202 17.478C133.111 17.2363 132.976 17.0015 132.798 16.7735C132.625 16.5409 132.388 16.3493 132.087 16.1988C131.786 16.0484 131.401 15.9731 130.931 15.9731C130.288 15.9731 129.752 16.1213 129.323 16.4177C128.899 16.7096 128.687 17.0813 128.687 17.5328C128.687 17.9341 128.833 18.251 129.125 18.4836C129.417 18.7162 129.873 18.91 130.493 19.065L132.053 19.4481C132.992 19.6761 133.692 20.025 134.153 20.4947C134.613 20.9599 134.844 21.5596 134.844 22.2938C134.844 22.8958 134.67 23.4339 134.324 23.9082C133.982 24.3824 133.503 24.7564 132.887 25.03C132.272 25.3036 131.556 25.4405 130.739 25.4405C129.668 25.4405 128.781 25.2079 128.078 24.7427C127.376 24.2776 126.932 23.5981 126.745 22.7042L128.277 22.3212C128.423 22.8866 128.699 23.3108 129.105 23.5935C129.515 23.8762 130.051 24.0176 130.712 24.0176C131.465 24.0176 132.062 23.858 132.504 23.5388C132.951 23.215 133.175 22.8274 133.175 22.3759C133.175 22.011 133.047 21.7055 132.792 21.4592C132.536 21.2084 132.144 21.0214 131.615 20.8983L129.864 20.4879C128.902 20.2599 128.195 19.9064 127.743 19.4276C127.296 18.9442 127.073 18.3399 127.073 17.6148C127.073 17.022 127.239 16.4975 127.572 16.0415C127.91 15.5855 128.368 15.2275 128.947 14.9675C129.531 14.7076 130.192 14.5776 130.931 14.5776C131.971 14.5776 132.787 14.8056 133.38 15.2617C133.977 15.7177 134.401 16.3197 134.652 17.0676Z" fill="white"/>
</svg>
