<svg width="89" height="34" viewBox="0 0 89 34" fill="none" xmlns="http://www.w3.org/2000/svg">
<path d="M1.46115 25.5V8.68861H12.5921V11.6191H5.01551V15.625H11.8533V18.5555H5.01551V25.5H1.46115ZM14.9172 25.5V12.8915H18.4141V25.5H14.9172ZM16.6739 11.2661C16.154 11.2661 15.708 11.0938 15.3359 10.749C14.9692 10.3988 14.7859 9.98011 14.7859 9.49307C14.7859 9.01149 14.9692 8.59832 15.3359 8.25356C15.708 7.90332 16.154 7.7282 16.6739 7.7282C17.1938 7.7282 17.637 7.90332 18.0037 8.25356C18.3758 8.59832 18.5619 9.01149 18.5619 9.49307C18.5619 9.98011 18.3758 10.3988 18.0037 10.749C17.637 11.0938 17.1938 11.2661 16.6739 11.2661ZM27.9957 12.8915V15.5182H20.2139V12.8915H27.9957ZM21.9952 25.5V11.9803C21.9952 11.0664 22.173 10.3085 22.5287 9.70649C22.8899 9.10452 23.3824 8.65304 24.0063 8.35206C24.6302 8.05107 25.3388 7.90058 26.1323 7.90058C26.6686 7.90058 27.1584 7.94162 27.6017 8.02371C28.0504 8.1058 28.3843 8.17968 28.6032 8.24535L27.9793 10.8721C27.8425 10.8283 27.6728 10.7873 27.4704 10.749C27.2734 10.7107 27.0709 10.6915 26.8629 10.6915C26.3485 10.6915 25.9901 10.8119 25.7876 11.0527C25.5851 11.288 25.4839 11.6191 25.4839 12.046V25.5H21.9952ZM36.8385 12.8915V15.5182H29.2455V12.8915H36.8385ZM30.9693 9.87067H34.4662V21.6255C34.4662 21.9484 34.5155 22.2001 34.614 22.3807C34.7125 22.5558 34.8493 22.6789 35.0244 22.7501C35.205 22.8212 35.4129 22.8568 35.6483 22.8568C35.8124 22.8568 35.9766 22.8431 36.1408 22.8158C36.305 22.7829 36.4308 22.7583 36.5184 22.7419L37.0684 25.344C36.8932 25.3988 36.647 25.4617 36.3296 25.5328C36.0122 25.6094 35.6264 25.656 35.1722 25.6724C34.3294 25.7052 33.5906 25.593 32.9558 25.3358C32.3265 25.0786 31.8367 24.6791 31.4865 24.1374C31.1362 23.5956 30.9638 22.9115 30.9693 22.0852V9.87067ZM42.8842 18.2107V25.5H39.3873V8.68861H42.7857V15.116H42.9335C43.218 14.3718 43.6777 13.7889 44.3125 13.3676C44.9473 12.9407 45.7436 12.7273 46.7013 12.7273C47.5768 12.7273 48.3403 12.9188 48.9915 13.3019C49.6482 13.6795 50.1571 14.224 50.5183 14.9354C50.8849 15.6414 51.0655 16.4869 51.0601 17.4719V25.5H47.5632V18.0958C47.5686 17.3187 47.3716 16.714 46.9721 16.2816C46.5781 15.8493 46.0254 15.6332 45.314 15.6332C44.8379 15.6332 44.4165 15.7344 44.0498 15.9369C43.6887 16.1394 43.4041 16.4349 43.1961 16.8234C42.9937 17.2065 42.8897 17.6689 42.8842 18.2107Z" fill="#EF8435"/>
<path d="M52.1764 11.6191V8.68861H65.9835V11.6191H60.8366V25.5H57.3233V11.6191H52.1764ZM66.8823 25.5V12.8915H70.2725V15.0914H70.4038C70.6337 14.3088 71.0195 13.7178 71.5613 13.3183C72.103 12.9134 72.7269 12.7109 73.4328 12.7109C73.608 12.7109 73.7968 12.7218 73.9992 12.7437C74.2017 12.7656 74.3796 12.7957 74.5328 12.834V15.9369C74.3686 15.8876 74.1415 15.8439 73.8515 15.8055C73.5614 15.7672 73.296 15.7481 73.0552 15.7481C72.5408 15.7481 72.0811 15.8603 71.6762 16.0846C71.2767 16.3035 70.9593 16.61 70.724 17.004C70.4941 17.398 70.3792 17.8522 70.3792 18.3667V25.5H66.8823ZM78.8834 30.2282C78.4401 30.2282 78.0242 30.1926 77.6357 30.1215C77.2526 30.0558 76.9352 29.971 76.6835 29.867L77.4715 27.2567C77.8819 27.3825 78.2513 27.4509 78.5797 27.4619C78.9135 27.4728 79.2008 27.3962 79.4416 27.232C79.6879 27.0679 79.8876 26.7888 80.0408 26.3947L80.246 25.8612L75.7231 12.8915H79.4005L82.0109 22.1509H82.1422L84.7772 12.8915H88.4794L83.5788 26.8626C83.3435 27.5412 83.0233 28.1323 82.6184 28.6357C82.2189 29.1447 81.7127 29.5359 81.0997 29.8096C80.4868 30.0887 79.748 30.2282 78.8834 30.2282Z" fill="white"/>
</svg>
