<svg width="42" height="42" viewBox="0 0 42 42" fill="none" xmlns="http://www.w3.org/2000/svg">
<g filter="url(#filter0_d_700_4496)">
<path d="M3 14.4492C3 9.96875 3 7.72854 3.87195 6.01725C4.63893 4.51195 5.86278 3.2881 7.36808 2.52112C9.07937 1.64917 11.3196 1.64917 15.8 1.64917H26.2C30.6804 1.64917 32.9206 1.64917 34.6319 2.52112C36.1372 3.2881 37.3611 4.51195 38.1281 6.01725C39 7.72854 39 9.96875 39 14.4492V24.8492C39 29.3296 39 31.5698 38.1281 33.2811C37.3611 34.7864 36.1372 36.0102 34.6319 36.7772C32.9206 37.6492 30.6804 37.6492 26.2 37.6492H15.8C11.3196 37.6492 9.07937 37.6492 7.36808 36.7772C5.86278 36.0102 4.63893 34.7864 3.87195 33.2811C3 31.5698 3 29.3296 3 24.8492V14.4492Z" fill="#F9F9F9"/>
<path d="M3 14.4492C3 9.96875 3 7.72854 3.87195 6.01725C4.63893 4.51195 5.86278 3.2881 7.36808 2.52112C9.07937 1.64917 11.3196 1.64917 15.8 1.64917H26.2C30.6804 1.64917 32.9206 1.64917 34.6319 2.52112C36.1372 3.2881 37.3611 4.51195 38.1281 6.01725C39 7.72854 39 9.96875 39 14.4492V24.8492C39 29.3296 39 31.5698 38.1281 33.2811C37.3611 34.7864 36.1372 36.0102 34.6319 36.7772C32.9206 37.6492 30.6804 37.6492 26.2 37.6492H15.8C11.3196 37.6492 9.07937 37.6492 7.36808 36.7772C5.86278 36.0102 4.63893 34.7864 3.87195 33.2811C3 31.5698 3 29.3296 3 24.8492V14.4492Z" stroke="#B0AEAC"/>
<path d="M15.3909 14.013L15.0518 13.6857C14.7127 13.3583 14.1649 13.3667 13.8345 13.6857L13.8258 13.6941C13.4867 14.0214 13.4867 14.5501 13.8258 14.869L14.1649 15.1963C14.504 15.5237 15.0431 15.5237 15.3822 15.1963L15.3909 15.188C15.73 14.869 15.73 14.3319 15.3909 14.013ZM12.7477 19.3507H11.8608C11.3826 19.3507 11 19.72 11 20.1816V20.19C11 20.6516 11.3826 21.0209 11.8608 21.0209H12.739C13.2259 21.0293 13.6085 20.66 13.6085 20.1984V20.19C13.6085 19.72 13.2259 19.3507 12.7477 19.3507ZM20.573 11H20.5643C20.0774 11 19.6949 11.3693 19.6949 11.8309V12.6366C19.6949 13.0982 20.0774 13.4675 20.5557 13.4675H20.5643C21.0513 13.4758 21.4338 13.1066 21.4338 12.645V11.8309C21.4338 11.3693 21.0513 11 20.573 11ZM27.3029 13.6941C26.9638 13.3667 26.416 13.3667 26.0769 13.6857L25.7378 14.013C25.3987 14.3403 25.3987 14.869 25.7378 15.188L25.7465 15.1963C26.0856 15.5237 26.6334 15.5237 26.9638 15.1963L27.3029 14.869C27.642 14.5417 27.642 14.0214 27.3029 13.6941ZM25.7291 26.367L26.0682 26.6943C26.4073 27.0217 26.9551 27.0217 27.2942 26.6943C27.6333 26.367 27.6333 25.8383 27.2942 25.511L26.9551 25.1837C26.616 24.8563 26.0682 24.8647 25.7378 25.1837C25.39 25.5194 25.39 26.0397 25.7291 26.367ZM27.5202 20.1816V20.19C27.5202 20.6516 27.9028 21.0209 28.381 21.0209H29.2592C29.7374 21.0209 30.12 20.6516 30.12 20.19V20.1816C30.12 19.72 29.7374 19.3507 29.2592 19.3507H28.381C27.9028 19.3507 27.5202 19.72 27.5202 20.1816ZM20.5643 15.1544C17.6863 15.1544 15.3474 17.412 15.3474 20.19C15.3474 22.968 17.6863 25.2256 20.5643 25.2256C23.4423 25.2256 25.7813 22.968 25.7813 20.19C25.7813 17.412 23.4423 15.1544 20.5643 15.1544ZM20.5557 29.38H20.5643C21.0426 29.38 21.4251 29.0107 21.4251 28.5491V27.7434C21.4251 27.2818 21.0426 26.9125 20.5643 26.9125H20.5557C20.0774 26.9125 19.6949 27.2818 19.6949 27.7434V28.5491C19.6949 29.0107 20.0774 29.38 20.5557 29.38ZM13.8258 26.6859C14.1649 27.0133 14.7127 27.0133 15.0518 26.6859L15.3909 26.3586C15.73 26.0313 15.7213 25.5026 15.3909 25.1837L15.3822 25.1753C15.0431 24.8479 14.4953 24.8479 14.1562 25.1753L13.8171 25.5026C13.4867 25.8383 13.4867 26.3586 13.8258 26.6859Z" fill="#333333"/>
</g>
<defs>
<filter id="filter0_d_700_4496" x="0.5" y="0.14917" width="41" height="41" filterUnits="userSpaceOnUse" color-interpolation-filters="sRGB">
<feFlood flood-opacity="0" result="BackgroundImageFix"/>
<feColorMatrix in="SourceAlpha" type="matrix" values="0 0 0 0 0 0 0 0 0 0 0 0 0 0 0 0 0 0 127 0" result="hardAlpha"/>
<feOffset dy="1"/>
<feGaussianBlur stdDeviation="1"/>
<feComposite in2="hardAlpha" operator="out"/>
<feColorMatrix type="matrix" values="0 0 0 0 0.0627451 0 0 0 0 0.0941176 0 0 0 0 0.156863 0 0 0 0.04 0"/>
<feBlend mode="normal" in2="BackgroundImageFix" result="effect1_dropShadow_700_4496"/>
<feBlend mode="normal" in="SourceGraphic" in2="effect1_dropShadow_700_4496" result="shape"/>
</filter>
</defs>
</svg>
