<svg width="24" height="25" viewBox="0 0 24 25" fill="none" xmlns="http://www.w3.org/2000/svg">
<path d="M6.05488 5.28922L5.66488 4.89922C5.27488 4.50922 4.64488 4.51922 4.26488 4.89922L4.25488 4.90922C3.86488 5.29922 3.86488 5.92922 4.25488 6.30922L4.64488 6.69922C5.03488 7.08922 5.65488 7.08922 6.04488 6.69922L6.05488 6.68922C6.44488 6.30922 6.44488 5.66922 6.05488 5.28922ZM3.01488 11.6492H1.99488C1.44488 11.6492 1.00488 12.0892 1.00488 12.6392V12.6492C1.00488 13.1992 1.44488 13.6392 1.99488 13.6392H3.00488C3.56488 13.6492 4.00488 13.2092 4.00488 12.6592V12.6492C4.00488 12.0892 3.56488 11.6492 3.01488 11.6492ZM12.0149 1.69922H12.0049C11.4449 1.69922 11.0049 2.13922 11.0049 2.68922V3.64922C11.0049 4.19922 11.4449 4.63922 11.9949 4.63922H12.0049C12.5649 4.64922 13.0049 4.20922 13.0049 3.65922V2.68922C13.0049 2.13922 12.5649 1.69922 12.0149 1.69922ZM19.7549 4.90922C19.3649 4.51922 18.7349 4.51922 18.3449 4.89922L17.9549 5.28922C17.5649 5.67922 17.5649 6.30922 17.9549 6.68922L17.9649 6.69922C18.3549 7.08922 18.9849 7.08922 19.3649 6.69922L19.7549 6.30922C20.1449 5.91922 20.1449 5.29922 19.7549 4.90922ZM17.9449 20.0092L18.3349 20.3992C18.7249 20.7892 19.3549 20.7892 19.7449 20.3992C20.1349 20.0092 20.1349 19.3792 19.7449 18.9892L19.3549 18.5992C18.9649 18.2092 18.3349 18.2192 17.9549 18.5992C17.5549 18.9992 17.5549 19.6192 17.9449 20.0092ZM20.0049 12.6392V12.6492C20.0049 13.1992 20.4449 13.6392 20.9949 13.6392H22.0049C22.5549 13.6392 22.9949 13.1992 22.9949 12.6492V12.6392C22.9949 12.0892 22.5549 11.6492 22.0049 11.6492H20.9949C20.4449 11.6492 20.0049 12.0892 20.0049 12.6392ZM12.0049 6.64922C8.69488 6.64922 6.00488 9.33922 6.00488 12.6492C6.00488 15.9592 8.69488 18.6492 12.0049 18.6492C15.3149 18.6492 18.0049 15.9592 18.0049 12.6492C18.0049 9.33922 15.3149 6.64922 12.0049 6.64922ZM11.9949 23.5992H12.0049C12.5549 23.5992 12.9949 23.1592 12.9949 22.6092V21.6492C12.9949 21.0992 12.5549 20.6592 12.0049 20.6592H11.9949C11.4449 20.6592 11.0049 21.0992 11.0049 21.6492V22.6092C11.0049 23.1592 11.4449 23.5992 11.9949 23.5992ZM4.25488 20.3892C4.64488 20.7792 5.27488 20.7792 5.66488 20.3892L6.05488 19.9992C6.44488 19.6092 6.43488 18.9792 6.05488 18.5992L6.04488 18.5892C5.65488 18.1992 5.02488 18.1992 4.63488 18.5892L4.24488 18.9792C3.86488 19.3792 3.86488 19.9992 4.25488 20.3892Z" fill="#000000"/>
</svg>
