<svg width="90" height="33" viewBox="0 0 90 33" fill="none" xmlns="http://www.w3.org/2000/svg">
<path d="M1.96115 25V8.18861H13.0921V11.1191H5.51551V15.125H12.3533V18.0555H5.51551V25H1.96115ZM15.4172 25V12.3915H18.9141V25H15.4172ZM17.1739 10.7661C16.654 10.7661 16.208 10.5938 15.8359 10.249C15.4692 9.89876 15.2859 9.48011 15.2859 8.99307C15.2859 8.51149 15.4692 8.09832 15.8359 7.75356C16.208 7.40332 16.654 7.2282 17.1739 7.2282C17.6938 7.2282 18.137 7.40332 18.5037 7.75356C18.8758 8.09832 19.0619 8.51149 19.0619 8.99307C19.0619 9.48011 18.8758 9.89876 18.5037 10.249C18.137 10.5938 17.6938 10.7661 17.1739 10.7661ZM28.4957 12.3915V15.0182H20.7139V12.3915H28.4957ZM22.4952 25V11.4803C22.4952 10.5664 22.673 9.80846 23.0287 9.20649C23.3899 8.60452 23.8824 8.15304 24.5063 7.85206C25.1302 7.55107 25.8388 7.40058 26.6323 7.40058C27.1686 7.40058 27.6584 7.44162 28.1017 7.52371C28.5504 7.6058 28.8843 7.67968 29.1032 7.74535L28.4793 10.3721C28.3425 10.3283 28.1728 10.2873 27.9704 10.249C27.7734 10.2107 27.5709 10.1915 27.3629 10.1915C26.8485 10.1915 26.4901 10.3119 26.2876 10.5527C26.0851 10.788 25.9839 11.1191 25.9839 11.546V25H22.4952ZM37.3385 12.3915V15.0182H29.7455V12.3915H37.3385ZM31.4693 9.37067H34.9662V21.1255C34.9662 21.4484 35.0155 21.7001 35.114 21.8807C35.2125 22.0558 35.3493 22.1789 35.5244 22.2501C35.705 22.3212 35.9129 22.3568 36.1483 22.3568C36.3124 22.3568 36.4766 22.3431 36.6408 22.3158C36.805 22.2829 36.9308 22.2583 37.0184 22.2419L37.5684 24.844C37.3932 24.8988 37.147 24.9617 36.8296 25.0328C36.5122 25.1094 36.1264 25.156 35.6722 25.1724C34.8294 25.2052 34.0906 25.093 33.4558 24.8358C32.8265 24.5786 32.3367 24.1791 31.9865 23.6374C31.6362 23.0956 31.4638 22.4115 31.4693 21.5852V9.37067ZM43.3842 17.7107V25H39.8873V8.18861H43.2857V14.616H43.4335C43.718 13.8718 44.1777 13.2889 44.8125 12.8676C45.4473 12.4407 46.2436 12.2273 47.2013 12.2273C48.0768 12.2273 48.8403 12.4188 49.4915 12.8019C50.1482 13.1795 50.6571 13.724 51.0183 14.4354C51.3849 15.1414 51.5655 15.9869 51.5601 16.9719V25H48.0632V17.5958C48.0686 16.8187 47.8716 16.214 47.4721 15.7816C47.0781 15.3493 46.5254 15.1332 45.814 15.1332C45.3379 15.1332 44.9165 15.2344 44.5498 15.4369C44.1887 15.6394 43.9041 15.9349 43.6961 16.3234C43.4937 16.7065 43.3897 17.1689 43.3842 17.7107Z" fill="#EF8435"/>
<path d="M52.6764 11.1191V8.18861H66.4835V11.1191H61.3366V25H57.8233V11.1191H52.6764ZM67.3823 25V12.3915H70.7725V14.5914H70.9038C71.1337 13.8088 71.5195 13.2178 72.0613 12.8183C72.603 12.4134 73.2269 12.2109 73.9328 12.2109C74.108 12.2109 74.2968 12.2218 74.4992 12.2437C74.7017 12.2656 74.8796 12.2957 75.0328 12.334V15.4369C74.8686 15.3876 74.6415 15.3439 74.3515 15.3055C74.0614 15.2672 73.796 15.2481 73.5552 15.2481C73.0408 15.2481 72.5811 15.3603 72.1762 15.5846C71.7767 15.8035 71.4593 16.11 71.224 16.504C70.9941 16.898 70.8792 17.3522 70.8792 17.8667V25H67.3823ZM79.3834 29.7282C78.9401 29.7282 78.5242 29.6926 78.1357 29.6215C77.7526 29.5558 77.4352 29.471 77.1835 29.367L77.9715 26.7567C78.3819 26.8825 78.7513 26.9509 79.0797 26.9619C79.4135 26.9728 79.7008 26.8962 79.9416 26.732C80.1879 26.5679 80.3876 26.2888 80.5408 25.8947L80.746 25.3612L76.2231 12.3915H79.9005L82.5109 21.6509H82.6422L85.2772 12.3915H88.9794L84.0788 26.3626C83.8435 27.0412 83.5233 27.6323 83.1184 28.1357C82.7189 28.6447 82.2127 29.0359 81.5997 29.3096C80.9868 29.5887 80.248 29.7282 79.3834 29.7282Z" fill="#333333"/>
</svg>
