<svg width="88" height="24" viewBox="0 0 88 24" fill="none" xmlns="http://www.w3.org/2000/svg">
<path d="M0.461146 18.3494V1.53798H11.5921V4.46848H4.01551V8.47432H10.8533V11.4048H4.01551V18.3494H0.461146ZM13.9172 18.3494V5.74083H17.4141V18.3494H13.9172ZM15.6739 4.11551C15.154 4.11551 14.708 3.94312 14.3359 3.59836C13.9692 3.24812 13.7859 2.82948 13.7859 2.34243C13.7859 1.86085 13.9692 1.44768 14.3359 1.10292C14.708 0.752682 15.154 0.577564 15.6739 0.577564C16.1938 0.577564 16.637 0.752682 17.0037 1.10292C17.3758 1.44768 17.5619 1.86085 17.5619 2.34243C17.5619 2.82948 17.3758 3.24812 17.0037 3.59836C16.637 3.94312 16.1938 4.11551 15.6739 4.11551ZM26.9957 5.74083V8.36761H19.2139V5.74083H26.9957ZM20.9952 18.3494V4.82966C20.9952 3.91576 21.173 3.15783 21.5287 2.55586C21.8899 1.95389 22.3824 1.50241 23.0063 1.20142C23.6302 0.900438 24.3388 0.749946 25.1323 0.749946C25.6686 0.749946 26.1584 0.790989 26.6017 0.873077C27.0504 0.955164 27.3843 1.02904 27.6032 1.09471L26.9793 3.72149C26.8425 3.67771 26.6728 3.63667 26.4704 3.59836C26.2734 3.56005 26.0709 3.5409 25.8629 3.5409C25.3485 3.5409 24.9901 3.66129 24.7876 3.90208C24.5851 4.1374 24.4839 4.46848 24.4839 4.89533V18.3494H20.9952ZM35.8385 5.74083V8.36761H28.2455V5.74083H35.8385ZM29.9693 2.72003H33.4662V14.4749C33.4662 14.7977 33.5155 15.0495 33.614 15.2301C33.7125 15.4052 33.8493 15.5283 34.0244 15.5995C34.205 15.6706 34.4129 15.7062 34.6483 15.7062C34.8124 15.7062 34.9766 15.6925 35.1408 15.6651C35.305 15.6323 35.4308 15.6077 35.5184 15.5912L36.0684 18.1934C35.8932 18.2481 35.647 18.3111 35.3296 18.3822C35.0122 18.4588 34.6264 18.5053 34.1722 18.5217C33.3294 18.5546 32.5906 18.4424 31.9558 18.1852C31.3265 17.928 30.8367 17.5285 30.4865 16.9867C30.1362 16.445 29.9638 15.7609 29.9693 14.9346V2.72003ZM41.8842 11.0601V18.3494H38.3873V1.53798H41.7857V7.96538H41.9335C42.218 7.22113 42.6777 6.63831 43.3125 6.21693C43.9473 5.79008 44.7436 5.57665 45.7013 5.57665C46.5768 5.57665 47.3403 5.76819 47.9915 6.15126C48.6482 6.52886 49.1571 7.07337 49.5183 7.78479C49.8849 8.49074 50.0655 9.33623 50.0601 10.3213V18.3494H46.5632V10.9451C46.5686 10.168 46.3716 9.56334 45.9721 9.13101C45.5781 8.69869 45.0254 8.48253 44.314 8.48253C43.8379 8.48253 43.4165 8.58377 43.0498 8.78625C42.6887 8.98873 42.4041 9.28424 42.1961 9.67279C41.9937 10.0559 41.8897 10.5183 41.8842 11.0601Z" fill="#EF8435"/>
<path d="M51.1764 4.46848V1.53798H64.9835V4.46848H59.8366V18.3494H56.3233V4.46848H51.1764ZM65.8823 18.3494V5.74083H69.2725V7.94075H69.4038C69.6337 7.15819 70.0195 6.56717 70.5613 6.16768C71.103 5.76272 71.7269 5.56024 72.4328 5.56024C72.608 5.56024 72.7968 5.57118 72.9992 5.59307C73.2017 5.61496 73.3796 5.64506 73.5328 5.68337V8.78625C73.3686 8.737 73.1415 8.69322 72.8515 8.65491C72.5614 8.6166 72.296 8.59745 72.0552 8.59745C71.5408 8.59745 71.0811 8.70963 70.6762 8.934C70.2767 9.1529 69.9593 9.45936 69.724 9.85338C69.4941 10.2474 69.3792 10.7016 69.3792 11.216V18.3494H65.8823ZM77.8834 23.0776C77.4401 23.0776 77.0242 23.042 76.6357 22.9709C76.2526 22.9052 75.9352 22.8204 75.6835 22.7164L76.4715 20.106C76.8819 20.2319 77.2513 20.3003 77.5797 20.3112C77.9135 20.3222 78.2008 20.2456 78.4416 20.0814C78.6879 19.9172 78.8876 19.6381 79.0408 19.2441L79.246 18.7105L74.7231 5.74083H78.4005L81.0109 15.0002H81.1422L83.7772 5.74083H87.4794L82.5788 19.712C82.3435 20.3906 82.0233 20.9816 81.6184 21.4851C81.2189 21.994 80.7127 22.3853 80.0997 22.6589C79.4868 22.938 78.748 23.0776 77.8834 23.0776Z" fill="#333333"/>
</svg>
