<svg width="90" height="34" viewBox="0 0 90 34" fill="none" xmlns="http://www.w3.org/2000/svg">
<path d="M1.96115 25.3494V8.53798H13.0921V11.4685H5.51551V15.4743H12.3533V18.4048H5.51551V25.3494H1.96115ZM15.4172 25.3494V12.7408H18.9141V25.3494H15.4172ZM17.1739 11.1155C16.654 11.1155 16.208 10.9431 15.8359 10.5984C15.4692 10.2481 15.2859 9.82948 15.2859 9.34243C15.2859 8.86085 15.4692 8.44768 15.8359 8.10292C16.208 7.75268 16.654 7.57756 17.1739 7.57756C17.6938 7.57756 18.137 7.75268 18.5037 8.10292C18.8758 8.44768 19.0619 8.86085 19.0619 9.34243C19.0619 9.82948 18.8758 10.2481 18.5037 10.5984C18.137 10.9431 17.6938 11.1155 17.1739 11.1155ZM28.4957 12.7408V15.3676H20.7139V12.7408H28.4957ZM22.4952 25.3494V11.8297C22.4952 10.9158 22.673 10.1578 23.0287 9.55586C23.3899 8.95389 23.8824 8.50241 24.5063 8.20142C25.1302 7.90044 25.8388 7.74995 26.6323 7.74995C27.1686 7.74995 27.6584 7.79099 28.1017 7.87308C28.5504 7.95516 28.8843 8.02904 29.1032 8.09471L28.4793 10.7215C28.3425 10.6777 28.1728 10.6367 27.9704 10.5984C27.7734 10.5601 27.5709 10.5409 27.3629 10.5409C26.8485 10.5409 26.4901 10.6613 26.2876 10.9021C26.0851 11.1374 25.9839 11.4685 25.9839 11.8953V25.3494H22.4952ZM37.3385 12.7408V15.3676H29.7455V12.7408H37.3385ZM31.4693 9.72003H34.9662V21.4749C34.9662 21.7977 35.0155 22.0495 35.114 22.2301C35.2125 22.4052 35.3493 22.5283 35.5244 22.5995C35.705 22.6706 35.9129 22.7062 36.1483 22.7062C36.3124 22.7062 36.4766 22.6925 36.6408 22.6651C36.805 22.6323 36.9308 22.6077 37.0184 22.5912L37.5684 25.1934C37.3932 25.2481 37.147 25.3111 36.8296 25.3822C36.5122 25.4588 36.1264 25.5053 35.6722 25.5217C34.8294 25.5546 34.0906 25.4424 33.4558 25.1852C32.8265 24.928 32.3367 24.5285 31.9865 23.9867C31.6362 23.445 31.4638 22.7609 31.4693 21.9346V9.72003ZM43.3842 18.0601V25.3494H39.8873V8.53798H43.2857V14.9654H43.4335C43.718 14.2211 44.1777 13.6383 44.8125 13.2169C45.4473 12.7901 46.2436 12.5767 47.2013 12.5767C48.0768 12.5767 48.8403 12.7682 49.4915 13.1513C50.1482 13.5289 50.6571 14.0734 51.0183 14.7848C51.3849 15.4907 51.5655 16.3362 51.5601 17.3213V25.3494H48.0632V17.9451C48.0686 17.168 47.8716 16.5633 47.4721 16.131C47.0781 15.6987 46.5254 15.4825 45.814 15.4825C45.3379 15.4825 44.9165 15.5838 44.5498 15.7862C44.1887 15.9887 43.9041 16.2842 43.6961 16.6728C43.4937 17.0559 43.3897 17.5183 43.3842 18.0601Z" fill="#EF8435"/>
<path d="M52.6764 11.4685V8.53798H66.4835V11.4685H61.3366V25.3494H57.8233V11.4685H52.6764ZM67.3823 25.3494V12.7408H70.7725V14.9408H70.9038C71.1337 14.1582 71.5195 13.5672 72.0613 13.1677C72.603 12.7627 73.2269 12.5602 73.9328 12.5602C74.108 12.5602 74.2968 12.5712 74.4992 12.5931C74.7017 12.615 74.8796 12.6451 75.0328 12.6834V15.7862C74.8686 15.737 74.6415 15.6932 74.3515 15.6549C74.0614 15.6166 73.796 15.5974 73.5552 15.5974C73.0408 15.5974 72.5811 15.7096 72.1762 15.934C71.7767 16.1529 71.4593 16.4594 71.224 16.8534C70.9941 17.2474 70.8792 17.7016 70.8792 18.216V25.3494H67.3823ZM79.3834 30.0776C78.9401 30.0776 78.5242 30.042 78.1357 29.9709C77.7526 29.9052 77.4352 29.8204 77.1835 29.7164L77.9715 27.106C78.3819 27.2319 78.7513 27.3003 79.0797 27.3112C79.4135 27.3222 79.7008 27.2456 79.9416 27.0814C80.1879 26.9172 80.3876 26.6381 80.5408 26.2441L80.746 25.7105L76.2231 12.7408H79.9005L82.5109 22.0002H82.6422L85.2772 12.7408H88.9794L84.0788 26.712C83.8435 27.3906 83.5233 27.9816 83.1184 28.4851C82.7189 28.994 82.2127 29.3853 81.5997 29.6589C80.9868 29.938 80.248 30.0776 79.3834 30.0776Z" fill="white"/>
</svg>
