<svg width="34" height="34" viewBox="0 0 34 34" fill="none" xmlns="http://www.w3.org/2000/svg">
<g filter="url(#filter0_d_1058_74088)">
<path d="M3 5.2C3 4.0799 3 3.51984 3.21799 3.09202C3.40973 2.71569 3.71569 2.40973 4.09202 2.21799C4.51984 2 5.0799 2 6.2 2H27.8C28.9201 2 29.4802 2 29.908 2.21799C30.2843 2.40973 30.5903 2.71569 30.782 3.09202C31 3.51984 31 4.0799 31 5.2V26.8C31 27.9201 31 28.4802 30.782 28.908C30.5903 29.2843 30.2843 29.5903 29.908 29.782C29.4802 30 28.9201 30 27.8 30H6.2C5.0799 30 4.51984 30 4.09202 29.782C3.71569 29.5903 3.40973 29.2843 3.21799 28.908C3 28.4802 3 27.9201 3 26.8V5.2Z" fill="#ffffff"/>
<path d="M3 5.2C3 4.0799 3 3.51984 3.21799 3.09202C3.40973 2.71569 3.71569 2.40973 4.09202 2.21799C4.51984 2 5.0799 2 6.2 2H27.8C28.9201 2 29.4802 2 29.908 2.21799C30.2843 2.40973 30.5903 2.71569 30.782 3.09202C31 3.51984 31 4.0799 31 5.2V26.8C31 27.9201 31 28.4802 30.782 28.908C30.5903 29.2843 30.2843 29.5903 29.908 29.782C29.4802 30 28.9201 30 27.8 30H6.2C5.0799 30 4.51984 30 4.09202 29.782C3.71569 29.5903 3.40973 29.2843 3.21799 28.908C3 28.4802 3 27.9201 3 26.8V5.2Z" stroke="#474747"/>
<path d="M10.75 21H23.25C23.9404 21 24.5 20.4404 24.5 19.75V11C24.5 10.3096 23.9404 9.75 23.25 9.75L10.75 9.75C10.0596 9.75 9.5 10.3096 9.5 11L9.5 19.75C9.5 20.4404 10.0596 21 10.75 21Z" stroke="#333333" stroke-width="1.5" stroke-linecap="round" stroke-linejoin="round"/>
<path d="M19.5 23.5H14.5" stroke="#333333" stroke-width="1.5" stroke-linecap="round" stroke-linejoin="round"/>
<path d="M9.5 17.875H24.5" stroke="#333333" stroke-width="1.5" stroke-linecap="round" stroke-linejoin="round"/>
<path d="M17 21V23.5" stroke="#333333" stroke-width="1.5" stroke-linecap="round" stroke-linejoin="round"/>
</g>
<defs>
<filter id="filter0_d_1058_74088" x="0.5" y="0.5" width="33" height="33" filterUnits="userSpaceOnUse" color-interpolation-filters="sRGB">
<feFlood flood-opacity="0" result="BackgroundImageFix"/>
<feColorMatrix in="SourceAlpha" type="matrix" values="0 0 0 0 0 0 0 0 0 0 0 0 0 0 0 0 0 0 127 0" result="hardAlpha"/>
<feOffset dy="1"/>
<feGaussianBlur stdDeviation="1"/>
<feComposite in2="hardAlpha" operator="out"/>
<feColorMatrix type="matrix" values="0 0 0 0 0.0627451 0 0 0 0 0.0941176 0 0 0 0 0.156863 0 0 0 0.04 0"/>
<feBlend mode="normal" in2="BackgroundImageFix" result="effect1_dropShadow_1058_74088"/>
<feBlend mode="normal" in="SourceGraphic" in2="effect1_dropShadow_1058_74088" result="shape"/>
</filter>
</defs>
</svg>
