<svg width="32" height="32" viewBox="0 0 32 32" fill="none" xmlns="http://www.w3.org/2000/svg">
<g filter="url(#filter0_d_1052_20675)">
<path d="M2 4.2C2 3.0799 2 2.51984 2.21799 2.09202C2.40973 1.71569 2.71569 1.40973 3.09202 1.21799C3.51984 1 4.0799 1 5.2 1H26.8C27.9201 1 28.4802 1 28.908 1.21799C29.2843 1.40973 29.5903 1.71569 29.782 2.09202C30 2.51984 30 3.0799 30 4.2V25.8C30 26.9201 30 27.4802 29.782 27.908C29.5903 28.2843 29.2843 28.5903 28.908 28.782C28.4802 29 27.9201 29 26.8 29H5.2C4.0799 29 3.51984 29 3.09202 28.782C2.71569 28.5903 2.40973 28.2843 2.21799 27.908C2 27.4802 2 26.9201 2 25.8V4.2Z" fill="#EF8435"/>
<path d="M9.75 20H22.25C22.9404 20 23.5 19.4404 23.5 18.75V10C23.5 9.30964 22.9404 8.75 22.25 8.75L9.75 8.75C9.05964 8.75 8.5 9.30964 8.5 10L8.5 18.75C8.5 19.4404 9.05964 20 9.75 20Z" stroke="#F7F7F7" stroke-width="1.5" stroke-linecap="round" stroke-linejoin="round"/>
<path d="M18.5 22.5H13.5" stroke="#F7F7F7" stroke-width="1.5" stroke-linecap="round" stroke-linejoin="round"/>
<path d="M8.5 16.875H23.5" stroke="#F7F7F7" stroke-width="1.5" stroke-linecap="round" stroke-linejoin="round"/>
<path d="M16 20V22.5" stroke="#F7F7F7" stroke-width="1.5" stroke-linecap="round" stroke-linejoin="round"/>
</g>
<defs>
<filter id="filter0_d_1052_20675" x="0" y="0" width="32" height="32" filterUnits="userSpaceOnUse" color-interpolation-filters="sRGB">
<feFlood flood-opacity="0" result="BackgroundImageFix"/>
<feColorMatrix in="SourceAlpha" type="matrix" values="0 0 0 0 0 0 0 0 0 0 0 0 0 0 0 0 0 0 127 0" result="hardAlpha"/>
<feOffset dy="1"/>
<feGaussianBlur stdDeviation="1"/>
<feComposite in2="hardAlpha" operator="out"/>
<feColorMatrix type="matrix" values="0 0 0 0 0.0627451 0 0 0 0 0.0941176 0 0 0 0 0.156863 0 0 0 0.04 0"/>
<feBlend mode="normal" in2="BackgroundImageFix" result="effect1_dropShadow_1052_20675"/>
<feBlend mode="normal" in="SourceGraphic" in2="effect1_dropShadow_1052_20675" result="shape"/>
</filter>
</defs>
</svg>
