<svg width="34" height="34" viewBox="0 0 34 34" fill="none" xmlns="http://www.w3.org/2000/svg">
<g filter="url(#filter0_d_1052_20676)">
<path d="M3 5.2C3 4.0799 3 3.51984 3.21799 3.09202C3.40973 2.71569 3.71569 2.40973 4.09202 2.21799C4.51984 2 5.0799 2 6.2 2H27.8C28.9201 2 29.4802 2 29.908 2.21799C30.2843 2.40973 30.5903 2.71569 30.782 3.09202C31 3.51984 31 4.0799 31 5.2V26.8C31 27.9201 31 28.4802 30.782 28.908C30.5903 29.2843 30.2843 29.5903 29.908 29.782C29.4802 30 28.9201 30 27.8 30H6.2C5.0799 30 4.51984 30 4.09202 29.782C3.71569 29.5903 3.40973 29.2843 3.21799 28.908C3 28.4802 3 27.9201 3 26.8V5.2Z" fill="#ffffff"/>
<path d="M3 5.2C3 4.0799 3 3.51984 3.21799 3.09202C3.40973 2.71569 3.71569 2.40973 4.09202 2.21799C4.51984 2 5.0799 2 6.2 2H27.8C28.9201 2 29.4802 2 29.908 2.21799C30.2843 2.40973 30.5903 2.71569 30.782 3.09202C31 3.51984 31 4.0799 31 5.2V26.8C31 27.9201 31 28.4802 30.782 28.908C30.5903 29.2843 30.2843 29.5903 29.908 29.782C29.4802 30 28.9201 30 27.8 30H6.2C5.0799 30 4.51984 30 4.09202 29.782C3.71569 29.5903 3.40973 29.2843 3.21799 28.908C3 28.4802 3 27.9201 3 26.8V5.2Z" stroke="#474747"/>
<path d="M20.3332 6.83325H13.6665C12.2832 6.83325 11.1665 7.94992 11.1665 9.33325V22.6666C11.1665 24.0499 12.2832 25.1666 13.6665 25.1666H20.3332C21.7165 25.1666 22.8332 24.0499 22.8332 22.6666V9.33325C22.8332 7.94992 21.7165 6.83325 20.3332 6.83325ZM18.2498 23.4999H15.7498C15.5165 23.4999 15.3332 23.3166 15.3332 23.0833C15.3332 22.8499 15.5165 22.6666 15.7498 22.6666H18.2498C18.4832 22.6666 18.6665 22.8499 18.6665 23.0833C18.6665 23.3166 18.4832 23.4999 18.2498 23.4999ZM21.1665 20.9999H12.8332V9.33325H21.1665V20.9999Z" fill="#333333"/>
</g>
<defs>
<filter id="filter0_d_1052_20676" x="0.5" y="0.5" width="33" height="33" filterUnits="userSpaceOnUse" color-interpolation-filters="sRGB">
<feFlood flood-opacity="0" result="BackgroundImageFix"/>
<feColorMatrix in="SourceAlpha" type="matrix" values="0 0 0 0 0 0 0 0 0 0 0 0 0 0 0 0 0 0 127 0" result="hardAlpha"/>
<feOffset dy="1"/>
<feGaussianBlur stdDeviation="1"/>
<feComposite in2="hardAlpha" operator="out"/>
<feColorMatrix type="matrix" values="0 0 0 0 0.0627451 0 0 0 0 0.0941176 0 0 0 0 0.156863 0 0 0 0.04 0"/>
<feBlend mode="normal" in2="BackgroundImageFix" result="effect1_dropShadow_1052_20676"/>
<feBlend mode="normal" in="SourceGraphic" in2="effect1_dropShadow_1052_20676" result="shape"/>
</filter>
</defs>
</svg>
