<svg width="38" height="38" viewBox="0 0 38 38" fill="none" xmlns="http://www.w3.org/2000/svg">
<g filter="url(#filter0_d_1067_78698)">
<path d="M3 5.2C3 4.0799 3 3.51984 3.21799 3.09202C3.40973 2.71569 3.71569 2.40973 4.09202 2.21799C4.51984 2 5.0799 2 6.2 2H31.8C32.9201 2 33.4802 2 33.908 2.21799C34.2843 2.40973 34.5903 2.71569 34.782 3.09202C35 3.51984 35 4.0799 35 5.2V30.8C35 31.9201 35 32.4802 34.782 32.908C34.5903 33.2843 34.2843 33.5903 33.908 33.782C33.4802 34 32.9201 34 31.8 34H6.2C5.0799 34 4.51984 34 4.09202 33.782C3.71569 33.5903 3.40973 33.2843 3.21799 32.908C3 32.4802 3 31.9201 3 30.8V5.2Z" fill="#F9F9F9"/>
<path d="M3 5.2C3 4.0799 3 3.51984 3.21799 3.09202C3.40973 2.71569 3.71569 2.40973 4.09202 2.21799C4.51984 2 5.0799 2 6.2 2H31.8C32.9201 2 33.4802 2 33.908 2.21799C34.2843 2.40973 34.5903 2.71569 34.782 3.09202C35 3.51984 35 4.0799 35 5.2V30.8C35 31.9201 35 32.4802 34.782 32.908C34.5903 33.2843 34.2843 33.5903 33.908 33.782C33.4802 34 32.9201 34 31.8 34H6.2C5.0799 34 4.51984 34 4.09202 33.782C3.71569 33.5903 3.40973 33.2843 3.21799 32.908C3 32.4802 3 31.9201 3 30.8V5.2Z" stroke="#B0AEAC"/>
<path d="M23 7H15C13.34 7 12 8.34 12 10V26C12 27.66 13.34 29 15 29H23C24.66 29 26 27.66 26 26V10C26 8.34 24.66 7 23 7ZM20.5 27H17.5C17.22 27 17 26.78 17 26.5C17 26.22 17.22 26 17.5 26H20.5C20.78 26 21 26.22 21 26.5C21 26.78 20.78 27 20.5 27ZM24 24H14V10H24V24Z" fill="#333333"/>
</g>
<defs>
<filter id="filter0_d_1067_78698" x="0.5" y="0.5" width="37" height="37" filterUnits="userSpaceOnUse" color-interpolation-filters="sRGB">
<feFlood flood-opacity="0" result="BackgroundImageFix"/>
<feColorMatrix in="SourceAlpha" type="matrix" values="0 0 0 0 0 0 0 0 0 0 0 0 0 0 0 0 0 0 127 0" result="hardAlpha"/>
<feOffset dy="1"/>
<feGaussianBlur stdDeviation="1"/>
<feComposite in2="hardAlpha" operator="out"/>
<feColorMatrix type="matrix" values="0 0 0 0 0.0627451 0 0 0 0 0.0941176 0 0 0 0 0.156863 0 0 0 0.04 0"/>
<feBlend mode="normal" in2="BackgroundImageFix" result="effect1_dropShadow_1067_78698"/>
<feBlend mode="normal" in="SourceGraphic" in2="effect1_dropShadow_1067_78698" result="shape"/>
</filter>
</defs>
</svg>
