<svg width="32" height="32" viewBox="0 0 32 32" fill="none" xmlns="http://www.w3.org/2000/svg">
<g filter="url(#filter0_d_1058_74089)">
<path d="M2 4.2C2 3.0799 2 2.51984 2.21799 2.09202C2.40973 1.71569 2.71569 1.40973 3.09202 1.21799C3.51984 1 4.0799 1 5.2 1H26.8C27.9201 1 28.4802 1 28.908 1.21799C29.2843 1.40973 29.5903 1.71569 29.782 2.09202C30 2.51984 30 3.0799 30 4.2V25.8C30 26.9201 30 27.4802 29.782 27.908C29.5903 28.2843 29.2843 28.5903 28.908 28.782C28.4802 29 27.9201 29 26.8 29H5.2C4.0799 29 3.51984 29 3.09202 28.782C2.71569 28.5903 2.40973 28.2843 2.21799 27.908C2 27.4802 2 26.9201 2 25.8V4.2Z" fill="#EF8435"/>
<path d="M19.3332 5.83325H12.6665C11.2832 5.83325 10.1665 6.94992 10.1665 8.33325V21.6666C10.1665 23.0499 11.2832 24.1666 12.6665 24.1666H19.3332C20.7165 24.1666 21.8332 23.0499 21.8332 21.6666V8.33325C21.8332 6.94992 20.7165 5.83325 19.3332 5.83325ZM17.2498 22.4999H14.7498C14.5165 22.4999 14.3332 22.3166 14.3332 22.0833C14.3332 21.8499 14.5165 21.6666 14.7498 21.6666H17.2498C17.4832 21.6666 17.6665 21.8499 17.6665 22.0833C17.6665 22.3166 17.4832 22.4999 17.2498 22.4999ZM20.1665 19.9999H11.8332V8.33325H20.1665V19.9999Z" fill="#F7F7F7"/>
</g>
<defs>
<filter id="filter0_d_1058_74089" x="0" y="0" width="32" height="32" filterUnits="userSpaceOnUse" color-interpolation-filters="sRGB">
<feFlood flood-opacity="0" result="BackgroundImageFix"/>
<feColorMatrix in="SourceAlpha" type="matrix" values="0 0 0 0 0 0 0 0 0 0 0 0 0 0 0 0 0 0 127 0" result="hardAlpha"/>
<feOffset dy="1"/>
<feGaussianBlur stdDeviation="1"/>
<feComposite in2="hardAlpha" operator="out"/>
<feColorMatrix type="matrix" values="0 0 0 0 0.0627451 0 0 0 0 0.0941176 0 0 0 0 0.156863 0 0 0 0.04 0"/>
<feBlend mode="normal" in2="BackgroundImageFix" result="effect1_dropShadow_1058_74089"/>
<feBlend mode="normal" in="SourceGraphic" in2="effect1_dropShadow_1058_74089" result="shape"/>
</filter>
</defs>
</svg>
