<svg width="34" height="34" viewBox="0 0 34 34" fill="none" xmlns="http://www.w3.org/2000/svg">
<g filter="url(#filter0_d_1052_20686)">
<path d="M3 5.2C3 4.0799 3 3.51984 3.21799 3.09202C3.40973 2.71569 3.71569 2.40973 4.09202 2.21799C4.51984 2 5.0799 2 6.2 2H27.8C28.9201 2 29.4802 2 29.908 2.21799C30.2843 2.40973 30.5903 2.71569 30.782 3.09202C31 3.51984 31 4.0799 31 5.2V26.8C31 27.9201 31 28.4802 30.782 28.908C30.5903 29.2843 30.2843 29.5903 29.908 29.782C29.4802 30 28.9201 30 27.8 30H6.2C5.0799 30 4.51984 30 4.09202 29.782C3.71569 29.5903 3.40973 29.2843 3.21799 28.908C3 28.4802 3 27.9201 3 26.8V5.2Z" fill="#1C1C1C"/>
<path d="M3 5.2C3 4.0799 3 3.51984 3.21799 3.09202C3.40973 2.71569 3.71569 2.40973 4.09202 2.21799C4.51984 2 5.0799 2 6.2 2H27.8C28.9201 2 29.4802 2 29.908 2.21799C30.2843 2.40973 30.5903 2.71569 30.782 3.09202C31 3.51984 31 4.0799 31 5.2V26.8C31 27.9201 31 28.4802 30.782 28.908C30.5903 29.2843 30.2843 29.5903 29.908 29.782C29.4802 30 28.9201 30 27.8 30H6.2C5.0799 30 4.51984 30 4.09202 29.782C3.71569 29.5903 3.40973 29.2843 3.21799 28.908C3 28.4802 3 27.9201 3 26.8V5.2Z" stroke="#474747"/>
<path d="M22 21.8333H12C11.5417 21.8333 11.1667 21.4583 11.1667 21V11C11.1667 10.5417 11.5417 10.1667 12 10.1667H16.1667C16.625 10.1667 17 9.79167 17 9.33333C17 8.875 16.625 8.5 16.1667 8.5H11.1667C10.2417 8.5 9.5 9.25 9.5 10.1667V21.8333C9.5 22.75 10.25 23.5 11.1667 23.5H22.8333C23.75 23.5 24.5 22.75 24.5 21.8333V16.8333C24.5 16.375 24.125 16 23.6667 16C23.2083 16 22.8333 16.375 22.8333 16.8333V21C22.8333 21.4583 22.4583 21.8333 22 21.8333ZM18.6667 9.33333C18.6667 9.79167 19.0417 10.1667 19.5 10.1667H21.6583L14.05 17.775C13.725 18.1 13.725 18.625 14.05 18.95C14.375 19.275 14.9 19.275 15.225 18.95L22.8333 11.3417V13.5C22.8333 13.9583 23.2083 14.3333 23.6667 14.3333C24.125 14.3333 24.5 13.9583 24.5 13.5V9.33333C24.5 8.875 24.125 8.5 23.6667 8.5H19.5C19.0417 8.5 18.6667 8.875 18.6667 9.33333Z" fill="#F7F7F7"/>
</g>
<defs>
<filter id="filter0_d_1052_20686" x="0.5" y="0.5" width="33" height="33" filterUnits="userSpaceOnUse" color-interpolation-filters="sRGB">
<feFlood flood-opacity="0" result="BackgroundImageFix"/>
<feColorMatrix in="SourceAlpha" type="matrix" values="0 0 0 0 0 0 0 0 0 0 0 0 0 0 0 0 0 0 127 0" result="hardAlpha"/>
<feOffset dy="1"/>
<feGaussianBlur stdDeviation="1"/>
<feComposite in2="hardAlpha" operator="out"/>
<feColorMatrix type="matrix" values="0 0 0 0 0.0627451 0 0 0 0 0.0941176 0 0 0 0 0.156863 0 0 0 0.04 0"/>
<feBlend mode="normal" in2="BackgroundImageFix" result="effect1_dropShadow_1052_20686"/>
<feBlend mode="normal" in="SourceGraphic" in2="effect1_dropShadow_1052_20686" result="shape"/>
</filter>
</defs>
</svg>
