<svg width="34" height="34" viewBox="0 0 34 34" fill="none" xmlns="http://www.w3.org/2000/svg">
<g filter="url(#filter0_d_1052_20691)">
<path d="M3 5.2C3 4.0799 3 3.51984 3.21799 3.09202C3.40973 2.71569 3.71569 2.40973 4.09202 2.21799C4.51984 2 5.0799 2 6.2 2H27.8C28.9201 2 29.4802 2 29.908 2.21799C30.2843 2.40973 30.5903 2.71569 30.782 3.09202C31 3.51984 31 4.0799 31 5.2V26.8C31 27.9201 31 28.4802 30.782 28.908C30.5903 29.2843 30.2843 29.5903 29.908 29.782C29.4802 30 28.9201 30 27.8 30H6.2C5.0799 30 4.51984 30 4.09202 29.782C3.71569 29.5903 3.40973 29.2843 3.21799 28.908C3 28.4802 3 27.9201 3 26.8V5.2Z" fill="#1C1C1C"/>
<path d="M3 5.2C3 4.0799 3 3.51984 3.21799 3.09202C3.40973 2.71569 3.71569 2.40973 4.09202 2.21799C4.51984 2 5.0799 2 6.2 2H27.8C28.9201 2 29.4802 2 29.908 2.21799C30.2843 2.40973 30.5903 2.71569 30.782 3.09202C31 3.51984 31 4.0799 31 5.2V26.8C31 27.9201 31 28.4802 30.782 28.908C30.5903 29.2843 30.2843 29.5903 29.908 29.782C29.4802 30 28.9201 30 27.8 30H6.2C5.0799 30 4.51984 30 4.09202 29.782C3.71569 29.5903 3.40973 29.2843 3.21799 28.908C3 28.4802 3 27.9201 3 26.8V5.2Z" stroke="#474747"/>
<path d="M21.7041 11.2916C20.4957 10.0833 18.8374 9.33325 16.9957 9.33325C13.3124 9.33325 10.3374 12.3166 10.3374 15.9999C10.3374 19.6833 13.3124 22.6666 16.9957 22.6666C20.1041 22.6666 22.6957 20.5416 23.4374 17.6666H21.7041C21.0207 19.6083 19.1707 20.9999 16.9957 20.9999C14.2374 20.9999 11.9957 18.7583 11.9957 15.9999C11.9957 13.2416 14.2374 10.9999 16.9957 10.9999C18.3791 10.9999 19.6124 11.5749 20.5124 12.4833L17.8291 15.1666H23.6624V9.33325L21.7041 11.2916Z" fill="#F7F7F7"/>
</g>
<defs>
<filter id="filter0_d_1052_20691" x="0.5" y="0.5" width="33" height="33" filterUnits="userSpaceOnUse" color-interpolation-filters="sRGB">
<feFlood flood-opacity="0" result="BackgroundImageFix"/>
<feColorMatrix in="SourceAlpha" type="matrix" values="0 0 0 0 0 0 0 0 0 0 0 0 0 0 0 0 0 0 127 0" result="hardAlpha"/>
<feOffset dy="1"/>
<feGaussianBlur stdDeviation="1"/>
<feComposite in2="hardAlpha" operator="out"/>
<feColorMatrix type="matrix" values="0 0 0 0 0.0627451 0 0 0 0 0.0941176 0 0 0 0 0.156863 0 0 0 0.04 0"/>
<feBlend mode="normal" in2="BackgroundImageFix" result="effect1_dropShadow_1052_20691"/>
<feBlend mode="normal" in="SourceGraphic" in2="effect1_dropShadow_1052_20691" result="shape"/>
</filter>
</defs>
</svg>
