<svg width="306" height="306" viewBox="0 0 306 306" fill="none" xmlns="http://www.w3.org/2000/svg">
<path d="M305.293 153.013C305.293 183.137 296.361 212.584 279.625 237.631C262.889 262.678 239.102 282.199 211.271 293.727C183.441 305.255 152.817 308.271 123.272 302.394C93.727 296.517 66.5884 282.011 45.2877 260.711C23.9871 239.41 9.48119 212.272 3.60436 182.727C-2.27248 153.182 0.743727 122.558 12.2715 94.7273C23.7994 66.8966 43.321 43.1094 68.3679 26.3736C93.4148 9.6378 122.862 0.7051 152.986 0.7051C173.002 0.653229 192.83 4.55738 211.333 12.1932C229.835 19.829 246.646 31.0459 260.799 45.1994C274.953 59.3528 286.17 76.1637 293.805 94.6659C301.441 113.168 305.345 132.997 305.293 153.013Z" fill="white"/>
<path d="M152.986 305.999C112.411 305.999 73.4989 289.881 44.8085 261.19C16.1181 232.5 6.00924e-07 193.587 6.00924e-07 153.013C-0.00268085 122.751 8.96862 93.1686 25.7794 68.006C42.5901 42.8433 66.4852 23.2309 94.4427 11.649C122.4 0.0672046 153.164 -2.96383 182.845 2.93925C212.525 8.84233 239.788 23.4144 261.186 44.8125C282.584 66.2107 297.156 93.4738 303.059 123.154C308.962 152.834 305.931 183.598 294.35 211.556C282.768 239.513 263.155 263.409 237.993 280.219C212.83 297.03 183.247 306.001 152.986 305.999ZM152.986 1.38296C122.996 1.38296 93.68 10.2759 68.7446 26.9372C43.8092 43.5985 24.3744 67.2799 12.8979 94.9866C1.4214 122.693 -1.58138 153.181 4.2693 182.594C10.12 212.008 24.5613 239.026 45.7672 260.231C66.973 281.437 93.9909 295.879 123.404 301.729C152.818 307.58 183.305 304.577 211.012 293.101C238.719 281.624 262.4 262.189 279.061 237.254C295.723 212.319 304.616 183.002 304.616 153.013C304.558 112.816 288.565 74.2814 260.141 45.8577C231.717 17.434 193.183 1.44034 152.986 1.38296Z" fill="#181A1E"/>
<path d="M178.948 253.72C178.795 253.718 178.647 253.666 178.528 253.571C178.388 253.459 178.298 253.296 178.278 253.119C178.258 252.941 178.308 252.762 178.419 252.622C178.751 251.895 179.037 251.148 179.273 250.385C181.456 244.202 187.191 227.947 200.017 230.36C200.844 227.282 204.897 214.348 215.662 209.63C222.59 206.58 230.847 207.637 240.202 212.776C240.88 208.573 244.351 192.181 257.935 182.257C268.51 174.543 282.624 172.441 299.964 176.034C300.052 176.052 300.135 176.087 300.208 176.136C300.282 176.186 300.345 176.25 300.395 176.324C300.444 176.399 300.478 176.482 300.495 176.569C300.511 176.657 300.511 176.747 300.493 176.834C300.451 177.009 300.343 177.162 300.192 177.261C300.041 177.359 299.857 177.395 299.68 177.363C282.8 173.851 269.039 175.871 258.79 183.355C243.673 194.391 241.476 213.725 241.463 213.914C241.45 214.028 241.41 214.136 241.346 214.231C241.283 214.325 241.197 214.403 241.097 214.457C240.997 214.51 240.885 214.538 240.771 214.538C240.658 214.538 240.546 214.51 240.446 214.457C231.132 209.142 222.997 207.935 216.259 210.891C204.884 215.88 201.264 231.228 201.237 231.336C201.197 231.51 201.089 231.661 200.939 231.756C200.785 231.853 200.601 231.887 200.423 231.851C188.303 229.018 182.907 244.324 180.616 250.832C180.366 251.751 180.001 252.635 179.531 253.462C179.462 253.549 179.372 253.618 179.271 253.662C179.169 253.707 179.059 253.727 178.948 253.72Z" fill="#D1D3D4"/>
<path d="M183.235 273.46H122.74L138.589 181.091H167.386L183.235 273.46Z" fill="white"/>
<path d="M183.235 274.138H122.74C122.642 274.14 122.544 274.119 122.454 274.079C122.364 274.038 122.285 273.978 122.221 273.902C122.158 273.827 122.112 273.739 122.086 273.643C122.061 273.548 122.058 273.448 122.076 273.351L137.925 180.983C137.95 180.824 138.031 180.68 138.153 180.576C138.274 180.472 138.429 180.414 138.589 180.413H167.386C167.546 180.414 167.701 180.472 167.822 180.576C167.944 180.68 168.025 180.824 168.05 180.983L183.899 273.351C183.917 273.448 183.914 273.548 183.888 273.643C183.863 273.739 183.817 273.827 183.754 273.902C183.69 273.978 183.61 274.038 183.521 274.079C183.431 274.119 183.333 274.14 183.235 274.138ZM123.581 272.782H182.448L166.83 181.769H139.172L123.581 272.782Z" fill="#181A1E"/>
<path d="M168.225 195.76H136.988L133.232 180.752H171.98L168.225 195.76Z" fill="white"/>
<path d="M168.226 196.398H137.043C136.891 196.397 136.744 196.346 136.624 196.253C136.504 196.16 136.417 196.03 136.379 195.883L132.65 180.915C132.623 180.817 132.62 180.714 132.641 180.615C132.662 180.516 132.707 180.423 132.772 180.345C132.832 180.261 132.911 180.192 133.003 180.144C133.095 180.097 133.198 180.073 133.301 180.074H171.968C172.071 180.073 172.174 180.097 172.266 180.144C172.358 180.192 172.437 180.261 172.497 180.345C172.561 180.424 172.607 180.516 172.63 180.614C172.654 180.713 172.655 180.816 172.632 180.915L168.877 195.937C168.829 196.071 168.741 196.188 168.624 196.271C168.508 196.353 168.369 196.398 168.226 196.398ZM137.518 195.042H167.697L171.114 181.484H134.101L137.518 195.042Z" fill="#181A1E"/>
<path d="M117.587 133.896C117.587 133.896 101.21 144.133 95.5153 161.202C89.8211 178.271 102.796 211.23 102.796 211.23L132.623 178.935L117.587 133.896Z" fill="white"/>
<path d="M102.822 211.908H102.7C102.588 211.89 102.483 211.842 102.395 211.771C102.307 211.7 102.239 211.607 102.198 211.501C101.656 210.145 89.2098 178.095 94.904 160.998C100.598 143.902 117.084 133.449 117.247 133.341C117.341 133.297 117.442 133.274 117.545 133.274C117.649 133.274 117.75 133.297 117.844 133.341C117.939 133.38 118.024 133.439 118.094 133.513C118.164 133.588 118.218 133.677 118.25 133.774L133.232 178.773C133.272 178.887 133.281 179.011 133.257 179.13C133.233 179.249 133.178 179.36 133.096 179.451L103.269 211.745C103.145 211.853 102.986 211.911 102.822 211.908ZM117.247 134.954C114.034 137.164 100.978 146.817 96.192 161.405C91.2027 176.319 100.964 204.288 103.066 209.969L131.849 178.786L117.247 134.954Z" fill="#181A1E"/>
<path d="M188.385 133.896C188.385 133.896 204.763 144.133 210.457 161.202C216.151 178.271 203.177 211.23 203.177 211.23L173.35 178.935L188.385 133.896Z" fill="white"/>
<path d="M203.149 211.908C203.055 211.909 202.961 211.891 202.875 211.853C202.788 211.816 202.711 211.761 202.647 211.691L172.82 179.396C172.739 179.306 172.684 179.195 172.66 179.076C172.636 178.957 172.644 178.833 172.685 178.718L187.693 133.693C187.726 133.596 187.779 133.507 187.85 133.432C187.92 133.357 188.005 133.298 188.1 133.259C188.193 133.216 188.295 133.193 188.398 133.193C188.501 133.193 188.603 133.216 188.696 133.259C188.859 133.368 205.345 143.821 211.04 160.917C216.734 178.013 204.261 210.064 203.746 211.42C203.705 211.525 203.637 211.618 203.549 211.69C203.461 211.761 203.356 211.808 203.244 211.827L203.149 211.908ZM174.149 178.773L202.932 209.956C205.034 204.275 214.795 176.359 209.806 161.392C204.952 146.804 191.964 137.15 188.751 134.94L174.149 178.773Z" fill="#181A1E"/>
<path d="M179.369 186.446C187.504 166.964 192.642 138.723 192.642 107.296C192.642 59.6676 166.367 34.8705 156.389 27.1697C155.306 26.332 153.976 25.8774 152.606 25.8774C151.237 25.8774 149.907 26.332 148.824 27.1697C138.845 34.8705 112.57 59.7083 112.57 107.296C112.57 138.723 117.695 166.95 125.843 186.446C125.843 186.446 133.978 190.514 152.606 190.514C171.235 190.514 179.369 186.446 179.369 186.446Z" fill="#5796F4"/>
<path d="M148.824 27.1697C136.578 36.9257 126.998 49.6208 120.977 64.0739H184.237C178.215 49.6208 168.636 36.9257 156.389 27.1697C155.306 26.332 153.976 25.8774 152.607 25.8774C151.238 25.8774 149.907 26.332 148.824 27.1697Z" fill="white"/>
<path d="M184.236 64.752H120.975C120.864 64.7515 120.755 64.7236 120.657 64.671C120.56 64.6184 120.476 64.5425 120.415 64.4502C120.353 64.3578 120.315 64.2517 120.304 64.1412C120.293 64.0307 120.309 63.9192 120.352 63.8165C126.397 49.2458 136.05 36.4527 148.403 26.6412C149.606 25.7111 151.084 25.2065 152.606 25.2065C154.127 25.2065 155.605 25.7111 156.808 26.6412C169.161 36.4527 178.814 49.2458 184.859 63.8165C184.902 63.9192 184.918 64.0307 184.907 64.1412C184.896 64.2517 184.858 64.3578 184.796 64.4502C184.735 64.5425 184.652 64.6184 184.554 64.671C184.456 64.7236 184.347 64.7515 184.236 64.752ZM122.006 63.3962H183.205C177.23 49.4282 167.875 37.1655 155.981 27.7122C155.013 26.958 153.82 26.5485 152.592 26.5485C151.364 26.5485 150.171 26.958 149.203 27.7122C137.316 37.1651 127.969 49.4285 122.006 63.3962Z" fill="#181A1E"/>
<path d="M154.179 123.891C167.665 123.891 178.597 112.959 178.597 99.4732C178.597 85.9878 167.665 75.0557 154.179 75.0557C140.694 75.0557 129.762 85.9878 129.762 99.4732C129.762 112.959 140.694 123.891 154.179 123.891Z" fill="white"/>
<path d="M154.179 124.542C149.215 124.544 144.362 123.075 140.233 120.319C136.105 117.563 132.886 113.645 130.984 109.059C129.083 104.474 128.584 99.4276 129.551 94.5587C130.518 89.6898 132.907 85.2169 136.416 81.7059C139.925 78.1949 144.396 75.8034 149.265 74.834C154.133 73.8646 159.18 74.3608 163.766 76.2598C168.353 78.1588 172.273 81.3754 175.031 85.5026C177.789 89.6298 179.261 94.4823 179.261 99.4462C179.254 106.097 176.61 112.474 171.908 117.179C167.206 121.883 160.83 124.531 154.179 124.542ZM154.179 75.7337C149.483 75.731 144.891 77.1214 140.985 79.7289C137.079 82.3364 134.034 86.0439 132.236 90.3823C130.437 94.7207 129.966 99.4951 130.882 104.101C131.797 108.708 134.058 112.939 137.379 116.26C140.7 119.581 144.931 121.842 149.538 122.757C154.144 123.673 158.918 123.202 163.257 121.403C167.595 119.605 171.303 116.56 173.91 112.654C176.518 108.748 177.908 104.156 177.905 99.4598C177.898 93.1695 175.396 87.1388 170.948 82.6909C166.5 78.2429 160.47 75.7409 154.179 75.7337Z" fill="#181A1E"/>
<path d="M154.178 114.536C162.497 114.536 169.241 107.792 169.241 99.4733C169.241 91.1544 162.497 84.4106 154.178 84.4106C145.859 84.4106 139.115 91.1544 139.115 99.4733C139.115 107.792 145.859 114.536 154.178 114.536Z" fill="#181A1E"/>
<path d="M154.18 115.214C151.067 115.214 148.024 114.291 145.435 112.561C142.846 110.832 140.829 108.373 139.638 105.497C138.446 102.621 138.135 99.456 138.742 96.4026C139.349 93.3493 140.848 90.5446 143.05 88.3432C145.251 86.1419 148.056 84.6427 151.109 84.0354C154.163 83.428 157.327 83.7397 160.204 84.9311C163.08 86.1225 165.538 88.14 167.268 90.7285C168.997 93.317 169.921 96.3603 169.921 99.4735C169.921 103.648 168.262 107.652 165.31 110.604C162.358 113.556 158.355 115.214 154.18 115.214ZM154.18 85.0887C151.335 85.0887 148.554 85.9323 146.188 87.513C143.823 89.0936 141.979 91.3402 140.89 93.9687C139.801 96.5971 139.517 99.4894 140.072 102.28C140.627 105.07 141.997 107.633 144.008 109.645C146.02 111.657 148.583 113.027 151.374 113.582C154.164 114.137 157.056 113.852 159.685 112.763C162.313 111.675 164.56 109.831 166.141 107.465C167.721 105.1 168.565 102.319 168.565 99.4735C168.561 95.6595 167.045 92.0027 164.348 89.3059C161.651 86.609 157.994 85.0923 154.18 85.0887Z" fill="#181A1E"/>
<path d="M166.122 98.7819C165.962 98.7836 165.805 98.7268 165.683 98.6221C165.561 98.5173 165.481 98.3718 165.458 98.2125C163.913 87.6646 154.612 88.1256 154.219 88.1527C154.042 88.1604 153.869 88.1001 153.735 87.9841C153.601 87.8681 153.517 87.7052 153.5 87.529C153.493 87.4406 153.503 87.3517 153.531 87.2674C153.558 87.1831 153.602 87.1052 153.66 87.0382C153.719 86.9712 153.79 86.9166 153.869 86.8775C153.949 86.8384 154.035 86.8156 154.124 86.8104C154.232 86.8104 165.065 86.2139 166.787 98.0227C166.81 98.1986 166.764 98.3766 166.657 98.5186C166.551 98.6605 166.393 98.7551 166.217 98.7819H166.122Z" fill="white"/>
<path d="M148.917 89.5763C148.816 89.5748 148.716 89.551 148.624 89.5065C148.533 89.462 148.452 89.3978 148.389 89.3187C148.279 89.1765 148.231 88.9968 148.254 88.8189C148.276 88.6411 148.369 88.4795 148.511 88.3696C149.335 87.7637 150.293 87.3639 151.304 87.2037C151.483 87.1844 151.663 87.236 151.804 87.3475C151.946 87.4589 152.039 87.6214 152.063 87.8002C152.074 87.8875 152.068 87.9763 152.045 88.0612C152.021 88.1462 151.982 88.2257 151.927 88.2951C151.873 88.3644 151.806 88.4224 151.729 88.4654C151.652 88.5085 151.567 88.5358 151.48 88.5459C150.705 88.6696 149.97 88.9763 149.338 89.4407C149.216 89.5297 149.068 89.5773 148.917 89.5763Z" fill="white"/>
<path d="M176.412 179.898H176.195C176.027 179.839 175.889 179.717 175.81 179.557C175.731 179.397 175.719 179.213 175.775 179.044C179.99 165.643 183.399 152.002 185.984 138.194C186 138.105 186.033 138.02 186.082 137.944C186.131 137.868 186.194 137.802 186.269 137.751C186.343 137.699 186.427 137.663 186.515 137.643C186.603 137.624 186.695 137.622 186.784 137.638C186.873 137.654 186.958 137.688 187.034 137.737C187.11 137.785 187.176 137.849 187.227 137.923C187.279 137.997 187.315 138.081 187.335 138.17C187.354 138.258 187.356 138.349 187.34 138.438C184.756 152.309 181.328 166.01 177.076 179.464C177.027 179.598 176.936 179.713 176.816 179.791C176.696 179.869 176.555 179.907 176.412 179.898Z" fill="white"/>
<path d="M156.47 217.846C156.302 217.843 156.14 217.778 156.017 217.663C155.895 217.547 155.819 217.39 155.806 217.222L154.45 199.896C154.442 199.807 154.453 199.718 154.48 199.634C154.508 199.55 154.552 199.472 154.61 199.405C154.668 199.338 154.739 199.283 154.819 199.244C154.898 199.205 154.985 199.182 155.073 199.177C155.162 199.17 155.251 199.18 155.335 199.208C155.419 199.235 155.497 199.279 155.564 199.337C155.631 199.396 155.686 199.466 155.725 199.546C155.764 199.626 155.787 199.712 155.792 199.801L157.148 217.114C157.155 217.203 157.145 217.293 157.118 217.378C157.09 217.463 157.046 217.542 156.988 217.61C156.93 217.678 156.859 217.734 156.78 217.774C156.7 217.815 156.613 217.839 156.524 217.846H156.47Z" fill="#181A1E"/>
<path d="M142.506 227.96H142.411C142.233 227.937 142.072 227.843 141.962 227.701C141.853 227.559 141.805 227.379 141.828 227.201L144.187 208.939C144.21 208.759 144.304 208.596 144.448 208.485C144.591 208.375 144.773 208.326 144.953 208.349C145.133 208.372 145.296 208.466 145.406 208.61C145.517 208.753 145.566 208.935 145.543 209.115L143.184 227.377C143.161 227.54 143.079 227.689 142.954 227.796C142.83 227.904 142.67 227.962 142.506 227.96Z" fill="#181A1E"/>
<path d="M164.89 231.838C164.729 231.839 164.573 231.782 164.451 231.678C164.329 231.573 164.249 231.428 164.226 231.268L161.758 216.355C161.731 216.177 161.773 215.996 161.877 215.849C161.981 215.702 162.137 215.601 162.314 215.568C162.492 215.541 162.673 215.583 162.82 215.687C162.967 215.791 163.067 215.948 163.101 216.124L165.568 231.038C165.595 231.214 165.553 231.394 165.449 231.538C165.345 231.683 165.188 231.781 165.012 231.811L164.89 231.838Z" fill="#181A1E"/>
<path d="M84.4259 108.354C84.2472 108.35 84.0768 108.278 83.9505 108.151C83.8241 108.025 83.7515 107.854 83.748 107.676V103.351C83.748 103.171 83.8195 102.999 83.9466 102.871C84.0737 102.744 84.2461 102.673 84.4259 102.673C84.6057 102.673 84.7782 102.744 84.9053 102.871C85.0324 102.999 85.1038 103.171 85.1038 103.351V107.676C85.1038 107.855 85.0324 108.028 84.9053 108.155C84.7782 108.282 84.6057 108.354 84.4259 108.354Z" fill="#D1D3D4"/>
<path d="M84.4259 117.383C84.2461 117.383 84.0737 117.312 83.9466 117.184C83.8195 117.057 83.748 116.885 83.748 116.705V112.34C83.748 112.16 83.8195 111.987 83.9466 111.86C84.0737 111.733 84.2461 111.662 84.4259 111.662C84.6057 111.662 84.7782 111.733 84.9053 111.86C85.0324 111.987 85.1038 112.16 85.1038 112.34V116.664C85.1094 116.757 85.096 116.849 85.0644 116.936C85.0328 117.023 84.9838 117.103 84.9203 117.17C84.8568 117.238 84.7801 117.291 84.6951 117.328C84.6101 117.364 84.5185 117.383 84.4259 117.383Z" fill="#D1D3D4"/>
<path d="M91.1085 110.699H86.7835C86.6038 110.699 86.4313 110.628 86.3042 110.5C86.1771 110.373 86.1057 110.201 86.1057 110.021C86.1057 109.841 86.1771 109.669 86.3042 109.542C86.4313 109.415 86.6038 109.343 86.7835 109.343H91.1085C91.2883 109.343 91.4607 109.415 91.5878 109.542C91.7149 109.669 91.7864 109.841 91.7864 110.021C91.7864 110.201 91.7149 110.373 91.5878 110.5C91.4607 110.628 91.2883 110.699 91.1085 110.699Z" fill="#D1D3D4"/>
<path d="M82.0789 110.699H77.7404C77.5606 110.699 77.3882 110.628 77.2611 110.5C77.1339 110.373 77.0625 110.201 77.0625 110.021C77.066 109.842 77.1385 109.672 77.2649 109.546C77.3913 109.419 77.5617 109.347 77.7404 109.343H82.0789C82.2576 109.347 82.428 109.419 82.5544 109.546C82.6808 109.672 82.7533 109.842 82.7568 110.021C82.7568 110.201 82.6853 110.373 82.5582 110.5C82.4311 110.628 82.2587 110.699 82.0789 110.699Z" fill="#D1D3D4"/>
<path d="M42.6525 126.223C42.4727 126.223 42.3003 126.151 42.1732 126.024C42.046 125.897 41.9746 125.725 41.9746 125.545V121.22C41.9746 121.04 42.046 120.868 42.1732 120.741C42.3003 120.613 42.4727 120.542 42.6525 120.542C42.8323 120.542 43.0047 120.613 43.1318 120.741C43.259 120.868 43.3304 121.04 43.3304 121.22V125.545C43.3304 125.725 43.259 125.897 43.1318 126.024C43.0047 126.151 42.8323 126.223 42.6525 126.223Z" fill="#D1D3D4"/>
<path d="M42.6525 135.266C42.4727 135.266 42.3003 135.194 42.1732 135.067C42.046 134.94 41.9746 134.768 41.9746 134.588V130.263C41.9746 130.083 42.046 129.911 42.1732 129.783C42.3003 129.656 42.4727 129.585 42.6525 129.585C42.8323 129.585 43.0047 129.656 43.1318 129.783C43.259 129.911 43.3304 130.083 43.3304 130.263V134.588C43.3304 134.768 43.259 134.94 43.1318 135.067C43.0047 135.194 42.8323 135.266 42.6525 135.266Z" fill="#D1D3D4"/>
<path d="M49.3388 128.609H45.0138C44.834 128.609 44.6616 128.538 44.5345 128.41C44.4074 128.283 44.3359 128.111 44.3359 127.931C44.3359 127.751 44.4074 127.579 44.5345 127.452C44.6616 127.325 44.834 127.253 45.0138 127.253H49.3388C49.5185 127.253 49.691 127.325 49.8181 127.452C49.9452 127.579 50.0166 127.751 50.0166 127.931C50.0166 128.111 49.9452 128.283 49.8181 128.41C49.691 128.538 49.5185 128.609 49.3388 128.609Z" fill="#D1D3D4"/>
<path d="M40.2938 128.609H35.9689C35.7891 128.609 35.6167 128.538 35.4896 128.41C35.3624 128.283 35.291 128.111 35.291 127.931C35.291 127.751 35.3624 127.579 35.4896 127.452C35.6167 127.325 35.7891 127.253 35.9689 127.253H40.2938C40.4736 127.253 40.646 127.325 40.7732 127.452C40.9003 127.579 40.9717 127.751 40.9717 127.931C40.9717 128.111 40.9003 128.283 40.7732 128.41C40.646 128.538 40.4736 128.609 40.2938 128.609Z" fill="#D1D3D4"/>
<path d="M218.238 96.4092C218.059 96.4092 217.886 96.3378 217.759 96.2107C217.632 96.0835 217.561 95.9111 217.561 95.7313V91.4064C217.561 91.2266 217.632 91.0542 217.759 90.9271C217.886 90.7999 218.059 90.7285 218.238 90.7285C218.418 90.7285 218.591 90.7999 218.718 90.9271C218.845 91.0542 218.916 91.2266 218.916 91.4064V95.7313C218.916 95.9111 218.845 96.0835 218.718 96.2107C218.591 96.3378 218.418 96.4092 218.238 96.4092Z" fill="#D1D3D4"/>
<path d="M218.238 105.439C218.059 105.439 217.886 105.367 217.759 105.24C217.632 105.113 217.561 104.941 217.561 104.761V100.436C217.564 100.257 217.637 100.087 217.763 99.9604C217.889 99.8341 218.06 99.7615 218.238 99.7581C218.418 99.7581 218.591 99.8295 218.718 99.9566C218.845 100.084 218.916 100.256 218.916 100.436V104.761C218.916 104.941 218.845 105.113 218.718 105.24C218.591 105.367 218.418 105.439 218.238 105.439Z" fill="#D1D3D4"/>
<path d="M224.923 98.782H220.598C220.418 98.782 220.246 98.7106 220.118 98.5835C219.991 98.4564 219.92 98.2839 219.92 98.1042C219.92 97.9244 219.991 97.7519 220.118 97.6248C220.246 97.4977 220.418 97.4263 220.598 97.4263H224.923C225.103 97.4263 225.275 97.4977 225.402 97.6248C225.529 97.7519 225.601 97.9244 225.601 98.1042C225.601 98.2839 225.529 98.4564 225.402 98.5835C225.275 98.7106 225.103 98.782 224.923 98.782Z" fill="#D1D3D4"/>
<path d="M215.893 98.782H211.569C211.389 98.782 211.216 98.7106 211.089 98.5835C210.962 98.4564 210.891 98.2839 210.891 98.1042C210.891 97.9244 210.962 97.7519 211.089 97.6248C211.216 97.4977 211.389 97.4263 211.569 97.4263H215.893C216.073 97.4263 216.246 97.4977 216.373 97.6248C216.5 97.7519 216.571 97.9244 216.571 98.1042C216.568 98.2829 216.495 98.4533 216.369 98.5797C216.243 98.706 216.072 98.7786 215.893 98.782Z" fill="#D1D3D4"/>
<path d="M267.143 121.708C266.963 121.708 266.79 121.637 266.663 121.509C266.536 121.382 266.465 121.21 266.465 121.03V116.705C266.465 116.525 266.536 116.353 266.663 116.226C266.79 116.099 266.963 116.027 267.143 116.027C267.323 116.027 267.495 116.099 267.622 116.226C267.749 116.353 267.821 116.525 267.821 116.705V121.03C267.821 121.21 267.749 121.382 267.622 121.509C267.495 121.637 267.323 121.708 267.143 121.708Z" fill="#D1D3D4"/>
<path d="M267.143 130.738C266.963 130.738 266.79 130.666 266.663 130.539C266.536 130.412 266.465 130.239 266.465 130.06V125.735C266.465 125.555 266.536 125.383 266.663 125.255C266.79 125.128 266.963 125.057 267.143 125.057C267.321 125.06 267.492 125.133 267.618 125.259C267.745 125.386 267.817 125.556 267.821 125.735V130.06C267.821 130.239 267.749 130.412 267.622 130.539C267.495 130.666 267.323 130.738 267.143 130.738Z" fill="#D1D3D4"/>
<path d="M273.813 124.067H269.488C269.31 124.064 269.139 123.991 269.013 123.865C268.887 123.738 268.814 123.568 268.811 123.389C268.811 123.21 268.882 123.037 269.009 122.91C269.136 122.783 269.309 122.711 269.488 122.711H273.813C273.993 122.711 274.166 122.783 274.293 122.91C274.42 123.037 274.491 123.21 274.491 123.389C274.491 123.569 274.42 123.742 274.293 123.869C274.166 123.996 273.993 124.067 273.813 124.067Z" fill="#D1D3D4"/>
<path d="M264.784 124.067H260.459C260.279 124.067 260.107 123.996 259.98 123.869C259.853 123.742 259.781 123.569 259.781 123.389C259.781 123.21 259.853 123.037 259.98 122.91C260.107 122.783 260.279 122.711 260.459 122.711H264.784C264.964 122.711 265.136 122.783 265.263 122.91C265.391 123.037 265.462 123.21 265.462 123.389C265.462 123.569 265.391 123.742 265.263 123.869C265.136 123.996 264.964 124.067 264.784 124.067Z" fill="#D1D3D4"/>
<path d="M236.123 55.5057C235.943 55.5057 235.771 55.4342 235.644 55.3071C235.517 55.18 235.445 55.0076 235.445 54.8278V50.5028C235.445 50.3231 235.517 50.1506 235.644 50.0235C235.771 49.8964 235.943 49.825 236.123 49.825C236.303 49.825 236.475 49.8964 236.603 50.0235C236.73 50.1506 236.801 50.3231 236.801 50.5028V54.8278C236.801 55.0076 236.73 55.18 236.603 55.3071C236.475 55.4342 236.303 55.5057 236.123 55.5057Z" fill="#D1D3D4"/>
<path d="M236.123 64.5486C235.943 64.5486 235.771 64.4772 235.644 64.3501C235.517 64.2229 235.445 64.0505 235.445 63.8707V59.5458C235.445 59.366 235.517 59.1936 235.644 59.0665C235.771 58.9393 235.943 58.8679 236.123 58.8679C236.303 58.8679 236.475 58.9393 236.603 59.0665C236.73 59.1936 236.801 59.366 236.801 59.5458V63.8707C236.801 64.0505 236.73 64.2229 236.603 64.3501C236.475 64.4772 236.303 64.5486 236.123 64.5486Z" fill="#D1D3D4"/>
<path d="M242.806 57.8646H238.481C238.301 57.8646 238.128 57.7931 238.001 57.666C237.874 57.5389 237.803 57.3665 237.803 57.1867C237.803 57.0069 237.874 56.8345 238.001 56.7073C238.128 56.5802 238.301 56.5088 238.481 56.5088H242.806C242.985 56.5088 243.158 56.5802 243.285 56.7073C243.412 56.8345 243.483 57.0069 243.483 57.1867C243.483 57.3665 243.412 57.5389 243.285 57.666C243.158 57.7931 242.985 57.8646 242.806 57.8646Z" fill="#D1D3D4"/>
<path d="M233.765 57.8646H229.44C229.26 57.8646 229.087 57.7931 228.96 57.666C228.833 57.5389 228.762 57.3665 228.762 57.1867C228.762 57.0069 228.833 56.8345 228.96 56.7073C229.087 56.5802 229.26 56.5088 229.44 56.5088H233.765C233.944 56.5088 234.117 56.5802 234.244 56.7073C234.371 56.8345 234.442 57.0069 234.442 57.1867C234.442 57.3665 234.371 57.5389 234.244 57.666C234.117 57.7931 233.944 57.8646 233.765 57.8646Z" fill="#D1D3D4"/>
<path d="M121.91 269.217H121.802C121.624 269.196 121.462 269.106 121.35 268.967C121.238 268.827 121.186 268.649 121.205 268.471C121.205 268.186 124.351 240.908 111.877 229.452C106.807 224.788 99.7703 223.337 90.9578 225.14C90.861 225.164 90.7601 225.164 90.6634 225.14C90.5667 225.116 90.477 225.07 90.4019 225.005C90.3233 224.946 90.2593 224.871 90.2146 224.784C90.1699 224.697 90.1459 224.601 90.1443 224.503C90.1443 224.245 89.2766 198.743 73.1836 187.992C63.7745 181.701 51.0031 181.538 35.2218 187.545C35.108 187.585 34.9856 187.595 34.8666 187.574C34.7477 187.553 34.6364 187.5 34.544 187.423C34.4518 187.341 34.3823 187.237 34.3419 187.121C34.3015 187.004 34.2917 186.879 34.3135 186.758C34.3135 186.65 36.7268 175.532 30.5986 169.621C26.3415 165.554 18.9661 164.808 8.68931 167.506C8.60293 167.531 8.51251 167.537 8.42352 167.526C8.33452 167.514 8.24879 167.485 8.1715 167.439C8.09421 167.393 8.02697 167.333 7.97382 167.26C7.92068 167.188 7.88273 167.106 7.86229 167.018C7.81655 166.846 7.84073 166.662 7.92957 166.507C8.01842 166.352 8.16475 166.239 8.33681 166.191C19.1017 163.371 26.9109 164.198 31.5477 168.659C36.9708 173.946 36.3336 182.677 35.8591 185.863C51.5589 180.115 64.3303 180.44 73.9428 186.88C82.674 192.737 86.9854 202.648 89.0597 209.928C90.3305 214.407 91.1347 219.005 91.4594 223.649C100.367 221.995 107.539 223.649 112.799 228.448C125.774 240.379 122.696 267.468 122.561 268.606C122.545 268.77 122.47 268.921 122.35 269.034C122.23 269.146 122.074 269.211 121.91 269.217Z" fill="#D1D3D4"/>
<path d="M255.767 265.42C226.342 292.324 187.541 306.617 147.695 305.23C107.849 303.844 70.1357 286.888 42.6523 258.004C43.6421 257.489 44.6589 257.015 45.7028 256.648C72.5336 245.802 87.1218 268.159 87.1218 268.159C87.1218 268.159 94.1176 231.214 136.716 231.214C179.315 231.214 189.225 260.282 189.225 260.282C189.225 260.282 197.97 242.657 217.222 243.931C236.474 245.206 239.389 269.257 239.389 269.257C244.547 266.926 250.11 265.623 255.767 265.42Z" fill="white"/>
<path d="M152.986 305.999C132.251 306.087 111.718 301.921 92.6568 293.759C73.5956 285.598 56.4108 273.613 42.1648 258.547C42.092 258.47 42.0381 258.377 42.0075 258.276C41.9769 258.175 41.9704 258.068 41.9886 257.964C42.0025 257.859 42.042 257.76 42.1035 257.675C42.165 257.59 42.2466 257.522 42.3411 257.476C43.3506 256.944 44.3869 256.464 45.4458 256.038C59.573 250.303 70.3107 253.801 76.832 257.747C80.6588 260.08 84.038 263.078 86.8105 266.6C88.695 259.685 98.9176 230.55 136.717 230.55C174.068 230.55 186.718 253.042 189.321 258.763C191.788 254.696 200.831 242.223 217.263 243.267C234.685 244.365 239.132 263.807 239.918 268.281C244.941 266.183 250.301 265.008 255.74 264.81C255.878 264.809 256.013 264.848 256.128 264.923C256.244 264.998 256.335 265.105 256.391 265.231C256.443 265.359 256.455 265.5 256.426 265.635C256.397 265.771 256.328 265.894 256.228 265.99C228.031 291.772 191.193 306.047 152.986 305.999ZM43.7782 258.194C70.9713 286.444 108.051 303.061 147.233 304.557C186.416 306.054 224.655 292.314 253.923 266.22C249.029 266.591 244.235 267.806 239.756 269.813C239.659 269.863 239.552 269.889 239.444 269.889C239.335 269.889 239.228 269.863 239.132 269.813C239.038 269.76 238.957 269.686 238.896 269.597C238.834 269.507 238.795 269.405 238.779 269.298C238.141 265.12 236.856 261.068 234.97 257.286C230.902 249.327 224.964 245.084 217.25 244.569C198.662 243.403 189.985 260.377 189.904 260.54C189.842 260.658 189.748 260.756 189.633 260.824C189.518 260.891 189.386 260.924 189.253 260.919C189.118 260.912 188.989 260.864 188.883 260.782C188.776 260.699 188.697 260.586 188.656 260.458C188.548 260.173 178.352 231.851 136.784 231.851C95.2163 231.851 87.9087 267.861 87.7867 268.254C87.7615 268.387 87.6971 268.509 87.6019 268.605C87.5066 268.701 87.3848 268.766 87.2522 268.793C87.1195 268.819 86.9821 268.805 86.8575 268.752C86.7328 268.7 86.6268 268.611 86.5529 268.498C83.744 264.608 80.1796 261.325 76.0728 258.845C66.9891 253.422 56.8614 252.825 45.961 257.245C45.2424 257.516 44.5239 257.842 43.7782 258.194Z" fill="#181A1E"/>
<path d="M205.318 272.782C205.223 272.783 205.129 272.762 205.042 272.723C204.955 272.683 204.878 272.624 204.817 272.552C196.085 262.912 188.547 260.499 183.68 260.173C180.77 259.907 177.845 260.462 175.234 261.773C175.082 261.849 174.907 261.866 174.743 261.819C174.58 261.772 174.44 261.666 174.352 261.521C174.263 261.376 174.232 261.203 174.265 261.036C174.297 260.87 174.392 260.721 174.529 260.621C174.664 260.539 188.371 252.364 205.82 271.643C205.904 271.742 205.959 271.863 205.977 271.991C205.996 272.12 205.978 272.251 205.926 272.37C205.874 272.489 205.789 272.59 205.681 272.663C205.574 272.736 205.448 272.777 205.318 272.782Z" fill="#181A1E"/>
<path d="M236.15 240.827C235.979 240.827 235.814 240.763 235.689 240.648C235.563 240.532 235.485 240.373 235.472 240.203C235.472 239.661 234.577 227.025 243.606 218.239C250.25 211.759 260.445 209.169 273.894 210.566C273.983 210.575 274.07 210.601 274.149 210.643C274.228 210.686 274.297 210.743 274.354 210.812C274.411 210.881 274.453 210.961 274.479 211.047C274.505 211.132 274.513 211.222 274.505 211.311C274.496 211.4 274.469 211.487 274.427 211.566C274.385 211.644 274.327 211.714 274.258 211.771C274.189 211.828 274.109 211.87 274.023 211.896C273.938 211.922 273.848 211.93 273.759 211.921C260.73 210.566 250.9 213.033 244.555 219.216C235.987 227.567 236.828 239.986 236.841 240.108C236.849 240.197 236.838 240.287 236.811 240.372C236.783 240.457 236.74 240.536 236.682 240.604C236.624 240.672 236.553 240.728 236.473 240.768C236.393 240.809 236.307 240.833 236.217 240.84L236.15 240.827Z" fill="#D1D3D4"/>
<path d="M77.741 75.8965C74.0405 75.8965 70.4232 74.7992 67.3464 72.7433C64.2696 70.6875 61.8715 67.7654 60.4554 64.3467C59.0394 60.9279 58.6688 57.166 59.3908 53.5367C60.1127 49.9074 61.8946 46.5736 64.5112 43.957C67.1278 41.3404 70.4616 39.5585 74.0909 38.8366C77.7202 38.1146 81.4821 38.4852 84.9009 39.9013C88.3196 41.3173 91.2417 43.7154 93.2975 46.7922C95.3534 49.869 96.4507 53.4863 96.4507 57.1868C96.4471 62.1478 94.4747 66.9046 90.9667 70.4126C87.4588 73.9205 82.702 75.8929 77.741 75.8965ZM77.741 39.8328C74.3087 39.8328 70.9535 40.8506 68.0996 42.7575C65.2458 44.6644 63.0215 47.3747 61.708 50.5457C60.3946 53.7167 60.0509 57.206 60.7205 60.5723C61.3901 63.9387 63.0429 67.0308 65.4699 69.4578C67.8969 71.8848 70.989 73.5376 74.3554 74.2072C77.7217 74.8768 81.211 74.5332 84.382 73.2197C87.553 71.9062 90.2633 69.6819 92.1702 66.8281C94.0771 63.9742 95.0949 60.619 95.0949 57.1868C95.0913 52.5853 93.2618 48.1734 90.0081 44.9196C86.7544 41.6659 82.3424 39.8364 77.741 39.8328Z" fill="#D1D3D4"/>
<path d="M55.4652 214.701C55.3381 214.701 55.2136 214.665 55.1057 214.598C54.9978 214.531 54.911 214.435 54.8551 214.321C38.5858 180.427 14.7648 191.042 14.5343 191.151C14.3707 191.228 14.1831 191.237 14.0127 191.176C13.8424 191.115 13.7033 190.989 13.6259 190.825C13.5486 190.662 13.5395 190.474 13.6005 190.304C13.6615 190.134 13.7877 189.994 13.9513 189.917C14.1954 189.809 39.1823 178.583 56.0753 213.725C56.1146 213.805 56.1378 213.892 56.1434 213.981C56.149 214.07 56.1369 214.159 56.108 214.243C56.079 214.328 56.0337 214.406 55.9745 214.473C55.9154 214.539 55.8437 214.594 55.7634 214.633C55.6716 214.681 55.5688 214.704 55.4652 214.701Z" fill="#D1D3D4"/>
</svg>
