<svg width="164" height="33" viewBox="0 0 164 33" fill="none" xmlns="http://www.w3.org/2000/svg">
<path d="M10.0349 24.7052V7.89381H21.1659V10.8243H13.5892V14.8302H20.4271V17.7607H13.5892V24.7052H10.0349ZM23.491 24.7052V12.0967H26.9879V24.7052H23.491ZM25.2476 10.4713C24.7277 10.4713 24.2817 10.299 23.9096 9.95419C23.5429 9.60396 23.3596 9.18531 23.3596 8.69827C23.3596 8.21669 23.5429 7.80352 23.9096 7.45876C24.2817 7.10852 24.7277 6.9334 25.2476 6.9334C25.7675 6.9334 26.2108 7.10852 26.5774 7.45876C26.9496 7.80352 27.1356 8.21669 27.1356 8.69827C27.1356 9.18531 26.9496 9.60396 26.5774 9.95419C26.2108 10.299 25.7675 10.4713 25.2476 10.4713ZM36.5694 12.0967V14.7234H28.7876V12.0967H36.5694ZM30.5689 24.7052V11.1855C30.5689 10.2716 30.7468 9.51366 31.1025 8.91169C31.4636 8.30972 31.9562 7.85824 32.58 7.55726C33.2039 7.25627 33.9126 7.10578 34.7061 7.10578C35.2424 7.10578 35.7322 7.14682 36.1754 7.22891C36.6242 7.311 36.958 7.38488 37.1769 7.45055L36.553 10.0773C36.4162 10.0335 36.2466 9.9925 36.0441 9.95419C35.8471 9.91589 35.6446 9.89673 35.4366 9.89673C34.9222 9.89673 34.5638 10.0171 34.3613 10.2579C34.1588 10.4932 34.0576 10.8243 34.0576 11.2512V24.7052H30.5689ZM45.4123 12.0967V14.7234H37.8192V12.0967H45.4123ZM39.543 9.07587H43.0399V20.8307C43.0399 21.1536 43.0892 21.4053 43.1877 21.5859C43.2862 21.761 43.423 21.8841 43.5981 21.9553C43.7787 22.0264 43.9867 22.062 44.222 22.062C44.3862 22.062 44.5503 22.0483 44.7145 22.021C44.8787 21.9881 45.0046 21.9635 45.0921 21.9471L45.6421 24.5492C45.467 24.604 45.2207 24.6669 44.9033 24.738C44.5859 24.8146 44.2001 24.8612 43.7459 24.8776C42.9031 24.9104 42.1643 24.7982 41.5295 24.541C40.9002 24.2838 40.4104 23.8843 40.0602 23.3426C39.71 22.8008 39.5376 22.1167 39.543 21.2904V9.07587ZM51.4579 17.4159V24.7052H47.961V7.89381H51.3594V14.3212H51.5072C51.7918 13.577 52.2515 12.9941 52.8863 12.5728C53.5211 12.1459 54.3173 11.9325 55.275 11.9325C56.1506 11.9325 56.914 12.124 57.5652 12.5071C58.2219 12.8847 58.7308 13.4292 59.092 14.1406C59.4587 14.8466 59.6393 15.6921 59.6338 16.6771V24.7052H56.1369V17.301C56.1424 16.5239 55.9454 15.9192 55.5459 15.4868C55.1519 15.0545 54.5991 14.8384 53.8877 14.8384C53.4116 14.8384 52.9902 14.9396 52.6236 15.1421C52.2624 15.3446 51.9778 15.6401 51.7699 16.0286C51.5674 16.4117 51.4634 16.8741 51.4579 17.4159Z" fill="#EF8435"/>
<path d="M61.8111 10.8243V7.89381H75.6182V10.8243H70.4713V24.7052H66.958V10.8243H61.8111ZM76.517 24.7052V12.0967H79.9072V14.2966H80.0385C80.2684 13.514 80.6542 12.923 81.196 12.5235C81.7377 12.1186 82.3616 11.9161 83.0675 11.9161C83.2427 11.9161 83.4315 11.927 83.6339 11.9489C83.8364 11.9708 84.0143 12.0009 84.1675 12.0392V15.1421C84.0033 15.0928 83.7762 15.0491 83.4862 15.0107C83.1961 14.9724 82.9307 14.9533 82.6899 14.9533C82.1755 14.9533 81.7158 15.0655 81.3109 15.2898C80.9114 15.5087 80.594 15.8152 80.3587 16.2092C80.1288 16.6032 80.0139 17.0574 80.0139 17.5719V24.7052H76.517ZM88.5181 29.4334C88.0748 29.4334 87.6589 29.3978 87.2704 29.3267C86.8873 29.261 86.5699 29.1762 86.3182 29.0722L87.1062 26.4619C87.5166 26.5877 87.886 26.6561 88.2144 26.6671C88.5482 26.678 88.8355 26.6014 89.0763 26.4372C89.3226 26.2731 89.5223 25.994 89.6755 25.5999L89.8807 25.0664L85.3578 12.0967H89.0353L91.6456 21.3561H91.777L94.4119 12.0967H98.1141L93.2135 26.0678C92.9782 26.7464 92.658 27.3375 92.2531 27.8409C91.8536 28.3499 91.3474 28.7411 90.7345 29.0148C90.1215 29.2939 89.3828 29.4334 88.5181 29.4334Z" fill="white"/>
<path d="M111.346 16.5512L109.896 16.9617C109.805 16.72 109.67 16.4851 109.493 16.2571C109.319 16.0245 109.082 15.833 108.781 15.6825C108.48 15.532 108.095 15.4567 107.625 15.4567C106.982 15.4567 106.446 15.605 106.018 15.9014C105.593 16.1932 105.381 16.5649 105.381 17.0164C105.381 17.4177 105.527 17.7347 105.819 17.9672C106.111 18.1998 106.567 18.3936 107.187 18.5487L108.747 18.9318C109.686 19.1598 110.386 19.5086 110.847 19.9784C111.308 20.4435 111.538 21.0432 111.538 21.7774C111.538 22.3794 111.365 22.9175 111.018 23.3918C110.676 23.8661 110.197 24.24 109.582 24.5137C108.966 24.7873 108.25 24.9241 107.434 24.9241C106.362 24.9241 105.475 24.6915 104.773 24.2264C104.07 23.7612 103.626 23.0817 103.439 22.1879L104.971 21.8048C105.117 22.3703 105.393 22.7944 105.799 23.0771C106.209 23.3599 106.745 23.5013 107.406 23.5013C108.159 23.5013 108.756 23.3416 109.198 23.0224C109.645 22.6986 109.869 22.311 109.869 21.8595C109.869 21.4947 109.741 21.1891 109.486 20.9429C109.23 20.6921 108.838 20.5051 108.309 20.382L106.558 19.9715C105.596 19.7435 104.889 19.3901 104.437 18.9112C103.99 18.4278 103.767 17.8236 103.767 17.0985C103.767 16.5056 103.933 15.9812 104.266 15.5252C104.604 15.0691 105.062 14.7111 105.641 14.4512C106.225 14.1912 106.886 14.0613 107.625 14.0613C108.665 14.0613 109.481 14.2893 110.074 14.7453C110.671 15.2014 111.096 15.8033 111.346 16.5512ZM115.582 10.6957V24.7052H113.968V10.6957H115.582ZM118.539 24.7052V14.1981H120.154V24.7052H118.539ZM119.36 12.4469C119.045 12.4469 118.774 12.3397 118.546 12.1254C118.323 11.9111 118.211 11.6534 118.211 11.3524C118.211 11.0514 118.323 10.7938 118.546 10.5794C118.774 10.3651 119.045 10.2579 119.36 10.2579C119.675 10.2579 119.944 10.3651 120.167 10.5794C120.395 10.7938 120.509 11.0514 120.509 11.3524C120.509 11.6534 120.395 11.9111 120.167 12.1254C119.944 12.3397 119.675 12.4469 119.36 12.4469ZM127.078 24.9241C126.202 24.9241 125.429 24.7029 124.759 24.2606C124.089 23.8136 123.564 23.1843 123.186 22.3726C122.807 21.5563 122.618 20.5917 122.618 19.479C122.618 18.3754 122.807 17.4177 123.186 16.606C123.564 15.7942 124.091 15.1672 124.766 14.7248C125.441 14.2825 126.221 14.0613 127.105 14.0613C127.789 14.0613 128.33 14.1753 128.727 14.4033C129.128 14.6268 129.433 14.8821 129.643 15.1694C129.858 15.4522 130.024 15.6848 130.143 15.8672H130.279V10.6957H131.894V24.7052H130.334V23.0908H130.143C130.024 23.2824 129.855 23.5241 129.636 23.8159C129.417 24.1032 129.105 24.3609 128.699 24.5889C128.293 24.8124 127.753 24.9241 127.078 24.9241ZM127.297 23.4739C127.944 23.4739 128.492 23.3052 128.939 22.9677C129.386 22.6257 129.725 22.1537 129.958 21.5517C130.19 20.9452 130.307 20.2451 130.307 19.4516C130.307 18.6673 130.193 17.9809 129.965 17.3926C129.737 16.7998 129.399 16.3392 128.952 16.0108C128.505 15.6779 127.954 15.5115 127.297 15.5115C126.613 15.5115 126.043 15.687 125.587 16.0382C125.135 16.3848 124.796 16.8568 124.567 17.4542C124.344 18.047 124.232 18.7129 124.232 19.4516C124.232 20.1995 124.346 20.879 124.574 21.4901C124.807 22.0967 125.149 22.5801 125.6 22.9403C126.056 23.296 126.622 23.4739 127.297 23.4739ZM139.48 24.9241C138.468 24.9241 137.594 24.7006 136.86 24.2537C136.13 23.8022 135.567 23.1729 135.17 22.3657C134.778 21.554 134.582 20.61 134.582 19.5337C134.582 18.4575 134.778 17.5089 135.17 16.6881C135.567 15.8626 136.119 15.2196 136.826 14.759C137.537 14.2939 138.367 14.0613 139.316 14.0613C139.863 14.0613 140.403 14.1525 140.937 14.3349C141.471 14.5173 141.956 14.8137 142.394 15.2242C142.832 15.63 143.181 16.1682 143.441 16.8385C143.701 17.5089 143.831 18.3343 143.831 19.3148V19.9989H135.731V18.6034H142.189C142.189 18.0106 142.07 17.4816 141.833 17.0164C141.601 16.5512 141.268 16.1841 140.834 15.9151C140.406 15.646 139.899 15.5115 139.316 15.5115C138.673 15.5115 138.116 15.6711 137.647 15.9903C137.182 16.305 136.824 16.7154 136.573 17.2216C136.322 17.7278 136.196 18.2705 136.196 18.8497V19.78C136.196 20.5735 136.333 21.2462 136.607 21.798C136.885 22.3452 137.27 22.7625 137.763 23.0498C138.255 23.3325 138.828 23.4739 139.48 23.4739C139.904 23.4739 140.287 23.4146 140.629 23.296C140.976 23.1729 141.274 22.9905 141.525 22.7488C141.776 22.5025 141.97 22.197 142.107 21.8322L143.666 22.27C143.502 22.799 143.226 23.2641 142.839 23.6654C142.451 24.0622 141.972 24.3723 141.402 24.5958C140.832 24.8146 140.191 24.9241 139.48 24.9241ZM153.729 16.5512L152.279 16.9617C152.187 16.72 152.053 16.4851 151.875 16.2571C151.702 16.0245 151.465 15.833 151.164 15.6825C150.863 15.532 150.477 15.4567 150.008 15.4567C149.365 15.4567 148.829 15.605 148.4 15.9014C147.976 16.1932 147.764 16.5649 147.764 17.0164C147.764 17.4177 147.91 17.7347 148.202 17.9672C148.494 18.1998 148.95 18.3936 149.57 18.5487L151.129 18.9318C152.069 19.1598 152.769 19.5086 153.229 19.9784C153.69 20.4435 153.92 21.0432 153.92 21.7774C153.92 22.3794 153.747 22.9175 153.4 23.3918C153.058 23.8661 152.58 24.24 151.964 24.5137C151.348 24.7873 150.632 24.9241 149.816 24.9241C148.744 24.9241 147.857 24.6915 147.155 24.2264C146.453 23.7612 146.008 23.0817 145.821 22.1879L147.353 21.8048C147.499 22.3703 147.775 22.7944 148.181 23.0771C148.592 23.3599 149.127 23.5013 149.789 23.5013C150.541 23.5013 151.139 23.3416 151.581 23.0224C152.028 22.6986 152.251 22.311 152.251 21.8595C152.251 21.4947 152.124 21.1891 151.868 20.9429C151.613 20.6921 151.221 20.5051 150.692 20.382L148.94 19.9715C147.978 19.7435 147.271 19.3901 146.82 18.9112C146.373 18.4278 146.149 17.8236 146.149 17.0985C146.149 16.5056 146.316 15.9812 146.649 15.5252C146.986 15.0691 147.445 14.7111 148.024 14.4512C148.608 14.1912 149.269 14.0613 150.008 14.0613C151.047 14.0613 151.864 14.2893 152.456 14.7453C153.054 15.2014 153.478 15.8033 153.729 16.5512Z" fill="white"/>
</svg>
