<svg width="24" height="24" viewBox="0 0 24 24" fill="none" xmlns="http://www.w3.org/2000/svg">
<path d="M5.10449 5H11.1045C11.6545 5 12.1045 4.55 12.1045 4C12.1045 3.45 11.6545 3 11.1045 3H5.10449C4.00449 3 3.10449 3.9 3.10449 5V19C3.10449 20.1 4.00449 21 5.10449 21H11.1045C11.6545 21 12.1045 20.55 12.1045 20C12.1045 19.45 11.6545 19 11.1045 19H5.10449V5Z" fill="#D9D9D9"/>
<path d="M20.7545 11.65L17.9645 8.86C17.6445 8.54 17.1045 8.76 17.1045 9.21V11H10.1045C9.55449 11 9.10449 11.45 9.10449 12C9.10449 12.55 9.55449 13 10.1045 13H17.1045V14.79C17.1045 15.24 17.6445 15.46 17.9545 15.14L20.7445 12.35C20.9445 12.16 20.9445 11.84 20.7545 11.65Z" fill="#D9D9D9"/>
</svg>
