<svg width="105" height="22" viewBox="0 0 105 22" fill="none" xmlns="http://www.w3.org/2000/svg">
<path d="M0.8435 16.2214V7.54544H4.1934C4.27775 7.54544 4.37214 7.54945 4.47657 7.55749C4.58502 7.5615 4.69347 7.57355 4.80193 7.59364C5.25581 7.66192 5.6394 7.82058 5.9527 8.06961C6.27002 8.31463 6.50901 8.62391 6.66967 8.99746C6.83436 9.37101 6.9167 9.78473 6.9167 10.2386C6.9167 10.6885 6.83436 11.1002 6.66967 11.4737C6.50499 11.8473 6.26399 12.1586 5.94667 12.4076C5.63337 12.6526 5.25179 12.8093 4.80193 12.8776C4.69347 12.8936 4.58502 12.9057 4.47657 12.9137C4.37214 12.9217 4.27775 12.9258 4.1934 12.9258H1.72917V16.2214H0.8435ZM1.72917 12.0823H4.1693C4.2416 12.0823 4.32595 12.0782 4.42235 12.0702C4.51875 12.0622 4.61314 12.0481 4.70552 12.028C5.00276 11.9638 5.24577 11.8413 5.43455 11.6605C5.62735 11.4798 5.76994 11.2649 5.86232 11.0158C5.95872 10.7668 6.00692 10.5077 6.00692 10.2386C6.00692 9.96949 5.95872 9.71042 5.86232 9.46139C5.76994 9.20834 5.62735 8.99144 5.43455 8.81069C5.24577 8.62994 5.00276 8.50743 4.70552 8.44316C4.61314 8.42308 4.51875 8.41103 4.42235 8.40701C4.32595 8.39898 4.2416 8.39496 4.1693 8.39496H1.72917V12.0823ZM10.7978 16.4022C10.1512 16.4022 9.59886 16.2556 9.14096 15.9624C8.68306 15.6691 8.3316 15.2635 8.08659 14.7453C7.84157 14.2272 7.71906 13.6327 7.71906 12.9619C7.71906 12.2791 7.84358 11.6806 8.09261 11.1665C8.34164 10.6523 8.69511 10.2527 9.15301 9.96749C9.61493 9.67829 10.1632 9.53369 10.7978 9.53369C11.4485 9.53369 12.0028 9.68029 12.4607 9.97351C12.9227 10.2627 13.2741 10.6664 13.5151 11.1845C13.7601 11.6987 13.8826 12.2911 13.8826 12.9619C13.8826 13.6447 13.7601 14.2452 13.5151 14.7634C13.2701 15.2775 12.9166 15.6792 12.4547 15.9684C11.9928 16.2576 11.4405 16.4022 10.7978 16.4022ZM10.7978 15.5527C11.5208 15.5527 12.0591 15.3137 12.4125 14.8357C12.766 14.3537 12.9427 13.7291 12.9427 12.9619C12.9427 12.1746 12.764 11.548 12.4065 11.0821C12.053 10.6162 11.5168 10.3832 10.7978 10.3832C10.3118 10.3832 9.91015 10.4937 9.59284 10.7146C9.27954 10.9315 9.04456 11.2347 8.88791 11.6244C8.73528 12.01 8.65896 12.4558 8.65896 12.9619C8.65896 13.7452 8.83971 14.3738 9.20121 14.8477C9.56271 15.3177 10.0949 15.5527 10.7978 15.5527ZM16.3621 16.2214L14.3739 9.70841L15.2595 9.71444L16.8019 14.7694L18.3504 9.71444H19.1577L20.7061 14.7694L22.2606 9.71444H23.1402L21.152 16.2214H20.3808L18.754 11.0399L17.1333 16.2214H16.3621ZM26.7437 16.4022C26.1091 16.4022 25.5588 16.2616 25.0929 15.9804C24.631 15.6993 24.2715 15.3036 24.0144 14.7935C23.7574 14.2834 23.6288 13.6849 23.6288 12.9981C23.6288 12.2871 23.7553 11.6726 24.0084 11.1544C24.2614 10.6363 24.6169 10.2366 25.0748 9.95544C25.5367 9.67427 26.081 9.53369 26.7076 9.53369C27.3503 9.53369 27.8985 9.6823 28.3524 9.97954C28.8063 10.2728 29.1497 10.6945 29.3827 11.2448C29.6157 11.7951 29.7221 12.4518 29.702 13.215H28.7983V12.9017C28.7822 12.0582 28.5994 11.4215 28.25 10.9917C27.9046 10.562 27.3985 10.3471 26.7317 10.3471C26.0328 10.3471 25.4966 10.574 25.123 11.0279C24.7535 11.4818 24.5687 12.1285 24.5687 12.9679C24.5687 13.7873 24.7535 14.424 25.123 14.8779C25.4966 15.3277 26.0248 15.5527 26.7076 15.5527C27.1735 15.5527 27.5792 15.4462 27.9246 15.2333C28.2741 15.0164 28.5492 14.7051 28.7501 14.2995L29.5755 14.6188C29.3184 15.1851 28.9389 15.625 28.4368 15.9383C27.9387 16.2475 27.3744 16.4022 26.7437 16.4022ZM24.2554 13.215V12.4739H29.226V13.215H24.2554ZM31.0391 16.2214V9.71444H31.8344V11.2809L31.6778 11.0761C31.7501 10.8833 31.8444 10.7066 31.9609 10.5459C32.0774 10.3812 32.2039 10.2466 32.3405 10.1422C32.5092 9.99359 32.706 9.88113 32.931 9.80481C33.1559 9.72448 33.3828 9.67829 33.6118 9.66624C33.8407 9.65017 34.0496 9.66624 34.2384 9.71444V10.5459C34.0014 10.4856 33.7423 10.4716 33.4612 10.5037C33.18 10.5358 32.9209 10.6483 32.6839 10.8411C32.467 11.0098 32.3044 11.2127 32.1959 11.4496C32.0875 11.6826 32.0152 11.9316 31.979 12.1967C31.9429 12.4578 31.9248 12.7169 31.9248 12.974V16.2214H31.0391ZM38.0171 16.4022C37.3825 16.4022 36.8322 16.2616 36.3662 15.9804C35.9043 15.6993 35.5448 15.3036 35.2878 14.7935C35.0307 14.2834 34.9022 13.6849 34.9022 12.9981C34.9022 12.2871 35.0287 11.6726 35.2817 11.1544C35.5348 10.6363 35.8903 10.2366 36.3482 9.95544C36.8101 9.67427 37.3543 9.53369 37.9809 9.53369C38.6236 9.53369 39.1719 9.6823 39.6258 9.97954C40.0796 10.2728 40.4231 10.6945 40.656 11.2448C40.889 11.7951 40.9954 12.4518 40.9754 13.215H40.0716V12.9017C40.0555 12.0582 39.8728 11.4215 39.5233 10.9917C39.1779 10.562 38.6718 10.3471 38.005 10.3471C37.3061 10.3471 36.7699 10.574 36.3964 11.0279C36.0268 11.4818 35.8421 12.1285 35.8421 12.9679C35.8421 13.7873 36.0268 14.424 36.3964 14.8779C36.7699 15.3277 37.2981 15.5527 37.9809 15.5527C38.4469 15.5527 38.8526 15.4462 39.198 15.2333C39.5474 15.0164 39.8226 14.7051 40.0234 14.2995L40.8488 14.6188C40.5918 15.1851 40.2122 15.625 39.7101 15.9383C39.212 16.2475 38.6477 16.4022 38.0171 16.4022ZM35.5288 13.215V12.4739H40.4994V13.215H35.5288ZM44.8369 16.4022C44.2304 16.4022 43.7123 16.2516 43.2825 15.9503C42.8527 15.645 42.5233 15.2333 42.2944 14.7152C42.0654 14.197 41.9509 13.6126 41.9509 12.9619C41.9509 12.3152 42.0634 11.7328 42.2883 11.2147C42.5173 10.6965 42.8447 10.2868 43.2704 9.98556C43.6962 9.68431 44.2063 9.53369 44.8008 9.53369C45.4113 9.53369 45.9254 9.6823 46.3432 9.97954C46.7609 10.2768 47.0762 10.6845 47.2891 11.2026C47.506 11.7167 47.6144 12.3032 47.6144 12.9619C47.6144 13.6086 47.508 14.193 47.2951 14.7152C47.0822 15.2333 46.7689 15.645 46.3552 15.9503C45.9415 16.2516 45.4354 16.4022 44.8369 16.4022ZM44.9273 15.5768C45.3892 15.5768 45.7708 15.4643 46.072 15.2394C46.3733 15.0144 46.5982 14.7051 46.7468 14.3115C46.8955 13.9139 46.9698 13.464 46.9698 12.9619C46.9698 12.4518 46.8955 12.0019 46.7468 11.6123C46.5982 11.2187 46.3733 10.9114 46.072 10.6905C45.7748 10.4696 45.3993 10.3591 44.9454 10.3591C44.4794 10.3591 44.0938 10.4736 43.7886 10.7025C43.4833 10.9315 43.2564 11.2428 43.1077 11.6364C42.9631 12.03 42.8908 12.4719 42.8908 12.9619C42.8908 13.456 42.9652 13.9018 43.1138 14.2995C43.2664 14.6931 43.4933 15.0044 43.7946 15.2333C44.0958 15.4623 44.4734 15.5768 44.9273 15.5768ZM46.9698 16.2214V11.3231H46.8734V7.54544H47.7651V16.2214H46.9698ZM54.7898 16.4022C54.1914 16.4022 53.6853 16.2516 53.2715 15.9503C52.8578 15.645 52.5445 15.2333 52.3316 14.7152C52.1188 14.193 52.0123 13.6086 52.0123 12.9619C52.0123 12.3032 52.1188 11.7167 52.3316 11.2026C52.5485 10.6845 52.8659 10.2768 53.2836 9.97954C53.7013 9.6823 54.2155 9.53369 54.826 9.53369C55.4205 9.53369 55.9306 9.68431 56.3563 9.98556C56.7821 10.2868 57.1075 10.6965 57.3324 11.2147C57.5613 11.7328 57.6758 12.3152 57.6758 12.9619C57.6758 13.6126 57.5613 14.197 57.3324 14.7152C57.1034 15.2333 56.7741 15.645 56.3443 15.9503C55.9145 16.2516 55.3964 16.4022 54.7898 16.4022ZM51.8617 16.2214V7.54544H52.7534V11.3231H52.657V16.2214H51.8617ZM54.6995 15.5768C55.1533 15.5768 55.5309 15.4623 55.8322 15.2333C56.1334 15.0044 56.3583 14.6931 56.507 14.2995C56.6596 13.9018 56.7359 13.456 56.7359 12.9619C56.7359 12.4719 56.6616 12.03 56.513 11.6364C56.3644 11.2428 56.1374 10.9315 55.8322 10.7025C55.5309 10.4736 55.1473 10.3591 54.6814 10.3591C54.2275 10.3591 53.8499 10.4696 53.5487 10.6905C53.2515 10.9114 53.0285 11.2187 52.8799 11.6123C52.7313 12.0019 52.657 12.4518 52.657 12.9619C52.657 13.464 52.7313 13.9139 52.8799 14.3115C53.0285 14.7051 53.2535 15.0144 53.5547 15.2394C53.856 15.4643 54.2375 15.5768 54.6995 15.5768ZM59.609 19.1134L60.8682 15.6973L60.8863 16.7095L58.0365 9.71444H58.9764L61.3141 15.5647H60.9285L63.0854 9.71444H63.9892L60.4947 19.1134H59.609Z" fill="white"/>
<path d="M72.6164 8.33416V9.97735H67.7484V8.33416H72.6164ZM68.8627 16.2214V7.76419C68.8627 7.19249 68.974 6.71837 69.1965 6.34181C69.4224 5.96524 69.7305 5.68282 70.1208 5.49454C70.511 5.30626 70.9543 5.21212 71.4507 5.21212C71.7862 5.21212 72.0926 5.23779 72.3699 5.28914C72.6506 5.34049 72.8594 5.38671 72.9963 5.42779L72.6061 7.07097C72.5205 7.04358 72.4144 7.01791 72.2877 6.99394C72.1645 6.96998 72.0378 6.958 71.9077 6.958C71.5859 6.958 71.3617 7.03331 71.2351 7.18394C71.1084 7.33114 71.0451 7.53825 71.0451 7.80527V16.2214H68.8627ZM75.9194 16.3703C75.4162 16.3703 74.9677 16.2831 74.5741 16.1085C74.1804 15.9305 73.8689 15.6686 73.6395 15.3228C73.4136 14.9736 73.3006 14.5389 73.3006 14.0185C73.3006 13.5804 73.381 13.2124 73.5419 12.9145C73.7028 12.6167 73.9219 12.3771 74.1992 12.1956C74.4765 12.0142 74.7914 11.8773 75.144 11.7848C75.5001 11.6924 75.8732 11.6274 76.2634 11.5897C76.7222 11.5418 77.0919 11.4973 77.3726 11.4562C77.6533 11.4117 77.857 11.3467 77.9837 11.2611C78.1103 11.1755 78.1736 11.0488 78.1736 10.8811V10.8503C78.1736 10.5251 78.0709 10.2735 77.8656 10.0954C77.6636 9.91744 77.376 9.82843 77.0029 9.82843C76.6092 9.82843 76.296 9.91573 76.0632 10.0903C75.8304 10.2615 75.6764 10.4771 75.601 10.7373L73.5779 10.573C73.6806 10.0937 73.8825 9.67952 74.1838 9.33034C74.485 8.97774 74.8736 8.7073 75.3494 8.51902C75.8287 8.32732 76.3833 8.23147 77.0132 8.23147C77.4513 8.23147 77.8707 8.28281 78.2712 8.38551C78.6752 8.48821 79.0329 8.6474 79.3444 8.86306C79.6594 9.07873 79.9075 9.35602 80.089 9.69492C80.2704 10.0304 80.3611 10.4326 80.3611 10.9016V16.2214H78.2866V15.1277H78.225C78.0983 15.3742 77.9289 15.5915 77.7166 15.7798C77.5044 15.9647 77.2494 16.1102 76.9515 16.2163C76.6537 16.319 76.3097 16.3703 75.9194 16.3703ZM76.5459 14.8607C76.8677 14.8607 77.1518 14.7973 77.3983 14.6707C77.6447 14.5406 77.8382 14.366 77.9785 14.1469C78.1189 13.9278 78.1891 13.6796 78.1891 13.4024V12.5654C78.1206 12.6099 78.0264 12.6509 77.9066 12.6886C77.7902 12.7228 77.6584 12.7553 77.5112 12.7862C77.364 12.8135 77.2168 12.8392 77.0696 12.8632C76.9224 12.8837 76.7889 12.9026 76.6691 12.9197C76.4124 12.9573 76.1881 13.0172 75.9964 13.0994C75.8047 13.1815 75.6558 13.2928 75.5497 13.4332C75.4436 13.5701 75.3905 13.7413 75.3905 13.9467C75.3905 14.2445 75.4983 14.4721 75.714 14.6296C75.9331 14.7837 76.2104 14.8607 76.5459 14.8607ZM88.6207 10.5833L86.6181 10.7065C86.5838 10.5353 86.5102 10.3813 86.3973 10.2444C86.2843 10.104 86.1354 9.99275 85.9505 9.91059C85.7691 9.82501 85.5517 9.78222 85.2984 9.78222C84.9595 9.78222 84.6736 9.85411 84.4408 9.99789C84.2081 10.1382 84.0917 10.3265 84.0917 10.5627C84.0917 10.751 84.167 10.9102 84.3176 11.0403C84.4682 11.1704 84.7267 11.2748 85.093 11.3535L86.5205 11.6411C87.2873 11.7985 87.859 12.0519 88.2356 12.401C88.6121 12.7502 88.8004 13.2089 88.8004 13.7772C88.8004 14.2941 88.6481 14.7477 88.3434 15.138C88.0422 15.5282 87.6279 15.8329 87.1007 16.052C86.577 16.2677 85.9728 16.3755 85.2881 16.3755C84.244 16.3755 83.4121 16.1581 82.7925 15.7233C82.1763 15.2852 81.8152 14.6895 81.7091 13.9364L83.8606 13.8234C83.9256 14.1418 84.0831 14.3848 84.333 14.5526C84.5829 14.7169 84.903 14.7991 85.2932 14.7991C85.6767 14.7991 85.9847 14.7255 86.2175 14.5783C86.4537 14.4276 86.5736 14.2342 86.577 13.998C86.5736 13.7995 86.4897 13.6368 86.3254 13.5102C86.161 13.3801 85.9077 13.2808 85.5654 13.2124L84.1995 12.9402C83.4293 12.7862 82.8559 12.5191 82.4793 12.1392C82.1062 11.7592 81.9196 11.2748 81.9196 10.686C81.9196 10.1793 82.0565 9.74285 82.3304 9.37656C82.6077 9.01027 82.9962 8.72784 83.496 8.52929C83.9992 8.33074 84.588 8.23147 85.2624 8.23147C86.2586 8.23147 87.0425 8.442 87.6142 8.86306C88.1894 9.28413 88.5248 9.85753 88.6207 10.5833ZM94.3731 8.33416V9.97735H89.6233V8.33416H94.3731ZM90.7016 6.44451H92.8891V13.7977C92.8891 13.9997 92.9199 14.1572 92.9815 14.2702C93.0432 14.3797 93.1287 14.4567 93.2383 14.5012C93.3513 14.5457 93.4813 14.568 93.6285 14.568C93.7312 14.568 93.8339 14.5594 93.9366 14.5423C94.0393 14.5218 94.1181 14.5064 94.1728 14.4961L94.5169 16.1239C94.4073 16.1581 94.2533 16.1975 94.0547 16.242C93.8562 16.2899 93.6148 16.319 93.3307 16.3293C92.8035 16.3498 92.3414 16.2796 91.9443 16.1187C91.5506 15.9578 91.2442 15.7079 91.0251 15.369C90.806 15.0301 90.6982 14.6022 90.7016 14.0853V6.44451ZM97.9855 11.6616V16.2214H95.7981V8.33416H97.8828V9.72573H97.9753C98.1499 9.26701 98.4425 8.90414 98.8533 8.63713C99.2641 8.36669 99.7622 8.23147 100.348 8.23147C100.895 8.23147 101.373 8.35128 101.78 8.59091C102.188 8.83054 102.504 9.17287 102.73 9.6179C102.956 10.0595 103.069 10.5867 103.069 11.1995V16.2214H100.882V11.5897C100.885 11.107 100.762 10.7305 100.512 10.46C100.262 10.1862 99.918 10.0492 99.4798 10.0492C99.1854 10.0492 98.9252 10.1126 98.6993 10.2392C98.4768 10.3659 98.3022 10.5507 98.1755 10.7938C98.0523 11.0334 97.989 11.3227 97.9855 11.6616Z" fill="#EF8435"/>
</svg>
