<svg width="162" height="33" viewBox="0 0 162 33" fill="none" xmlns="http://www.w3.org/2000/svg">
<path d="M9.53536 24.7052V7.89381H20.6663V10.8243H13.0897V14.8302H19.9276V17.7607H13.0897V24.7052H9.53536ZM22.9914 24.7052V12.0967H26.4883V24.7052H22.9914ZM24.7481 10.4713C24.2282 10.4713 23.7822 10.299 23.4101 9.95419C23.0434 9.60396 22.8601 9.18531 22.8601 8.69827C22.8601 8.21669 23.0434 7.80352 23.4101 7.45876C23.7822 7.10852 24.2282 6.9334 24.7481 6.9334C25.268 6.9334 25.7113 7.10852 26.0779 7.45876C26.45 7.80352 26.6361 8.21669 26.6361 8.69827C26.6361 9.18531 26.45 9.60396 26.0779 9.95419C25.7113 10.299 25.268 10.4713 24.7481 10.4713ZM36.0699 12.0967V14.7234H28.2881V12.0967H36.0699ZM30.0694 24.7052V11.1855C30.0694 10.2716 30.2472 9.51366 30.603 8.91169C30.9641 8.30972 31.4567 7.85824 32.0805 7.55726C32.7044 7.25627 33.4131 7.10578 34.2066 7.10578C34.7429 7.10578 35.2326 7.14682 35.6759 7.22891C36.1247 7.311 36.4585 7.38488 36.6774 7.45055L36.0535 10.0773C35.9167 10.0335 35.7471 9.9925 35.5446 9.95419C35.3476 9.91589 35.1451 9.89673 34.9371 9.89673C34.4227 9.89673 34.0643 10.0171 33.8618 10.2579C33.6593 10.4932 33.5581 10.8243 33.5581 11.2512V24.7052H30.0694ZM44.9127 12.0967V14.7234H37.3197V12.0967H44.9127ZM39.0435 9.07587H42.5404V20.8307C42.5404 21.1536 42.5897 21.4053 42.6882 21.5859C42.7867 21.761 42.9235 21.8841 43.0986 21.9553C43.2792 22.0264 43.4872 22.062 43.7225 22.062C43.8867 22.062 44.0508 22.0483 44.215 22.021C44.3792 21.9881 44.505 21.9635 44.5926 21.9471L45.1426 24.5492C44.9675 24.604 44.7212 24.6669 44.4038 24.738C44.0864 24.8146 43.7006 24.8612 43.2464 24.8776C42.4036 24.9104 41.6648 24.7982 41.03 24.541C40.4007 24.2838 39.9109 23.8843 39.5607 23.3426C39.2104 22.8008 39.0381 22.1167 39.0435 21.2904V9.07587ZM50.9584 17.4159V24.7052H47.4615V7.89381H50.8599V14.3212H51.0077C51.2923 13.577 51.7519 12.9941 52.3867 12.5728C53.0216 12.1459 53.8178 11.9325 54.7755 11.9325C55.6511 11.9325 56.4145 12.124 57.0657 12.5071C57.7224 12.8847 58.2313 13.4292 58.5925 14.1406C58.9592 14.8466 59.1398 15.6921 59.1343 16.6771V24.7052H55.6374V17.301C55.6429 16.5239 55.4458 15.9192 55.0464 15.4868C54.6523 15.0545 54.0996 14.8384 53.3882 14.8384C52.9121 14.8384 52.4907 14.9396 52.1241 15.1421C51.7629 15.3446 51.4783 15.6401 51.2704 16.0286C51.0679 16.4117 50.9639 16.8741 50.9584 17.4159Z" fill="#EF8435"/>
<path d="M60.2507 10.8243V7.89381H74.0577V10.8243H68.9108V24.7052H65.3975V10.8243H60.2507ZM74.9565 24.7052V12.0967H78.3467V14.2966H78.4781C78.7079 13.514 79.0937 12.923 79.6355 12.5235C80.1772 12.1186 80.8011 11.9161 81.5071 11.9161C81.6822 11.9161 81.871 11.927 82.0735 11.9489C82.2759 11.9708 82.4538 12.0009 82.607 12.0392V15.1421C82.4428 15.0928 82.2157 15.0491 81.9257 15.0107C81.6357 14.9724 81.3702 14.9533 81.1295 14.9533C80.615 14.9533 80.1554 15.0655 79.7504 15.2898C79.3509 15.5087 79.0335 15.8152 78.7982 16.2092C78.5683 16.6032 78.4534 17.0574 78.4534 17.5719V24.7052H74.9565ZM86.9576 29.4334C86.5144 29.4334 86.0984 29.3978 85.7099 29.3267C85.3268 29.261 85.0094 29.1762 84.7577 29.0722L85.5457 26.4619C85.9562 26.5877 86.3256 26.6561 86.6539 26.6671C86.9877 26.678 87.275 26.6014 87.5158 26.4372C87.7621 26.2731 87.9618 25.994 88.115 25.5999L88.3203 25.0664L83.7973 12.0967H87.4748L90.0851 21.3561H90.2165L92.8515 12.0967H96.5536L91.653 26.0678C91.4177 26.7464 91.0975 27.3375 90.6926 27.8409C90.2931 28.3499 89.7869 28.7411 89.174 29.0148C88.561 29.2939 87.8223 29.4334 86.9576 29.4334Z" fill="#333333"/>
<path d="M109.848 16.5512L108.398 16.9617C108.306 16.72 108.172 16.4851 107.994 16.2571C107.821 16.0245 107.584 15.833 107.283 15.6825C106.982 15.532 106.596 15.4567 106.127 15.4567C105.484 15.4567 104.948 15.605 104.519 15.9014C104.095 16.1932 103.883 16.5649 103.883 17.0164C103.883 17.4177 104.029 17.7347 104.321 17.9672C104.613 18.1998 105.069 18.3936 105.689 18.5487L107.248 18.9318C108.188 19.1598 108.888 19.5086 109.348 19.9784C109.809 20.4435 110.039 21.0432 110.039 21.7774C110.039 22.3794 109.866 22.9175 109.519 23.3918C109.177 23.8661 108.699 24.24 108.083 24.5137C107.467 24.7873 106.751 24.9241 105.935 24.9241C104.863 24.9241 103.976 24.6915 103.274 24.2264C102.572 23.7612 102.127 23.0817 101.94 22.1879L103.472 21.8048C103.618 22.3703 103.894 22.7944 104.3 23.0771C104.711 23.3599 105.246 23.5013 105.908 23.5013C106.66 23.5013 107.258 23.3416 107.7 23.0224C108.147 22.6986 108.37 22.311 108.37 21.8595C108.37 21.4947 108.243 21.1891 107.987 20.9429C107.732 20.6921 107.34 20.5051 106.811 20.382L105.059 19.9715C104.097 19.7435 103.39 19.3901 102.939 18.9112C102.492 18.4278 102.268 17.8236 102.268 17.0985C102.268 16.5056 102.435 15.9812 102.768 15.5252C103.105 15.0691 103.564 14.7111 104.143 14.4512C104.727 14.1912 105.388 14.0613 106.127 14.0613C107.166 14.0613 107.983 14.2893 108.575 14.7453C109.173 15.2014 109.597 15.8033 109.848 16.5512ZM114.084 10.6957V24.7052H112.469V10.6957H114.084ZM117.041 24.7052V14.1981H118.655V24.7052H117.041ZM117.862 12.4469C117.547 12.4469 117.276 12.3397 117.048 12.1254C116.824 11.9111 116.712 11.6534 116.712 11.3524C116.712 11.0514 116.824 10.7938 117.048 10.5794C117.276 10.3651 117.547 10.2579 117.862 10.2579C118.176 10.2579 118.445 10.3651 118.669 10.5794C118.897 10.7938 119.011 11.0514 119.011 11.3524C119.011 11.6534 118.897 11.9111 118.669 12.1254C118.445 12.3397 118.176 12.4469 117.862 12.4469ZM125.579 24.9241C124.704 24.9241 123.931 24.7029 123.26 24.2606C122.59 23.8136 122.066 23.1843 121.687 22.3726C121.309 21.5563 121.119 20.5917 121.119 19.479C121.119 18.3754 121.309 17.4177 121.687 16.606C122.066 15.7942 122.592 15.1672 123.267 14.7248C123.942 14.2825 124.722 14.0613 125.607 14.0613C126.291 14.0613 126.831 14.1753 127.228 14.4033C127.629 14.6268 127.935 14.8821 128.145 15.1694C128.359 15.4522 128.525 15.6848 128.644 15.8672H128.781V10.6957H130.395V24.7052H128.836V23.0908H128.644C128.525 23.2824 128.357 23.5241 128.138 23.8159C127.919 24.1032 127.607 24.3609 127.201 24.5889C126.795 24.8124 126.254 24.9241 125.579 24.9241ZM125.798 23.4739C126.446 23.4739 126.993 23.3052 127.44 22.9677C127.887 22.6257 128.227 22.1537 128.459 21.5517C128.692 20.9452 128.808 20.2451 128.808 19.4516C128.808 18.6673 128.694 17.9809 128.466 17.3926C128.238 16.7998 127.901 16.3392 127.454 16.0108C127.007 15.6779 126.455 15.5115 125.798 15.5115C125.114 15.5115 124.544 15.687 124.088 16.0382C123.637 16.3848 123.297 16.8568 123.069 17.4542C122.845 18.047 122.734 18.7129 122.734 19.4516C122.734 20.1995 122.848 20.879 123.076 21.4901C123.308 22.0967 123.65 22.5801 124.102 22.9403C124.558 23.296 125.123 23.4739 125.798 23.4739ZM137.981 24.9241C136.969 24.9241 136.096 24.7006 135.361 24.2537C134.632 23.8022 134.069 23.1729 133.672 22.3657C133.28 21.554 133.084 20.61 133.084 19.5337C133.084 18.4575 133.28 17.5089 133.672 16.6881C134.069 15.8626 134.62 15.2196 135.327 14.759C136.039 14.2939 136.869 14.0613 137.817 14.0613C138.364 14.0613 138.905 14.1525 139.438 14.3349C139.972 14.5173 140.458 14.8137 140.895 15.2242C141.333 15.63 141.682 16.1682 141.942 16.8385C142.202 17.5089 142.332 18.3343 142.332 19.3148V19.9989H134.233V18.6034H140.69C140.69 18.0106 140.572 17.4816 140.335 17.0164C140.102 16.5512 139.769 16.1841 139.336 15.9151C138.907 15.646 138.401 15.5115 137.817 15.5115C137.174 15.5115 136.618 15.6711 136.148 15.9903C135.683 16.305 135.325 16.7154 135.074 17.2216C134.823 17.7278 134.698 18.2705 134.698 18.8497V19.78C134.698 20.5735 134.835 21.2462 135.108 21.798C135.387 22.3452 135.772 22.7625 136.264 23.0498C136.757 23.3325 137.329 23.4739 137.981 23.4739C138.406 23.4739 138.789 23.4146 139.131 23.296C139.477 23.1729 139.776 22.9905 140.027 22.7488C140.278 22.5025 140.471 22.197 140.608 21.8322L142.168 22.27C142.004 22.799 141.728 23.2641 141.34 23.6654C140.952 24.0622 140.474 24.3723 139.904 24.5958C139.334 24.8146 138.693 24.9241 137.981 24.9241ZM152.23 16.5512L150.78 16.9617C150.689 16.72 150.554 16.4851 150.377 16.2571C150.203 16.0245 149.966 15.833 149.665 15.6825C149.364 15.532 148.979 15.4567 148.509 15.4567C147.866 15.4567 147.33 15.605 146.902 15.9014C146.477 16.1932 146.265 16.5649 146.265 17.0164C146.265 17.4177 146.411 17.7347 146.703 17.9672C146.995 18.1998 147.451 18.3936 148.071 18.5487L149.631 18.9318C150.57 19.1598 151.27 19.5086 151.731 19.9784C152.192 20.4435 152.422 21.0432 152.422 21.7774C152.422 22.3794 152.249 22.9175 151.902 23.3918C151.56 23.8661 151.081 24.24 150.465 24.5137C149.85 24.7873 149.134 24.9241 148.318 24.9241C147.246 24.9241 146.359 24.6915 145.657 24.2264C144.954 23.7612 144.51 23.0817 144.323 22.1879L145.855 21.8048C146.001 22.3703 146.277 22.7944 146.683 23.0771C147.093 23.3599 147.629 23.5013 148.29 23.5013C149.043 23.5013 149.64 23.3416 150.082 23.0224C150.529 22.6986 150.753 22.311 150.753 21.8595C150.753 21.4947 150.625 21.1891 150.37 20.9429C150.114 20.6921 149.722 20.5051 149.193 20.382L147.442 19.9715C146.48 19.7435 145.773 19.3901 145.321 18.9112C144.874 18.4278 144.651 17.8236 144.651 17.0985C144.651 16.5056 144.817 15.9812 145.15 15.5252C145.488 15.0691 145.946 14.7111 146.525 14.4512C147.109 14.1912 147.77 14.0613 148.509 14.0613C149.549 14.0613 150.365 14.2893 150.958 14.7453C151.555 15.2014 151.979 15.8033 152.23 16.5512Z" fill="#333333"/>
</svg>
