<svg width="162" height="33" viewBox="0 0 162 33" fill="none" xmlns="http://www.w3.org/2000/svg">
<path d="M9.53495 24.7052V7.89381H20.6659V10.8243H13.0893V14.8302H19.9271V17.7607H13.0893V24.7052H9.53495ZM22.991 24.7052V12.0967H26.4879V24.7052H22.991ZM24.7477 10.4713C24.2278 10.4713 23.7818 10.299 23.4097 9.95419C23.043 9.60396 22.8597 9.18531 22.8597 8.69827C22.8597 8.21669 23.043 7.80352 23.4097 7.45876C23.7818 7.10852 24.2278 6.9334 24.7477 6.9334C25.2676 6.9334 25.7108 7.10852 26.0775 7.45876C26.4496 7.80352 26.6357 8.21669 26.6357 8.69827C26.6357 9.18531 26.4496 9.60396 26.0775 9.95419C25.7108 10.299 25.2676 10.4713 24.7477 10.4713ZM36.0695 12.0967V14.7234H28.2877V12.0967H36.0695ZM30.069 24.7052V11.1855C30.069 10.2716 30.2468 9.51366 30.6025 8.91169C30.9637 8.30972 31.4562 7.85824 32.0801 7.55726C32.704 7.25627 33.4126 7.10578 34.2062 7.10578C34.7425 7.10578 35.2322 7.14682 35.6755 7.22891C36.1242 7.311 36.4581 7.38488 36.677 7.45055L36.0531 10.0773C35.9163 10.0335 35.7466 9.9925 35.5442 9.95419C35.3472 9.91589 35.1447 9.89673 34.9367 9.89673C34.4223 9.89673 34.0639 10.0171 33.8614 10.2579C33.6589 10.4932 33.5577 10.8243 33.5577 11.2512V24.7052H30.069ZM44.9123 12.0967V14.7234H37.3193V12.0967H44.9123ZM39.0431 9.07587H42.54V20.8307C42.54 21.1536 42.5893 21.4053 42.6878 21.5859C42.7863 21.761 42.9231 21.8841 43.0982 21.9553C43.2788 22.0264 43.4868 22.062 43.7221 22.062C43.8862 22.062 44.0504 22.0483 44.2146 22.021C44.3788 21.9881 44.5046 21.9635 44.5922 21.9471L45.1422 24.5492C44.9671 24.604 44.7208 24.6669 44.4034 24.738C44.086 24.8146 43.7002 24.8612 43.246 24.8776C42.4032 24.9104 41.6644 24.7982 41.0296 24.541C40.4003 24.2838 39.9105 23.8843 39.5603 23.3426C39.21 22.8008 39.0376 22.1167 39.0431 21.2904V9.07587ZM50.958 17.4159V24.7052H47.4611V7.89381H50.8595V14.3212H51.0073C51.2918 13.577 51.7515 12.9941 52.3863 12.5728C53.0211 12.1459 53.8174 11.9325 54.7751 11.9325C55.6507 11.9325 56.4141 12.124 57.0653 12.5071C57.722 12.8847 58.2309 13.4292 58.5921 14.1406C58.9588 14.8466 59.1393 15.6921 59.1339 16.6771V24.7052H55.637V17.301C55.6424 16.5239 55.4454 15.9192 55.0459 15.4868C54.6519 15.0545 54.0992 14.8384 53.3878 14.8384C52.9117 14.8384 52.4903 14.9396 52.1237 15.1421C51.7625 15.3446 51.4779 15.6401 51.27 16.0286C51.0675 16.4117 50.9635 16.8741 50.958 17.4159Z" fill="#EF8435"/>
<path d="M60.2503 10.8243V7.89381H74.0573V10.8243H68.9104V24.7052H65.3971V10.8243H60.2503ZM74.9561 24.7052V12.0967H78.3463V14.2966H78.4776C78.7075 13.514 79.0933 12.923 79.6351 12.5235C80.1768 12.1186 80.8007 11.9161 81.5066 11.9161C81.6818 11.9161 81.8706 11.927 82.073 11.9489C82.2755 11.9708 82.4534 12.0009 82.6066 12.0392V15.1421C82.4424 15.0928 82.2153 15.0491 81.9253 15.0107C81.6352 14.9724 81.3698 14.9533 81.129 14.9533C80.6146 14.9533 80.1549 15.0655 79.75 15.2898C79.3505 15.5087 79.0331 15.8152 78.7978 16.2092C78.5679 16.6032 78.453 17.0574 78.453 17.5719V24.7052H74.9561ZM86.9572 29.4334C86.5139 29.4334 86.098 29.3978 85.7095 29.3267C85.3264 29.261 85.009 29.1762 84.7573 29.0722L85.5453 26.4619C85.9557 26.5877 86.3251 26.6561 86.6535 26.6671C86.9873 26.678 87.2746 26.6014 87.5154 26.4372C87.7617 26.2731 87.9614 25.994 88.1146 25.5999L88.3198 25.0664L83.7969 12.0967H87.4744L90.0847 21.3561H90.2161L92.851 12.0967H96.5532L91.6526 26.0678C91.4173 26.7464 91.0971 27.3375 90.6922 27.8409C90.2927 28.3499 89.7865 28.7411 89.1736 29.0148C88.5606 29.2939 87.8219 29.4334 86.9572 29.4334Z" fill="white"/>
<path d="M109.846 16.5512L108.396 16.9617C108.305 16.72 108.17 16.4851 107.993 16.2571C107.819 16.0245 107.582 15.833 107.281 15.6825C106.98 15.532 106.595 15.4567 106.125 15.4567C105.482 15.4567 104.946 15.605 104.518 15.9014C104.093 16.1932 103.881 16.5649 103.881 17.0164C103.881 17.4177 104.027 17.7347 104.319 17.9672C104.611 18.1998 105.067 18.3936 105.687 18.5487L107.247 18.9318C108.186 19.1598 108.886 19.5086 109.347 19.9784C109.808 20.4435 110.038 21.0432 110.038 21.7774C110.038 22.3794 109.865 22.9175 109.518 23.3918C109.176 23.8661 108.697 24.24 108.082 24.5137C107.466 24.7873 106.75 24.9241 105.934 24.9241C104.862 24.9241 103.975 24.6915 103.273 24.2264C102.57 23.7612 102.126 23.0817 101.939 22.1879L103.471 21.8048C103.617 22.3703 103.893 22.7944 104.299 23.0771C104.709 23.3599 105.245 23.5013 105.906 23.5013C106.659 23.5013 107.256 23.3416 107.698 23.0224C108.145 22.6986 108.369 22.311 108.369 21.8595C108.369 21.4947 108.241 21.1891 107.986 20.9429C107.73 20.6921 107.338 20.5051 106.809 20.382L105.058 19.9715C104.096 19.7435 103.389 19.3901 102.937 18.9112C102.49 18.4278 102.267 17.8236 102.267 17.0985C102.267 16.5056 102.433 15.9812 102.766 15.5252C103.104 15.0691 103.562 14.7111 104.141 14.4512C104.725 14.1912 105.386 14.0613 106.125 14.0613C107.165 14.0613 107.981 14.2893 108.574 14.7453C109.171 15.2014 109.596 15.8033 109.846 16.5512ZM114.082 10.6957V24.7052H112.468V10.6957H114.082ZM117.039 24.7052V14.1981H118.654V24.7052H117.039ZM117.86 12.4469C117.545 12.4469 117.274 12.3397 117.046 12.1254C116.823 11.9111 116.711 11.6534 116.711 11.3524C116.711 11.0514 116.823 10.7938 117.046 10.5794C117.274 10.3651 117.545 10.2579 117.86 10.2579C118.175 10.2579 118.444 10.3651 118.667 10.5794C118.895 10.7938 119.009 11.0514 119.009 11.3524C119.009 11.6534 118.895 11.9111 118.667 12.1254C118.444 12.3397 118.175 12.4469 117.86 12.4469ZM125.578 24.9241C124.702 24.9241 123.929 24.7029 123.259 24.2606C122.589 23.8136 122.064 23.1843 121.686 22.3726C121.307 21.5563 121.118 20.5917 121.118 19.479C121.118 18.3754 121.307 17.4177 121.686 16.606C122.064 15.7942 122.591 15.1672 123.266 14.7248C123.941 14.2825 124.721 14.0613 125.605 14.0613C126.289 14.0613 126.83 14.1753 127.227 14.4033C127.628 14.6268 127.933 14.8821 128.143 15.1694C128.358 15.4522 128.524 15.6848 128.643 15.8672H128.779V10.6957H130.394V24.7052H128.834V23.0908H128.643C128.524 23.2824 128.355 23.5241 128.136 23.8159C127.917 24.1032 127.605 24.3609 127.199 24.5889C126.793 24.8124 126.253 24.9241 125.578 24.9241ZM125.797 23.4739C126.444 23.4739 126.992 23.3052 127.439 22.9677C127.886 22.6257 128.225 22.1537 128.458 21.5517C128.69 20.9452 128.807 20.2451 128.807 19.4516C128.807 18.6673 128.693 17.9809 128.465 17.3926C128.237 16.7998 127.899 16.3392 127.452 16.0108C127.005 15.6779 126.454 15.5115 125.797 15.5115C125.113 15.5115 124.543 15.687 124.087 16.0382C123.635 16.3848 123.296 16.8568 123.067 17.4542C122.844 18.047 122.732 18.7129 122.732 19.4516C122.732 20.1995 122.846 20.879 123.074 21.4901C123.307 22.0967 123.649 22.5801 124.1 22.9403C124.556 23.296 125.122 23.4739 125.797 23.4739ZM137.98 24.9241C136.968 24.9241 136.094 24.7006 135.36 24.2537C134.63 23.8022 134.067 23.1729 133.67 22.3657C133.278 21.554 133.082 20.61 133.082 19.5337C133.082 18.4575 133.278 17.5089 133.67 16.6881C134.067 15.8626 134.619 15.2196 135.326 14.759C136.037 14.2939 136.867 14.0613 137.816 14.0613C138.363 14.0613 138.903 14.1525 139.437 14.3349C139.971 14.5173 140.456 14.8137 140.894 15.2242C141.332 15.63 141.681 16.1682 141.941 16.8385C142.201 17.5089 142.331 18.3343 142.331 19.3148V19.9989H134.231V18.6034H140.689C140.689 18.0106 140.57 17.4816 140.333 17.0164C140.101 16.5512 139.768 16.1841 139.334 15.9151C138.906 15.646 138.399 15.5115 137.816 15.5115C137.173 15.5115 136.616 15.6711 136.147 15.9903C135.682 16.305 135.324 16.7154 135.073 17.2216C134.822 17.7278 134.696 18.2705 134.696 18.8497V19.78C134.696 20.5735 134.833 21.2462 135.107 21.798C135.385 22.3452 135.77 22.7625 136.263 23.0498C136.755 23.3325 137.328 23.4739 137.98 23.4739C138.404 23.4739 138.787 23.4146 139.129 23.296C139.476 23.1729 139.774 22.9905 140.025 22.7488C140.276 22.5025 140.47 22.197 140.607 21.8322L142.166 22.27C142.002 22.799 141.726 23.2641 141.339 23.6654C140.951 24.0622 140.472 24.3723 139.902 24.5958C139.332 24.8146 138.691 24.9241 137.98 24.9241ZM152.229 16.5512L150.779 16.9617C150.687 16.72 150.553 16.4851 150.375 16.2571C150.202 16.0245 149.965 15.833 149.664 15.6825C149.363 15.532 148.977 15.4567 148.508 15.4567C147.865 15.4567 147.329 15.605 146.9 15.9014C146.476 16.1932 146.264 16.5649 146.264 17.0164C146.264 17.4177 146.41 17.7347 146.702 17.9672C146.994 18.1998 147.45 18.3936 148.07 18.5487L149.629 18.9318C150.569 19.1598 151.269 19.5086 151.729 19.9784C152.19 20.4435 152.42 21.0432 152.42 21.7774C152.42 22.3794 152.247 22.9175 151.9 23.3918C151.558 23.8661 151.08 24.24 150.464 24.5137C149.848 24.7873 149.132 24.9241 148.316 24.9241C147.244 24.9241 146.357 24.6915 145.655 24.2264C144.953 23.7612 144.508 23.0817 144.321 22.1879L145.853 21.8048C145.999 22.3703 146.275 22.7944 146.681 23.0771C147.092 23.3599 147.627 23.5013 148.289 23.5013C149.041 23.5013 149.639 23.3416 150.081 23.0224C150.528 22.6986 150.751 22.311 150.751 21.8595C150.751 21.4947 150.624 21.1891 150.368 20.9429C150.113 20.6921 149.721 20.5051 149.192 20.382L147.44 19.9715C146.478 19.7435 145.771 19.3901 145.32 18.9112C144.873 18.4278 144.649 17.8236 144.649 17.0985C144.649 16.5056 144.816 15.9812 145.149 15.5252C145.486 15.0691 145.945 14.7111 146.524 14.4512C147.108 14.1912 147.769 14.0613 148.508 14.0613C149.547 14.0613 150.364 14.2893 150.956 14.7453C151.554 15.2014 151.978 15.8033 152.229 16.5512Z" fill="white"/>
</svg>
