<svg width="17" height="17" viewBox="0 0 17 17" fill="none" xmlns="http://www.w3.org/2000/svg">
<path d="M14.4094 7.98379L5.41088 2.4845C5.33508 2.43818 5.24832 2.41288 5.15951 2.41122C5.0707 2.40956 4.98305 2.43158 4.90557 2.47503C4.8281 2.51848 4.7636 2.58179 4.7187 2.65843C4.67381 2.73508 4.65015 2.82231 4.65015 2.91113V13.9097C4.65015 13.9985 4.67381 14.0858 4.7187 14.1624C4.7636 14.2391 4.8281 14.3024 4.90557 14.3458C4.98305 14.3893 5.0707 14.4113 5.15951 14.4096C5.24832 14.408 5.33508 14.3827 5.41088 14.3363L14.4094 8.83706C14.4825 8.79239 14.5429 8.7297 14.5848 8.655C14.6267 8.58029 14.6487 8.49607 14.6487 8.41042C14.6487 8.32477 14.6267 8.24055 14.5848 8.16585C14.5429 8.09114 14.4825 8.02845 14.4094 7.98379Z" stroke="#111111" stroke-linecap="round" stroke-linejoin="round"/>
</svg>
