<svg width="32" height="33" viewBox="0 0 32 33" fill="none" xmlns="http://www.w3.org/2000/svg">
<rect y="0.410645" width="32" height="32" rx="8" fill="#2B2B2B"/>
<path d="M16.0001 20.2661C18.1293 20.2661 19.8554 18.5401 19.8554 16.4109C19.8554 14.2817 18.1293 12.5557 16.0001 12.5557C13.871 12.5557 12.1449 14.2817 12.1449 16.4109C12.1449 18.5401 13.871 20.2661 16.0001 20.2661Z" stroke="#D9D9D9" stroke-width="1.28508" stroke-linecap="round" stroke-linejoin="round"/>
<path d="M15.5883 9.67637L14.0727 8.54005C13.9914 8.47888 13.8967 8.4379 13.7965 8.42051C13.6962 8.40312 13.5932 8.4098 13.4961 8.44C13.0267 8.58699 12.5713 8.7754 12.1353 9.00301C12.045 9.05036 11.9673 9.11849 11.9086 9.20178C11.8498 9.28507 11.8118 9.38114 11.7975 9.48206L11.5295 11.3575C11.4274 11.4481 11.3274 11.5422 11.2296 11.64C11.1318 11.7378 11.0376 11.8378 10.9471 11.94L10.947 11.94L9.07187 12.2082C8.97112 12.2224 8.87519 12.2604 8.792 12.319C8.70881 12.3776 8.64073 12.4551 8.59338 12.5452C8.36541 12.981 8.17663 13.4363 8.02927 13.9055C7.99893 14.0028 7.99215 14.1059 8.00952 14.2064C8.02688 14.3068 8.06788 14.4017 8.12913 14.4831L9.26585 15.9987C9.25765 16.135 9.25353 16.2722 9.25349 16.4106C9.25349 16.5489 9.25761 16.6862 9.26586 16.8225L9.26585 16.8225L8.12952 18.3381C8.06835 18.4194 8.02738 18.5141 8.00999 18.6143C7.99259 18.7146 7.99927 18.8176 8.02948 18.9147C8.17646 19.3841 8.36488 19.8395 8.59249 20.2755C8.63984 20.3658 8.70797 20.4435 8.79126 20.5022C8.87456 20.5609 8.97063 20.599 9.07154 20.6133L10.947 20.8812C11.0376 20.9834 11.1317 21.0833 11.2295 21.1812C11.3273 21.279 11.4273 21.3732 11.5295 21.4637L11.5295 21.4638L11.7977 23.3389C11.8119 23.4397 11.8499 23.5356 11.9085 23.6188C11.9671 23.702 12.0446 23.77 12.1347 23.8174C12.5705 24.0454 13.0258 24.2341 13.495 24.3815C13.5923 24.4118 13.6955 24.4186 13.7959 24.4013C13.8963 24.3839 13.9912 24.3429 14.0727 24.2816L15.5883 23.1449C15.7245 23.1531 15.8618 23.1572 16.0001 23.1573C16.1384 23.1573 16.2757 23.1532 16.412 23.1449L16.4121 23.1449L17.9276 24.2812C18.0089 24.3424 18.1036 24.3834 18.2039 24.4008C18.3041 24.4182 18.4071 24.4115 18.5043 24.3813C18.9736 24.2343 19.429 24.0459 19.8651 23.8183C19.9553 23.7709 20.033 23.7028 20.0918 23.6195C20.1505 23.5362 20.1886 23.4401 20.2029 23.3392L20.4708 21.4638C20.5729 21.3732 20.6729 21.2791 20.7707 21.1813C20.8686 21.0835 20.9627 20.9835 21.0533 20.8813L21.0533 20.8812L22.9285 20.6131C23.0292 20.5988 23.1252 20.5609 23.2083 20.5023C23.2915 20.4437 23.3596 20.3662 23.407 20.2761C23.6349 19.8403 23.8237 19.385 23.9711 18.9158C24.0014 18.8185 24.0082 18.7153 23.9908 18.6149C23.9735 18.5145 23.9325 18.4196 23.8712 18.3381L22.7345 16.8225C22.7427 16.6863 22.7468 16.549 22.7469 16.4107C22.7469 16.2724 22.7427 16.1351 22.7345 15.9988L22.7345 15.9988L23.8708 14.4832C23.932 14.4019 23.973 14.3072 23.9904 14.2069C24.0078 14.1067 24.0011 14.0037 23.9709 13.9066C23.8239 13.4372 23.6355 12.9818 23.4079 12.5458C23.3605 12.4555 23.2924 12.3778 23.2091 12.3191C23.1258 12.2603 23.0297 12.2223 22.9288 12.208L21.0533 11.94C20.9628 11.8379 20.8686 11.7379 20.7709 11.6401C20.6731 11.5423 20.573 11.4481 20.4708 11.3576L20.4708 11.3575L20.2027 9.48239C20.1884 9.38164 20.1504 9.28571 20.0918 9.20252C20.0332 9.11933 19.9557 9.05125 19.8656 9.0039C19.4298 8.77593 18.9746 8.58716 18.5053 8.43979C18.408 8.40945 18.3049 8.40268 18.2045 8.42004C18.104 8.4374 18.0092 8.4784 17.9277 8.53965L16.4121 9.67637C16.2758 9.66816 16.1386 9.66404 16.0003 9.664C15.8619 9.664 15.7246 9.66813 15.5883 9.67637L15.5883 9.67637Z" stroke="#D9D9D9" stroke-width="1.28508" stroke-linecap="round" stroke-linejoin="round"/>
</svg>
