<svg width="25" height="25" viewBox="0 0 25 25" fill="none" xmlns="http://www.w3.org/2000/svg">
<g clip-path="url(#clip0_912_46645)">
<path d="M22.2283 9.78027V7.78027H20.2283V9.78027H18.2283V11.7803H20.2283V13.7803H22.2283V11.7803H24.2283V9.78027H22.2283Z" fill="#D9D9D9"/>
<path d="M8.22827 12.7803C10.4383 12.7803 12.2283 10.9903 12.2283 8.78027C12.2283 6.57027 10.4383 4.78027 8.22827 4.78027C6.01827 4.78027 4.22827 6.57027 4.22827 8.78027C4.22827 10.9903 6.01827 12.7803 8.22827 12.7803ZM8.22827 6.78027C9.32827 6.78027 10.2283 7.68027 10.2283 8.78027C10.2283 9.88027 9.32827 10.7803 8.22827 10.7803C7.12827 10.7803 6.22827 9.88027 6.22827 8.78027C6.22827 7.68027 7.12827 6.78027 8.22827 6.78027Z" fill="#D9D9D9"/>
<path d="M8.22827 13.7803C5.55827 13.7803 0.228271 15.1203 0.228271 17.7803V20.7803H16.2283V17.7803C16.2283 15.1203 10.8983 13.7803 8.22827 13.7803ZM14.2283 18.7803H2.22827V17.7903C2.42827 17.0703 5.52827 15.7803 8.22827 15.7803C10.9283 15.7803 14.0283 17.0703 14.2283 17.7803V18.7803Z" fill="#D9D9D9"/>
<path d="M12.7383 4.83027C13.6583 5.89027 14.2283 7.27027 14.2283 8.78027C14.2283 10.2903 13.6583 11.6703 12.7383 12.7303C14.6983 12.4803 16.2283 10.8203 16.2283 8.78027C16.2283 6.74027 14.6983 5.08027 12.7383 4.83027Z" fill="#D9D9D9"/>
<path d="M16.7583 14.6103C17.6483 15.4403 18.2283 16.4803 18.2283 17.7803V20.7803H20.2283V17.7803C20.2283 16.3303 18.6383 15.2703 16.7583 14.6103Z" fill="#D9D9D9"/>
</g>
<defs>
<clipPath id="clip0_912_46645">
<rect width="24" height="24" fill="white" transform="translate(0.228271 0.780273)"/>
</clipPath>
</defs>
</svg>
